<?xml version="1.0" encoding="UTF-8" standalone="no"?>
<svg
   xmlns:dc="http://purl.org/dc/elements/1.1/"
   xmlns:cc="http://creativecommons.org/ns#"
   xmlns:rdf="http://www.w3.org/1999/02/22-rdf-syntax-ns#"
   xmlns:svg="http://www.w3.org/2000/svg"
   xmlns="http://www.w3.org/2000/svg"
   id="svg882"
   version="1.1"
   viewBox="0 0 186.14793 152.1424"
   height="152.1424mm"
   width="186.14793mm">
  <defs
     id="defs876" />
  <metadata
     id="metadata879">
    <rdf:RDF>
      <cc:Work
         rdf:about="">
        <dc:format>image/svg+xml</dc:format>
        <dc:type
           rdf:resource="http://purl.org/dc/dcmitype/StillImage" />
        <dc:title></dc:title>
      </cc:Work>
    </rdf:RDF>
  </metadata>
  <g
     transform="translate(-10.491511,-75.02999)"
     id="layer1">
    <g
       transform="matrix(1.113598,0,0,1.113598,-6.6337636,-2.2704047)"
       id="g2329"
       style="display:inline">
      <g
         style="overflow:visible"
         id="g1642"
         transform="matrix(0.26458333,0,0,0.26458333,-8.4526501,57.478709)">
        <g
           transform="matrix(1.7341248,0,0,1.7341248,-214.52772,-242.82196)"
           id="g4741">
          <path
             style="clip-rule:evenodd;fill-rule:evenodd"
             id="path3882"
             d="m 342.97,225.84 c 0.719,0.158 -0.229,0.513 0,0.96 -0.194,-0.045 -0.239,-0.241 -0.48,-0.24 0,-0.16 0,-0.32 0,-0.48 0.279,0.039 0.427,-0.053 0.48,-0.24 z" />
          <path
             style="clip-rule:evenodd;fill:#ffffff;fill-rule:evenodd"
             id="path3888"
             d="m 198.97,244.08 c 0.863,1.369 -0.607,1.054 0,0 z" />
          <path
             style="clip-rule:evenodd;fill:#ffffff;fill-opacity:1;fill-rule:evenodd"
             id="path3904"
             d="m 418.57,275.28 c 0.452,-1.068 0.127,-2.912 0.48,-4.08 1.307,-0.133 1.246,-1.634 2.64,-1.68 1.395,2.168 4.772,3.976 5.28,6.72 0.335,1.813 -0.916,2.459 0.24,4.32 -1.013,0.411 -1.703,1.437 -2.641,1.68 -2.671,0.692 -5.532,0.021 -8.16,0 -3.767,-0.031 -7.479,-0.393 -11.76,0.479 0.746,-3.078 -2.495,-4.998 -4.56,-6.72 -0.112,-0.752 0.604,-0.677 0.96,-0.96 0.453,-0.137 0.461,0.317 0.24,0.24 1.139,0.397 2.248,-1.025 4.56,-0.48 2.673,0.631 8.991,0.765 12.721,0.481 z m 2.88,1.92 c -6.616,-0.623 -11.354,0.514 -17.04,-0.24 0.556,1.444 1.366,2.634 2.16,3.84 5.324,-0.108 11.345,-0.202 17.04,-0.24 -0.012,-0.936 1.027,-1.225 1.2,-2.16 0.394,-2.127 -0.947,-3.943 -2.399,-4.8 -0.791,1.145 0.424,2.936 -0.961,3.6 z" />
          <path
             style="clip-rule:evenodd;fill:#ffffff;fill-opacity:1;fill-rule:evenodd"
             id="path3930"
             d="m 435.371,336.24 c -2.438,1.964 -6.253,0.556 -9.12,0.96 -0.521,0.073 -0.332,0.374 -0.721,0.479 -0.639,0.174 -1.897,-0.328 -2.159,0.48 -1.219,-0.462 -3.388,0.027 -3.84,-1.2 0.836,-1.334 2.787,-0.603 4.08,-0.72 0.857,-0.078 1.745,-0.485 2.4,-0.48 0.262,0.002 0.338,0.203 0.24,0.24 3.066,-1.173 6.01,0.064 9.12,0.241 z" />
          <path
             style="clip-rule:evenodd;fill:#ffffff;fill-opacity:1;fill-rule:evenodd"
             id="path3932"
             d="m 424.09,342.96 c -0.288,-2.152 1.855,-1.529 3.12,-1.68 1.991,-0.237 4.395,-1.217 5.76,-0.24 -0.774,-0.003 -0.39,1.183 -1.2,1.68 -0.707,0.435 -1.698,-0.076 -2.88,0 -0.267,0.018 -0.159,0.475 -0.479,0.48 -1.324,0.024 -2.739,-0.503 -4.321,-0.24 z" />
          <path
             style="clip-rule:evenodd;fill:#ffffff;fill-rule:evenodd"
             id="path3962"
             d="m 414.97,428.16 c 0.512,-0.112 0.457,0.343 0.48,0.72 -0.194,-0.046 -0.239,-0.24 -0.48,-0.24 0,-0.16 0,-0.32 0,-0.48 z" />
          <path
             style="clip-rule:evenodd;fill:#ffffff;fill-opacity:1;fill-rule:evenodd"
             id="path3970"
             d="m 342.73,227.28 c 0.393,-0.407 1.004,-0.596 0.96,-1.44 0.715,-0.345 1.462,0.843 1.44,-0.24 1.558,0.246 3.153,0.72 4.8,0.72 1.781,0 3.525,-0.664 5.28,-0.72 1.791,-0.057 3.88,0.207 5.76,0.24 5.809,0.104 15.438,1.148 22.56,0 0.586,0.214 1.041,0.56 1.92,0.48 0.199,-2.686 -0.912,-6.056 -1.2,-8.64 -0.123,-1.102 0.129,-2.409 0,-3.6 -0.269,-2.481 -0.116,-5.17 -0.48,-7.68 -0.618,-4.266 -0.429,-11.459 0.96,-15.84 -0.632,-2.872 0.767,-4.586 1.44,-7.2 0.783,0.063 0.509,-0.931 1.2,-0.96 0.497,-2.521 2.629,-4.329 4.32,-6 1.176,-1.162 2.32,-1.939 3.84,-3.12 0.997,-0.774 1.86,-1.892 2.88,-2.64 0.546,-0.401 1.3,-0.584 1.92,-0.96 1.785,-1.083 3.798,-1.946 6,-2.88 0.295,0.105 0.493,0.307 0.48,0.72 0.346,-0.054 0.084,-0.716 0.48,-0.72 1.781,-0.366 6.588,-1.508 7.92,0 2.064,-1.266 2.068,1.021 4.8,0.72 -0.278,0.355 -0.278,0.605 0,0.96 3.38,0.26 6.498,2.319 9.84,3.36 0.216,0.505 0.373,1.067 0.72,1.44 1.266,0.424 3.104,2.111 4.801,2.88 0.187,0.213 0.258,0.542 0.239,0.96 0.878,-0.158 0.921,0.519 1.681,0.48 -0.026,1.866 1.221,2.459 1.439,4.08 1.958,1.305 1.465,3.736 1.92,6 0.144,0.713 0.606,1.098 0.721,1.68 0.343,1.76 0.464,4.236 0.239,6 -0.071,0.566 -0.613,0.866 -0.72,1.44 -0.311,1.675 0.325,4.793 0.24,6.96 -0.105,2.68 -0.378,6.032 -0.96,8.64 -0.072,0.324 -0.472,0.646 -0.48,0.72 -0.071,0.617 0.306,1.12 0.24,1.68 -0.427,3.645 -1.151,7.413 -1.68,11.28 1.05,0.792 2.463,0.374 3.84,0.48 3.243,0.25 6.6,-0.077 9.84,0 2.042,0.048 4.385,0.757 6.72,0.72 1.97,-0.031 3.859,-0.513 5.761,-0.48 1.031,0.019 2.093,0.438 3.119,0.48 1.258,0.051 2.495,-0.102 3.601,0 1.157,0.107 2.461,0.369 3.6,0.72 2.023,-0.653 2.354,-0.832 4.8,-0.72 6.928,0.316 12.534,1.402 20.4,1.92 0.334,0.546 0.83,0.93 1.2,1.44 -0.235,0.324 -0.641,0.479 -0.96,0.72 0.476,0.724 0.603,1.797 1.439,2.16 2.256,6.938 4.564,13.727 7.2,20.64 0.825,2.163 1.796,4.307 2.64,6.48 1.166,3 1.668,6.567 3.36,9.12 -0.239,1.595 -0.232,3.126 0.48,4.32 6.263,-0.305 9.21,0.426 13.92,2.64 1.168,1.421 2.183,2.736 3.359,4.08 0.927,1.058 2.165,1.642 3.12,2.64 0.27,0.281 0.742,1.408 0.96,1.68 0.322,0.401 0.556,0.175 0.721,0.48 0.477,0.885 0.8,2.276 1.199,3.6 0.358,1.185 1.052,2.631 1.2,3.6 0.818,5.346 -1.139,9.592 -0.479,14.641 -0.106,0.349 -0.211,-0.024 -0.48,0 -0.088,0.408 0.188,0.452 0.48,0.479 -0.737,2.564 -5.476,3.801 -7.92,2.4 -0.929,6.629 -1.176,15.975 -1.921,24.239 -0.139,0.821 -0.803,1.117 -0.72,2.16 -0.116,0.997 0.44,1.32 0.72,1.92 -0.832,3.785 -0.597,6.941 -0.72,11.04 -0.069,2.309 -0.822,3.826 0,6.721 h -1.2 c -0.028,0.691 0.132,1.57 -0.239,1.92 -1.377,0.109 -1.822,-0.343 -2.88,0 1.635,12.203 1.416,24.568 0.479,35.76 -0.226,2.694 -1.001,4.35 -2.399,6.24 -0.065,1.764 0.554,2.326 -0.24,3.359 0.085,0.376 0.422,-0.21 0.479,0.24 -0.056,8.885 -0.039,18.859 1.2,31.44 0.16,1.624 0.289,5.054 -2.16,4.56 -0.293,-1.094 0.658,-0.941 0.48,-1.92 -2.822,0.582 -5.875,1.232 -8.88,0.96 -1.536,-2.862 -0.271,-5.993 -0.721,-8.64 -0.353,-2.084 -0.634,-4.752 -0.479,-7.2 0.043,-0.686 0.457,-1.431 0.479,-2.16 0.01,-0.309 -0.505,-0.904 -0.479,-1.2 0.026,-0.31 0.504,-0.384 0.479,-0.72 -0.026,-0.375 -0.424,-0.848 -0.479,-1.2 -0.155,-0.976 0.081,-2.086 0,-3.12 -0.181,-2.309 -0.607,-4.664 -1.44,-7.2 0.072,-0.647 1.01,-0.43 1.2,-0.96 -0.111,-1.647 -0.36,-3.159 -0.24,-5.04 h -1.199 c -0.559,1.272 -1.595,4.335 -1.44,6.24 -0.779,-0.091 -2.235,0.511 -3.12,0.24 -0.735,6.62 0.182,14.734 -0.96,19.2 -3.575,-0.805 -7.824,0.366 -9.84,-1.92 1.134,-4.142 -0.897,-11.167 0.479,-16.08 -0.846,-0.922 -1.93,-0.22 -2.88,-0.24 -4.33,-0.092 -8.52,-0.54 -14.16,0.24 -1.601,0.221 -3.081,0.949 -5.04,0.72 -0.712,-0.083 -1.442,-0.696 -2.159,-0.72 -0.417,-0.015 -0.527,0.329 -0.96,0.24 -0.397,-0.083 -0.674,-0.579 -1.2,-0.721 -0.712,-0.191 -1.647,0.158 -1.92,-0.72 -1.123,0.094 -0.798,0.146 -1.92,0.24 -0.665,-2.338 -1.831,-4.761 -1.681,-7.2 -8.005,0.899 -15.252,0.796 -23.52,0.72 -1.828,2.844 -1.704,7.918 -2.641,11.76 -0.414,1.702 -1.153,3.208 -1.439,4.801 -0.085,0.471 0.249,0.921 0.24,0.96 -0.195,0.833 -0.971,1.757 -1.2,2.88 -0.352,1.715 -0.083,3.629 -0.96,4.8 0.01,1.371 0.691,1.404 0,2.4 3.56,7.968 -0.44,14.894 -3.12,21.6 -0.074,0.874 0.038,1.562 0.24,2.16 -0.502,0.102 -0.636,-0.165 -0.96,-0.24 -0.719,2.082 -1.789,3.811 -2.641,5.76 -1.617,0.324 -1.3,1.907 -3.359,2.16 -2.705,1.697 -5.49,4.4 -9.36,2.16 -0.907,-0.525 -2.95,-0.934 -4.08,-1.68 -2.29,-1.513 -3.22,-4.985 -3.84,-8.88 -0.067,-0.422 0.091,-1.271 0,-1.681 -0.238,-1.075 -0.5,-2.245 -0.24,-4.08 0.226,-1.593 0.445,-3.365 0.72,-4.8 0.155,-0.806 0.419,-1.485 0.72,-2.88 0.845,-3.926 2.493,-7.63 4.08,-10.08 0.744,-0.081 1.147,0.556 1.68,0 -0.204,-0.517 -0.591,-0.849 -1.44,-0.72 -0.836,-0.116 -0.269,1.171 -0.96,1.2 -0.768,-0.558 -0.868,-1.854 0.24,-2.16 -0.234,-0.246 -0.474,-0.485 -0.72,-0.721 0.117,-4.01 -1.132,-7.462 -1.2,-11.76 -1.007,0.954 -0.034,-1.303 0,-1.68 -0.059,-0.302 -0.477,-0.242 -0.48,0 -0.064,-0.257 -0.828,-3.683 0,-3.36 0.068,-0.429 -0.227,-0.492 -0.24,-0.239 0.224,-3.184 -0.61,-8.479 0.24,-13.44 -1.351,0.242 -1.732,0.134 -2.88,0.72 0.21,-1.118 -0.623,0.331 -0.72,-0.479 -0.997,0.435 -2.093,0.356 -3.12,0.24 -1.896,-0.216 -3.693,-0.799 -6.24,-0.961 -2.866,-0.182 -6.471,-0.321 -9.6,0 -1.346,0.139 -3.574,0.267 -5.76,0.24 -1.347,-0.016 -2.605,0.257 -3.6,0.24 -0.404,-0.007 0.098,-0.462 0,-0.48 -1.977,-0.356 -3.842,0.345 -5.52,0.24 -3.307,-0.204 -6.9,0.354 -9.84,0 -0.428,0.372 -0.94,0.66 -1.44,0.96 -9.034,0.071 -14.551,-0.204 -21.6,0 -0.439,0.037 0.075,0.368 0.24,0.24 -1.863,1.444 -7.204,-0.71 -11.52,-0.479 -0.985,0.052 -1.713,0.484 -2.4,0.479 -0.598,-0.005 -0.711,-0.384 -1.2,-0.479 -1.399,-0.277 -2.684,0.476 -3.36,0.479 -0.349,-0.106 0.024,-0.211 0,-0.479 -1.27,0.065 -1.852,0.34 -2.64,-0.48 -0.708,0.209 0.557,0.359 0.24,0.96 -1.632,-0.539 -3.264,-1.268 -4.56,-0.24 -0.695,-0.134 0.368,-0.374 0.24,-0.72 -0.098,-0.598 -0.931,-0.015 -0.72,0.48 -0.301,-1.266 -1.511,0.585 -1.44,-0.48 h 0.48 c -0.847,-0.243 -2.326,0.693 -3.12,-0.24 -0.224,0.176 -0.363,0.437 -0.48,0.721 -0.007,-0.966 -1.866,0.054 -2.16,-0.24 -0.029,-0.029 0.027,-0.479 0,-0.48 -0.364,-0.024 -0.922,0.572 -1.44,0.48 -1.081,-0.191 -2.158,-0.505 -3.36,-0.48 -2.062,0.043 -5.871,0.141 -7.68,-0.479 -0.077,-0.026 -0.392,0.347 -0.48,0.239 -0.163,-0.196 -0.176,-0.595 -0.48,-0.479 -0.221,0.084 -0.114,0.428 -0.24,0.479 -0.609,0.255 -1.701,-1.159 -2.4,0.24 -4.917,-0.221 -10.036,-0.764 -12.48,0 -0.46,-0.699 -1.977,-0.222 -1.92,-0.24 -0.764,0.246 -1.988,-0.073 -3.12,0 -2.334,0.152 -5.35,0.847 -7.92,0.721 -0.533,-0.026 -0.454,-0.374 -0.96,-0.48 -1.014,-0.212 -2.502,0.307 -3.84,0.24 -2.396,-0.119 -5.647,-0.718 -9.12,-0.48 -5.092,0.35 -11.676,0.752 -17.04,0.961 -0.028,-0.812 -1.043,0.029 -0.48,-1.2 -3.657,-0.628 -6.377,-0.359 -10.08,-0.721 -0.21,0.771 0.622,0.498 0.72,0.96 0.559,8.471 0.746,17.78 0.72,24.24 -3.134,1.849 -8.471,3.031 -12,1.681 -0.034,-0.642 -0.447,-2.29 0.24,-2.641 -0.741,-3.278 -0.133,-6.419 -0.24,-9.6 -0.146,-4.313 -0.52,-8.612 -0.72,-12.96 -0.036,-0.775 0.421,-1.658 -0.24,-2.4 -2.497,0.479 -6.274,-0.005 -10.08,-0.479 0.4,2.438 -1.231,6.472 0.48,8.399 -0.5,11.51 -1.329,18.585 -0.96,29.28 -1.57,0.743 -4.351,1.309 -6,1.2 -1.831,1.136 -2.229,-0.251 -5.28,-0.24 -1.348,-6.642 -0.854,-13.142 -0.96,-19.68 -0.091,-5.65 0.363,-12.474 0.24,-19.92 -0.95,-0.311 -0.49,0.789 -1.44,0.479 -0.067,-0.493 -0.641,-0.479 -0.96,-0.72 0.317,-3.484 0.888,-7.673 0.72,-10.8 -0.059,-1.09 -0.476,-2.162 -0.48,-3.36 -0.017,-4.355 0.133,-11.064 -1.2,-15.36 0.071,-0.809 1.064,-0.695 1.2,-1.439 -2.641,-0.145 -5.255,1.516 -7.68,1.2 -1.01,-0.132 -1.585,-0.969 -2.64,-1.2 -0.214,-12.398 -0.059,-26.286 -0.48,-40.8 -0.181,-6.243 -0.686,-12.676 -0.72,-17.761 -0.001,-0.206 0.127,-1.553 0.24,-1.439 -0.347,-0.347 -0.662,-0.209 0,-0.96 -0.461,-0.467 -0.464,-1.316 -0.48,-2.16 -0.056,-3 -0.147,-7.37 0.48,-10.56 1.952,-0.576 3.392,0.661 5.28,-0.24 0.206,1.113 -0.377,0.251 -0.48,0.72 0.918,0.427 0.952,-1.004 1.92,-0.96 1.7,-5.206 4.428,-11.572 6.24,-16.8 0.655,0.021 0.483,-0.4 0.96,0 -0.784,-1.697 -0.122,-4.107 1.44,-5.28 -0.429,-1.942 0.537,-3.107 0.96,-4.32 1.25,0.409 -0.818,0.561 0,1.2 1.36,-0.784 -0.004,-1.241 -0.24,-1.68 0.475,-0.325 0.763,-0.837 0.96,-1.44 0.75,-0.073 -0.61,0.694 0.24,0.72 0.975,-0.777 -0.245,-0.837 0.24,-1.92 -0.015,-0.312 0.248,-0.554 0.48,-0.96 0.104,-0.184 0.947,-2.232 0.96,-2.16 -0.564,-0.003 0.087,-0.655 0.48,-0.48 -0.171,-2.312 2.086,-4.924 1.92,-6.72 0.039,-0.281 0.438,-0.203 0.72,-0.24 -0.882,-0.422 0.201,-0.439 -0.24,-0.72 1.039,-0.682 0.021,-2.102 1.44,-3.12 -0.572,-2.211 1.248,-2.938 0.96,-5.52 h 0.96 c -0.103,-0.377 -0.755,-0.205 -0.48,-0.96 0.746,0.338 0.156,0.589 0.96,-0.24 -0.104,-0.356 -0.307,0.095 -0.72,0 0.728,-2.368 1.896,-3.583 2.4,-6.96 0.83,-0.19 1.013,0.267 1.44,0.48 v -0.96 c 3.07,-0.259 4.316,-0.119 6,-0.48 0.492,0.884 0.605,-0.517 0.96,0.72 0.701,-1.18 1.562,-0.429 2.88,-1.2 0.271,0.216 -0.058,0.579 0.72,0.72 -0.175,-0.558 0.815,-0.371 1.44,-0.72 7.493,-0.404 15.276,0.162 22.08,-1.2 1.239,-0.248 1.995,-0.486 3.36,-0.48 1.87,0.008 3.71,-1.039 5.04,-1.2 1.494,-0.181 3.25,0.822 4.8,-0.48 0.26,0.059 0.163,0.477 0.479,0.48 0.057,-0.656 1.307,-0.433 2.16,-0.24 -0.084,0.376 -0.422,-0.21 -0.48,0.24 0.724,0.283 0.951,0.105 1.68,-0.24 0.532,-0.132 0.342,0.458 0.72,0.48 1.75,-0.434 3.87,0.15 5.76,0.24 2.974,0.141 5.826,0.196 8.64,0.24 2.322,0.036 4.659,0.654 6.96,0.48 0.948,-0.071 2.011,-0.534 3.12,-0.72 1.238,-0.208 2.704,-0.044 3.84,-0.24 0.479,-0.083 0.513,-0.458 0.96,-0.48 1.144,-0.055 2.228,0.434 3.36,0.48 1.101,0.045 1.726,0.027 3.12,0.24 0.948,0.145 2.181,0.142 3.36,0.24 2.023,0.168 4.236,0.017 7.2,0.24 1.657,0.125 3.426,0.175 5.28,0 0.279,0.02 0.125,0.273 0,0.24 1.303,0.344 3.267,0.132 4.8,0.24 1.458,0.103 2.999,-0.047 4.56,0 1.37,0.041 2.748,0.512 3.84,0.48 0.809,-0.024 1.584,-0.443 2.4,-0.48 2.364,-0.108 4.787,0.553 6.96,-0.24 1.592,0.637 6.398,0.585 8.4,0.48 0.196,-0.01 0.65,-0.478 0.72,-0.48 0.488,-0.014 1.188,0.947 1.2,0 0.04,0.762 0.997,0.605 1.442,0.959 z m 63.6,-59.04 c -0.439,-0.042 0.341,-0.662 -0.24,0 -0.334,0.379 -1.987,-0.06 -1.44,0.72 1.917,-0.27 5.469,-1.747 8.16,-1.2 -1.667,-1.854 -4.799,0.637 -6.48,0.48 z m 8.64,-0.72 c 0.557,-0.496 1.838,0.89 1.92,-0.24 -0.745,0.553 -2.158,-0.654 -1.92,0.24 z m 23.52,40.08 c -0.075,-3.436 0.394,-6.207 0.48,-9.12 0.076,-2.555 -0.087,-6.028 -0.72,-9.36 -0.729,-3.83 -1.302,-8.035 -2.4,-9.6 -0.436,-0.621 -2.081,-1.666 -3.84,-2.88 -1.974,-1.363 -5.388,-3.576 -8.16,-4.32 -0.835,-0.224 -1.648,-0.078 -2.4,-0.24 -0.949,-0.205 -1.78,-0.798 -2.64,-0.96 -0.435,-0.083 -0.77,0.288 -1.2,0.24 -0.487,-0.054 -0.737,-0.437 -1.2,-0.48 -3.996,-0.369 -8.271,0.338 -11.52,1.44 -0.664,0.03 -0.824,0.458 -0.48,-0.24 0.146,-0.014 0.284,-0.036 0.24,-0.24 -0.714,0.407 -1.213,1.027 -2.16,1.2 -2.15,-1.392 -3.95,0.431 -6,2.16 -3.781,3.189 -7.158,6.116 -8.64,11.28 -0.818,2.851 -1.452,6.108 -1.68,9.12 -0.098,0.462 -0.931,0.189 -0.72,0.96 0.153,2.236 -0.227,3.875 -0.24,5.52 -0.018,2.116 0.704,4.505 0.72,6.72 0.028,3.924 0.917,7.768 1.2,12.24 0.058,0.919 -0.074,1.795 0,2.64 0.131,1.505 0.963,2.824 1.2,3.6 0.402,1.318 1.429,1.66 2.88,2.16 0.784,0.271 1.829,0.14 2.64,0.48 0.293,0.123 0.461,0.666 0.72,0.72 -0.231,-0.049 0.357,-0.257 0.48,-0.24 2.113,0.285 6.134,0.023 7.2,0.24 1.17,0.238 0.45,0.3 1.2,0 0.9,-0.36 0.842,0.246 1.2,0.24 0.71,-0.012 2.028,0.284 2.16,0.24 0.272,-0.091 0.359,-0.26 0.72,-0.24 0.876,0.049 1.748,0.779 2.88,0.96 0.413,0.066 0.935,-0.058 1.44,0 2.128,0.245 4.669,0.544 5.76,0.48 0.454,-0.026 1,-0.429 1.44,-0.48 5.635,-0.658 12.26,0.151 16.56,-2.88 0.781,-6.79 3.055,-13.48 2.88,-21.36 z m -157.68,126 c 0.654,-0.576 4.611,-3.927 4.8,-3.359 -0.202,-0.605 0.293,-0.089 0.72,-0.24 0.541,-0.191 0.558,-0.616 0.96,-0.72 0.262,-0.067 0.798,0.084 1.2,0 0.812,-0.17 0.888,-0.428 1.2,-0.48 0.354,-0.06 0.747,0.078 1.2,0 0.445,-0.076 1.098,-0.207 1.44,-0.24 6.564,-0.637 14.203,-0.564 19.92,-1.68 1.707,-2.453 3.639,-4.681 4.8,-7.68 1.543,-0.251 1.229,-3.079 3.36,-3.84 -0.026,-0.598 -0.45,-0.743 0,-1.2 1.499,-0.404 1.959,-2.896 3.6,-3.84 0.077,-0.563 0.379,-0.901 0.24,-1.681 4.635,-3.524 6.958,-9.362 11.28,-13.2 0.937,-2.938 3.365,-4.854 5.04,-7.2 3.295,-4.618 6.849,-9.347 8.16,-15.6 0.284,0.034 0.544,0.427 0.72,0 -0.052,-3.992 3.229,-7.396 3.36,-11.28 1.674,-3.526 3.646,-6.754 5.04,-10.56 1.125,-0.4 1.534,-1.744 2.16,-2.64 2.008,-2.873 4.144,-5.664 4.8,-9.6 1.742,-0.664 2.828,-2.041 4.32,-2.88 0.803,-0.452 1.79,-0.816 2.64,-1.2 0.858,-0.388 1.457,-0.373 1.92,-0.48 0.132,-0.031 0.336,-0.646 0.48,-0.72 1.577,-0.82 3.295,-1.453 4.8,-2.64 1.319,0.225 2.006,-1.023 2.88,-1.44 1.123,-0.536 2.654,-0.246 3.36,-1.68 -4.877,1.041 -10.174,0.275 -15.36,0.72 -2.25,0.192 -4.483,0.899 -6.72,0.96 -1.039,0.028 -2.306,-0.23 -3.36,-0.24 -1.692,-0.017 -3.226,0.005 -4.8,0 -2.774,-0.009 -5.803,0.488 -8.4,0.24 -0.647,-0.062 -1.261,-0.438 -1.92,-0.48 -2.601,-0.165 -5.754,0.367 -8.16,0.24 -0.171,-0.009 -0.543,-0.49 -0.72,-0.48 0.05,-0.003 -0.303,0.434 -0.72,0.48 -2.039,0.228 -4.227,0.368 -6.24,0.48 -2.369,0.132 -5.735,0.494 -7.2,0.24 -1.28,-0.222 -0.446,-0.249 -1.44,0 -2.14,0.535 -6.659,0.122 -9.6,0 -5.413,-0.224 -10.925,-0.398 -16.56,0 -0.538,-0.102 -0.765,-0.515 -1.2,-0.72 -3.819,0.091 -7.383,-0.17 -11.04,-0.48 -1.616,-0.137 -3.305,-0.667 -4.8,-0.72 -6.529,-0.229 -13.885,0.065 -21.84,0.24 -0.356,-1.044 -1.258,-0.136 -1.92,-0.96 -0.074,0.956 -0.676,0.465 -0.96,0.48 -3.261,0.167 -6.997,-0.171 -11.28,0.48 -1.95,0.296 -3.913,1.042 -6,1.2 -4.831,0.366 -10.036,-0.141 -14.64,0.48 -1.5,0.202 -2.745,0.799 -4.08,0.96 -3.816,0.459 -7.835,-0.139 -11.04,0.48 -0.75,1.269 1.027,1.27 0.48,2.16 -1.057,1.104 -1.396,2.924 -2.4,4.08 -2.281,10.839 -6.945,19.295 -9.6,29.76 -0.724,0.843 -0.849,0.869 -1.68,1.68 -2.323,5.757 -4.959,11.201 -6.24,18 1.142,0.092 1.238,-0.014 1.92,0.72 1.489,-0.718 5.904,-0.982 6.24,-0.24 1.555,-0.833 3.402,-0.163 5.04,-0.24 1.619,-0.076 2.985,-0.748 4.56,-0.48 0.72,0.72 0.379,2.501 1.68,2.64 -0.073,4.131 0.11,8.847 0.48,13.68 0.136,1.781 0.582,3.21 0.72,4.8 0.108,1.246 -0.021,2.511 0,2.641 0.209,1.311 -0.115,1.289 -0.24,2.16 -0.057,0.398 0.27,0.795 0.24,0.96 -0.078,0.423 -0.468,-0.119 -0.48,0.239 0,-0.004 0.473,0.425 0.48,0.48 0.252,1.864 -0.367,4.706 -0.24,6.479 0.504,7.035 -0.813,10.376 0,17.04 9.317,-0.87 16.566,0.421 24.24,-1.199 0.783,0.36 1.479,1.18 1.92,1.199 4.719,-0.475 7.609,0.816 11.28,-0.479 7.88,1.416 18.102,-0.281 25.92,-0.48 -0.073,-0.622 0.727,-0.607 1.2,-0.72 3.25,-0.771 7.604,-0.75 9.84,-0.24 0.049,-0.751 -0.162,-1.762 0.24,-2.16 z m 77.28,-106.08 c 0.384,-0.668 -1.037,-0.664 -0.96,-0.24 0.325,0.075 0.458,0.342 0.96,0.24 z m 47.04,5.28 c -7.465,-0.122 -13.534,-0.407 -18.48,-4.08 -0.413,0.92 -1.593,0.817 -2.4,1.2 -0.836,0.397 -1.762,0.957 -2.64,1.44 -5.263,2.896 -10.915,6.041 -15.84,9.12 -1.139,6.461 -6.202,8.998 -8.16,14.64 1.26,1.7 2.205,3.715 2.4,6.48 3.608,-0.135 5.943,2.992 9.6,3.6 0.815,1.504 3.716,0.924 3.84,3.12 -1.396,-0.523 -3.112,-0.727 -4.08,-1.68 -2.64,0.576 -6.173,-1.888 -9.6,-2.64 -0.283,0.757 -0.747,1.333 -1.2,1.92 4.835,2.125 10.279,3.641 14.4,6.48 0.631,-1.627 0.61,-3.61 0.72,-4.56 0.178,-1.542 0.723,-3.304 0.96,-5.04 0.219,-1.604 0.083,-3.493 1.2,-4.32 0.889,0.978 0.854,2.826 0.72,4.08 -0.33,3.097 -1.537,6.242 -1.44,9.6 0.042,1.461 -0.105,2.228 -0.24,3.36 -0.289,2.429 0.338,4.983 -0.24,7.44 -0.118,0.502 -0.418,0.682 -0.48,1.2 -0.54,4.523 0.276,9.717 0,14.4 -0.157,2.659 -0.707,5.176 -0.72,7.68 6.803,0.91 13.313,0.947 20.4,0.72 0.586,0.134 0.512,0.929 1.44,0.72 3.753,-1.127 6.11,-3.65 10.32,-4.319 1.797,-1.736 4.529,-2.092 6.72,-3.12 1.064,-0.5 2.067,-1.291 3.12,-1.68 2.017,-0.747 3.402,-1.542 5.04,-2.16 4.394,-1.658 9.258,-2.48 13.92,-2.88 2.025,0.744 2.893,0.098 5.52,0.24 0.855,0.265 1.451,0.789 2.64,0.72 0.131,-6.212 0.693,-13.195 0.96,-18.48 1.297,-2.785 1.132,-7.101 1.681,-11.28 0.388,-2.955 1.125,-7.334 0.72,-11.04 0.586,-0.466 2.071,-0.294 2.4,0.24 -1.282,3.165 -0.188,6.458 -0.48,9.12 -0.069,0.626 -0.689,1.102 -0.72,1.68 -0.028,0.53 0.422,0.408 0.479,0.72 0.018,0.094 -0.228,1.092 -0.239,1.2 -0.184,1.602 -1.118,4.032 -1.2,6.24 1.434,-0.641 2.324,-2.052 3.359,-3.12 3.254,-3.355 6.227,-6.764 9.601,-9.84 1.324,-0.036 1.605,-1.115 2.64,-1.44 -1.085,-3.003 -3.34,-5.456 -5.04,-8.16 -2.333,-3.711 -5.092,-6.995 -8.16,-9.6 -0.755,-0.641 -1.996,-1.474 -1.92,-2.16 -1.489,-0.38 -2.663,-1.456 -3.84,-2.4 -1.228,-0.985 -2.518,-1.945 -3.6,-3.12 -1.37,-0.07 -2.01,-0.871 -3.12,-1.2 -2.16,0.826 -4.467,0.213 -6.72,0.48 -1.381,0.164 -2.688,0.775 -4.08,0.96 -2.111,0.28 -4.104,0.103 -6.24,0.24 -0.934,0.06 -1.691,0.5 -2.64,0.48 -0.687,-0.015 -1.455,-0.418 -2.16,-0.48 -3.017,-0.266 -5.973,0.183 -9.121,-0.721 0.373,0.02 0.167,-0.698 0,-0.24 z m 82.8,-1.44 c -4.461,-0.35 -8.451,-0.298 -11.52,-0.96 -0.858,-0.185 -0.569,0.2 -1.2,-0.24 -0.563,-0.392 -1.677,0.035 -2.4,0 -2.991,-0.147 -6.144,-0.885 -10.08,-0.48 -0.625,-0.383 -1.076,-0.938 -1.439,-0.96 -2.317,-0.021 -6.815,0.415 -8.88,0.72 -2.549,0.377 -4.924,0.397 -5.761,-0.48 0.215,0.775 -0.782,0.337 -0.96,0.72 -1.449,-0.589 -3.848,0.116 -5.279,0.24 -0.6,0.052 -1.861,-0.448 -2.16,0.48 -0.116,1.655 1.664,0.92 2.399,1.2 3.828,3.384 7.37,6.213 11.28,9.84 1.37,2.23 2.773,4.426 5.04,5.76 1.552,3.167 3.856,5.583 5.76,8.4 -0.174,0.734 0.414,0.706 0.24,1.44 1.856,1.663 2.888,4.152 4.56,6 0.335,0.385 1.185,0.255 1.44,0.72 1.42,2.821 3.229,5.251 5.521,7.2 0.21,0.669 0.574,1.186 0.72,1.92 1.802,0.614 3.549,1.663 5.52,1.92 1.299,0.169 3.362,-0.267 4.08,-0.24 0.493,0.019 0.84,0.491 1.2,0.48 0.36,-0.012 0.547,-0.432 0.96,-0.48 0.173,-0.021 0.688,0.239 0.96,0.24 2.105,0.004 8.24,0.444 10.561,0.24 0.771,-0.068 1.307,-0.575 2.159,-0.72 0.781,-0.133 1.92,0.018 2.88,0 3.611,-0.067 6.645,-0.067 9.601,-0.24 -0.736,-3.354 -1.595,-6.522 -2.64,-9.84 -1.391,-4.413 -3.926,-8.039 -4.561,-12.96 -1.614,-2.226 -1.863,-5.146 -2.88,-7.68 -1.041,-2.593 -2.451,-4.995 -3.12,-7.68 -0.976,-1.058 -2.319,-2.915 -1.68,-4.8 -3.278,-0.066 -7.686,-1.254 -10.321,0.24 z m -135.6,36.72 c 5.203,0.252 6.859,-7.273 4.32,-11.04 -1.735,3.385 -3.374,6.866 -4.32,11.04 z m 108.24,-7.92 c -1.588,1.511 -4.833,5.178 -6.96,7.44 -1.054,1.121 -2.074,2.122 -2.88,3.12 -0.481,0.597 -0.729,1.341 -1.2,1.92 -0.68,0.834 -2.778,1.995 -2.64,3.36 0.089,0.876 1.14,1.869 2.4,1.68 4.88,-5.28 10.298,-10.022 16.08,-14.4 -1.472,-1.967 -2.017,-4.921 -4.8,-3.12 z m 23.04,17.52 c 0.398,-0.748 -1.196,-0.858 -0.479,-0.48 -1.917,0.25 -7.793,0.858 -12.24,0.48 -1.438,-0.123 -2.97,0.208 -3.84,-0.48 1.694,-1.798 4.608,-1.023 7.92,-1.92 -2.553,-4.007 -5.892,-7.228 -9.12,-10.56 -0.859,0.789 -2.449,1.678 -3.359,2.4 -0.498,0.395 -0.838,1.143 -0.961,1.2 -0.406,0.19 -0.147,-0.68 -0.72,0.24 -1.066,1.716 -2.702,2.195 -4.08,3.36 -2.005,1.696 -3.617,4.108 -5.52,6.24 -0.548,0.412 -1.213,0.708 -1.681,1.2 0.029,1.364 1.44,3.119 3.12,3.6 1.514,6.007 6.205,8.835 9.601,12.96 1.8,-0.183 2.408,1.933 3.6,2.4 1.501,0.589 3.356,0.146 5.28,0 3.622,-0.275 7.018,-0.433 9.84,-1.2 0.54,-0.147 0.935,-0.595 1.44,-0.72 2.42,-0.597 4.902,-0.753 6.72,-1.68 0.554,-0.476 0.267,0.061 0.72,0.24 0.748,-0.867 1.368,-0.658 2.641,-1.2 -1.444,-5.456 0.031,-11.725 0.479,-16.8 -3.967,0.916 -5.244,0.366 -9.361,0.72 z m -126.72,-9.84 c -1.44,1.973 -3.319,2.065 -5.76,2.88 -1.941,8.936 -8.029,15.755 -12.96,23.04 4.29,-1.959 7.917,-2.056 11.28,-5.04 0.065,0.495 1.063,0.058 0.96,0.72 -1.818,3.696 -6.067,3.494 -9.36,4.8 -1.467,0.582 -2.882,2.066 -4.32,3.12 -2.659,1.949 -4.029,4.064 -6.24,6.48 1.377,2.036 3.965,2.579 6,3.84 2.02,1.253 3.916,2.795 6,3.84 0.202,0.279 0.316,0.644 0.24,1.2 2.206,0.755 2.538,3.382 4.56,4.32 2.453,-2.032 4.595,-4.707 6.48,-6.96 1.288,-1.54 2.754,-2.477 4.08,-3.84 0.282,-0.29 0.232,-0.913 0.48,-1.2 0.615,-0.711 1.522,-0.745 1.68,-1.68 1.025,-0.096 1.178,-1.063 2.16,-1.2 1.135,-1.665 2.41,-3.19 3.84,-4.56 -0.455,-1.292 0.785,-2.434 0.72,-4.08 0.319,0.312 0.894,0.316 0.96,-0.24 -0.431,0.031 -0.562,-0.238 -0.48,-0.72 1.574,-2.242 1.294,-5.218 2.88,-7.68 -0.011,-4.106 2.386,-7.66 2.4,-11.76 -5.918,-1.461 -9.278,-4.115 -15.6,-5.28 z m 154.32,7.68 c -0.329,0.052 -0.63,0.458 -0.96,0.48 -2.999,0.197 -6.063,-0.633 -9.601,0.48 -0.652,2.783 -1.669,5.455 -1.92,8.64 -0.186,2.356 0.145,4.861 -0.479,7.44 1.626,-0.116 3.021,-0.408 4.56,0 0.946,0.066 0.734,-1.026 1.681,-0.96 3.448,-0.472 6.387,-1.454 9.359,-2.4 0.571,-1.516 0.072,-3.057 0.48,-4.56 0.195,-0.722 0.854,-1.444 1.199,-2.16 1.146,-2.379 2.034,-4.65 3.36,-6.72 -3.201,0.31 -5.018,-0.658 -7.679,-0.24 z m 11.04,1.2 c -0.181,-0.82 0.975,-0.305 0.72,-1.2 -0.642,-0.14 -1.221,0.987 -0.72,1.2 z m -37.44,0.48 c 0.021,-0.378 0.612,-0.188 0.48,-0.72 -0.494,-0.21 -1.078,0.623 -0.48,0.72 z m 10.08,-0.48 c -1.288,5.045 -1.454,13.642 -1.2,16.8 1.559,0.302 2.063,-0.077 3.12,-0.72 0.135,-5.926 0.039,-11.52 1.92,-16.08 -1.281,-0.372 -1.881,0.138 -3.84,0 z m 27.84,13.44 c -0.103,0.458 -0.686,0.434 -0.479,1.2 1.916,2.937 1.801,6.498 6.24,6.72 0.611,-3.461 -2.626,-5.194 -1.44,-7.68 1.073,0.35 1.173,1.636 1.68,2.64 0.803,1.589 1.922,2.922 1.44,5.52 -0.575,-0.095 0.133,1.093 -0.721,0.72 0.846,2.115 1.299,4.623 1.681,7.201 0.065,0.494 1.063,0.057 0.96,0.72 -0.555,0.245 -0.497,1.104 -0.48,1.92 1.087,0.564 3.237,-0.343 5.04,-0.96 1.49,-5.965 1.665,-12.045 0.48,-18.96 -1.588,-3.533 -4.527,-5.713 -6.48,-8.88 -2.115,-1.004 -3.143,-3.097 -6.479,-2.88 -0.489,-0.071 -0.471,-0.649 -0.96,-0.72 -0.099,0.579 0.438,0.522 0.239,1.2 -1.348,0.732 -1.488,2.671 -2.64,3.6 -0.563,3.1 -2.98,5.567 -3.12,7.68 0.992,-0.077 4.004,1.067 5.039,0.959 z m -28.08,5.52 c -1.651,0.138 -3.234,1.206 -4.319,0.48 0.005,0.806 -0.951,0.648 -1.44,0.96 -0.356,-0.944 -1.451,0.727 -2.64,-0.24 -0.411,1.049 -1.615,0.245 -1.44,0.96 -3.067,-0.355 -4.948,1.162 -8.16,1.68 -2.677,0.433 -4.777,0.769 -6.72,0.96 -4.027,0.396 -6.803,-1.707 -9.36,-3.84 -2.287,-1.909 -4.936,-4.374 -6.479,-6.48 -0.225,-0.307 -0.485,-0.404 -0.72,-0.72 -1.364,-1.839 -1.868,-4.206 -3.12,-6 -0.779,-1.116 -2.072,-1.896 -2.88,-3.12 -0.52,-0.786 -0.485,-1.628 -1.44,-2.16 -0.524,6.201 -1.263,9.25 -0.72,15.36 -0.211,0.669 -0.575,1.186 -0.721,1.92 1.898,1.6 3.226,2.931 4.801,4.8 0.775,0.921 1.628,1.991 2.16,2.88 3.585,5.983 7.048,15.169 9.119,21.84 0.277,2.156 1.572,6.285 2.88,8.88 1.044,-0.426 2.203,-0.146 3.36,-0.24 0.789,-0.063 1.693,-0.507 2.4,-0.479 0.062,0.002 0.765,0.435 1.2,0.479 3.569,0.368 8.043,-0.015 12.239,-0.239 6.426,-0.345 12.404,0.177 17.761,-0.48 0.323,-2.924 0.482,-8.177 0.239,-8.88 -0.408,-1.183 0.141,-1.83 0.24,-2.88 0.133,-1.394 -0.202,-2.822 0,-4.32 0.932,-6.894 0.749,-13.812 -0.24,-21.12 -2.73,0.266 -3.512,-0.209 -6,-10e-4 z m 23.52,-15.84 c 0.597,0.227 0.07,-1.374 0,-0.48 0.022,0.392 -0.4,1.044 0,0.48 z m -148.8,16.08 c -0.543,1.836 -1.136,2.575 -2.16,4.08 -1.508,2.218 -3.201,3.954 -4.8,5.76 -1.353,1.529 -2.941,3.182 -4.32,4.32 -1.01,0.833 -2.018,1.994 -2.88,2.64 -0.208,0.156 -0.739,-0.14 -0.96,0 -0.397,0.252 -0.676,1.015 -1.2,1.44 -2.416,1.962 -4.957,3.636 -6.48,6 -2.727,1.193 -4.721,3.119 -7.2,4.56 -0.004,0.034 -0.735,0.783 -1.44,1.44 -0.379,0.354 -0.58,0.858 -0.96,1.2 -0.706,0.633 -1.856,0.955 -2.64,1.68 -0.523,0.484 -0.917,1.335 -1.44,1.92 -1.617,1.81 -3.761,3.633 -5.28,5.04 1.703,0.644 3.22,0.132 4.8,0.24 1.661,0.113 3.251,0.844 5.04,0.96 3.998,0.258 7.967,-0.164 11.28,0.24 0.588,0.071 1.311,0.407 1.92,0.479 2.421,0.286 5.064,-0.238 7.44,0.96 2.095,-1.007 4.716,0.158 7.2,0.24 0.338,0.011 0.572,-0.469 1.2,-0.48 0.019,0 -0.026,0.455 0,0.48 0.548,0.548 3.765,-1.119 4.56,-0.24 -0.569,-2.778 -1.912,-5.955 -1.92,-9.36 -0.004,-1.742 0.762,-3.813 0,-5.279 0.713,-0.601 1.354,-2.426 1.44,-3.12 0.077,-0.62 -0.257,-1.499 -0.24,-2.16 0.128,-4.979 1.367,-10.711 1.44,-15.12 0.013,-0.766 -0.42,-1.962 -0.24,-2.64 0.064,-0.241 0.485,-0.28 0.48,-0.48 0.003,0.131 -0.427,-0.388 -0.48,-0.72 -0.42,-2.633 0.325,-5.869 0.48,-8.4 0.029,-0.468 -0.222,-1.056 -0.24,-1.44 -0.042,-0.929 0.598,-2.1 -0.24,-2.88 -0.767,3.169 -1.29,5.699 -2.16,8.64 z M 203.77,354 c -0.241,10e-4 -0.285,-0.194 -0.48,-0.24 -0.274,-11.001 -0.06,-18.938 0.48,-29.52 -0.292,-0.348 -0.958,-0.322 -0.96,-0.96 -0.104,-1.421 0.493,-2.982 0,-4.8 0.486,-0.442 0.429,-0.936 0.48,-1.681 0.21,-3.052 -0.408,-6.511 0,-10.8 0.574,-6.037 -1.253,-12.979 -0.96,-17.52 -7.502,1.931 -16.41,0.65 -24.24,1.68 -0.124,3.929 0.657,7.102 0,11.52 0.98,2.766 0.593,6.047 0.72,9.12 0.027,0.651 -0.267,0.271 0,1.2 0.08,0.279 -0.045,0.193 0,0.72 0.441,5.08 -0.347,14.732 0,21.12 0.15,2.768 0.976,6.671 0.48,10.08 -0.476,3.275 0.434,7.672 0,11.28 -0.211,1.762 -0.897,2.951 -0.24,4.56 7.022,-1.155 15.816,-0.943 22.32,-2.64 0.867,0.508 -0.309,1.574 1.2,1.439 1.329,-1.593 -0.049,-4.657 1.2,-4.558 z m 318.48,-58.56 c -0.67,-1.38 -0.637,-2.934 -1.681,-3.6 -0.761,-0.486 -2.479,-0.489 -3.359,-0.48 -0.402,0.004 -0.256,0.149 -0.72,0.24 -2.024,0.398 -4.448,0.41 -6.961,0.96 -2.595,0.568 -5.048,1.458 -7.199,2.4 1.075,5.971 1.08,12.055 1.68,17.04 -0.4,0.32 -0.373,1.067 -0.72,1.44 -0.034,12.854 -2.392,30.172 -0.96,43.92 5.276,0.044 8.708,-0.473 12.479,-0.48 3.715,-0.008 7.812,-0.615 11.521,0 0.57,-11.511 0.482,-22.536 1.199,-33.36 0.095,-1.422 -0.071,-2.884 0,-4.319 0.024,-0.49 0.439,-0.931 0.48,-1.44 0.149,-1.863 0.049,-3.059 0.24,-4.56 0.579,-4.552 0.865,-8.166 -0.24,-12.96 -2.891,-0.827 -4.651,-2.516 -5.759,-4.801 z m -68.16,24.48 c -1.839,0.02 -5.166,-2.462 -6.24,-3.12 -0.712,-0.437 -1.294,-1.163 -1.92,-1.439 -0.309,-0.137 -0.904,0.16 -1.44,0 -0.24,-0.072 -0.499,-0.647 -0.72,-0.721 -0.725,-0.241 -1.427,-0.216 -1.92,-0.479 -4.159,-2.232 -7.294,-6.184 -6.72,-11.04 0.329,-2.787 2.809,-4.646 3.84,-7.92 -6.504,1.146 -12.82,1.502 -18.48,3.6 -4.532,1.68 -8.655,3.433 -12.96,5.28 -2.328,1.535 -6.077,3.233 -9.36,4.56 -0.874,1.127 -2.385,1.615 -3.36,2.641 -0.734,0.174 -0.706,-0.414 -1.44,-0.24 -2.735,1.345 -5.104,3.056 -8.64,3.6 -4.33,2.63 -8.77,5.15 -12.72,8.16 -1.678,5.597 -0.485,12.947 1.68,17.76 1.241,1.315 2.74,2.2 3.84,3.601 0.46,0.586 0.522,1.359 1.2,1.92 1.088,0.899 5.952,2.811 7.92,3.36 2.867,0.8 5.614,0.142 7.68,-0.24 3.768,-0.696 8.479,-0.348 11.28,-2.641 0.524,-3.198 -0.081,-7.473 0.48,-9.6 0.157,-0.595 0.742,-1.2 0.96,-1.92 0.221,-0.73 -0.031,-1.485 0.24,-2.16 0.177,-0.439 0.734,-0.985 0.96,-1.439 1.399,-2.82 2.771,-4.24 4.56,-6.721 1.322,-1.832 2.315,-3.906 3.84,-5.04 1.525,-1.134 3.543,-1.629 5.28,-2.399 0.37,-0.91 0.95,-1.61 0.72,-3.12 0.93,-0.919 0.889,-2.059 1.44,-2.88 0.077,-0.115 0.421,0.291 0.479,0.239 0.163,-0.139 -0.137,-0.788 0,-0.96 0.116,-0.145 0.674,-0.173 0.96,-0.479 0.3,-0.319 0.273,-0.78 0.48,-0.96 0.699,-0.606 1.843,-0.856 2.4,-1.44 1.156,-1.212 1.502,-4.548 4.079,-3.6 0.196,1.187 -1.273,1.932 -1.68,2.4 -0.177,0.204 -0.081,0.477 -0.24,0.72 -0.646,0.982 -1.438,1.382 -2.159,2.16 -1.334,1.437 -2.459,2.847 -3.841,4.08 -0.014,0.146 -0.035,0.284 -0.239,0.239 0.22,2.363 0.576,3.367 -0.24,5.28 2.976,1.337 5.286,3.896 7.439,6.24 2.277,2.477 4.595,4.899 5.521,8.399 0.449,1.698 0.352,3.596 0.96,5.28 1.176,3.255 3.367,5.338 4.08,8.16 0.443,-0.113 1.032,1.681 1.2,2.64 2.975,1.887 2.673,5.895 3.12,9.12 0.375,2.715 1.929,4.963 2.64,6.96 0.153,0.43 0.077,1.075 0.24,1.44 0.071,0.16 0.642,0.114 0.72,0.24 0.145,0.232 -0.123,0.713 0,0.96 0.201,0.401 0.542,0.748 0.72,1.199 0.346,0.878 0.385,1.936 0.721,2.641 2.051,4.309 8.04,5.824 8.399,11.52 1.317,0.523 1.355,2.324 2.88,2.641 2.179,-1.219 3.255,-2.642 6.72,-2.881 0.854,-1.139 2.442,-1.415 3.601,-2.159 1.224,-0.787 2.35,-1.744 3.36,-2.641 -2.074,-5.361 -0.824,-14.452 -4.561,-17.76 -0.275,-0.836 -0.673,-1.92 -0.72,-2.64 -0.021,-0.313 -0.4,-0.226 -0.48,-0.48 -0.859,-2.733 -1.813,-6.96 -1.92,-10.56 -1.036,-0.23 -1.189,-2.738 -2.16,-2.88 -0.71,-2.49 -2.35,-4.051 -2.88,-6.721 -2.36,-2.521 -3.018,-6.335 -4.319,-9.6 -0.421,-1.054 -0.98,-2.098 -1.2,-3.12 -0.169,-0.786 0.184,-1.586 0,-2.4 -0.02,-0.086 -0.378,-0.436 -0.48,-0.72 -0.375,-1.049 -0.646,-1.836 -0.72,-2.88 -0.866,-0.003 -1.804,0.948 -2.88,0.96 z m -0.48,-8.64 c -1.856,0.623 -2.096,2.863 -4.08,3.359 -0.283,-0.116 -0.544,-0.256 -0.72,-0.479 0.199,-2.681 2.288,-3.473 3.36,-5.28 -0.842,-0.426 -0.473,-1.691 -0.72,-2.16 0.054,0.408 -0.271,0.594 -0.24,0 -1.83,1.931 -4.469,3.052 -6,5.28 0.356,0.668 1.072,-0.507 0.96,0.48 -1.056,0.446 -1.897,-0.095 -2.641,-0.48 0.123,-1.157 1.553,-1.008 1.681,-2.16 -0.272,-0.527 -0.803,-0.797 -0.96,-1.439 1.415,-1.865 3.39,-3.17 5.76,-4.08 -0.227,-1.492 -0.704,-1.456 -1.44,-2.16 -2.048,1.552 -5.126,2.073 -6,4.8 -0.585,-0.295 -1.258,-0.502 -1.439,-1.2 0.087,-1.211 0.929,-1.167 1.68,-1.92 0.06,-0.06 0.395,-0.748 0.72,-0.96 1.02,-0.662 2.52,-0.913 3.841,-1.92 -1.074,-2.018 -2.659,-3.914 -6,-3.12 -2.022,0.48 -4.049,3.807 -4.32,5.76 -0.689,4.958 2.772,7.283 5.52,8.881 2.433,1.413 5.378,2.398 7.681,3.119 0.863,1.547 3.918,3.334 5.76,1.681 -0.608,-2.668 -1.191,-3.4 -2.403,-6.002 z m -126.72,-1.92 c 0.204,-0.356 0.604,-0.517 1.2,-0.48 2.296,2.245 5.599,2.976 7.92,4.8 0.607,0.478 1.055,1.354 1.44,1.681 0.247,0.208 0.736,0.034 0.96,0.239 0.559,0.514 1.093,1.216 1.44,1.92 1.232,0.049 1.511,1.05 2.16,1.681 -0.077,0.557 0.039,0.921 0.24,1.2 1.423,-0.578 2.939,-1.061 3.6,-2.4 -4.1,-5.58 -10.078,-9.281 -16.56,-12.48 -0.532,1.39 -2.783,2.332 -2.4,3.839 z m 46.08,2.88 c 2.739,0.113 6.068,-0.451 8.88,-0.24 1.152,0.087 2.171,0.562 3.12,0.48 1.469,-0.127 2.414,-1.398 3.6,-0.961 -0.091,-1.437 2.974,-0.774 2.16,-2.159 0.104,-0.696 -0.727,-0.242 -0.96,-0.24 -6.902,0.058 -12.699,-0.8 -16.32,-0.96 -0.014,-0.146 -0.036,-0.284 -0.24,-0.24 0.123,1.643 -0.426,2.614 -0.24,4.32 z m -53.04,6.24 c -0.641,-0.002 -0.521,0.758 -1.2,0.72 -0.389,2.252 -2.998,3.56 -2.64,5.76 0.646,0.08 3.264,0.252 3.6,1.44 0.028,-0.299 0.07,-0.562 0.48,-0.48 -0.134,-0.026 0.955,0.343 1.2,0.48 0.845,0.473 1.833,1.614 1.92,1.68 0.29,0.216 0.959,0.473 1.2,0.72 1.014,1.039 1.75,2.454 2.88,3.601 2.65,-2.516 4.75,-3.909 7.44,-5.521 0.245,-0.315 0.235,-0.885 0.48,-1.2 2.363,-1.557 4.347,-3.493 6.72,-5.04 -0.896,-0.225 -1.101,-1.139 -2.16,-1.199 -3.78,-4.085 -9.666,-6.432 -14.4,-8.881 -0.071,0.837 -0.649,-0.02 -0.72,0.48 -0.603,2.519 -3.881,4.438 -4.8,7.44 z m 53.04,-4.56 c -1.305,1.719 -0.038,4.384 -0.72,6.48 2.039,-0.282 2.318,-2.322 4.56,-2.4 1.256,-1.801 4.987,-2.352 5.28,-4.32 -3.329,0.118 -5.763,0.006 -9.12,0.24 z m 35.28,29.52 c -10e-4,0.082 0.311,0.522 0.24,0.96 -0.042,0.265 -0.471,0.549 -0.48,0.72 -0.053,1.006 0.332,2.116 0.24,3.12 -0.092,1.01 -0.578,1.875 -0.72,2.88 -0.542,3.851 1.464,6.413 1.68,10.08 0.44,0.648 0.813,0.042 1.2,0.479 -0.457,0.104 -0.603,0.518 -1.2,0.48 -0.248,1.263 -0.045,2.569 -0.48,4.08 0.948,1.797 0.996,4.282 1.2,6.479 0.126,1.36 0.393,2.806 0.48,4.08 0.21,3.082 -0.591,8.089 0,12.96 0.153,1.261 0.667,2.415 0.72,2.88 0.311,2.69 -0.566,5.445 -0.72,8.16 -0.134,2.362 0.021,5.198 0.48,6.48 0.615,1.717 0.468,3.567 0.72,5.279 0.394,2.674 0.435,4.189 0.72,6.721 0.276,2.45 0.955,4.832 0.96,7.439 2.092,0.358 2.955,0.993 5.28,1.2 3.11255,2.07449 6.28164,-0.61444 12.48,1.44 0.738,-1.262 0.834,-3.166 0.96,-5.04 0.501,-0.3 0.658,-0.942 1.2,-1.2 0.767,-4.049 2.603,-7.901 3.12,-11.76 0.452,-3.377 0.396,-6.585 1.439,-8.88 0.495,-1.089 -0.156,-3.745 0.48,-5.28 0.602,0.041 0.582,-0.538 0.96,-0.72 -1.061,0.032 -0.181,-1.217 0.24,-1.2 -0.396,0.186 -0.673,1.442 0,0.72 -0.65,-0.495 0.548,-0.21 0.479,-0.48 -0.347,-0.571 -0.364,-0.589 -0.72,-0.72 0.854,-2.906 1.669,-5.851 2.64,-8.64 -0.492,-0.902 -0.449,-2.646 -0.24,-3.84 0.737,-4.21 2.762,-9.601 2.88,-14.4 0.02,-0.761 -0.265,-1.458 -0.239,-2.16 0.024,-0.682 0.319,-0.851 0.479,-1.439 0.16,-0.587 -0.468,-2.357 0.24,-3.12 -0.625,-1.125 -0.97,-3.021 -0.96,-4.08 -0.239,0.739 -0.648,-0.268 -0.72,-0.48 0.147,-3.175 -0.511,-2.891 -0.721,-4.56 0.246,-0.028 0.486,1.035 0.721,0.24 -0.431,-0.602 -0.193,-1.271 -0.96,-0.48 0.778,-1.371 -0.968,-1.021 -0.48,-2.16 -1.798,-0.897 -1.788,-4.695 -3.36,-5.04 10e-4,-0.24 -0.194,-0.285 -0.239,-0.479 -0.281,-0.756 0.374,-0.308 -0.24,-1.2 -1.19,0.434 -1.246,1.65 -1.68,2.4 -1.59,2.746 -3.503,4.859 -4.801,7.439 -1.978,0.973 -3.589,2.182 -5.76,1.2 -2.784,-3.936 -6.428,-7.013 -8.88,-11.28 -0.145,-0.574 -0.345,-1.095 -0.24,-1.92 -4.498,-6.361 -0.428,-19.085 10.56,-17.52 -1.128,-2.152 -4.015,-2.546 -6,-3.84 -1.963,1.245 -4.308,2.128 -5.76,3.84 -0.245,0.288 -0.04,0.604 -0.24,0.96 -0.6,1.063 -1.664,2.127 -2.4,3.12 -2.589,3.491 -3.286,7.129 -4.08,12.479 10e-4,-0.133 -0.194,-0.272 -0.24,0 0.779,0.998 -0.214,2.383 -0.238,3.603 z m 22.32,-12.96 c -0.235,-0.277 1.384,0.065 2.641,0 -0.866,-5.365 -9.362,-7.262 -12.96,-4.08 -0.801,0.708 -0.616,2.187 -1.92,2.399 0.003,0.92 -0.943,1.593 -1.2,2.4 -1.256,3.943 0.896,6.053 2.16,9.12 0.423,1.025 0.247,1.125 0.48,1.68 0.499,1.187 1.211,2.994 1.44,3.36 0.074,0.119 1.189,1.024 1.68,1.68 1.327,1.774 2.937,4.35 4.32,5.04 2.45,-0.352 3.214,-1.37 4.319,-2.88 2.078,-2.836 4.39,-6.493 5.521,-9.36 -1.617,-2.729 -1.419,-6.061 -3.36,-8.16 -3.788,1.519 -7.932,-1.138 -11.76,1.2 -0.338,0.163 -2.15,0.196 -2.16,-0.72 0.639,-1.253 3.275,-1.444 5.521,-1.68 1.285,-0.136 2.391,0.104 3.359,-0.24 0.353,0.428 -0.15,0.939 0.48,1.439 0.131,-0.349 -0.28,-1.24 0.24,-1.199 0.804,-0.853 0.957,1.215 1.199,0.001 z M 315.13,327.6 c 0.307,0.014 0.332,0.308 0.72,0.24 0.013,-0.413 -0.185,-0.615 -0.48,-0.72 10e-4,0.24 -0.194,0.285 -0.24,0.48 z m 5.76,0.48 c -0.142,-0.738 -1.185,-0.575 -1.68,-0.96 0.01,0.87 1.273,0.486 1.68,0.96 z m -12,7.44 c -3.125,-0.346 -6.703,1.601 -8.88,2.16 -0.246,0.719 -2.698,1.299 -3.12,2.641 0.874,1.914 2.972,1.574 4.56,1.439 2.268,-0.192 4.968,-1.136 6.72,-1.2 1.96,-0.071 3.685,0.627 5.28,0.48 0.625,-0.058 1.36,-0.559 2.16,-0.72 3.88,-0.783 7.576,-1.338 9.12,-3.84 -0.256,-1.002 -0.217,-1.215 0.24,-1.921 -2.264,-2.936 -6.415,-3.984 -9.12,-6.479 -0.022,0.377 0.032,0.832 -0.48,0.72 -2.266,-2.408 -5.756,0.972 -8.16,-0.24 -2.289,1.174 -6.804,0.398 -9.6,0.96 -0.202,0.041 -0.281,-0.277 -0.48,-0.239 -0.162,0.031 0.018,0.457 -0.48,0.479 -2.417,0.109 -5.824,0.073 -8.4,1.2 -0.935,0.408 -0.921,0.402 -1.2,0.72 -0.107,0.123 -0.598,-0.111 -0.72,0 -0.227,0.207 -0.215,0.508 -0.48,0.721 -1.948,1.566 -4.195,2.87 -1.68,4.8 1.679,1.288 5.222,2.327 7.68,2.399 4.15,0.123 5.053,-2.191 8.4,-3.6 1.434,-0.604 3.338,-1.018 4.8,-1.44 1.486,-0.43 4.054,-1.444 4.8,0 -0.217,0.423 -0.537,0.743 -0.96,0.96 z m 13.68,-6.96 c 0.56,1.023 1.431,-0.164 0,0 z m 143.761,8.64 c -0.427,-0.294 -0.05,-1.392 -1.2,-0.96 0.371,4.308 4.494,7.891 5.52,12.72 0.345,1.62 0.055,3.314 0.48,4.8 0.323,1.131 1.485,1.788 1.2,3.12 3.778,-1.492 8.177,-0.96 12.479,-1.2 4.274,-0.238 8.748,-1.104 12.96,-1.439 0.454,0.426 1.585,0.175 2.4,0.24 -0.202,-7.034 0.802,-12.495 0.24,-19.2 -9.124,0.249 -21.764,-0.277 -34.079,1.919 z m -184.801,0.48 c -1.299,0.715 -2.956,-0.033 -4.32,0.24 -0.623,0.125 -1.047,0.655 -1.68,0.72 -2.149,0.222 -4.581,-0.323 -6.96,0 -1.357,0.185 -2.678,0.86 -4.08,0.96 -5.926,0.425 -12.13,-0.563 -18,0 -1.861,0.179 -3.706,1.099 -5.52,1.2 -5.423,0.303 -10.632,-0.682 -14.88,-0.479 -0.667,0.031 -1.384,-0.03 -1.92,0.479 -2.155,-0.902 -3.173,0.189 -4.32,-0.479 0.756,-0.544 -0.661,0.197 -0.48,0.239 -0.435,-0.103 -0.729,-0.666 -1.2,-0.72 0.192,0.022 -0.838,0.229 -0.96,0.24 -1.573,0.153 -3.728,0.732 -5.04,0.24 -0.945,-0.354 -0.289,-0.521 -0.72,0 -0.479,0.577 -3.808,-1.511 -5.28,-0.721 -0.874,5.187 -0.302,14.322 0,18.721 6.505,-0.14 11.755,-0.322 19.44,0.239 1.183,0.087 2.202,0.611 3.36,0.721 2.14,0.2 4.39,-0.274 6.48,-0.24 4.303,0.07 8.322,0.455 12.48,0.72 1.624,-1.313 3.45,-0.737 5.04,-0.479 1.802,0.292 4.393,0.167 6.24,0.239 1.684,0.066 2.759,-0.214 4.08,-0.239 1.953,-0.038 3.869,0.424 6,0.479 2.545,0.067 5.105,-0.395 7.68,-0.479 3.744,-0.124 6.825,-0.24 11.04,-0.48 7.428,-0.422 14.703,0.129 21.36,-0.479 2.687,-0.246 5.313,0.354 7.68,-0.24 0.709,0.379 0.667,0.664 2.16,0.24 2.565,0.564 4.865,0.945 7.68,0.96 2.082,0.011 4.379,-0.821 6.48,-0.721 1.877,0.091 3.666,0.873 5.52,0.96 5.149,0.242 10.207,-0.686 15.6,-0.72 2.141,1.624 4.607,0.778 7.44,0.72 4.896,-0.101 11.083,0.395 16.08,0.24 0.018,0 0.06,-0.454 0.24,-0.479 1.585,-0.227 4.021,0.009 6,0 0.366,-0.002 0.773,0.267 1.2,0.239 0.524,-0.033 0.778,-0.516 1.2,-0.479 0.668,0.057 1.059,0.469 1.68,0.479 5.56,0.101 11.584,-0.623 17.76,0 1.077,-3.363 -1.046,-7.221 -0.72,-10.56 -0.895,0.153 -1.728,0.511 -2.16,0.48 -1.498,0.938 -3.742,1.699 -6,1.92 -0.8,0.077 -2.044,0.358 -2.4,0.239 -0.157,-0.052 -0.183,-0.49 -0.48,-0.479 -0.434,0.016 -0.952,0.446 -1.44,0.479 -5.486,0.379 -10.139,-1.545 -14.4,-3.359 -2.578,-2.542 -5.556,-4.685 -7.2,-8.16 -1.779,0.45 -3.842,-0.308 -5.04,0.479 -1.466,-0.714 -3.425,-0.118 -4.32,-0.96 -6.271,0.513 -12.679,-1.037 -19.44,-1.199 -5.817,-0.141 -11.401,-1.485 -16.56,-0.721 -0.737,1.022 -1.926,1.594 -2.88,2.4 -3.572,1.268 -8.417,2.135 -11.76,2.88 -0.134,-0.346 -0.374,-0.586 -0.72,-0.72 -0.69,0.732 -1.205,0.542 -2.64,0.24 -0.224,0.34 -0.424,0.222 -0.48,0.239 0.162,-0.051 -0.425,0.234 -0.48,0.24 -0.698,0.069 -1.719,-0.526 -2.88,-0.479 -2.438,0.097 -5.113,1.546 -7.44,0.479 -0.945,-0.433 -1.187,-1.236 -2.16,-2.16 -3.874,1.775 -9.856,-1.096 -12.96,-3.119 z m 240,60.96 c 0.19,-0.817 0.872,-1.143 1.2,-1.199 -0.24,0 -0.285,-0.194 -0.479,-0.24 0.334,-2.857 0.864,-5.979 0.96,-9.12 0.092,-3.02 0.471,-6.035 0.479,-9.12 0.011,-3.606 -0.801,-7.488 -0.96,-11.28 -0.127,-3.039 -0.157,-6.066 -0.96,-9.12 -6.179,0.622 -14.434,0.749 -20.64,0.721 -0.513,-0.72 0.318,-1.713 -0.72,-2.16 -1.196,0.479 -2.462,0.519 -4.08,0.479 -5.846,-0.139 -12.914,0.302 -17.04,0.96 -0.033,-0.996 -0.158,-0.048 -0.48,0 -0.396,-0.003 -0.134,-0.665 -0.479,-0.72 -0.659,1.813 -3.485,1.208 -4.801,1.2 0.077,1.987 1.622,3.515 2.16,5.28 0.201,0.659 0.052,1.498 0.24,2.16 0.198,0.692 0.606,1.055 0.72,1.68 0.199,1.09 -0.2,2.167 0,3.12 0.02,0.093 0.435,0.01 0.48,0.239 0.128,0.641 0.145,0.705 0.479,1.44 0.852,1.868 0.151,3.603 0.721,5.28 2.015,1.298 4.352,3.355 7.92,2.88 1.435,1.039 3.654,1.497 6.24,2.16 3.935,1.009 10.046,1.475 12.72,4.08 0.676,2.446 3.216,3.083 4.08,5.279 0.589,1.497 -0.149,3.77 0.479,6.24 3.634,-0.027 8.084,-0.141 11.761,-0.239 z m -318,-37.68 c -0.916,-0.691 -1.643,0.39 -2.16,0 0.001,-0.133 -0.194,-0.272 -0.24,0 0.133,-10e-4 0.272,0.194 0,0.24 -0.807,-0.308 -1.527,0.076 -1.68,0 -0.189,-0.095 0.083,-0.428 -0.24,-0.48 0.075,0.013 -0.131,0.465 -0.24,0.48 -0.345,0.049 -1.17,-0.72 -1.2,-0.72 0.005,0 -0.077,0.456 -0.24,0.479 -2.793,0.399 -5.292,-0.456 -8.64,0.24 -0.216,4.897 1.119,10.211 1.2,15.6 -1.732,2.761 0.228,9.044 -1.44,11.28 1.006,0.569 -0.145,1.848 0.72,2.4 4.634,0.089 8.068,-0.11 12,0.479 1.428,0.214 2.895,0.856 4.56,0.96 1.096,0.068 2.06,-0.238 3.12,-0.24 2.729,-0.004 5.569,0.472 8.16,0.48 2.569,0.009 5,-0.391 7.44,-0.24 4.152,0.256 8.685,1.1 13.44,0.96 2.164,-0.063 4.254,-1.072 6.48,-0.72 0.929,-0.21 0.392,1.048 1.44,0.72 1.42,0.38 1.238,-0.842 2.4,-0.72 2.972,0.95 8.326,0.389 10.56,1.2 0.364,-0.811 2.486,0.021 4.56,-0.721 0.553,-0.073 0.267,0.693 0.72,0.721 -0.075,-0.935 0.554,-0.694 0.96,-0.721 3.281,-0.207 6.787,0.582 9.6,0.721 2.65,0.13 4.996,-0.057 7.44,0 0.277,0.006 0.492,0.483 0.72,0.479 0.023,0 0.629,-0.226 0.72,-0.24 6.175,-0.945 14.384,-0.485 21.6,0.24 7.542,-1.338 15.638,1.978 23.52,0.96 1.405,-0.182 2.528,-0.688 3.84,-0.72 3.847,-0.094 7.135,-0.195 10.08,-0.24 1.589,-0.024 3.22,0.301 4.8,0.24 3.568,-0.137 5.591,-0.996 9.12,-1.2 1.9,-0.109 4.537,-0.265 6.24,0 0.964,0.15 1.78,0.208 2.64,0.24 0.537,0.021 1.015,0.16 1.68,0.24 2.449,0.294 4.145,0.281 6.48,0 4.143,-0.5 8.345,-0.368 12.24,-0.24 4.94,0.162 8.546,0.185 12,0.24 1.753,0.027 3.62,0.484 5.28,0.479 1.983,-0.006 4.201,-0.996 6,0 -0.771,-5.352 0.112,-10.907 -0.24,-16.08 -0.11,-1.62 -0.309,-3.479 -0.48,-4.319 -0.079,-0.387 -0.368,-0.536 -0.48,-0.96 -0.943,-3.577 -1.271,-7.444 -1.68,-10.561 -1.854,0.42 -3.714,-0.363 -5.52,-0.479 -3.967,-0.258 -8.246,0.115 -12.48,0 -1.866,-0.052 -3.647,-0.195 -5.52,-0.24 -6.268,-0.151 -13.354,0.461 -19.92,0.479 -5.979,0.018 -10.932,-1.3 -16.8,-0.96 -0.46,0.027 -0.956,0.426 -1.44,0.48 -2.822,0.32 -6.081,-0.548 -9.12,-0.72 -2.974,-0.17 -5.897,0.155 -8.64,0.239 -4.863,0.15 -8.273,-0.488 -12.24,-0.72 -2.827,-0.165 -5.694,0.134 -8.64,0.24 -10.573,0.381 -21.4,-0.653 -31.68,1.439 -0.994,-0.235 -0.813,-1.113 -1.68,-0.96 -1.785,0.515 -3.537,0.684 -5.76,1.2 -3.539,-1.088 -9.324,-0.196 -13.44,-0.479 -1.044,-0.072 -1.836,-0.182 -2.16,-0.48 -2.075,0.664 -4.197,0.842 -5.76,0.72 -0.216,-0.017 -0.555,-0.459 -0.72,-0.479 -0.422,-0.054 -1.127,0.643 -1.68,-0.24 -1.309,0.517 -3.017,0.082 -4.56,0 -1.38,-0.073 -3.39,0.075 -4.08,0 -8.362,-0.194 -18.278,-1.605 -28.56,-0.96 -1.046,0.326 -0.868,-0.571 -1.44,-0.72 -0.256,0.628 -0.3,1.464 -0.96,1.684 z m 237.12,37.68 c 2.048,0.401 2.751,0.789 5.04,0.721 2.569,-1.552 6.967,-0.799 9.84,-0.721 2.623,0.071 4.919,-0.202 7.681,-0.479 -0.672,-3.824 -0.584,-4.086 -0.48,-8.641 -0.344,-0.357 -1.165,-0.758 -0.72,-1.199 -0.472,-0.072 -0.476,0.324 -0.72,0.479 -0.854,-0.106 -0.469,-1.452 -0.96,-1.92 -0.298,0.512 -1.923,-1.21 -1.681,-2.399 -3.569,-3.391 -6.347,-7.574 -9.12,-11.761 0.638,-1.284 -0.443,0.338 -0.72,-0.96 0.244,-0.103 1.256,-0.517 0.24,-0.479 -0.531,-0.695 0.302,0.368 -0.24,0.239 -1.575,-1.147 -0.747,-3.781 -2.399,-6.479 -1.47,3.98 -0.742,13.795 -1.2,18 -1.519,1.784 -1.62,4.003 -2.4,5.52 0.001,-0.133 -0.194,-0.272 -0.24,0 -0.149,3.518 -1.685,6.294 -1.921,10.079 z m 31.2,-13.2 c -2.584,-0.222 -4.115,3.098 -7.2,2.88 1.419,4.085 2.196,9.757 1.681,14.399 3.939,-0.796 7.263,0.882 12.239,0.48 1.07,-2.058 0.475,-4.681 0.721,-6.72 0.037,-0.312 0.443,-0.428 0.479,-0.721 0.056,-0.444 -0.328,-0.548 -0.24,-0.96 0.842,-3.939 2.972,-6.96 4.801,-10.56 0.733,0.23 1.03,-1.18 0.72,-1.2 -0.688,0.771 -3.531,-1.294 -4.8,-0.72 0.092,-0.813 -1.063,-0.378 -0.721,-1.44 -3.388,-0.13 -4.123,3.272 -6.72,3.36 1.126,0.301 -1.318,1.462 -0.72,0.24 -0.075,0.327 -0.341,0.46 -0.24,0.962 z M 488.17,384 c -1.827,0.966 -3.773,2.868 -4.561,5.04 -0.357,0.985 -0.26,2.881 -0.72,4.08 -0.022,0.059 -0.431,-0.05 -0.479,0 -0.331,0.33 0.153,1.523 0,2.16 -0.5,2.073 -1.954,5.173 -1.92,7.439 1.488,0.732 2.446,0.175 4.079,0.48 1.171,-2.491 0.531,-5.365 1.2,-8.16 0.104,-0.433 0.569,-0.536 0.721,-0.96 0.409,-1.149 0.287,-2.505 0.72,-3.6 0.454,-1.151 1.304,-2.189 1.92,-3.12 0.578,-0.874 1.594,-1.746 1.68,-2.88 -1.408,-0.124 -1.501,-0.084 -2.64,-0.479 z m 16.56,6.24 c -2.224,-2.634 -6.129,-4.362 -10.08,-4.8 -0.014,-0.146 -0.035,-0.284 -0.239,-0.24 -0.237,1.559 -1.315,1.03 -2.4,1.92 -2.811,4.759 -4.668,9.527 -5.04,16.32 1.32,0.263 2.457,-0.141 3.6,-0.24 4.516,-0.396 9.856,-0.089 14.16,0 0.685,0.547 1.064,0.329 2.4,0.479 1.006,-5.033 0.292,-10.25 -2.401,-13.439 z m -313.2,1.92 c -0.657,2.314 0.109,4.867 0.24,7.439 0.22,4.324 -0.578,8.137 -0.72,11.521 -0.268,6.394 0.329,11.454 0.24,18.96 2.422,0.604 5.851,-0.178 7.92,0 0.107,-1.577 0.47,-2.715 -0.48,-3.601 0.061,-1.227 -0.026,-2.646 0,-2.88 0.04,-0.355 0.487,-0.8 0.48,-0.72 0.062,-0.69 -0.303,-2.191 -0.24,-2.64 0.016,-0.116 0.478,-0.486 0.48,-0.721 0,0.02 -0.425,-0.46 -0.48,-0.72 -0.284,-1.337 0.458,-3.553 0.48,-5.28 0.021,-1.629 -0.349,-3.274 -0.24,-4.8 0.033,-0.467 0.385,-0.679 0.48,-1.2 0.064,-0.355 -0.021,-1.053 0,-1.439 0.188,-3.405 -0.318,-6.863 0,-10.561 0.071,-0.826 0.522,-2.094 0.48,-2.64 -2.154,0.076 -5.914,-1.335 -8.64,-0.718 z m 23.28,28.08 c 2.459,-0.089 4.597,-0.1 6.72,-0.96 0.479,-1.277 0.789,-2.097 0.96,-3.601 0.722,-6.335 -0.037,-15.877 0.24,-21.12 -3.14,-0.512 -5.246,-0.635 -8.4,-0.96 1.524,9.114 0.114,17.131 0.48,26.641 z m 306.96,-0.48 c -0.533,-0.933 -0.275,-1.935 -1.439,-1.92 -0.29,-6.388 -0.725,-11.198 -0.721,-17.04 -1.968,0.33 -4.247,-0.027 -6.239,0.72 0.751,1.063 0.26,3.223 0.479,5.521 0.268,2.795 0.673,5.847 1.2,7.92 -0.413,-0.013 -0.615,0.185 -0.72,0.48 1.036,3.916 -0.112,7.99 0.239,11.039 0.418,3.61 -0.195,7.331 0.24,10.561 2.548,0.439 6.129,-0.541 7.92,-0.96 0.133,-0.938 0.054,-2.038 0,-3.36 -0.502,-0.654 -0.901,0.85 -1.2,-0.24 -0.172,-5.942 -0.179,-7.089 -0.96,-11.76 0.785,-0.403 0.683,-1.394 1.201,-0.961 z m -52.8,-14.16 c 1.344,1.027 2.509,1.182 3.6,0.721 -0.712,-2.082 -4.315,-1.139 -6.239,-1.681 0.116,1.084 1.536,0.863 2.639,0.96 z m 28.321,1.68 h 3.6 c -0.063,-1.102 -0.255,-1.16 0,-2.16 -1.574,-0.373 -3.934,-1.159 -3.6,2.16 z m -23.521,-2.16 c -0.152,0.549 -0.476,1.447 0,1.92 1.261,0.14 1.817,-0.423 3.12,-0.24 0.286,-0.669 0.274,-1.46 -0.24,-1.92 -0.599,0.129 -1.672,0.14 -2.88,0.24 z m 17.521,1.2 c 1.727,0.73 2.29,0.263 4.319,0.96 0.13,-0.585 0.225,-1.187 0.24,-2.4 -1.618,0.382 -3.779,0.221 -4.559,1.44 z m 14.879,0.24 c 0.284,-0.595 1.471,-0.289 1.2,-1.439 -0.419,0.018 -0.747,-0.054 -0.96,-0.24 -0.454,0.047 -0.81,1.398 -0.24,1.679 z m -27.36,0 c 1.372,0.195 4.889,0.828 5.521,-0.479 -1.781,-0.22 -3.452,-0.549 -5.28,-0.72 0.098,0.577 -0.439,0.521 -0.241,1.199 z m 23.28,0.48 c 1.067,0.188 1.44,-0.319 2.4,-0.24 -0.079,-0.561 -0.289,-0.991 -0.48,-1.439 h -1.44 c 0.158,0.877 -0.519,0.919 -0.48,1.679 z m -16.32,-0.48 c 1.284,-0.156 3.195,0.315 4.08,-0.239 -0.542,-0.05 -3.392,-0.808 -4.08,0.239 z m 12,2.64 c -0.416,4.055 -0.479,9.492 -0.479,15.12 1.537,0.348 3.881,-0.036 6,-0.721 -0.079,-4.715 0.296,-11.055 0.72,-14.88 -2.393,0.154 -4.284,0.442 -6.241,0.481 z m -82.8,19.44 c 0.241,0 0.286,0.194 0.48,0.24 -0.023,-0.377 0.032,-0.832 -0.48,-0.72 z m 8.399,5.28 c -0.023,-0.377 0.031,-0.832 -0.48,-0.72 -0.205,0.949 -2.698,0.196 -0.96,-0.48 -0.983,-0.233 -1.538,0.595 -2.16,0 -0.095,0.413 0.356,0.615 0,0.721 -2.18,-0.7 -3.727,-2.033 -6.24,-2.4 -1.028,3.052 -2.678,5.482 -3.12,9.12 7.056,-0.973 17.306,-2.166 21.84,3.12 -0.109,-1.005 0.836,-1.827 0.96,-3.12 0.232,-2.431 -0.806,-5.37 -0.48,-7.92 -2.46086,0.12332 -3.09144,1.19748 -4.8,1.679 -2.56622,-0.0919 -3.01398,-0.58557 -4.56,0 z M 429.13,444 c -3.432,-4.127 -9.899,-3.608 -15.6,-2.4 -0.343,0.697 -1.398,0.683 -1.68,1.44 -0.601,-0.348 -0.942,-0.581 -1.68,-0.24 -0.274,0.526 -0.62,0.98 -0.48,1.92 5.583,-1.892 12.623,-0.529 17.52,1.2 0.756,1.084 1.623,2.057 2.64,2.88 0.65,-1.109 1.058,-2.463 1.68,-3.6 -0.718,-0.482 -1.147,-1.253 -2.4,-1.2 z m -19.92,4.08 c -0.309,1.739 -0.378,3.64 0.48,4.8 -0.733,1.538 0.527,5.231 1.68,6.24 3.06,2.677 6.103,3.074 9.84,1.439 1.555,-1.564 2.795,-3.444 4.08,-5.279 0.278,-0.202 0.644,-0.316 1.199,-0.24 0.604,-1.637 1.81,-2.672 2.16,-4.561 -4.311,-4.023 -13.149,-5.118 -19.439,-2.399 z" />
          <path
             style="clip-rule:evenodd;fill:#ffffff;fill-opacity:1;fill-rule:evenodd"
             id="path3976"
             d="m 415.21,186.72 c 0.616,0.589 0.145,0.522 0.72,0.72 0.356,-0.104 -0.095,-0.307 0,-0.72 1.152,0.265 3.095,0.585 3.6,0 0.152,0.807 1.257,-0.189 0.72,0.72 0.602,0.042 0.583,-0.537 0.96,-0.72 1.441,0.669 2.711,0.691 5.279,0.96 1.023,0.994 2.729,1.98 4.32,1.68 3.153,4.968 6.194,17.371 3.601,24.96 -0.188,0.546 -0.029,0.344 -0.48,0.24 0.327,1.867 -0.445,4.442 -1.2,6 -0.982,-0.574 -2.368,-0.379 -2.88,0.72 -4.55,-0.019 -7.325,2.18 -11.28,0.72 -0.15,0.356 -0.123,0.645 -0.72,0 -0.981,0.612 -2.802,0.991 -3.84,0.24 -0.052,0.934 -4.157,0.231 -4.08,0.24 -5.317,-0.587 -12.192,-0.729 -17.04,-2.64 0.299,-1.015 -0.162,-1.542 0.24,-2.16 -0.761,-0.764 -0.993,-1.777 -1.2,-2.88 -0.677,-3.596 -1.003,-8.752 -0.72,-13.2 0.305,-4.806 0.727,-8.504 2.4,-11.76 1.808,-0.3 3.054,-2.163 4.8,-2.64 0.671,-0.184 1.566,0.08 2.4,0 1.98,-0.19 3.536,-0.957 4.56,-0.72 0.262,0.061 0.141,0.248 0,0.24 3.143,0.17 6.482,0.562 9.84,0 z m 3.36,33.12 c -0.024,1.182 0.651,-0.058 0.24,0 1.2,-0.168 2.894,-0.009 5.04,0 1.676,0.007 1.415,-0.007 1.92,-0.24 0.265,-0.122 0.684,0.096 0.96,0 1.295,-0.448 2.519,-1.374 3.84,-1.68 2.123,-3.577 1.392,-7.307 1.681,-10.56 0.411,-4.631 0.053,-9.044 -1.2,-13.68 -1.01,-0.351 -1.928,-0.792 -2.4,-1.68 -4.021,-2.052 -8.747,-1.41 -13.439,-2.16 -2.726,-0.436 -5.233,-1.196 -7.92,-1.2 -1.556,-0.002 -3.028,0.662 -4.56,0.72 -0.961,0.036 -1.916,-0.404 -2.88,-0.24 -0.906,0.154 -1.621,1.303 -2.64,0.96 -0.467,1.271 -1.914,2.092 -2.4,3.6 -0.251,0.78 -0.055,1.946 -0.24,3.12 -0.141,0.897 -0.671,1.812 -0.72,2.64 -0.38,6.432 0.417,14.488 1.92,19.44 8.717,1.789 15.497,1.828 22.798,0.96 z" />
          <path
             style="clip-rule:evenodd;fill:#ffffff;fill-opacity:1;fill-rule:evenodd"
             id="path4026"
             d="m 420.01,257.76 c 1.175,-1.156 1.726,-1.463 3.12,-2.4 1.527,0.652 3.703,0.372 4.8,1.92 1.16,1.639 0.703,4.282 -0.96,5.04 -1.086,0.495 -2.212,-0.051 -3.84,0.24 -0.067,-0.388 0.227,-0.413 0.24,-0.72 -0.513,-0.112 -0.458,0.343 -0.48,0.72 -0.862,-0.842 -2.025,-0.701 -2.4,-2.4 -1.136,2.427 -4.131,2.882 -6.96,1.92 -0.686,-1.046 -0.654,-1.387 -1.44,-2.4 0.707,-0.899 -0.009,-1.528 0.72,-2.88 0.93,-0.239 2.94,-1.964 4.8,-1.68 1.303,0.199 2.063,1.209 2.4,2.64 z m 2.64,3.12 c -0.545,-1.201 -0.064,-2.764 0.24,-3.84 -1.748,0.388 -1.633,3.141 -0.24,3.84 z m -6.96,-0.24 c 1.024,0.524 3.124,0.317 3.12,-0.96 -0.313,-3.021 -5.031,-2.521 -3.12,0.96 z m 8.16,-0.48 c 0.631,0.771 1.968,0.856 3.12,0.48 0.466,-1.015 0.226,-2.569 -0.96,-2.64 -0.453,0.026 -0.167,0.793 -0.72,0.72 -0.389,-0.332 -0.299,-1.142 -1.2,-0.96 -0.067,0.813 -0.382,1.378 -0.24,2.4 z" />
          <path
             style="clip-rule:evenodd;fill:#ffffff;fill-opacity:1;fill-rule:evenodd"
             id="path4028"
             d="m 408.01,255.36 c 0.776,1.298 2.341,1.811 2.64,3.12 0.861,3.779 -2.908,5.718 -6.48,4.32 -1.97,-3.094 -0.454,-7.066 3.84,-7.44 z m -2.88,4.56 c 0.395,2.135 3.631,2.079 4.08,0.48 0.287,-1.022 -0.345,-1.158 -0.48,-2.16 -1.528,0.752 -1.182,-1.017 -2.64,-0.96 -0.582,1.186 -1.13,1.722 -0.96,2.64 z" />
          <path
             style="clip-rule:evenodd;fill:#ffffff;fill-opacity:1;fill-rule:evenodd"
             id="path4030"
             d="m 432.49,278.64 c -0.753,0.798 -0.577,1.771 -1.199,2.64 -0.575,0.804 -1.817,1.225 -2.4,1.92 -0.874,1.042 -0.984,2.558 -2.16,3.36 -8.485,0.617 -16.699,-0.415 -25.44,0.24 -2.125,-2.195 -4.527,-4.113 -7.2,-5.76 -0.233,-2.233 -0.035,-4.63 0,-7.2 0.053,-3.905 -1.079,-8.316 0,-12.48 -0.273,-1.006 -0.487,-2.072 -0.72,-3.12 2.066,-2.814 4.068,-6.069 7.44,-8.16 3.673,-0.227 7.388,-0.828 11.28,-0.72 3.936,0.109 7.77,0.606 11.28,0.96 0.65,0.066 1.488,-0.198 2.159,0 1.17,0.345 2.22,1.723 3.36,2.64 1.779,1.432 4.193,2.353 4.08,4.56 -0.094,1.829 -0.732,4.745 -0.72,6.48 0.005,0.697 0.224,1.394 0.239,2.16 0.031,1.496 -0.212,1.51 -0.239,3.36 -0.021,1.38 0.621,6.258 -0.96,7.44 0.159,0.802 0.775,1.145 1.2,1.68 z m -3.6,1.2 c 0.484,-0.799 1.049,-1.089 1.2,-1.92 0.167,-0.919 -0.209,-1.954 -0.24,-2.88 -0.182,-5.434 0.341,-11.849 0.24,-17.04 -3.205,-3.015 -3.545,-6.595 -9.36,-6.72 -0.296,-0.006 -0.64,0.451 -0.96,0.48 -2.853,0.259 -6.59,-0.372 -9.12,-0.24 -2.848,0.148 -7.207,1.076 -9.36,0.72 -0.875,2.637 -4.192,3.329 -5.04,6.72 -0.77,3.081 0.329,9.542 0.24,14.16 -0.041,2.108 -0.784,3.5 -0.24,5.04 1.633,2.367 3.754,4.246 5.04,6.96 7.618,-0.981 15.182,0.029 23.76,-0.24 1.873,-1.108 2.759,-3.254 3.84,-5.04 z" />
        </g>
      </g>
    </g>
  </g>
</svg>
