<?xml version="1.0" encoding="UTF-8" standalone="no"?>
<svg
   xmlns:dc="http://purl.org/dc/elements/1.1/"
   xmlns:cc="http://creativecommons.org/ns#"
   xmlns:rdf="http://www.w3.org/1999/02/22-rdf-syntax-ns#"
   xmlns:svg="http://www.w3.org/2000/svg"
   xmlns="http://www.w3.org/2000/svg"
   style="overflow:visible"
   xml:space="preserve"
   enable-background="new 0 0 841.93 595.745"
   overflow="visible"
   viewBox="0 0 594.25043 507.90769"
   height="507.90768"
   width="594.25043"
   id="Ebene_1"
   version="1.1"><metadata
   id="metadata2852"><rdf:RDF><cc:Work
       rdf:about=""><dc:format>image/svg+xml</dc:format><dc:type
         rdf:resource="http://purl.org/dc/dcmitype/StillImage" /><dc:title></dc:title></cc:Work></rdf:RDF></metadata><defs
   id="defs2850">
	
	
	
	
	
	
	
	
	
	
	
	
	
	
	
	
	
	
	
	
	
	
	
	
	
	
	
	
	
	
	
	
	
	
	
	
	
	
	
	
	
	
	
	
	
	
	
	
	
	
	
	
	
	
	
	
	
	
	
	
	
	
	
	
	
	
	
	
	
	
	
	
	
	
	
	
	
	
	
	
	
	
	
	
	
	
	
	
	
	
	
	
	
	
	
	
	
	
	
	
	
	
	
	
	
	
	
	
	
	
	
	
	
	
	
	
	
	
	
	
	
	
	
	
	
	
	
	
	
	
	
	
	
	
	
	
	
	
	
	
	
</defs>
<g
   style="fill:#ffffff"
   transform="matrix(1.6595465,0,0,1.6595465,-260.09906,-296.34146)"
   id="g3680"><path
     style="clip-rule:evenodd;fill:#ffffff;fill-rule:evenodd"
     id="path2575"
     d="m 307.93,240.72 c 0.214,0.187 0.542,0.258 0.96,0.24 0.141,1.06 -1.296,0.828 -0.96,-0.24 z" /><path
     style="clip-rule:evenodd;fill:#ffffff;fill-rule:evenodd"
     id="path2589"
     d="m 354.25,264.48 c 0.058,-0.422 0.413,-0.547 0.96,-0.48 -0.127,0.193 -0.25,0.39 -0.24,0.72 -0.193,-0.127 -0.389,-0.25 -0.72,-0.24 z" /><path
     style="clip-rule:evenodd;fill:#ffffff;fill-rule:evenodd"
     id="path2611"
     d="m 297.13,306.24 c 0.418,0.217 0.924,0.536 0.48,0.96 -0.422,-0.057 -0.547,-0.413 -0.48,-0.96 z" /><path
     style="clip-rule:evenodd;fill:#ffffff;fill-rule:evenodd"
     id="path2639"
     d="m 290.89,339.84 c -0.084,0.315 -0.422,0.378 -0.48,0.72 -0.597,-0.097 -0.014,-0.93 0.48,-0.72 z" /><path
     style="clip-rule:evenodd;fill:#ffffff;fill-rule:evenodd"
     id="path2641"
     d="m 261.85,362.88 c -1.737,0.021 -2.557,-1.471 -4.32,-2.399 -1.208,-0.638 -1.266,-2.193 -1.92,-3.36 -0.462,-0.824 -1.417,-1.298 -1.92,-2.16 -0.469,-0.805 -1.548,-4.142 -1.44,-5.28 0.176,-1.861 1.911,-2.521 2.64,-4.08 1.564,0.143 2.418,-1.581 3.84,-2.159 4.114,-1.673 10.851,-0.199 12,2.88 1.418,3.797 -3.377,7.784 -3.84,11.04 -1.551,1.967 -3.415,3.622 -5.04,5.518 z m 4.32,-16.8 c -0.255,-0.168 -0.599,0.277 -0.72,0.24 -0.144,-0.046 -0.08,-0.378 -0.48,-0.48 -1.839,-0.472 -6.771,0.531 -8.16,1.92 -0.2,0.2 -0.736,0.063 -0.48,0.721 1.518,1.544 4.085,-0.789 5.52,0 0.448,-0.577 1.594,-0.548 2.4,-0.48 1.232,0.103 2.809,0.249 3.36,0.48 -0.186,-0.918 -0.723,-1.927 -1.44,-2.401 z m -8.16,5.52 c -0.744,-0.898 -1.45,-0.343 -2.64,-0.72 1.077,1.746 0.038,3.996 1.44,4.561 0.005,-1.035 0.234,-1.847 0.96,-2.16 2.703,-0.263 4.308,-0.344 6,-0.24 0.634,0.039 1.745,-0.785 2.16,0.479 -0.871,-0.23 -0.202,1.079 -0.96,0.961 -2.78,0.26 -4.956,1.124 -7.68,1.439 0.898,2.461 1.789,4.197 4.32,4.561 2.346,-3.335 5.373,-5.987 6.24,-10.801 -3.544,1.775 -6.518,0.343 -9.84,1.92 z" /><path
     style="clip-rule:evenodd;fill:#ffffff;fill-rule:evenodd"
     id="path2721"
     d="m 250.81,428.64 c 0.281,0.039 0.203,0.438 0.24,0.721 -0.388,0.067 -0.413,-0.228 -0.72,-0.24 0.06,-0.262 0.478,-0.164 0.48,-0.481 z" /><path
     style="clip-rule:evenodd;fill:#ffffff;fill-rule:evenodd"
     id="path2769"
     d="m 442.331,250.8 c 0.995,0.275 0.935,-0.505 1.68,-0.48 -0.116,0.756 1.101,0.18 1.2,0.72 5.39,0.104 11.348,0.357 17.52,1.44 0.771,0.21 0.498,-0.623 0.96,-0.72 7.982,1.307 17.84,1.767 26.16,2.88 0.147,-0.333 0.924,-0.036 0.96,-0.48 0.614,0.345 1.693,0.227 2.16,0.72 6.211,-0.288 9.602,1.13 17.04,0.96 0.427,1.013 2.073,0.807 1.92,2.4 -1.315,0.512 -1.867,-0.461 -2.88,0.479 -2.467,-1.023 -5.75,-0.827 -9.36,-0.96 -4.636,-0.17 -9.795,-1.417 -14.399,-0.96 -0.407,-0.553 -1.603,-0.317 -1.92,-0.96 -0.147,0.333 -0.925,0.036 -0.96,0.48 -0.708,-0.699 -1.51,-0.71 -1.681,-0.24 -0.573,-0.821 -1.657,0.026 -2.64,-0.96 -1.652,0.928 -4.146,-0.66 -6.96,-0.24 -0.459,0.068 -0.985,0.464 -1.44,0.48 -3.021,0.109 -6.377,-1.28 -8.64,-1.2 -0.679,0.024 -1.165,0.769 -1.2,0 -0.408,-0.088 -0.453,0.187 -0.479,0.48 -0.854,0.373 -0.146,-0.815 -0.721,-0.72 -0.895,-0.408 -0.38,0.142 -1.2,0.24 0.077,-0.637 -1.344,0.224 -0.959,-0.72 -0.24,0.463 -1.238,0.67 -0.721,0 -3.569,0.88 -8.32,-0.589 -12.96,-0.96 -0.392,4.393 0.92,9.159 1.2,13.68 0.779,0.139 1.116,-0.164 1.68,-0.24 2.078,0.911 3.739,0.197 5.28,0.96 4.442,-0.937 10.842,0.698 14.64,1.2 0.355,0.047 0.807,-0.144 0.96,0.48 1.766,-0.636 3.473,0.45 5.521,0.48 0.826,0.012 1.586,-0.423 2.4,-0.48 2.498,-0.174 4.907,0.246 8.64,0.48 8.122,0.51 17.143,1.991 25.2,2.64 0.65,0.052 1.501,-0.125 2.16,0 1.216,0.229 1.538,0.895 2.64,0.96 -1.037,0.934 -2.402,0.053 -3.601,0 -0.519,-0.023 -1.154,0.233 -1.68,0.24 -2.58,0.031 -5.118,-0.769 -7.92,-0.96 -8.222,-0.561 -14.436,-0.431 -22.32,-1.2 -1.763,-0.172 -3.442,0.225 -5.279,0.24 -1.281,0.011 -2.536,-0.458 -3.84,-0.48 -2.081,-0.034 -4.018,0.189 -7.2,0 -1.051,-0.063 -2.052,-0.709 -2.88,0 -1.56,-1.286 -3.011,-0.306 -4.08,-1.2 -2.006,0.168 -4.416,-0.911 -7.2,-0.72 -0.79,-0.331 -1.17,-1.07 -2.4,-0.96 -0.93,0.869 0.93,2.251 0,3.12 0.616,0.432 0.882,1.357 0.48,2.16 0.956,0.573 0.649,-0.536 1.439,-0.72 8.461,3.085 19.532,2.767 30.24,3.84 2.014,0.202 4.346,0.01 6.48,0 5.322,-0.025 10.224,0.325 17.279,0 0.599,-0.027 1.204,0.307 1.681,0.24 0.744,-0.105 2.357,-1.259 3.359,0 0.463,-0.098 0.189,-0.931 0.96,-0.72 0.033,0.997 0.158,0.048 0.48,0 1.957,0.106 3.183,-0.393 4.56,0.24 0.151,1.271 -0.764,1.477 -1.199,2.16 -2.303,-0.389 -4.24,0.432 -6,0.24 -0.625,-0.068 -1.244,-0.487 -1.921,-0.48 -0.849,0.008 -1.55,0.39 -2.399,0.48 -2.949,0.312 -6.5,-0.261 -9.601,0 -2.324,0.195 -5.418,-0.487 -8.159,-0.72 -6.437,-0.548 -12.605,0.058 -18.24,-0.24 -2.535,-1.073 -6.457,-1.704 -10.32,-1.92 -0.93,-0.052 -1.966,0.167 -2.88,0 -0.48,-0.087 -0.729,-0.571 -1.2,-0.72 -1.243,-0.394 -2.474,-0.223 -3.6,-0.24 -1.094,0.504 0.906,3.283 0,4.08 -0.042,0.037 -0.47,-0.042 -0.48,0 -0.035,0.145 1.016,0.995 0,0.72 0.06,0.261 0.478,0.163 0.48,0.48 0.483,10.379 -0.69,23.172 0.24,34.56 -0.978,0.543 -0.553,2.487 -1.2,3.359 1.194,0.545 3.105,-1.037 5.279,-0.96 0.989,0.189 0.451,-1.148 1.44,-0.96 0.337,4.069 -1.586,10.255 -2.16,15.36 -0.108,0.964 0.12,1.949 0,2.88 -0.396,3.065 -1.052,6.467 -1.439,10.08 -0.038,0.678 0.678,0.602 0.96,0.96 -3.803,7.638 -2.188,20.866 -6.721,27.84 -0.688,0.361 -1.197,-0.602 -1.68,0.48 0.003,-1.175 -0.78,0.954 -1.439,-0.24 -1.153,1.008 -2.857,1.463 -4.32,2.16 -3.65,3.069 -8.953,4.487 -13.44,6.72 -0.07,0.359 -0.321,0.43 -0.72,0.96 -0.408,0.089 -0.453,-0.188 -0.48,-0.479 -0.593,1.342 -2.118,1.487 -3.36,2.16 -2.262,1.225 -4.48,3.286 -7.2,3.119 -1.283,1.838 -4.6,1.218 -6,2.4 -0.108,4.428 -0.218,8.858 1.44,11.52 0.833,0.137 1.531,2.028 1.92,3.36 1.631,1.409 2.191,3.889 3.84,5.28 0.099,1.04 0.637,3.155 -0.24,4.319 3.923,0.651 7.993,0.939 10.56,3.12 0.557,0.474 1.218,1.497 1.92,2.16 1.605,1.519 2.767,2.375 3.119,4.8 0.481,3.302 -0.629,6.764 -3.119,9.601 0.906,0.654 1.796,0.294 2.88,0 2.165,0.633 5.431,1.175 8.16,1.92 0.957,0.237 0.723,-0.718 1.68,-0.48 1.197,0.885 5.689,0.53 7.439,1.92 6.547,0.578 15.354,2.769 20.641,4.08 0.874,0.218 1.621,0.528 2.399,0.721 0.795,0.195 1.632,0.038 2.4,0.239 0.493,0.13 0.945,0.61 1.44,0.721 2.973,0.66 6.477,1.282 9.119,1.199 0.617,0.184 1.018,0.583 1.2,1.2 4.639,0.446 8.264,1.485 12.72,2.641 0.985,0.255 4.012,1.604 5.041,0.72 4.984,2.005 11.233,2.809 16.319,4.08 -0.588,0.786 -1.174,0.091 -2.16,0.479 0,-0.319 0,-0.64 0,-0.96 -0.346,0.055 -0.083,0.717 -0.479,0.721 -2.058,-0.241 -4.789,0.171 -6.48,-0.96 -1.384,-0.041 -2.877,-0.348 -4.8,-0.721 -1.697,-0.329 -3.125,-0.874 -4.8,-1.2 -1.075,-0.208 -2.165,0.12 -2.88,-0.72 -0.361,0.504 -0.362,0.269 -0.96,0.24 -3.199,-0.152 -8.16,-2.215 -11.04,-2.4 -0.928,-0.063 -0.947,0.549 -1.681,0.24 -0.296,-0.176 -0.841,-0.068 -1.439,-0.479 -0.057,-0.039 -0.896,-1.151 -0.48,-0.96 -0.295,-0.137 -1.215,-0.063 -1.92,-0.24 -2.492,-0.625 -5.832,-0.88 -9.12,-1.44 -4.094,-0.698 -7.675,-2.766 -11.279,-2.64 -2.521,-1.721 -7.653,-2.105 -11.04,-2.16 -0.495,-0.065 -0.058,-1.063 -0.721,-0.96 -0.039,0.245 -1.465,0.235 -0.72,0.48 -6.438,-1.161 -13.329,-3.89 -21.36,-3.601 -4.116,3.084 -10.536,3.864 -16.56,5.04 -1.344,0.681 -1.022,3.072 -0.72,5.04 1.426,-0.118 2.14,0.252 3.12,0 0.293,0.347 0.916,0.364 1.2,0.72 5.406,0.516 7.988,3.614 13.44,4.32 -0.071,0.631 0.932,0.188 0.72,0.96 0.596,-0.516 1.748,0.123 2.4,0.48 2.17,1.187 3.843,4.088 6,5.279 -0.131,1.353 1.506,2.033 2.16,3.12 0.401,0.667 0.981,2.023 1.439,3.12 0.107,0.257 -0.101,0.738 0,0.96 0.259,0.569 0.934,0.874 1.2,1.44 0.149,0.317 0.061,1.185 0.24,1.68 0.234,0.646 0.707,1.194 0.72,1.44 0.115,2.172 -1.658,3.282 -2.64,5.279 -0.655,-0.021 -0.483,0.4 -0.96,0 0.198,0.679 -0.339,0.622 -0.24,1.2 -0.917,-0.322 -0.624,0.111 -1.2,0.96 -0.863,-0.014 -1.414,1.158 -2.64,1.44 -0.464,0.104 -0.53,0.863 -0.96,1.199 -0.13,0.102 -0.614,-0.12 -0.72,0 -0.052,0.059 0.063,0.451 0,0.48 -0.509,0.236 -1.194,0.191 -1.681,0.479 -0.712,0.424 -3.138,2.003 -4.08,1.2 -1.673,1.17 -3.401,1.823 -5.52,1.44 -0.738,0.534 -2.236,0.937 -3.6,0.479 -0.975,1.047 -2.991,0.182 -4.32,0.24 -0.38,0.017 -0.805,0.426 -1.2,0.48 -0.501,0.069 -0.913,-0.261 -1.44,-0.24 -0.498,0.019 -0.867,0.412 -1.44,0.479 -2.84,0.338 -7.955,-0.683 -12,-0.96 -2.325,-0.158 -4.738,0.124 -6.48,0 -0.495,-0.035 -1.465,0.166 -1.68,-0.479 -0.924,1.074 -2.196,0.213 -3.84,0 -0.999,-0.13 -2.196,-0.032 -3.12,-0.24 -2.956,-0.664 -5.906,-2.242 -8.4,-2.4 -1.687,-2.393 -4.318,-3.842 -6.24,-6 -0.088,-0.408 0.188,-0.452 0.48,-0.479 -0.293,-0.731 -0.916,0.351 -1.2,-0.24 -0.108,-1.012 -0.998,-1.242 -1.44,-1.92 -0.286,-3.04 -2.223,-5.842 -0.96,-8.399 -0.365,-0.758 -0.371,-1.705 -0.24,-2.641 0.218,-1.555 1.099,-3.521 1.92,-4.32 -1.477,-2.324 -3.747,-3.665 -3.84,-6.479 -0.181,-5.453 3.305,-11.206 5.28,-15.12 -0.39,-0.786 0.054,-0.917 0,-1.92 0.779,-0.021 0.169,-1.431 1.2,-1.2 -0.45,-0.985 0.199,-3 0.24,-3.6 -4.795,-0.237 -9.351,-1.699 -13.44,-1.92 -0.516,-0.028 -1.378,0.274 -1.68,0.239 -1.832,-0.211 -3.817,-1.106 -5.76,-1.439 -0.945,-0.162 -1.994,-0.028 -2.88,-0.24 -0.99,-0.237 -1.926,-0.979 -2.88,-1.2 -1.895,-0.439 -4.075,-0.615 -6,-0.96 -1.82,-0.324 -4.701,-0.358 -6,-1.199 -0.038,-0.025 -0.288,-0.493 -0.24,-0.48 -0.833,-0.216 -1.825,0.171 -2.64,0 0.003,10e-4 -3.271,-0.902 -3.12,-0.72 -0.709,-0.855 -1.642,-0.461 -2.88,-0.721 -1.539,-0.321 -3.587,-1.434 -6.24,-1.92 -1.804,-0.33 -3.636,-0.109 -5.28,-0.479 -0.367,-0.083 -0.603,-0.607 -0.96,-0.72 -1.083,-0.344 -2.235,-0.02 -3.36,-0.24 -0.987,-0.194 -1.774,-0.815 -2.64,-0.96 -1.68,-0.281 -3.96,-0.148 -6.24,-0.48 -6.477,-0.943 -13.237,-1.979 -20.16,-3.359 -0.821,0.101 -0.721,-0.719 -1.2,-0.96 -2.113,2.446 -5.046,4.073 -7.44,6.239 -0.89,-0.17 -1.03,0.41 -1.92,0.24 1.64,0.813 3.333,0.517 5.04,0.72 1.151,0.138 2.637,0.129 3.84,0.48 0.627,0.184 1.252,1.026 2.4,1.68 0.835,0.477 2.09,0.699 2.88,1.2 0.142,0.09 0.302,0.6 0.48,0.72 2.197,1.488 4.729,3.093 6.24,5.521 0.104,0.166 -0.165,0.655 0,0.96 0.07,0.129 0.636,0.284 0.72,0.479 0.527,1.23 0.649,3.074 0.48,4.32 -0.104,0.767 -0.39,0.041 -0.48,0.24 -0.152,0.334 0.268,0.451 0.24,0.72 -0.045,0.431 -0.69,0.901 -0.479,1.68 -0.477,0.004 -0.306,0.655 -0.96,0.48 -0.32,2.719 -2.394,3.687 -3.36,5.76 -0.43,0.03 -0.506,-0.294 -0.96,-0.24 -1.214,1.36 -3.4,1.498 -5.52,2.4 -1.363,0.58 -2.568,1.523 -3.6,1.92 -0.167,0.064 -0.589,-0.461 -0.48,0.24 -0.224,-0.176 -0.363,-0.437 -0.48,-0.72 -0.719,0.157 0.229,0.513 0,0.96 -1.8,0.36 -5.362,1.862 -6.96,0.72 -1.351,0.292 -3.503,1.338 -4.32,0 -0.85,0.026 0.51,0.793 -0.24,0.72 -4.255,0.186 -6.766,1.377 -10.8,0.96 -1.36,-0.141 -2.792,-0.854 -4.56,-0.96 -1.112,-0.067 -2.385,0.099 -3.6,0 -2.961,-0.239 -4.305,-0.736 -6.24,-2.16 -2.286,-1.681 -3.785,-2.935 -5.52,-5.52 -1.765,-2.63 -3.893,-8.214 -2.16,-12.72 0.384,-0.998 2.433,-3.693 3.36,-4.561 3.723,-3.481 9.617,-3.401 14.16,-5.76 3.511,-0.233 3.382,-0.067 7.44,0.24 0.589,-1.334 0.335,-2.988 0.24,-4.561 -1.635,-0.061 -3.367,-0.891 -5.28,-1.2 -1.765,-0.284 -3.54,-0.005 -5.04,-0.239 -1.392,-0.218 -3.267,-0.653 -3.36,-2.16 -0.843,0.871 -0.883,-0.579 -1.44,-0.96 0.028,0.02 -1.243,-0.308 -1.44,-0.48 -1.695,-1.482 -2.813,-4.219 -5.04,-5.52 -2.853,0.679 -5.895,-0.741 -9.12,-1.44 -6.306,-1.367 -13.003,-1.164 -18,-2.399 0.454,0.436 -1.372,0.689 -2.4,0.239 -0.187,-0.081 -0.41,-0.694 -0.48,-0.72 -1.052,-0.387 -0.388,2.365 -0.72,-0.24 -0.376,0.104 -0.205,0.755 -0.96,0.48 -0.438,-0.418 -1.033,-0.327 -2.4,-0.72 0.097,-0.543 1.407,0.126 0.96,-0.96 -0.24,-0.331 -0.396,0.102 -0.72,-0.48 -0.747,0.39 0.561,0.779 0.24,0.96 -0.661,0.288 -1.271,0.259 -0.72,-0.479 -0.548,0.81 -2.9,0.129 -2.16,-0.961 -0.753,0.987 -0.713,0.25 -1.68,0.48 0.06,-0.261 0.478,-0.163 0.48,-0.48 -0.74,0.146 -1.685,-0.084 -3.36,-0.239 -0.601,-1.246 -0.938,0.273 -2.16,-1.2 -0.513,0.49 -1.553,0.201 -2.4,0 -2.294,-0.547 -4.52,-1.313 -6.48,-2.16 -3.988,0.057 -9.41,-1.413 -13.68,-1.92 -1.301,-0.154 -3.168,0.525 -3.6,-1.2 1.046,0.214 1.504,-0.244 0.72,-0.72 0.813,-0.404 1.384,0.456 2.4,0.479 0.467,0.012 1.052,-0.282 1.68,-0.239 0.564,0.038 0.849,0.371 1.44,0.479 1.871,0.344 3.906,-0.126 5.76,0.24 2.034,0.402 4.55,1.201 7.2,1.68 0.821,0.148 1.635,0.114 2.4,0.24 0.536,0.088 0.907,0.354 1.44,0.48 2.433,0.577 4.773,0.815 7.2,1.199 3.608,0.572 6.527,1.793 9.6,2.641 0.391,0.107 0.967,0.1 1.44,0.239 0.456,0.135 0.86,0.65 1.2,0.721 1.32,0.273 2.455,-0.171 4.08,0.479 0.112,0.045 0.244,0.481 0.24,0.48 0.751,0.136 1.386,-0.283 2.16,-0.24 3.305,0.184 6.621,1.72 9.84,2.16 0.821,0.112 1.777,-0.108 2.64,0 2.523,0.316 4.918,1.298 7.44,2.16 -0.443,-2.48 -1.367,-4.156 -0.72,-6.721 0.047,-0.186 0.793,-0.487 0.96,-0.96 0.322,-0.913 0.046,-1.628 0.24,-2.399 1.155,-1.165 3.209,-1.431 3.36,-3.601 0.566,0.31 0.447,-0.031 1.2,0.24 2.694,-1.842 6.669,-2.941 10.08,-3.359 0.377,-0.663 0.352,-1.729 0.96,-2.16 -2.528,-5.659 -0.324,-10.742 0.72,-16.561 0.324,-1.807 0.894,-3.66 1.2,-5.52 0.329,-1.991 0.306,-4.061 0.72,-5.76 0.23,-0.946 0.657,-2.268 0.48,-4.08 -0.104,-1.071 -0.765,-2.214 -0.96,-3.36 -0.351,-2.062 0.121,-3.531 -1.2,-5.28 -2.617,-1.303 -4.5,-3.34 -6.72,-5.04 -0.861,0.499 -2.595,0.125 -3.84,0.24 0.617,0.743 1.935,0.785 2.88,1.2 -0.774,1.562 -2.935,-0.987 -4.08,0 -0.603,-0.103 0.23,-0.686 0.72,-0.48 -0.359,-0.936 -2.018,-0.752 -3.6,-0.96 -1.575,-0.207 -3.144,-0.529 -4.56,-0.479 -0.142,0.941 1.318,0.282 0.96,1.439 -0.374,-0.686 -0.474,-0.146 -1.44,-0.239 0.412,-1.211 -2.743,-0.573 -4.08,-2.16 0.041,0.693 0.979,1.094 -0.24,1.2 0.453,-1.198 -0.618,-0.3 -0.48,-0.24 -0.479,-0.205 -0.201,-0.579 -0.96,-0.721 -3.261,-8.596 -5.626,-17.207 -7.68,-25.439 0.276,-0.284 0.271,-0.849 0.24,-1.44 -1.9,-4.61 -2.55,-14.214 -3.84,-19.2 -0.339,-1.31 -0.967,-2.616 -1.44,-4.08 -0.183,-0.566 -0.004,-1.9 -0.24,-3.36 -0.336,-2.085 -1.262,-4.165 -1.2,-6.24 -0.316,-0.632 -0.788,-0.735 -1.44,-0.48 -0.051,-0.851 1.126,-0.474 0.96,-1.44 0.011,-1.13 -0.425,-1.815 -0.96,-2.4 1.926,-4.663 8.833,-1.992 12,-5.04 0.969,-7.098 3.493,-13.26 5.04,-20.4 -1.002,-0.166 -2.331,0.113 -3.36,0 -3.413,-0.374 -6.689,-2.191 -10.08,-2.88 -2.718,-0.552 -4.823,-0.786 -7.44,-1.44 -1.41,-0.353 -3.106,-0.526 -4.32,-0.96 -0.4,-0.143 -0.556,-0.598 -0.96,-0.72 -2.266,-0.685 -4.993,-1.163 -7.44,-1.68 -3.936,-0.832 -7.354,-1.143 -11.04,-1.68 -0.129,-0.93 0.612,-0.988 0.72,-1.68 13.861,1.831 27.281,6.723 42,9.12 0.735,0.146 1.25,0.509 1.92,0.72 0.802,-0.478 0.519,-2.041 0.96,-2.88 -2.004,-1.39 -4.571,-1.237 -6.96,-1.68 -3.419,-0.634 -6.324,-1.689 -10.32,-2.4 -1.545,-0.275 -3.275,-0.891 -4.8,-1.2 -0.167,-0.034 -0.398,0.33 -0.72,0.24 -0.182,-0.05 -0.169,-0.437 -0.48,-0.48 -0.736,-0.102 -1.436,0.119 -2.16,0 -0.709,-0.116 -1.16,-0.513 -1.92,-0.72 -3.157,-0.859 -6.854,-1.217 -10.8,-2.16 -1.703,-0.407 -3.311,-1.19 -5.04,-1.44 -1.353,-0.196 -2.612,0.254 -3.6,-0.48 0.173,-0.733 -0.245,-0.875 -0.24,-1.44 1.361,0.36 2.795,0.202 4.32,0.48 1.507,0.274 2.966,1.103 4.56,1.44 2.804,0.592 6.061,0.542 9.12,1.2 1.541,0.332 3.037,1.274 4.56,1.44 0.98,0.107 1.947,-0.318 2.88,-0.24 1.456,0.123 2.841,1.116 4.32,1.2 1.357,0.077 2.065,-0.078 3.36,0.24 2.897,0.711 6.141,1.725 9.12,1.92 0.771,-0.211 0.329,0.791 0.96,0.72 1.698,0.063 3.001,0.088 4.56,0.72 1.902,-1.947 1.251,-5.606 2.88,-7.92 0.693,-0.985 1.688,-1.201 2.4,-2.16 -1.806,-1.034 -3.995,-0.697 -6.24,-0.96 -4.858,-0.57 -10.31,-2.126 -15.6,-2.88 1.02,1.061 3.541,0.619 4.8,1.44 0.128,1.242 -1.39,0.866 -2.4,0.72 -0.975,-0.141 -2.638,-0.5 -2.88,-1.2 -3.643,-0.112 -8.814,-2.023 -12.72,-2.88 -2.34,-0.513 -4.424,-1.079 -6.24,-1.68 -0.417,-0.138 -1.297,0.429 -1.2,-0.48 -2.525,-0.083 -6.846,-1.114 -9.6,-2.4 -0.156,-1.036 0.415,-1.345 0.72,-1.92 1.792,0.905 5.445,1.31 7.2,1.68 2.366,0.5 4.463,1.167 6.72,1.68 0.581,0.132 1.25,-0.119 1.92,0 0.884,0.157 1.781,0.852 2.64,0.96 0.732,0.093 2.092,-0.331 2.4,-0.24 1.583,0.466 2.452,0.971 4.08,1.2 0.642,0.09 1.339,0.162 1.92,0.24 3.374,0.452 7.061,-0.02 9.6,1.92 1.425,0.256 2.99,0.371 4.08,0.96 4.062,0.158 7.15,0.685 10.32,1.2 0.096,0.624 0.716,0.724 0.72,1.44 2.382,-0.215 4.723,-2.696 7.2,-3.6 0.698,-0.255 1.48,-0.065 2.16,-0.24 1.758,-0.451 3.051,-1.462 4.32,-2.16 1.346,-0.248 1.866,0 2.88,-0.72 -0.139,-1.943 -1.508,-3.967 -1.68,-6.48 -0.224,-3.272 0.186,-7.297 0.48,-10.8 0.147,-1.753 0.316,-3.873 0.72,-5.52 0.645,-2.631 2.359,-4.454 2.4,-7.2 1.658,-2.822 3.853,-5.107 5.52,-7.92 2.077,-1.147 2.986,-2.77 5.52,-3.84 2.008,-0.848 3.603,-0.19 6,-0.72 1.973,-0.436 2.875,-0.179 5.28,0.24 1.286,0.224 2.859,0.23 4.08,0.48 1.906,0.391 3.654,1.541 5.521,1.44 1.752,0.808 3.438,1.682 5.28,2.4 2.018,2.702 4.109,5.331 6,8.16 1.203,3.995 1.131,8.561 1.2,13.68 0.018,1.289 -0.223,2.826 0,3.84 0.301,1.364 1.44,2.938 2.16,4.08 1.168,1.852 2.646,3.548 3.6,5.28 4,2.081 8.734,3.426 11.52,6.72 0.502,-0.523 0.685,0.12 1.44,0 5.839,3.121 10.713,7.207 14.88,12 2.646,-1.083 4.573,0.92 7.68,1.2 0.538,-0.102 0.765,-0.515 1.2,-0.72 1.431,0.409 3.327,0.353 4.32,1.2 2.864,-0.678 6.168,0.41 9.36,0.72 1.56,0.151 2.688,0.117 4.32,0.48 1.109,0.247 3.007,-0.502 3.36,0.72 -0.083,-0.873 3.452,-0.507 4.56,0.24 0.631,0.017 0.808,-0.56 1.44,-0.24 0.755,-0.115 0.938,0.342 1.44,0.48 1.642,0.225 3.325,-0.227 4.8,0 1.747,0.268 3.182,1.123 4.8,1.44 2.969,0.582 6.104,0.56 9.12,0.72 3.798,0.202 8.462,1.386 11.52,-1.44 1.144,-0.454 1.314,0.512 2.4,0 -0.654,-1.586 -1.967,-2.513 -3.12,-3.6 0.318,-2.264 -1.365,-2.092 -0.96,-3.84 -1.68,-2.196 -1.216,-4.354 -3.12,-6.48 0.403,-1.565 -1.889,-4.224 -1.44,-6.48 -0.234,-0.246 -0.475,-0.486 -0.72,-0.72 0.264,-1.067 -0.58,-1.749 0,-2.4 -0.464,0.035 -0.334,-0.415 -0.72,-0.96 -0.213,-1.907 0.23,-3.178 -0.48,-4.32 0.15,-0.741 0.444,-1.883 -0.24,-1.92 0.465,-0.596 -0.235,-0.855 0.48,-1.2 -0.665,-0.65 0.103,-1.483 -0.72,-1.68 0.173,-1.056 1.051,-2.004 1.44,-3.12 0.195,-0.562 -0.37,-1.893 0.72,-1.92 0.071,-0.631 -0.931,-0.188 -0.72,-0.96 0.009,-3.51 2.128,-4.912 2.88,-7.68 1.895,-1.226 2.848,-3.392 4.32,-5.04 0.96,-0.561 2.168,-0.872 2.4,-2.16 1.045,-0.578 2.383,-0.578 3.6,-0.96 1.669,-0.524 3.193,-1.442 4.8,-1.92 1.031,-0.307 1.987,-0.067 3.12,-0.24 3.099,-0.473 5.064,-1.676 8.4,-1.68 2.311,-0.003 5.878,1.024 7.92,1.44 0.781,0.159 0.981,0.967 2.16,0.24 0.691,0.937 1.818,0.616 2.641,0.96 2.234,0.936 3.691,2.592 5.76,4.08 1.371,3.269 3.491,5.789 5.52,8.4 0.14,2.341 1.227,3.734 2.16,5.28 -0.003,1.894 0.788,3.249 1.2,5.76 0.463,2.818 0.274,6.913 -0.479,11.52 -0.221,1.345 -0.579,2.725 -0.961,4.32 -0.077,0.326 -0.438,0.938 -0.479,1.2 -0.055,0.345 0.321,0.887 0.24,1.2 -0.07,0.271 -0.597,0.847 -0.721,1.2 -0.362,1.034 -1,3.391 -1.439,4.32 -0.07,0.147 -0.404,-0.045 -0.48,0.24 -0.243,0.91 -1.093,1.193 -0.96,2.4 0.13,1.177 1.852,1.808 1.44,2.64 0.066,0.504 0.641,-0.348 0.96,0.24 0.053,1.618 1.642,2.538 2.16,3.6 0.142,0.292 -0.13,0.735 0,0.96 0.481,0.833 1.147,0.954 1.439,1.68 0.132,0.328 -0.133,1.306 0,1.68 0.157,0.442 0.63,0.634 0.721,0.96 0.326,1.191 -0.009,2.626 0.959,3.846 z M 285.13,190.32 c -2.017,-1.743 -3.749,-3.771 -5.76,-5.52 -6.094,-2.494 -13.933,-5.247 -19.92,-3.6 -6.066,1.669 -10.361,5.726 -12.48,11.04 -0.749,1.878 -0.958,4.061 -1.68,6 -0.133,0.358 -0.615,0.795 -0.72,1.2 -0.946,3.642 -1.194,9.509 -1.44,13.92 -0.17,3.041 0.341,4.618 0.72,6.48 0.806,0.315 1.292,0.948 1.68,1.68 1.974,0.896 4.049,1.827 6.24,2.64 2.104,0.781 4.386,1.785 6.72,2.4 3.043,0.802 6.961,0.84 9.84,1.2 4.177,0.523 8.177,-0.457 11.52,-1.68 0.245,-1.201 2.219,-1.934 1.68,-3.12 -2.485,0.418 -6.475,1.158 -7.68,0.72 0.745,0.245 -0.681,0.235 -0.72,0.48 -1.084,-0.459 -3.256,-0.515 -3.36,-0.48 -1.127,0.375 -2.179,0.124 -3.12,0 -1.103,-0.145 -1.878,-0.62 -2.16,-0.72 -0.611,-0.218 -0.426,0.361 -0.96,-0.24 -0.271,-0.304 -0.276,0.134 -0.48,0 -2.524,-1.656 -5.64,-2.861 -7.92,-4.8 0.142,-1.143 -0.609,-1.257 -0.96,-2.4 0.065,-0.815 -0.186,-1.946 0.24,-2.4 -1.823,-3.981 0.67,-8.985 1.68,-13.44 1.491,-1.209 1.811,-3.052 3.12,-4.08 0.889,-0.698 3.148,-1.486 4.8,-1.92 3.593,-0.944 9.136,-0.71 11.04,-0.24 1.682,0.415 2.915,0.936 4.08,1.2 1.015,0.23 2.088,0.028 2.88,0.24 1.809,0.483 3.259,1.588 4.8,1.44 -0.204,-2.78 -1.389,-3.743 -1.68,-6 z m 109.44,-0.24 c -0.911,0.595 -1.768,1.985 -2.88,3.12 -2.33,2.377 -3.899,4.437 -4.8,7.92 8.232,-1.455 15.576,-4.728 23.28,-3.12 3.234,1.542 4.498,3.557 6,7.2 1.392,3.375 3.494,9.679 2.16,12.96 0.861,1.344 0.491,6.996 0.24,10.08 -1.558,2.727 -4.794,4.475 -7.2,5.76 -1.156,0.618 -2.261,1.393 -3.12,1.68 -1.064,0.356 -1.431,-0.266 -1.68,-0.24 -0.117,0.012 -0.729,1.48 -0.96,0.24 -0.391,1.084 -1.672,0.959 -2.4,1.2 -1.473,0.486 -2.834,0.672 -4.8,1.44 -0.164,-0.323 -0.731,0.209 -0.96,-0.48 -0.348,1.061 -0.353,0.375 -0.96,0 -1.009,1.485 -1.912,0.346 -3.36,0.96 1.341,1.188 2.473,2.739 4.08,4.08 1.31,1.093 3.55,3.114 5.04,3.12 2.229,0.009 3.747,-3.004 6,-3.84 0.674,-0.25 1.462,-0.358 2.4,-0.48 1.504,-1.723 3.675,-1.807 6,-2.4 2.522,-0.643 6.23,-2.559 8.4,-3.36 1.521,-0.562 3.002,-0.735 4.32,-1.44 0.72,0 1.439,0 2.159,0 3.053,-4.863 5.337,-10.256 6.24,-16.8 0.712,-5.153 0.044,-9.124 -0.96,-12.72 -0.276,-0.989 -0.314,-2.283 -0.72,-3.12 -0.656,-1.355 -2.354,-2.808 -3.36,-4.32 -1.068,-1.605 -1.719,-3.276 -2.64,-4.32 -2.748,-3.113 -6.836,-4.433 -9.6,-6.72 -1.884,0.109 -3.572,-1.359 -5.76,-1.68 -4.119,-0.604 -8.165,1.209 -11.04,0.72 0.02,0.628 -2.583,2.754 -3.36,1.2 0.61,1.49 -2.158,1.493 -2.64,1.44 0.133,0 0.272,-0.194 0,-0.24 -0.144,1.549 -2.258,1.598 -3.119,2.16 z m -112.08,6.96 c -1.614,-0.508 -3.886,-0.429 -5.76,-0.96 -1.023,-0.29 -1.698,-0.851 -2.64,-0.96 -1.805,-0.21 -4.009,0.079 -6,0.24 -1.5,0.122 -3.194,0.863 -4.8,0.72 -0.922,1.157 -2.717,1.615 -3.84,3.12 -1.471,1.973 -1.827,4.322 -2.4,6.96 -0.193,0.891 -0.604,1.616 -0.72,2.4 -0.208,1.411 -0.526,3.204 -0.48,4.32 0.075,1.779 1.438,3.127 1.44,4.8 4.26,1.501 7.37,3.257 12.48,3.6 2.283,0.153 5.237,-0.449 6.72,0.24 1.967,-0.708 4.523,-1.057 6.48,-0.24 1.771,-6.875 4.298,-13.607 3.6,-22.32 -1.426,-0.22 -2.616,-1.46 -4.08,-1.92 z m 121.92,37.2 c 3.005,-1.155 5.244,-3.077 8.64,-3.84 2.288,-2.516 4.278,-5.201 3.84,-9.12 0.004,0.041 -0.445,-0.154 -0.48,-0.24 -0.727,-1.817 0.4,-3.562 0.48,-5.04 0.274,-5.062 -2.375,-8.854 -3.6,-12.96 -0.983,-0.377 -1.49,-1.23 -1.92,-2.16 -8.562,-2.1 -17.026,1.6 -25.44,2.88 -0.663,1.337 -0.46,3.54 -0.48,5.52 1.458,2.532 0.745,5.843 1.44,9.36 0.5,2.53 1.979,4.887 2.4,7.44 1.016,0.584 0.689,2.511 1.68,3.12 -0.241,0.479 -1.061,0.378 -0.96,1.2 0.905,1.495 1.316,3.484 2.16,5.04 4.283,0.031 8.408,-0.662 12.24,-1.2 z m -117.6,-17.52 c -0.014,0.046 -0.375,0.223 -0.48,0.48 -0.381,0.937 -0.369,2.115 -0.72,3.12 -0.56,1.604 -2.07,2.952 -1.68,4.8 0.598,0.362 1.178,0.742 1.92,0.96 2.298,-2.342 4.294,-4.986 5.76,-8.16 -1.738,-1.062 -1.744,-3.856 -3.6,-4.8 -1.069,1.069 -0.805,2.347 -1.2,3.6 z m 5.76,4.32 c -0.071,-0.631 0.931,-0.189 0.72,-0.96 -0.491,-0.063 -1.111,0.931 -0.72,0.96 z m -0.72,1.44 c -0.373,0.798 -3.428,2.288 -4.08,4.32 2.168,2.389 5.3,3.322 7.92,5.04 1.271,0.834 2.408,2.006 3.6,2.88 1.978,1.451 3.509,3.039 5.52,4.08 0,0.24 0,0.48 0,0.72 1.154,0.596 1.836,0.97 2.64,1.44 -1.556,0.387 -3.944,-0.34 -4.32,-1.92 -1.614,-0.426 -3.013,-1.456 -4.32,-2.4 -1.592,-1.15 -3.72,-2.32 -5.04,-3.36 -2.276,-1.794 -4.861,-2.944 -6.96,-4.8 -1.034,0.77 -3.143,-0.103 -3.84,-0.24 -1.042,0.501 1.506,1.301 1.44,2.4 -0.98,-0.073 0.041,0.332 -0.24,0.96 0.393,2.68 2.298,5.266 2.64,7.68 0.306,2.164 -0.573,4.791 0.24,6.96 0.03,-0.53 1.018,-0.102 1.44,-0.24 3.713,1.941 9.314,1.895 14.4,2.4 3.456,0.344 5.992,0.946 9.84,0.96 3.201,-1.359 7.134,-1.986 8.64,-5.04 -0.53,-2.596 0.119,-4.456 -0.96,-6.24 -0.696,-1.151 -2.309,-1.623 -3.36,-2.64 -1.153,-1.117 -1.63,-2.448 -2.64,-3.6 -3.691,-2.309 -7.086,-4.914 -11.28,-6.72 -1.845,-2.396 -5.55,-2.93 -8.4,-4.32 -0.822,0.69 -2.214,1.571 -2.88,1.68 z m -48.24,0.72 c -0.16,0 -0.32,0 -0.48,0 -2.806,1.791 -5.269,2.512 -8.16,3.6 -2.176,0.819 -4.843,2.45 -7.92,3.12 -1.471,1.805 -2.056,3.869 -2.88,6.24 -0.396,1.137 -1.01,2.036 -1.44,3.12 -1.64,4.135 -1.884,8.882 -3.84,13.2 -2.371,8.877 -3.294,19.708 -4.08,29.04 -0.423,5.03 0.208,7.923 1.2,10.56 0.781,2.074 1.417,4.076 2.64,5.04 1.807,1.425 3.902,1.129 5.52,0.96 4.446,-0.465 9.41,-0.683 13.2,-2.16 2.503,-0.976 4.889,-1.381 6.96,-1.44 -0.017,-4.841 -0.633,-10.324 2.4,-12.72 0.179,-2.782 1.356,-4.564 1.68,-7.2 -3.033,0.002 -4.381,0.367 -7.68,0.24 -0.575,-0.095 0.133,1.093 -0.72,0.72 -1.99,0.259 -4.15,0.488 -6.24,0.72 -3.094,3.306 -5.936,6.864 -10.32,8.88 -0.4,0.959 -1.065,1.654 -2.4,1.68 -0.001,-3.761 4.1,-3.42 5.04,-6.24 1.927,-0.393 2.832,-1.809 3.6,-3.36 1.314,-0.446 1.83,-1.69 2.88,-2.4 0.817,-0.302 1.907,-0.333 2.64,-0.72 0.411,-1.188 0.864,-2.335 1.92,-2.88 0.546,-1.548 0.829,-2.875 1.2,-4.8 1.287,-6.671 2.35,-13.15 2.4,-20.64 0.031,-4.645 -1.787,-10.659 -2.16,-14.4 1.315,0.125 1.147,1.732 2.16,2.16 -0.276,0.284 -0.271,0.848 -0.24,1.44 2.397,3.494 2.172,6.621 2.16,11.52 -0.004,1.566 0.092,3.108 0,4.56 -0.039,0.611 0.125,1.564 0,2.16 -0.03,0.142 -0.426,0.024 -0.48,0.48 -0.324,2.74 -0.514,5.477 -0.96,7.92 -0.347,1.899 -1.195,3.465 -1.2,5.28 -0.006,2.23 -0.418,3.875 -0.72,6 8.361,-0.367 18.895,-0.589 26.88,0.24 2.258,-2.302 4.183,-4.938 6.48,-7.2 1.059,0.255 1.854,-0.475 2.4,0 0.468,-1.358 -0.799,-2.227 -0.24,-2.88 0.331,-0.01 0.527,0.113 0.72,0.24 -0.098,-0.82 -0.648,-0.305 -0.24,-1.2 2.335,-1.092 4.597,-1.849 6.72,-1.68 -0.255,0.01 -0.609,-0.113 -0.24,-0.24 1.222,0.334 2.554,-0.328 4.08,0.48 -0.298,-4.232 -0.005,-8.878 -0.48,-13.44 -0.163,-1.562 -0.753,-3.143 -0.72,-4.56 0.077,-3.251 -1.235,-5.974 -1.2,-8.4 -0.438,-0.362 -0.564,-1.036 -0.96,-1.44 0.676,-1.879 -1.196,-3.281 -2.4,-4.08 -5.302,1.564 -12.757,1.649 -18.48,0.96 -0.506,0.768 -1.647,0.461 -2.4,0.24 -2.625,-0.771 -6.097,-1.844 -8.64,-2.4 -0.054,0.186 -0.007,0.473 -0.24,0.48 -1.254,-1.101 -2.988,-0.46 -3.36,-2.16 0.687,-0.337 1.31,0.745 1.2,-0.24 -1.917,-0.403 -3.01,-1.63 -4.56,-2.4 z m 174,18.72 c -0.396,0.004 -0.134,0.666 -0.48,0.72 -3.724,0.296 -5.044,1.483 -8.64,3.12 -4.551,2.072 -6.482,3.158 -7.2,7.2 -0.24,1.351 -0.453,2.302 -0.48,4.08 2.417,-1.588 4.286,-4.736 7.2,-6.72 2.864,-1.95 6.171,-3.315 8.16,-5.52 0.597,-0.026 0.743,-0.45 1.2,0 0.157,-1.228 1.342,-1.025 2.16,-1.44 0.72,-0.365 1.448,-0.819 2.16,-1.2 1.487,-0.796 4.619,-2.43 4.32,-3.6 -2.724,1.196 -5.074,2.766 -8.4,3.36 z M 371.77,246 c -0.053,0.174 -0.007,0.488 -0.24,0.48 -1.477,-0.052 -3.265,-1.046 -4.56,-0.72 0.186,0.054 0.474,0.007 0.48,0.24 -1.915,-0.386 -3.737,-0.296 -4.56,-1.44 -0.295,0.958 -2.829,0.854 -1.92,0.24 -1.021,0.451 -3.079,0.595 -3.12,-0.72 0.029,1.235 -1.294,0.59 -1.44,0 -0.946,1.083 -1.115,-0.618 -2.4,0 -0.033,-0.447 -0.158,-0.802 -0.48,-0.96 0.124,0.61 0.409,0.931 -0.48,0.96 -0.055,-0.425 0.242,-1.202 -0.48,-0.96 -0.01,0.33 0.113,0.527 0.24,0.72 -1.381,0.003 -4.544,-0.207 -5.04,-1.2 -0.731,0.668 -0.839,-0.01 -1.2,0 -0.051,0.001 -0.271,0.586 -0.48,0.48 -0.159,-0.081 0.082,-0.522 -0.24,-0.48 -0.458,0.06 -0.548,0.567 -1.2,0.48 -0.302,-0.041 -0.227,-0.465 -0.48,-0.48 -0.017,-10e-4 -0.04,0.475 -0.24,0.48 -0.53,0.012 -1.3,-0.428 -2.16,-0.48 -0.667,-0.041 -2.387,0.663 -3.12,-0.72 -4.425,0.193 -9.341,-2.655 -15.36,-2.88 1.243,2.479 0.729,4.547 0.24,7.68 -1.273,-0.477 -1.153,1.63 -2.4,0.96 -0.036,0.89 -1.211,1.494 -1.92,0.96 -0.486,0.794 -1.824,0.736 -2.88,0.96 0.389,0.599 1.146,0.82 1.68,0.96 4.891,1.284 9.274,1.556 13.68,2.16 5.126,0.703 11.343,1.886 17.76,2.4 1.321,1.265 5.211,0.478 7.44,1.44 0.951,-0.489 1.872,-1.008 3.36,-0.96 0.487,-0.314 0.33,-1.271 0.96,-1.44 0.48,0 0.96,0 1.44,0 1.306,-0.832 2.549,-1.97 4.08,-2.64 1.697,-0.743 2.761,-2.004 4.32,-2.4 0.744,-1.497 3.538,-0.942 4.32,-2.4 -1.042,-0.567 -2.503,0.104 -2.64,-0.72 -0.163,0.75 -0.73,0.403 -0.96,0 z m 36.24,60.72 c 1.008,-1.97 0.485,-4.324 0.72,-6.479 0.188,-1.72 0.775,-3.345 0.72,-5.04 -0.086,-2.661 -0.954,-4.9 -1.44,-7.68 0.116,-0.427 0.256,0.104 0.48,0.24 -2.065,-3.239 -0.482,-5.643 -0.48,-8.88 0.359,-0.041 0.886,0.086 0.96,-0.24 -1.524,-0.899 0.598,-3.059 0.24,-4.08 -0.011,-1.119 0.684,-3.845 0.48,-6.72 -0.098,-1.379 -0.547,-2.696 -0.48,-4.08 0.161,-3.342 1.545,-5.53 3.6,-7.44 1.751,-0.065 3.398,-1.75 5.52,-2.4 1.866,-0.572 3.904,-0.691 5.76,-0.96 0.234,-0.246 0.475,-0.485 0.72,-0.72 0.77,0.404 2.958,-0.949 4.8,-0.96 0.46,0.67 1.578,0.449 2.4,0.96 1.08,0.671 4.016,4.088 4.32,5.04 0.254,0.796 -0.122,3.25 0,2.16 0.187,0.053 0.278,0.201 0.239,0.48 0.019,0.962 -0.024,1.255 0,2.64 0.015,0.818 -0.034,2.687 0,4.08 0.157,6.334 -0.616,13.48 -0.96,20.88 -0.107,2.316 -0.721,4.455 -0.96,6.72 -0.272,2.588 -0.239,5.604 -0.239,8.16 0,2.593 0.934,4.375 1.199,6 0.312,1.901 -0.359,4.11 0,6 -0.789,1.354 -1.814,2.892 -2.159,5.279 3.739,0.122 6.248,-0.91 9.84,-1.439 0.275,-7.083 0.013,-13.422 0.239,-20.4 0.069,-2.113 0.72,-4.168 0.721,-6.24 0,-2.055 -0.585,-4.071 -0.721,-6.24 -0.236,-3.811 0.35,-9.065 0,-11.76 -0.529,-4.084 -1.374,-7.788 -1.92,-11.52 -0.182,-1.247 0.025,-2.342 -0.239,-3.36 -0.268,-1.027 -1.024,-2.063 -1.2,-3.12 -0.174,-1.041 0.162,-2.138 0,-3.12 -0.16,-0.967 -0.796,-2.001 -1.2,-3.12 -0.407,-1.125 -0.549,-2.529 -0.96,-3.36 -0.044,-0.089 -0.616,-0.321 -0.72,-0.48 -0.252,-0.388 -0.339,-0.69 -0.48,-0.96 -1.099,-2.09 -1.732,-3.752 -2.88,-5.28 -1.846,-0.047 -3.591,0.976 -5.04,1.2 -0.859,0.133 -1.062,-0.285 -1.2,-0.24 -0.002,0 -0.371,0.656 -0.479,0.72 -0.702,0.412 -0.329,0.008 -0.721,0.48 0.056,-0.066 -0.941,0.205 -1.199,0 -4.382,4.275 -10.65,6.701 -15.36,10.32 -0.884,0.68 -1.555,1.661 -2.4,2.4 -2.604,2.281 -5.426,4.326 -6.72,7.68 -0.313,0.754 -0.167,1.013 0,1.92 -1.129,1.11 -0.958,3.522 -2.16,4.56 1.019,1.012 1.374,2.261 2.16,3.6 0.793,1.352 2.655,2.895 2.64,4.32 -0.081,7.756 -1.117,16.664 -1.92,24.96 -3.344,2.656 -4.021,7.979 -6.72,11.28 -0.759,2.49 -0.379,8.001 0,11.52 1.642,-1.079 2.83,-2.712 4.08,-3.84 0.522,-0.472 1.174,-0.698 1.68,-1.2 1.026,-1.019 1.552,-2.453 2.64,-3.36 0.369,-0.307 1.052,-0.449 1.44,-0.72 1.483,-1.034 2.543,-2.155 3.84,-3.36 -0.625,-2.652 0.195,-3.7 -0.481,-4.801 z m -9.6,-59.76 c -1.485,-1.395 -2.456,-3.304 -4.56,-4.08 -4.677,2.363 -9.997,4.083 -14.4,6.72 -3.344,-0.577 -4.47,3.016 -8.4,2.64 -1.988,1.292 -4.187,2.373 -6.24,3.6 1.246,2.269 3.843,3.198 5.28,5.28 0.84,1.217 1.045,2.451 1.68,4.08 4.894,-0.404 9.068,-2.75 13.44,-2.88 1.052,-0.903 3.383,-1.688 4.8,-1.44 1.063,-1.497 3.683,-1.437 5.28,-2.4 0.566,0.314 1.659,0.102 2.16,0.48 0.315,-4.091 0.595,-6.155 1.2,-9.6 0.556,-0.077 0.921,0.039 1.2,0.24 -0.082,-1.202 0.915,-1.326 0.72,-2.64 -0.799,-0.417 -1.065,0.121 -2.16,0 z m -38.88,-2.88 c -0.153,-0.202 -1.122,-0.751 -1.2,-0.24 0.217,0.188 1.951,0.583 1.2,0.24 z m 4.32,0.24 c -0.151,-0.133 -0.725,-0.975 -0.96,-0.24 0.602,-0.317 0.583,1.117 0.96,0.24 z m -76.32,10.32 c 1.245,1.074 3.061,0.507 4.8,0.72 3.112,0.38 5.282,1.943 7.68,2.16 1.642,0.148 3.161,0.516 4.8,0.72 7.194,0.894 15.257,1.592 22.32,2.16 5.114,0.411 10.58,0.22 14.4,1.2 0.662,0.169 1.469,0.807 2.16,0.72 0.267,-0.612 1.064,-0.695 1.44,-1.2 0.722,0.585 0.681,-0.232 1.2,-0.48 0.479,-0.229 0.152,0.123 0.96,-0.48 2.155,-1.608 4.65,-0.851 5.52,-2.64 -5.349,-0.474 -9.796,-0.992 -13.44,-2.4 -2.213,1.265 -5.736,-0.813 -7.44,0 -3.961,-2.103 -10.086,-1.786 -15.12,-2.64 -2.248,-0.381 -4.206,-1.354 -6,-0.72 -1.581,-1.472 -2.976,-0.582 -5.28,-0.72 -0.351,-0.021 -0.065,-0.393 -0.24,-0.48 -0.187,-0.094 -0.327,0.259 -0.48,0.24 -2.205,-0.283 -4.521,-0.653 -6.72,-0.96 -3.588,-0.5 -7.905,-1.098 -10.8,-1.68 -0.36,2.082 0.817,4.475 0.24,6.48 z m 146.881,8.88 c -0.224,-2.536 -0.397,-5.332 -1.681,-6.96 -0.496,-0.63 -2.116,-1.841 -3.12,-2.16 -0.991,-0.315 -2.587,0.189 -2.88,0.24 -1.347,0.233 -3.6,0.043 -4.56,0.24 -1.932,0.396 -6.285,2.66 -7.44,3.6 -3.563,2.898 -2.203,7.717 -2.64,12.72 -0.17,1.949 -1.029,3.605 -0.72,5.52 8.7,-1.063 14.74,-4.133 23.041,-1.92 -0.29,-4.098 0.316,-7.689 0,-11.28 z m 0.479,-7.2 c -0.215,0.215 0.203,0.683 0.24,0.72 0.761,0.761 0.124,-1.084 -0.24,-0.72 z m -69.36,3.36 c -1.099,-0.185 -3.57,-1.067 -3.6,-3.12 -0.737,-0.036 -1.079,0.844 -1.68,0.24 -0.628,1.052 -1.911,1.434 -2.88,1.92 -1.06,0.532 -2.053,1.242 -3.12,1.68 -2.342,0.961 -5.132,0.676 -7.2,2.4 -0.541,1.897 -2.511,2.561 -3.36,3.84 -2.446,3.682 -1.653,12.443 0,15.6 1.616,0.552 2.835,1.344 4.32,0.479 3.012,-1.754 1.409,-10.326 0.96,-13.44 -0.669,-0.69 -1.478,-1.242 -1.68,-2.4 1.208,-2.479 4.621,-2.906 6.72,-2.88 -0.232,0.953 0.695,0.745 1.2,0.96 0.41,-0.077 -0.221,-0.743 0.48,-0.96 0.72,0.13 2.873,-0.301 2.88,1.2 0.558,-0.853 2.01,0.002 2.4,0.48 3.169,3.881 -8.323,6.459 -4.32,10.56 0.751,-0.049 1.762,0.162 2.16,-0.24 2.653,-3.8 6.419,-7.588 10.08,-9.6 0.342,-3.674 -2.606,-5.613 -3.36,-6.719 z M 364.57,258 c -0.97,-0.844 -0.566,0.772 0,0 z m -72.72,135.36 c 0.373,0.062 0.167,0.526 0,0.72 -1.807,2.094 -5.078,5.136 -9.36,4.8 0.249,0.632 0.287,1.473 0.24,2.4 -0.747,0.059 0.048,0.741 -0.72,0.96 -0.57,0.162 -0.64,1.068 -1.2,1.92 -1.156,-0.377 -1.323,1.134 -2.16,1.68 -0.156,0.102 -0.853,0.089 -1.2,0.24 -1.852,0.807 -3.494,1.719 -5.76,2.16 1.454,2.162 4.611,1.779 7.2,2.16 5.59,0.82 11.659,2.654 17.04,3.359 0.468,0.252 0.958,0.481 1.44,0.72 0.628,-0.092 0.67,-0.77 1.68,-0.479 0.298,0.35 -0.102,0.287 0.48,0.479 3.218,1.067 7.994,0.822 12.48,1.921 1.923,0.471 3.924,1.185 5.76,1.68 2.188,0.589 4.106,1.417 6,1.92 0.426,0.113 0.547,-0.276 0.96,-0.24 0.689,0.061 1.476,0.681 1.92,0.72 0.753,0.067 1.455,-0.312 2.16,-0.239 3.01,0.308 5.654,1.563 8.16,1.92 3.733,0.532 8.325,0.711 12.48,1.92 0.535,-0.504 1.109,0.204 1.68,-0.48 3.691,1.282 8.982,3.253 12.48,2.641 -0.806,-1.521 -2.569,-1.78 -2.16,-3.601 -2.889,-2.081 -6.005,-2.552 -8.4,-5.04 0.092,0.096 -0.34,-1.078 -0.24,-0.96 -0.739,-0.873 -2.243,-1.552 -2.4,-1.92 -0.084,-0.197 0.568,-0.39 0.48,-0.479 -0.13,-0.134 -0.862,-0.012 -1.2,-0.24 -0.322,-0.217 -0.509,-0.795 -0.72,-0.96 -0.644,-0.501 -1.132,-0.995 -1.68,-1.44 -2.414,-1.957 -4.688,-3.644 -6.72,-5.76 -1,-1.041 -2.166,-2.058 -2.88,-3.6 -1.413,-0.908 -2.16,-2.48 -3.36,-3.601 -0.661,-2.132 -2.449,-3.104 -3.84,-4.56 -3.016,-3.156 -6.534,-6.521 -10.08,-8.64 -0.403,-1.518 -1.925,-1.915 -2.4,-3.36 -1.252,0.094 -0.824,-0.966 -1.44,-0.48 -0.539,-1.827 -1.876,-3.113 -2.64,-5.279 -1.231,-0.37 -0.737,-2.58 -1.2,-4.32 -0.67,-2.521 -0.405,-4.305 0,-6.96 0.892,-5.845 3.401,-9.753 7.68,-11.76 0.973,-0.457 0.957,0.022 1.92,-0.24 2.164,-0.591 4.209,-2.002 6.48,-1.92 1.166,-0.966 2.802,-1.036 4.08,-1.2 0.617,-1.063 3.342,-1.477 4.8,-0.96 0.689,-1.129 2.284,-0.638 3.6,-0.96 1.424,-0.35 2.932,-0.924 4.08,-1.92 -1.04,-2.034 -1.926,-8.339 -1.44,-11.04 0.152,-0.846 0.423,-1.136 0.72,-0.48 0.139,-0.778 -0.164,-1.116 -0.24,-1.68 1.988,-1.932 5.265,-2.575 7.44,-4.32 2.435,-0.434 5.313,-1.099 6.96,-1.439 2.564,-0.531 4.972,-0.406 7.2,-0.72 2.252,-0.317 4.124,-0.767 7.2,-0.721 2.448,0.037 4.062,0.728 6.24,0.96 2.323,0.249 4.619,-0.41 6.72,0 1.701,0.333 3.85,0.912 6,0.24 0.881,-3.524 -0.134,-6.993 -0.24,-10.56 -0.092,-3.072 -0.264,-6.083 0,-9.12 0.442,-5.081 1.279,-9.679 0.96,-14.64 -0.13,-2.017 0.032,-3.891 -0.48,-5.76 1.324,-4.319 1.474,-10.353 1.68,-14.88 -2.651,-0.145 -2.724,-0.174 -5.28,-0.24 -0.144,0.427 0.704,0.997 0,1.2 -2.584,-0.291 -5.547,-0.944 -9.12,-0.72 -0.49,0.15 -0.067,1.212 -0.96,0.96 -3.389,-1.145 -8.017,-1.218 -11.52,-1.92 -2.446,1.713 -3.098,5.222 -6.72,5.76 -0.242,2.986 -0.733,7.301 -0.48,11.04 0.131,1.928 -0.119,2.84 -0.96,4.08 -1.59,0.629 -3.005,1.85 -4.8,2.16 -2.236,0.387 -4.125,-0.728 -5.76,-0.48 -0.251,-1.189 -1.502,-1.377 -2.16,-2.16 -0.418,-2.307 -0.817,-3.528 -0.72,-6 -3.615,-1.108 -5.654,-5.358 -5.76,-9.84 -0.02,-0.82 -0.283,-1.789 0.48,-2.4 -1.51,-0.938 0.299,-3.38 -0.72,-4.56 0.77,-1.097 1.197,-2.437 1.68,-4.32 -4.612,-0.656 -9.152,-1.682 -13.68,-2.16 -1.115,-0.118 -2.222,0.131 -3.36,0 -2.652,-0.304 -5.502,-1.173 -8.4,-1.44 -5.777,-0.532 -11.714,-1.588 -17.04,-1.92 -2.157,-0.134 -3.06,-0.107 -4.32,-0.96 -1.942,0.821 -4.725,-0.606 -6.72,0.24 -0.202,1.558 -0.313,3.207 -0.24,5.04 0.919,0.567 0.544,1.104 0.48,2.4 0.968,-0.168 1.108,0.492 1.68,0.72 1.016,4.61 -0.245,8.578 -0.48,13.92 -0.714,0.656 -1.27,1.844 -1.92,2.16 -2.292,1.116 -2.808,4.176 -5.52,4.56 -0.497,5.297 -2.331,9.39 -2.88,13.68 0.871,1.013 1.742,1.714 2.88,2.16 1.362,0.535 2.248,1.14 3.84,1.92 0.932,0.457 1.88,0.971 3.12,1.2 -0.177,1.058 0.777,0.983 0.96,1.68 5.921,1.919 10.798,4.882 15.12,8.4 3.482,0.438 4.5,3.341 7.44,4.32 0.12,0.84 0.971,0.949 0.96,1.92 2.667,1.253 4.211,3.628 6,5.76 0.068,0.73 -0.769,0.934 -0.24,1.439 0.701,2.284 1.475,4.896 0.96,7.44 -0.471,2.33 -2.931,3.387 -3.6,5.04 -0.418,-0.018 -0.746,0.054 -0.96,0.24 -3.517,4.723 -7.547,8.933 -11.28,13.439 -3.193,2.247 -5.6,5.28 -7.68,8.641 -3.622,2.857 -7.328,5.632 -10.32,9.12 0.578,1.678 1.506,2.536 2.64,4.079 0.894,0.147 2.534,-0.453 2.4,0.721 -0.193,0.105 -0.988,0.308 -1.44,0 0.1,1.091 1.396,1.762 0,2.399 2.299,3.862 5.58,8.004 2.4,12.721 0.01,-0.256 -0.113,-0.61 -0.24,-0.24 0,0.079 0,0.159 0,0.239 z M 383.29,265.2 c -0.514,0.801 -1.04,0.191 -2.16,0 -2.807,1.085 -6.998,1.865 -10.08,3.36 -0.058,-0.422 -0.413,-0.547 -0.96,-0.48 0.179,0.739 -0.659,0.461 -0.48,1.2 0.968,0.552 3.122,-0.082 3.84,0.72 -0.602,-0.042 -0.583,0.538 -0.96,0.72 1.337,0.193 2.608,0.999 3.6,0 -0.849,0.129 -1.052,-0.388 -1.44,-0.72 0.369,1.128 -0.88,0.473 -1.2,0.24 0.438,-0.922 2.545,-0.175 3.12,-0.96 5.769,1.285 11.983,0.71 17.76,1.68 -0.267,-4.053 3.073,-6.542 2.4,-10.56 -1.393,2.207 -5.02,2.181 -7.44,3.36 2.034,0.606 4.727,0.554 6.24,1.68 0,0.16 0,0.32 0,0.48 -4.67,-0.082 -8.234,-1.011 -12.24,-0.72 z m -105.84,-2.4 c 0.393,1.127 1.747,1.382 2.88,1.44 1.566,0.081 4.436,-0.313 5.52,-1.92 -3.276,-1.368 -6.59,-0.723 -8.4,0.48 z m 2.64,6.96 c 0.863,-0.882 8.053,-0.095 6.48,-5.04 -2.996,0.673 -6.318,1.229 -9.84,0.72 -0.058,1.743 -0.363,2.661 -0.479,3.84 1.163,-0.239 3.145,0.726 3.839,0.48 z m 68.88,-2.4 c 2.277,1.641 8.488,2.322 10.32,-0.24 -2.442,-1.185 -7.336,-1.563 -10.08,-0.72 0.709,0.209 -0.557,0.359 -0.24,0.96 z m -80.4,7.44 c 0.524,0.036 0.515,0.605 0.48,1.2 -0.098,0.462 -0.931,0.189 -0.72,0.96 -0.208,2.915 1.246,5.635 1.68,8.64 2.595,-0.754 5.176,0.308 7.44,0 2.291,-0.312 3.935,-2.16 6,-1.92 0.947,-1.377 2.352,-1.449 3.36,-2.88 2.063,-2.929 0.879,-8.93 0.96,-11.76 -1.577,-0.091 -2.529,2.08 -4.56,2.64 -1.488,0.411 -4.206,0.436 -5.52,0.24 -2.189,-0.326 -3.291,-2.164 -4.32,-3.84 -2.227,1.612 -2.792,4.888 -4.8,6.72 z m -61.68,-3.12 c -0.874,-0.29 -0.51,-0.905 -1.68,-0.48 -0.177,1.055 -0.043,1.532 -0.72,2.4 0.946,3.64 2.097,7.271 2.88,11.04 0.686,3.296 0.641,6.727 1.44,10.08 0.341,1.428 1.233,2.467 1.44,3.84 0.097,0.645 -0.327,1.385 -0.24,2.16 0.031,0.278 0.433,0.685 0.48,0.96 0.262,1.539 0.126,3.38 0.48,4.801 0.091,0.364 0.599,0.844 0.72,1.199 1.058,3.094 0.704,6.745 1.68,9.601 0.467,1.366 1.286,2.979 1.68,4.56 0.208,0.834 0.032,1.64 0.24,2.4 0.847,3.098 2.5,5.909 2.88,9.12 0.309,0.671 0.496,-0.757 1.2,-0.48 2.591,0.545 5.007,0.781 7.2,0.72 2.502,-0.069 4.062,1.612 7.2,0.96 -0.759,-0.68 -1.398,-1.481 -2.4,-1.92 0.198,-0.678 -0.338,-0.621 -0.24,-1.199 -1.232,-0.219 -2.188,-2.139 -4.08,-3.36 -1.39,-0.897 -4.597,-1.314 -3.12,-2.88 -2.898,-1.102 -3.279,-4.722 -5.28,-6.72 0.035,-0.912 0.411,-2.152 0.24,-3.36 -0.196,-1.387 -1.384,-2.566 -1.44,-3.601 0.183,-0.377 0.761,-0.358 0.72,-0.96 -0.3,-4.406 0.583,-7.743 0,-11.28 -1.111,-0.973 -2.297,-1.598 -2.88,-2.88 -0.166,-0.364 0.135,-0.958 0,-1.44 -0.126,-0.452 -0.811,-1.022 -0.96,-1.68 -0.517,-2.278 -1.866,-3.708 -1.92,-5.52 -0.039,-1.318 0.58,-2.494 0.48,-3.84 -0.346,-4.671 0.628,-8.958 -0.24,-13.2 0.351,-0.528 0.729,-1.03 0.72,-1.92 -2.348,0.613 -3.787,3.411 -5.76,3.6 0.423,-0.545 2.125,-1.063 1.44,-1.92 -0.494,0.549 -0.463,-0.262 -1.44,-0.24 -0.342,0.843 -1.055,1.019 -0.72,1.439 z m 144.96,6.96 c -0.179,1.207 -0.568,3.149 -0.96,3.84 -0.779,1.375 -2.524,1.607 -3.12,2.88 -1.301,6.658 3.58,6.245 7.92,6.72 3.726,-2.405 0.596,-9.865 2.88,-12.72 -0.191,-0.448 -0.401,-0.879 -0.48,-1.44 -1.657,0.342 -3.131,0.021 -4.08,-1.44 -0.174,-0.268 0.098,-0.89 0,-1.2 -0.252,-0.8 -1.184,0.164 -0.72,-0.72 0.036,-2.205 1.804,-2.677 2.4,-4.32 -1.201,-0.559 -3.555,0.035 -4.8,-0.48 0.686,2.988 1.469,5.456 0.96,8.88 z m 25.68,-7.92 c -0.739,0.168 -0.461,0.168 -1.2,0 -0.367,0.738 1.567,0.738 1.2,0 z m 19.44,4.8 c 10e-4,-0.133 -0.194,-0.272 -0.24,0 0.27,0.051 0.374,0.266 0.48,0.48 -1.405,3.096 -0.64,6.546 -1.2,9.84 -0.112,0.657 -0.602,1.282 -0.72,1.92 -0.422,2.281 -0.087,5.104 0,6.72 0.265,4.91 -0.933,9.674 -0.72,14.4 1.533,-2.307 2.465,-5.215 4.32,-7.2 -0.28,-0.46 0.068,-0.92 -0.24,-1.68 0.713,-1.175 0.819,-2.899 1.2,-4.08 0.087,-0.271 0.435,-0.24 0.48,-0.48 0.238,-1.25 -0.093,-3.32 0,-5.28 0.09,-1.874 0.478,-3.895 0.48,-5.52 0.002,-1.354 -0.205,-3.945 0.24,-5.52 0.836,-2.961 -0.212,-6.56 -3.12,-7.44 -0.297,1.674 -0.302,2.364 -0.96,3.84 z m -148.08,5.28 c 1.161,-0.153 1.697,0.317 2.4,0 0.536,-2.308 0.571,-3.707 1.92,-5.76 -0.051,-0.269 -0.267,-0.374 -0.48,-0.48 -3.329,0.03 -3.45,3.27 -3.84,6.24 z m 6.72,-2.88 c -1.661,0.419 -1.682,2.479 -2.4,3.84 1.791,1.754 2.914,5.1 2.88,7.92 4.441,-0.665 7.107,-2.738 10.8,-3.6 -0.433,-3.587 -0.81,-6.472 -1.2,-10.56 -3.411,-0.042 -5.267,0.385 -9.6,-0.24 -0.365,0.675 -0.228,1.851 -0.48,2.64 z m 169.44,-0.96 c -6.264,-0.611 -8.851,1.488 -13.92,1.2 -0.797,1.123 -0.765,3.076 -0.72,5.04 3.517,0.869 9.933,-0.136 13.68,-0.96 0.446,0.291 0.926,0.463 1.439,0.479 1.77,0.057 4.444,-1.373 6.24,-1.2 0.528,0.051 1.872,0.166 1.92,1.2 -2.783,0.284 -6.386,1.32 -9.359,2.16 -1.21,-0.425 -2.973,-0.311 -4.561,-0.24 -3.075,0.137 -6.529,0.631 -9.12,0.96 -0.367,2.647 0.483,5.501 0.48,8.64 -0.005,3.981 -0.663,8.158 -0.48,11.76 0.02,0.398 0.418,0.78 0.48,1.2 0.125,0.857 -0.477,1.731 0,2.399 2.982,0.034 5.541,-0.957 7.68,-1.68 0.532,-0.18 1.23,-0.072 1.68,-0.24 1.844,-0.688 3.346,-2.222 5.28,-2.16 -0.536,2.712 -3.792,1.947 -5.28,4.561 -0.895,0.093 -2.542,0.385 -3.84,0.24 -1.77,1.142 -3.773,1.687 -5.52,2.88 -0.853,0.582 -1.604,1.279 -2.4,1.92 -0.857,0.689 -1.808,1.069 -2.64,1.68 -0.468,0.344 -0.672,1.028 -1.2,1.44 -0.52,0.405 -1.441,0.534 -1.92,0.96 -0.847,0.753 -1.453,1.975 -2.16,2.88 2.148,2.556 5.828,4.027 7.2,7.439 0.323,0.804 0.146,1.951 0.48,2.881 0.665,1.845 2.454,3.049 2.16,5.52 5.431,-1.658 1.109,-12.75 4.8,-15.6 0.331,0.946 1.055,-0.072 1.68,0 0.237,0.027 0.576,0.478 1.2,0.479 3.195,0.013 6.975,-1.396 10.8,-1.92 0.631,-2.409 2.817,-3.262 4.08,-5.04 1.446,-4.723 -0.221,-9.031 -0.48,-13.439 -0.097,0.261 -0.198,0.178 -0.24,-0.24 -0.406,-4.078 0.412,-8.103 0.721,-11.52 0.18,-1.989 0.098,-3.793 0.24,-4.8 0.015,-0.109 0.687,-1.25 0.72,-1.44 0.479,-2.75 -0.1,-5.671 0.24,-8.64 -3.406,0.188 -7.228,-1.002 -9.36,1.201 z m -174,6.24 c -5.32,-0.924 -5.241,7.135 -4.08,10.32 1.7,1.01 3.009,-1.163 3.84,-0.24 -0.114,-0.753 0.299,-0.98 0.72,-1.2 0.734,-0.174 0.706,0.414 1.44,0.24 2.635,-3.336 0.879,-8.634 -1.92,-9.12 z m 15.12,5.28 c -0.69,0.92 -1.591,0.809 -2.64,0.72 -0.89,1.03 -3.123,0.717 -3.6,2.16 2.084,1.01 5.57,-0.022 6.72,0.96 1.429,-0.494 2.997,0.677 4.56,-0.48 2.127,1.325 5.292,0.502 6.96,1.68 0.981,-1.603 1.366,-4.171 1.68,-5.76 -0.905,0.12 -1.399,0.322 -1.44,-0.24 -0.026,0.85 -0.793,-0.51 -0.72,0.24 0.441,0.767 -2.994,0.565 -2.4,-0.24 -0.051,0.269 -0.266,0.374 -0.48,0.48 -0.095,-0.413 0.356,-0.615 0,-0.72 -0.473,0.98 -3.1,0.65 -3.12,0 -2.144,0.471 -3.97,1.343 -5.52,1.2 z m 9.84,-0.48 c 0.495,0.211 0.909,-0.791 0.48,-0.72 -0.022,0.378 -0.612,0.188 -0.48,0.72 z m -21.6,5.76 c -1.924,0.326 -3.249,2.135 -5.04,2.4 -1.113,0.165 -2.489,-0.627 -3.6,-0.96 -0.479,0.241 -0.378,1.061 -1.2,0.96 -5.723,1.827 -13.121,3.664 -18.72,4.56 7.333,-0.046 12.492,0.994 19.92,-0.239 2.466,1.253 5.522,-0.193 7.92,-0.48 0.563,-0.067 1.091,0.266 1.68,0.24 2.625,-0.113 4.953,-1.647 7.2,-2.16 0.116,-1.24 0.255,-2.639 0.48,-4.32 -3.205,0.823 -6.193,-0.415 -8.64,-0.001 z m 11.04,3.6 c 1.615,0.095 2.122,-0.918 3.84,-0.72 0.393,-0.82 0.281,-2.068 -0.24,-2.64 -0.773,-0.346 -2.013,-0.227 -3.12,-0.24 0.13,1.49 -0.486,2.233 -0.48,3.6 z m 7.2,-3.12 c -1.785,3.549 0.796,5.785 4.08,6.24 0.225,-2.178 1.433,-4.645 1.44,-6.24 -0.969,0.795 -3.385,-0.435 -5.52,0 z m -7.92,4.8 c 1.359,0.384 2.879,0.551 4.32,0.24 -0.195,-0.83 0.448,-1.013 0,-1.44 -1.119,-0.256 -1.893,0.627 -2.64,0 -0.009,0.707 -1.125,0.487 -1.68,1.2 z m 16.08,20.16 c 0,0.133 0.194,0.272 0.24,0 -0.276,-0.284 -0.271,-0.849 -0.24,-1.44 1.963,-3.076 4.387,-5.693 5.76,-9.359 -0.828,-0.371 -2.019,-0.839 -1.44,-1.92 -1.88,-1.191 -4.163,-1.563 -6,-2.641 -0.448,-0.263 -0.685,-0.955 -1.2,-1.2 -1.811,-0.861 -6.117,-0.837 -7.92,-0.96 -1.883,-0.128 -3.689,0.325 -5.52,0.24 -0.689,-0.032 -1.447,-0.478 -2.16,-0.479 -2.521,-0.01 -5.395,0.503 -7.68,0.479 -2.748,-0.028 -5.282,1.032 -7.92,1.2 -0.398,0.025 -0.963,-0.252 -1.44,-0.24 -1.632,0.042 -3.529,0.559 -5.04,0.48 -1.236,-0.064 -2.568,-0.635 -3.84,-0.721 -2.528,-0.169 -4.87,0.076 -6,0.48 -2.096,-1.293 -6.635,-0.612 -9.12,-0.48 -0.035,3.284 -0.913,6.52 -0.72,9.841 0.198,3.4 2.237,6.195 2.88,9.119 0.822,0.448 1.396,1.426 2.16,2.16 0.743,0.714 2.058,1.259 1.92,2.16 0.557,-0.076 0.921,0.039 1.2,0.24 -0.029,0.778 1.37,0.762 0.72,1.439 3.876,2.524 6.342,6.458 10.32,8.881 6.183,-5.241 12.673,-10.115 22.8,-10.801 -0.72,-2.879 -3.641,-3.559 -3.84,-6.96 -0.992,-0.771 -2.11,-2.685 -1.44,-4.319 2.03,-0.119 2.278,2.396 3.36,4.08 1.035,1.609 3.139,3.209 2.88,5.52 2.133,1.707 3.251,4.429 4.8,6.72 0.597,-0.425 1.729,0.662 2.4,0.96 1.872,-0.316 2.69,0.708 4.56,1.2 0.147,-0.884 0.814,-1.681 1.44,-2.399 2.103,-2.414 4.248,-4.915 5.76,-7.681 -1.098,-0.662 -3.024,-0.495 -3.6,-1.68 0.193,-0.205 1.323,-2.182 1.92,-1.919 z m 5.04,-5.52 c -1.685,2.235 -3.49,4.35 -5.04,6.721 1.34,0.979 2.782,1.857 5.04,1.92 0.053,-0.188 0.201,-0.279 0.48,-0.24 1.544,-3.576 3.776,-6.465 5.04,-10.32 0.704,-0.016 0.892,-0.549 1.2,-0.96 -1.553,-0.287 -2.389,-1.29 -3.84,-1.68 -0.519,1.96 -3.091,1.867 -2.88,4.559 z m 2.16,9.6 c 1.306,1.258 4.617,1.615 6.48,2.64 -0.741,-0.036 0.521,0.976 0.48,0.24 -0.186,-0.054 -0.474,-0.007 -0.48,-0.24 1.022,0.018 1.679,0.401 2.88,0.24 -0.206,-0.766 0.378,-0.742 0.48,-1.2 2.689,-1.951 4.023,-5.258 6.24,-7.68 -3.556,-1.805 -6.43,-4.29 -10.32,-5.761 -1.921,3.68 -5.789,6.691 -6.24,11.04 0.633,-0.612 0.283,0.532 0.48,0.721 z m 6.96,3.84 c -1.245,-0.302 -5.077,-0.551 -7.44,-1.92 0,0.399 0,0.8 0,1.2 -2.229,2.09 -3.851,4.789 -5.52,7.439 -0.981,0.219 -1.547,0.854 -1.68,1.92 3.409,0.542 5.956,-0.299 8.4,0.24 0.673,0.148 1.384,0.645 2.16,0.72 2.545,0.248 5.191,-0.744 8.16,-0.96 0.472,-0.071 0.476,0.324 0.72,0.48 -0.188,-0.829 0.225,-1.056 0.72,-1.2 0.003,0.317 0.421,0.22 0.48,0.479 0.313,1.635 -2.432,1.576 -2.64,1.681 -0.186,0.093 0.07,0.413 -0.24,0.479 -3.414,0.732 -6.444,0.59 -9.12,0.48 -0.393,0.967 -1.047,1.673 -1.44,2.64 0.914,0.263 1.498,-0.635 1.68,0.24 -0.819,0.439 -1.287,0.756 -2.16,1.68 -0.768,0.812 -1.46,1.848 -2.64,1.92 -0.079,1.202 -1.315,1.245 -1.44,2.4 0.003,0.673 0.655,-0.571 0.48,0.479 -2.36,4.12 -6.419,6.542 -9.12,10.32 0.675,1.304 1.19,1.712 1.92,2.641 0.324,0.411 0.454,1.152 0.72,1.439 0.916,0.986 2.328,1.468 3.12,2.4 0.385,0.453 0.59,1.373 0.96,1.92 0.89,1.316 2.102,2.348 2.88,3.359 0.535,0.695 0.577,1.311 1.2,1.92 3.731,-3.679 8.292,-7.123 12,-11.039 1.158,-1.224 1.996,-3.532 3.6,-3.841 0.219,-0.98 0.736,-1.664 1.68,-1.92 0,-0.319 0,-0.64 0,-0.96 1.551,-1.169 3.044,-2.396 3.84,-4.319 2.184,-1.337 3.508,-3.532 5.28,-5.28 -0.037,-1.125 -0.639,-1.703 -0.72,-2.641 -0.153,-1.767 0.922,-3.385 0.96,-5.039 0.033,-1.418 -0.965,-2.523 -0.72,-4.08 -1.626,-0.294 -1.258,-2.583 -2.16,-3.601 0.919,-1.961 1.524,-4.235 3.84,-4.8 -1.553,-2.848 -4.8,-4 -7.44,-5.76 -3.029,2.25 -4.392,6.168 -7.2,8.64 -0.012,0.948 -0.492,1.428 -1.44,1.44 0.266,-1.296 -1.198,-1.08 -1.68,-1.196 z m 119.28,15.6 c 0.307,0.146 -0.105,3.024 -0.24,4.32 -0.148,1.429 -0.64,2.944 -0.72,4.32 -0.033,0.563 0.304,1.137 0.24,1.68 -0.257,2.176 -1.148,4.51 -1.44,6.96 -0.322,2.699 -0.302,5.645 -0.96,7.92 -0.27,0.931 -0.961,1.545 -1.2,2.4 -0.386,1.38 -0.095,2.955 -0.48,4.319 -0.371,1.314 -1.331,2.502 -1.68,3.841 -0.338,1.296 -0.317,2.547 -0.48,3.84 -0.942,1.218 -1.812,2.508 -2.16,4.319 12.794,-4.234 23.056,-10.6 34.8,-16.319 0.349,-0.371 1.229,-0.212 1.92,-0.24 0.064,-4.163 1.904,-7.992 2.64,-12 0.48,-2.616 0.48,-5.457 0.721,-8.16 0.217,-2.446 0.902,-4.834 1.2,-7.2 0.112,-0.898 -0.068,-1.759 0,-2.64 0.566,-7.31 2.349,-14.271 2.399,-21.36 -4.586,1.219 -7.734,2.238 -12,3.36 -1.37,0.36 -2.928,0.994 -4.32,1.2 -1.777,0.263 -3.822,-0.161 -5.76,0 -3.625,0.302 -7.051,1.026 -10.56,1.92 -0.858,5.626 -0.593,12.832 -1.92,17.52 z M 283.93,323.28 c -0.818,1.741 -1.767,3.353 -3.36,4.319 -0.655,2.586 -3.889,3.736 -3.6,6.48 1.212,0.205 0.961,0.583 2.4,0.72 0.166,-0.874 0.973,-1.106 0.96,-2.16 3.046,-1.914 4.64,-5.28 6.72,-8.159 -0.723,-0.535 -0.993,-0.439 -1.68,0 -0.604,-0.452 0.504,-1.248 -0.48,-1.44 -0.044,0.356 -0.58,0.22 -0.96,0.24 z M 406.09,330 c -2.519,-1.802 -3.798,-4.843 -6.48,-6.48 -1.726,0.435 -2.374,1.947 -3.36,3.12 1.692,2.389 3.687,4.474 6,6.24 -0.313,3.454 3.015,4.856 3.6,8.16 1.342,-0.578 2.314,-1.525 3.36,-2.4 -1.147,-2.773 -2.413,-5.426 -3.12,-8.64 z m -178.32,-2.64 c -0.072,-0.473 0.324,-0.477 0.48,-0.721 -0.96,0.07 -1.442,-1.584 -2.16,-0.96 0.718,0.403 1.225,1.015 1.68,1.681 z m 85.44,-1.2 c -1.032,0.381 -1.08,1.848 -1.68,3.12 1.232,0.367 2.513,-1.12 4.08,-1.2 0.53,-1.033 -0.67,-1.491 -0.96,-2.4 0.097,1.199 -1.143,0.371 -1.44,0.48 z m -65.76,12.48 c 0.807,-0.743 1.469,-1.75 2.4,-2.399 0.38,-0.266 0.933,-0.211 1.44,-0.48 0.919,-0.488 1.685,-1.329 2.64,-1.68 0.715,-0.263 1.649,-0.176 2.4,-0.48 0.69,-0.28 1.222,-0.982 1.92,-1.199 0.455,-0.142 1.023,0.074 1.44,0 1.146,-0.205 2.245,-0.891 3.36,-1.2 1.091,-0.304 2.341,-0.146 3.12,-0.96 -0.852,-1.229 -1.961,-2.199 -2.88,-3.36 0.166,0.646 -0.496,0.464 -0.72,0.72 -6.025,0.24 -11.664,3.022 -16.32,6 -1.91,1.222 -4.299,2.508 -4.8,4.561 1.086,0.674 1.855,1.665 2.4,2.88 1.398,-0.372 3.054,-3.486 3.6,-2.403 z m 151.2,6.72 c 1.554,-0.942 4.822,-1.79 5.28,-3.601 0.394,-1.556 -1.97,-4.307 -2.64,-5.279 -2.032,-2.951 -3.829,-6.594 -6.48,-8.4 -0.307,-0.014 -0.332,-0.308 -0.72,-0.24 -2.283,2.597 -5.18,4.58 -7.2,7.44 -4.225,2.015 -6.267,6.213 -10.32,8.399 3.093,2.747 5.234,6.446 7.2,10.32 2.905,-1.095 5.729,-2.271 7.68,-4.32 2.593,-0.91 4.688,-2.796 7.2,-4.319 z m -40.32,-13.44 c 0.339,3.275 -2.525,5.037 -2.88,8.4 -1.271,0.648 -1.75,2.089 -2.4,3.359 0.836,0.482 -0.02,-0.105 0.48,-0.239 0.549,-1.292 2.387,-1.294 3.36,-2.16 1.221,-0.497 2.37,0.21 3.12,-0.48 0.231,0.488 0.922,0.519 1.68,0.48 1.026,-0.75 2.097,-0.682 3.36,-0.96 3.622,-0.799 7.512,-2.888 11.04,-3.601 -0.063,0.013 0.64,0.271 0.96,0.24 0.927,-0.092 1.625,-0.734 2.64,-0.96 0.781,-0.174 1.836,0.064 2.64,-0.24 1.652,-0.627 3.073,-3.056 4.32,-3.84 0.414,-0.261 1.21,-0.27 1.44,-0.479 0.535,-0.49 0.943,-1.512 1.2,-2.16 -1.597,-0.013 -3.639,0.261 -5.52,0.239 -2.2,-0.023 -4.078,-1.183 -5.52,-0.479 -2.711,-0.525 -4.51,-0.561 -7.2,-0.96 -0.435,0.205 -0.662,0.618 -1.2,0.72 -5.056,-1.005 -7.884,-0.13 -12.48,0.72 0.099,1.213 0.862,1.449 0.96,2.4 z M 313.93,330 c -0.116,0.765 -0.756,1.004 -0.72,1.92 0.979,0.317 2.549,-0.417 3.84,-0.72 0.219,-1.02 -0.392,-1.208 -0.96,-1.44 -0.317,0.959 -1.027,-0.4 -2.16,0.24 z m 38.64,9.6 c 0.066,-0.115 0.618,-0.093 0.72,-0.239 0.252,-0.363 0.563,-1.408 0.96,-2.16 0.391,-0.738 1.006,-1.57 1.2,-2.16 1.965,-5.984 -4.82,-4.271 -6.96,-2.16 1.603,-0.093 3.496,-0.185 6,0.72 -1.472,2.299 -4.553,0.384 -6.48,2.4 -0.876,0.213 -1.278,-0.424 -1.68,0 0.185,0.904 -0.292,1.147 -0.24,1.92 2.888,0.95 5.696,-1.838 7.2,0 -1.015,2.185 -5.363,1.037 -6.96,2.64 -0.131,2.052 -0.011,3.852 0.72,5.04 1.384,-0.355 2.491,-0.515 4.08,-1.199 0,-0.561 0,-1.12 0,-1.681 0.8,-0.582 0.745,-1.907 1.44,-3.121 z m -91.68,-6 c -1.512,0.394 -2.819,0.852 -4.08,1.44 -2.728,1.272 -5.763,2.292 -7.44,3.6 -0.714,0.558 -1.021,1.508 -1.68,2.16 -0.734,0.727 -1.69,0.992 -2.16,1.92 0.739,2.92 1.288,4.625 1.2,7.44 -0.057,1.815 0.428,3.976 0.24,5.52 -0.109,0.897 -0.679,2.138 -0.96,3.12 -0.604,2.11 -1.196,3.516 -1.68,5.76 -0.155,0.719 -0.334,1.438 -0.48,2.16 -0.373,1.853 -0.95,3.672 -1.2,5.28 -0.539,3.457 0.354,5.637 0.48,8.16 1.966,0.119 4.604,0.8 7.44,0.96 3.053,0.172 6.277,-0.438 8.64,0 0.307,-1.238 1.553,-1.725 2.16,-2.88 0.568,-1.083 0.986,-2.786 1.44,-4.08 0.513,-1.461 0.947,-2.903 1.44,-4.32 0.755,0.275 0.583,-0.377 0.96,-0.479 1.209,-3.197 1.896,-6.884 3.12,-10.08 0.398,-1.04 1.268,-2.064 1.68,-3.12 1.652,-4.225 2.452,-9.549 0.72,-13.92 -0.437,-1.103 -1.591,-2.095 -2.16,-3.36 -0.879,-1.956 -1.337,-3.921 -1.44,-6.479 -2.695,0.001 -3.963,0.605 -6.24,1.198 z m 8.4,0.48 c 1.329,-0.096 1.395,-0.171 2.4,0.24 0.626,-0.955 -1.78,-1.992 -2.88,-1.2 0.444,0.036 0.148,0.813 0.48,0.96 z m 44.88,0.24 c -0.09,1.03 -1.124,1.116 -0.96,2.399 1.683,0.116 2.834,0.795 4.56,0.24 0.219,-1.014 0.207,-1.369 0.24,-2.88 -1.35,-0.137 -1.914,0.435 -2.64,-0.24 0.247,0.807 -0.746,0.375 -1.2,0.481 z m -43.92,1.92 c 1.486,3.394 2.556,7.204 4.32,10.319 -0.041,0.28 -0.379,0.261 -0.72,0.24 0.851,2.719 -1.196,5.584 -1.2,7.92 1.572,-1.947 3.667,-3.373 4.56,-6 2.777,-1.726 3.852,-5.152 6,-7.439 1.127,-1.201 2.816,-1.799 3.12,-3.601 -7.041,0.811 -8.921,-2.907 -16.08,-1.439 z m 96,7.2 c 0.34,0.139 0.376,0.627 0.72,0.72 1.644,0.442 3.738,0.052 5.28,0 1.03,-1.359 3.135,-2.69 4.32,-3.12 0.195,-0.848 1.651,-1.327 2.64,-2.88 -5.087,1.394 -10.344,2.616 -15.36,4.08 0.019,1.106 1.619,0.88 2.4,1.2 z m -53.76,-0.96 c 1.399,-1.082 3.065,-1.896 3.84,-3.601 -1.136,-0.224 -2.556,-0.164 -3.6,-0.479 -0.202,1.238 -0.313,2.567 -0.24,4.08 z m 93.84,1.44 c -0.191,-0.115 -1.646,0.629 -3.12,1.44 -0.965,0.53 -1.985,1.237 -2.64,1.199 -1.088,1.641 -2.96,2.73 -4.8,3.841 -2.449,1.478 -4.082,3.239 -7.2,3.359 -1.655,1.386 -3.628,2.452 -5.52,3.601 -0.575,-0.171 -0.884,-0.113 -1.92,-0.24 0.035,0.595 0.044,1.165 -0.48,1.2 -0.609,-0.312 -1.072,1.229 -2.16,1.199 -0.797,1.454 -3.158,3.221 -4.08,3.841 -0.98,0.658 -1.396,1.456 -2.64,2.159 -1.184,0.67 -3.172,1.158 -5.04,1.681 -1.798,0.503 -3.899,1.298 -5.28,1.439 -1.27,0.131 -2.551,-0.253 -3.84,-0.239 -2.663,0.027 -4.163,0.236 -6,-1.2 -0.801,-0.626 -2.315,-2.848 -2.4,-3.601 -0.081,-0.714 0.661,-1.234 0.72,-2.159 0.117,-1.851 -0.861,-3.892 -0.72,-6.24 0.678,-0.282 0.795,-1.124 0.96,-1.92 1.416,-1.784 4.061,-2.339 5.52,-4.08 -0.868,-0.333 -1.345,-1.056 -2.4,-1.2 -0.541,-0.34 -0.472,-1.288 -1.2,-1.44 -1.468,-0.252 -2.695,0.745 -4.08,1.2 -1.229,0.404 -2.751,0.146 -3.36,1.44 -2.798,0.542 -8.213,1.816 -11.76,3.12 -0.861,0.141 -1.161,-0.279 -1.68,-0.48 -2.064,1.456 -5.888,1.152 -7.2,3.36 2.134,0.784 4.191,1.711 4.8,3.6 0.621,1.926 -0.77,6.1 -1.2,6.96 -0.348,0.696 -0.648,1.054 -1.2,1.681 -1.822,2.07 -1.492,5.294 -1.44,8.399 0.048,2.877 -0.779,5.143 -0.96,7.44 5.976,4.74 10.883,12.204 16.32,18.239 0.307,0.334 1.133,0.147 1.44,0.48 5.167,7.072 11.902,12.578 18.72,18 1.557,-0.194 3.285,1.513 4.08,2.88 0.85,0.271 1.366,-1.009 1.92,-0.24 -0.423,0.156 -1.559,0.815 -0.72,1.44 1.681,-0.8 3.631,-1.329 4.8,-2.64 -0.741,-0.504 -2.276,0.696 -2.88,0.239 0.771,-0.269 1.423,-0.656 2.4,-0.72 0.518,-0.922 1.541,-1.339 2.64,-1.68 0.964,-2.69 5.363,-1.888 5.52,-4.801 0.03,-0.553 -1.036,-2.27 -1.68,-3.359 -0.506,-0.856 -1.365,-1.629 -1.68,-2.16 -0.713,-1.204 -0.514,-2.156 -1.68,-2.64 -0.874,-1.448 -1.905,-4.013 -2.88,-4.561 0.411,0.275 -0.991,-0.926 -1.2,-1.2 -1.507,-1.979 -2.769,-5.143 -3.84,-7.199 -0.366,-0.703 -0.586,-1.569 -0.96,-2.16 -1.522,-2.404 -4.634,-3.932 -5.76,-6.24 -2.552,-1.208 -3.67,-3.85 -6.24,-5.04 -0.134,-0.691 -0.174,-0.417 -0.48,-1.2 -1.739,-0.325 -2.896,0.45 -3.84,0.721 -1.628,0.466 -3.181,0.26 -5.04,0.479 -2.164,0.256 -4.563,0.884 -6.48,1.44 -1.342,0.39 -3.431,2.016 -4.32,0.239 3.919,-2.683 8.965,-4.077 13.92,-4.08 3.393,-10e-4 7.229,-1.128 10.8,-1.199 2.014,-0.04 4.047,0.222 6,0.239 1.682,-1.653 4.185,-1.319 7.2,-1.439 6.413,-0.255 13.787,-0.563 18.48,0.479 4.98,-0.925 12.064,-0.313 17.52,0.96 3.961,-10.939 5.035,-23.579 6.24,-36.96 -2.088,1.354 -3.594,3.289 -6,4.323 z m -2.16,32.4 c -0.729,0.809 0.888,0.728 0,0 z m -46.56,-33.36 c -1.231,0.717 -3.293,1.24 -2.88,2.88 2.186,0.73 5.842,0.578 8.4,0.48 0.971,-0.037 1.947,0.682 2.4,-0.48 -2.826,-0.408 -4.709,-2.574 -7.92,-2.88 z m 1.44,7.2 c -3.09,1.394 -6.438,2.703 -7.44,5.52 -1.007,2.829 0.183,6.592 1.44,9.601 2.323,1.664 4.246,1.557 6.48,0 6.185,0.157 9.818,-1.694 14.4,-4.08 0.727,-3.054 4.722,-2.89 5.04,-5.76 0.048,-0.431 -0.362,-1.745 -0.72,-2.641 -0.401,-1.004 -1.134,-1.652 -1.92,-2.64 -1.068,-1.344 -1.95,-2.622 -3.12,-3.601 -4.808,-0.101 -10.733,2.055 -14.16,3.601 z m -42.72,10.8 c 0.014,-0.146 0.036,-0.284 0.24,-0.24 1.504,2.503 5.841,-0.232 6.96,2.16 -1.774,1.39 -6.347,0.12 -8.64,0.48 0.207,1.807 -0.804,2.396 -0.48,4.319 1.038,2.164 4.261,1.054 6.24,1.92 -0.081,0.561 -0.246,1.034 -0.72,1.2 -1.4,-0.104 -2.647,-0.128 -4.08,0.24 -0.782,0.412 -1.155,-1.149 -1.2,0 -0.47,0.787 0.412,1.9 0.48,2.4 0.167,1.227 -0.335,0.454 0.24,0.96 0.116,0.102 -0.086,0.586 0,0.72 1.625,2.524 4.135,5.443 6,5.52 0.481,-0.992 1.124,-2.32 1.68,-3.84 -1.152,-1.951 -0.119,-3.929 0,-6 0.114,-1.989 -0.316,-2.927 0.24,-4.319 0.531,-1.328 2.135,-2.176 2.64,-3.36 0.391,-0.916 0.528,-2.243 0.48,-2.88 -0.086,-1.158 -1.042,-1.913 -1.2,-3.12 -4.381,-1.997 -8.718,1.094 -8.88,3.84 z m -45.36,-1.92 c -1.353,5.607 -4.11,9.81 -6,14.88 0.485,1.638 1.903,2.65 2.88,3.84 0.914,1.112 1.406,2.558 2.64,3.36 2.811,-3.848 7.026,-6.416 12.72,-7.92 -2.032,-2.274 -3.381,-5.066 -5.52,-7.2 -1.787,-1.782 -4.14,-3.107 -5.28,-5.52 0.483,-1.171 2.074,0.193 2.4,-0.24 -1.059,-1.862 -2.117,-1.257 -3.84,-1.2 z m 5.52,3.36 c -0.521,-0.369 -0.979,-2.047 -1.68,-1.44 0.794,0.096 1.108,1.919 1.68,1.44 z m 163.921,9.6 c -1.363,-0.102 -0.353,0.908 0,0 z m -156.001,4.08 c -6.152,-1.994 -9.809,3.671 -13.2,6.72 0.474,0.166 0.64,0.641 0.72,1.2 2.408,-0.858 4.138,-2.503 6.24,-3.6 2.255,-1.178 5.085,-1.834 6.72,-3.601 -0.021,-0.377 -0.612,-0.187 -0.48,-0.719 z m -19.68,1.44 c -0.175,-0.654 0.477,-0.482 0.48,-0.96 -0.283,-0.037 -0.682,0.042 -0.72,-0.239 -0.001,-0.241 0.194,-0.286 0.24,-0.48 -1.293,0.166 -0.899,1.413 0,1.679 z m 130.8,-0.72 c -1.59,0.705 -3.167,0.795 -4.8,0.72 -2.646,-0.121 -5.487,-0.031 -8.16,-0.239 -3.347,-0.261 -6.521,-1.231 -9.84,-0.721 -1.518,0.234 -3.068,1.123 -5.04,0.721 -0.228,0.492 -0.59,0.85 -1.2,0.96 -1.879,-0.843 -5.83,-0.492 -8.16,0.24 3.369,0.924 6.208,1.36 10.56,1.92 0.866,0.065 0.651,-0.949 1.44,-0.96 2.558,0.284 3.381,0.903 5.28,0.479 2.178,0.881 4.44,1.22 6.48,1.68 2.221,0.502 3.949,0.471 6.24,0.721 4.271,0.465 8.187,1.588 12.72,2.64 0.797,0.243 0.751,1.328 1.92,1.2 0.903,-2.777 2.654,-4.706 2.64,-8.4 -3.437,-1 -7.419,-0.039 -10.08,-0.961 z m -134.16,5.76 c 0.625,0.496 1.171,1.069 1.2,2.16 2.703,-0.312 4.342,1.312 7.68,1.44 -2.056,-2.985 -4.418,-5.663 -7.2,-7.92 -0.541,1.458 -1.483,2.517 -1.68,4.32 z m 18,-0.48 c -0.821,1.021 -4.012,1.746 -5.28,3.12 1.008,1.331 1.524,3.279 2.64,4.8 0.295,0.402 1.058,0.732 1.44,1.2 1.704,2.085 2.73,4.834 5.52,5.28 2.05,-0.841 4.635,-2.791 5.76,-4.801 1.249,-2.231 -0.054,-4.357 0,-7.199 -1.282,-1.599 -1.425,-4.335 -3.36,-5.28 -2.052,1.091 -4.46,2.388 -6.72,2.88 z m 106.56,2.88 c -2.106,-0.88 -3.971,-0.967 -5.76,-1.2 0.564,-0.003 -0.088,-0.654 -0.48,-0.479 -0.095,0.412 0.356,0.615 0,0.72 -0.849,-0.282 -0.643,-0.498 -1.2,-0.72 -0.995,0.517 -2.291,-0.402 -2.64,-0.48 -1.649,-0.366 -3.977,0.43 -4.56,-0.479 -3.979,1.177 -9.934,-0.819 -14.64,-1.681 1.937,2.303 3.805,4.676 6.24,6.48 0.383,0.657 0.896,1.184 1.2,1.92 0.315,0.245 0.885,0.235 1.2,0.479 1.568,2.192 2.301,5.22 5.28,6 0.377,1.096 1.691,1.316 2.64,2.16 0.75,0.668 1.155,1.646 1.92,2.4 1.896,1.871 4.484,3.154 5.76,5.04 1.689,2.498 2.753,1.895 5.04,0.24 2.1,-1.52 3.319,-2.867 4.8,-4.561 0.571,-0.685 1.145,0.024 1.68,-0.479 -0.196,-1.499 -0.507,-4.211 -0.48,-6 -0.415,-0.005 -0.409,-0.102 -0.48,-0.48 -0.5,-2.67 -0.418,-5.99 -2.16,-7.68 -0.673,-0.527 -2.509,-0.899 -2.16,-1.68 -0.777,-0.297 -0.184,0.776 -0.96,0.479 0.471,-0.608 -0.227,-1.126 -0.48,-0.72 0.28,0.041 0.261,0.38 0.24,0.721 z m -134.64,-1.44 c -0.371,-0.04 -0.783,-0.482 -1.2,-0.479 -1.001,0.008 -2.006,0.571 -3.12,0.479 -1.296,-0.106 -2.151,-1.185 -3.6,-0.72 0,0.48 0,0.96 0,1.44 -1.932,2.668 -3.068,6.613 -2.88,10.08 1.303,0.334 1.857,1.75 2.64,2.64 0.854,0.972 1.761,1.936 2.64,2.88 1.192,-1.685 2.508,-2.525 4.32,-3.84 2.088,-1.515 3.833,-2.767 5.76,-3.84 2.367,-1.318 4.106,-2.305 6.72,-1.44 -0.7,-2.98 -2.1,-5.26 -3.36,-7.68 -3.176,-0.167 -5.641,0.731 -7.92,0.48 z m -18.72,5.04 c 1.418,1.702 3.846,2.395 5.76,3.601 -0.168,-0.544 0.873,-1.495 0.72,-0.96 0.086,-0.304 -0.284,-0.896 -0.24,-1.2 0.181,-1.253 2.065,-2.342 1.2,-3.84 -1.844,1.435 -5.043,1.516 -7.44,2.399 z m 163.44,-1.92 c -1.324,0.017 -1.775,-0.617 -2.88,-0.239 0.488,4.941 0.733,9.876 1.2,14.88 0.271,2.906 1.132,5.662 0.96,8.399 -0.296,4.726 1.281,9.491 1.2,14.4 1.276,0.36 1.658,0.536 3.12,0.96 1.166,-0.626 1.617,-0.919 2.64,-0.72 0.23,-3.578 -0.588,-8.002 -0.96,-11.761 -0.189,-0.988 1.149,-0.45 0.96,-1.439 -1.095,-3.169 -0.105,-6.884 -0.24,-10.561 -0.031,-0.836 -0.423,-1.556 -0.48,-2.399 -0.186,-2.741 -0.237,-5.593 0,-7.44 -1.073,-2.127 -4.469,-1.931 -5.52,-4.08 z m 11.28,1.2 c 0.891,0.175 2.863,-0.441 3.36,-1.439 -1.34,0.258 -2.448,0.75 -3.36,1.439 z m -142.56,0.24 c 0.306,0.813 0.633,1.607 1.2,2.16 0.205,-1.156 1.967,-0.753 2.16,-1.92 -1.026,-0.103 -2.433,-0.803 -3.36,-0.24 z m 4.56,2.16 c -0.427,-0.448 -0.61,0.194 -1.44,0 0.265,1.461 -1.777,1.47 -1.2,2.88 1.914,-1.206 5.14,-1.101 6.24,-3.12 -0.013,-0.307 -0.308,-0.332 -0.24,-0.72 -1.171,0.215 -1.909,-0.154 -2.88,-0.24 -0.414,0.146 0.019,1.139 -0.48,1.2 z m -37.44,0.48 c -0.929,0.13 -0.988,-0.611 -1.68,-0.72 -0.461,1.14 -1.844,1.356 -1.92,2.88 2.311,0.536 5.813,0.191 8.4,0.72 -1.462,-1.34 -3.592,-3.285 -5.28,-3.6 0.302,0.099 0.491,0.31 0.48,0.72 z m 25.44,2.16 c -0.175,0.655 0.477,0.483 0.48,0.96 -1.514,0.725 -0.351,-0.721 -0.96,-0.479 0.041,0.601 -0.369,0.751 -0.72,0.96 -2.414,0.426 -6.14,3.422 -7.2,5.76 -0.971,2.141 -0.891,3.29 0.72,4.32 0.986,-0.813 1.822,-2.805 2.64,-2.4 -0.573,-0.788 0.948,-2.243 1.44,-1.2 -0.08,-1.405 0.988,-1.51 2.16,-2.16 1.994,-1.105 4.989,-3.082 7.44,-4.56 0.167,-1.207 -0.407,-1.673 -0.24,-2.88 -0.981,-0.101 -0.97,0.79 -2.16,0.479 -0.207,0.833 -0.193,1.888 -1.44,1.681 0,-0.32 0,-0.641 0,-0.96 -0.712,0.612 -1.184,-0.397 -1.44,0 0.603,0.102 -0.399,0.516 -0.72,0.479 z m 18.48,-0.48 c -1.167,0.367 -0.903,-0.697 -1.68,-0.721 -2.516,0.845 -4.442,2.278 -6.96,3.12 0.872,2.668 1.198,4.344 3.12,5.76 1.049,0.773 3.605,0.888 3.6,2.641 1.054,-0.061 3.405,1.676 4.08,-0.96 -3.294,-1.38 -6.023,-2.663 -9.36,-4.8 0.661,-1.253 -0.144,-0.702 -0.24,-2.16 0.343,-0.058 0.405,-0.396 0.72,-0.48 3.443,1.996 6.033,4.847 10.08,6.24 0.364,-0.756 0.716,-1.524 0.96,-2.4 -1.596,-1.924 -3.288,-3.751 -4.32,-6.24 z m -48,6 c 0.197,1.185 1.779,4.554 2.4,5.279 1.466,1.716 4.127,2.27 5.28,4.08 0.347,-0.38 0.536,0.024 1.44,0 0.471,-3.929 5.402,-3.397 6.48,-6.72 -3.398,1.242 -6.576,2.704 -9.12,4.8 -0.004,-0.396 -0.666,-0.134 -0.72,-0.479 0.834,-0.96 1.432,-1.84 2.4,-3.12 2.217,-0.503 4.163,-1.277 6,-2.16 -0.565,-0.668 0.575,-1.798 -0.48,-2.16 0.073,0.56 0.512,1.034 -0.24,1.2 -1.106,-1.252 -1.393,-2.073 -2.4,-3.601 -4.092,-0.147 -7.344,-1.135 -11.04,-1.68 0.327,1.671 -0.237,3.132 0,4.561 z m -37.2,-1.92 c 0.163,-0.268 0.797,0.047 0.96,-0.721 -0.418,0.019 -0.747,-0.054 -0.96,-0.24 0.23,0.448 -0.718,0.803 0,0.961 z m 71.52,0 c -0.116,0.756 0.736,0.543 0.48,1.439 -0.8,0 -1.6,0 -2.4,0 -3.409,2.431 -6.333,5.347 -8.88,8.64 2.156,2.164 4.586,4.054 6.96,6 0.035,-0.535 0.604,0.312 1.2,0 0.321,0.479 0.56,1.041 1.2,1.2 3.279,-1.308 6.382,-2.674 7.44,-5.52 1.175,-3.161 -0.973,-6.579 -2.16,-8.88 -0.695,-1.349 -0.928,-2.853 -1.92,-3.601 -0.82,0.061 -1.308,0.453 -1.92,0.722 z m -68.4,0.24 c -0.729,0.808 0.888,0.727 0,0 z m 87.6,0.48 c -0.97,-0.845 -0.566,0.772 0,0 z m 93.36,7.44 c 1.115,1.017 2.136,2.88 2.88,3.841 1.204,1.555 1.79,4.581 3.6,4.56 -0.107,-1.535 -0.042,-1.751 0,-3.36 0.584,-0.135 1.234,-0.205 1.2,-0.96 -0.854,-1.48 -2.532,-1.748 -3.84,-2.88 -2.117,-1.832 -3.342,-5.084 -6,-5.52 0.927,1.394 2.763,2.044 2.16,4.319 z m -100.32,-1.2 c -0.367,-0.111 -0.833,0.108 -1.2,0 -0.353,-0.104 -0.49,-0.769 -0.96,-0.96 -0.411,-0.168 -1.572,-0.004 -2.16,-0.48 0.721,1.825 0.84,2.81 2.16,4.08 0.775,-0.745 2.208,-0.832 3.12,-1.44 -0.241,-0.677 -0.352,-0.602 -0.48,-0.96 -0.133,0.702 -0.464,-0.236 -0.48,-0.24 z m 115.68,1.44 c -1.227,1.178 -1.94,2.928 -3.36,3.12 0.373,0.063 0.167,0.526 0,0.72 -1.445,0.555 -2.407,1.594 -3.36,2.641 0,1.92 0,3.84 0,5.76 2.25,2.36 5.248,2.517 8.4,3.84 0.823,0.937 1.434,2.086 2.88,2.4 -2.125,-6.008 -0.533,-14.283 -2.4,-20.4 -0.316,0.959 -1.434,1.223 -2.16,1.919 z m -144.96,-1.2 c -0.751,0.9 -1.041,0.891 -2.4,0.96 -1.213,1.717 -3.691,1.556 -4.08,3.601 4.939,1.403 7.667,1.354 11.76,0.479 -1.344,-2.096 -2.803,-4.077 -5.28,-5.04 z m 159.36,14.64 c 1.552,-1.568 3.641,-2.6 4.32,-5.04 0.755,0.274 0.583,-0.377 0.96,-0.48 -1.05,-3.43 -3.144,-5.816 -5.28,-8.16 0.482,5.94 -0.213,9.592 0,13.68 z m -148.32,-2.4 c 1.222,-0.036 0.982,-1.146 0.72,-1.2 -0.981,-0.204 -3.635,-1.421 -4.56,-2.88 -0.782,0.259 -1.248,0.833 -2.16,0.96 0.576,5.132 0.698,10.182 0.72,13.92 0.004,0.72 0.573,1.512 -0.24,1.92 -0.055,-1.269 -0.456,-2.252 -1.2,-3.359 -0.008,1.904 0.267,2.731 0,4.56 0.801,-0.147 0.819,-0.704 1.68,-0.24 0.021,1.62 -0.178,1.947 -0.24,3.12 1.776,0.017 3.058,-0.462 4.32,-0.96 0.57,-4.845 0.696,-9.189 0.96,-15.841 z m 125.28,0.48 c -0.067,-0.974 -0.128,-1.952 -1.2,-1.921 0.299,0.742 0.198,1.883 1.2,1.921 z m -123.12,0 c 0,0.239 0,0.479 0,0.72 0.679,-0.041 1.646,0.206 1.68,-0.48 -0.514,-0.188 -1.341,-0.582 -1.68,-0.24 z m 151.68,0.48 c 0.166,-0.646 -0.496,-0.464 -0.72,-0.72 -1.631,2.289 -4.38,3.46 -4.8,6.96 2.065,-0.635 4.24,-1.399 6.24,-2.16 2.119,-0.806 4.338,-1.31 5.76,-2.88 -1.62,-1.17 -3.815,-1.702 -6.48,-1.2 z m -35.04,2.64 c 0.051,-0.289 0.267,-0.147 0.48,0 -0.557,0.323 -0.902,0.858 -1.2,1.44 -0.505,0.158 -1.067,0.635 -1.44,0.24 -1.355,1.987 -4.338,3.396 -6.72,5.04 0.155,2.541 -0.1,3.331 -0.48,6.479 7.286,0.589 15.405,1.88 18.96,6.48 2.617,-2.423 3.748,-6.332 7.2,-7.92 0.457,-0.983 1.179,-1.701 1.44,-2.88 -0.466,-0.895 -1.117,-1.604 -1.2,-2.881 -2.58,-2.38 -6.671,-3.249 -8.64,-6.239 -0.96,-0.16 -1.519,-0.722 -2.4,-0.96 -0.355,0.125 -0.605,0.354 -0.96,0.479 -0.444,-0.436 -1.104,-0.656 -1.44,-1.2 -1.379,0.726 -1.856,0.643 -2.88,1.92 -0.067,-0.67 -1.324,-0.393 -0.72,0.002 z m -130.32,7.68 c 0.861,-0.061 0.879,0.721 1.68,0.72 0.156,0.724 0.942,0.817 1.2,1.44 0.129,-3.401 0.359,-5.841 -0.24,-10.08 -2.676,0.652 -6.168,0.382 -7.92,0.72 -0.744,0.144 -1.788,0.286 -1.92,0.96 2.36,2.12 5.159,3.801 7.2,6.24 z m 171.6,-6.96 c 1.063,-0.204 2.066,-0.098 2.16,-0.721 -0.608,-0.591 -1.748,0.321 -2.16,0.721 z m -158.4,0 c -0.003,1.09 0.005,2.53 0,3.84 -0.005,1.3 -0.333,2.804 0.24,3.12 1.232,-2.448 3.328,-4.032 4.08,-6.96 -1.331,-0.27 -2.438,-0.763 -4.08,-0.721 -0.013,0.308 -0.307,0.334 -0.24,0.721 z m 3.84,5.04 c 0.878,0.222 1.098,-1.44 1.44,-0.96 -0.813,1.981 -2.743,2.43 -3.6,4.8 1.87,0.205 2.688,-0.891 4.08,-1.68 2.86,-1.623 5.552,-3.084 7.68,-5.04 -2.112,-0.929 -4.163,-1.918 -7.44,-1.681 -1.087,1.771 -1.841,2.535 -2.16,4.561 z m 162.48,0.96 c -0.347,-2.402 -2.83,-6.05 -5.28,-5.521 -3.574,0.772 -6.444,3.415 -10.32,4.08 0.96,1.105 2.474,1.387 3.84,1.92 2.255,0.881 4.857,1.864 6.24,3.12 1.139,1.034 1.488,2.414 2.88,3.12 1.857,-1.323 3.051,-3.87 2.64,-6.719 z m -185.04,-2.16 c 0.018,-0.418 -0.054,-0.746 -0.24,-0.96 -2.467,-2.762 -5.231,-2.022 -8.4,-0.48 -0.531,1.389 -1.727,2.114 -2.88,2.88 -1.391,2.05 -2.863,4.018 -3.36,6.96 0.358,0.315 0.42,0.807 0.48,1.2 0.596,3.936 1.034,7.834 4.8,8.4 3.154,-2.366 7.805,-3.235 10.8,-5.76 1.297,-0.036 2.224,-1.139 3.36,-1.681 1.447,-0.689 3.388,-0.68 4.08,-1.92 -1.498,-0.103 -3.257,-1.08 -4.32,-1.439 -2.547,-0.862 -5.291,-0.935 -7.68,-1.92 -0.93,-0.384 -1.52,-1.281 -2.4,-1.681 -1.25,-0.567 -3.417,-0.196 -3.84,-1.92 4.336,-0.102 6.635,2.689 10.8,2.641 1.347,0.895 3.925,1.831 5.52,1.68 -2.187,-2.053 -4.527,-3.953 -6.72,-6 z m 33.84,-0.72 c -4.882,2.69 -8.382,5.337 -12.72,8.399 2.593,1.727 5.69,2.95 8.88,4.08 0.013,0.307 0.308,0.332 0.24,0.72 1.981,0.259 2.875,1.605 4.56,2.16 2.041,-0.919 3.311,-2.608 5.04,-3.84 0.201,-2.119 0.323,-4.317 1.2,-5.76 -1.248,-2.376 -3.775,-4.838 -7.2,-5.759 z m 131.52,4.08 c 4.961,2.352 9.53,3.611 13.68,6.72 -2.153,-5.127 -8.7,-5.86 -13.68,-8.16 0,0.479 0,0.96 0,1.44 z m -7.92,3.36 c 1.184,-0.816 2.149,-1.852 2.64,-3.359 -0.955,0.074 -1.206,-0.555 -2.16,-0.48 -0.231,1.665 0.219,2.581 -0.48,3.839 z m 7.44,8.16 c 2.297,-0.005 5.343,-0.896 6.48,-1.2 2.03,-0.541 3.876,-0.428 5.04,-1.92 -2.887,-3.753 -8.545,-4.734 -12.72,-7.2 0.106,2.79 0.249,7.58 1.2,10.32 z M 395.77,438 c 1.726,0.508 4.633,0.592 6.24,0.96 0.037,-3.143 -1.062,-5.819 -0.72,-9.84 -0.053,-0.188 -0.201,-0.279 -0.48,-0.24 -2.106,2.613 -5.579,3.861 -5.04,9.12 z m -3.6,-4.08 c 1.394,-0.37 2.132,-2.663 1.92,-3.84 -0.477,1.388 -2.218,2.435 -1.92,3.84 z m 27.6,0.24 c 0.3,-0.774 -1.628,-2.475 -2.16,-2.4 1.098,0.423 0.566,2.474 2.16,2.4 z m -170.4,0.96 c -2.593,4.061 -6.353,6.224 -8.88,9.84 5.356,0.545 10.523,-0.314 15.36,-0.48 0.716,-0.403 1.289,-0.95 2.16,-1.199 2.345,1.204 3.439,-0.553 6,-0.48 0.488,-0.918 -1.329,-1.311 -1.44,-2.399 -2.758,-1.482 -4.742,-3.738 -6.96,-5.761 -0.422,-0.138 -1.41,0.29 -1.44,-0.239 0.133,0 0.272,-0.194 0,-0.24 -0.528,0.796 -4.128,0.345 -4.8,0.958 z m -3.6,-0.24 c 0.242,0.003 0.302,0.421 0,0.48 -3.999,1.832 -8.061,3.944 -11.76,5.76 -1.261,0.619 -2.772,1.182 -3.6,2.399 0.89,1.823 4.014,1.107 5.52,1.44 0.447,0.099 0.542,0.55 0.96,0.48 -0.692,0.114 1.035,-1.042 1.2,-0.48 2.735,-3.825 7.446,-6.953 9.6,-10.56 -0.571,0.744 -1.446,-0.065 -1.92,0.481 z m 20.64,1.92 c -0.806,-0.366 -1.394,-0.682 -2.16,-0.96 -0.5,-0.182 -2.037,-0.547 -2.4,-0.72 -0.212,-0.102 -0.187,-0.666 -0.48,-0.72 0.1,0.018 -0.158,0.492 -0.48,0.479 -0.594,-0.023 -1.719,-0.833 -1.92,0 2.031,1.889 4.258,3.582 6.24,5.521 -0.076,0.324 -0.342,0.458 -0.24,0.96 2.252,1.249 6.187,-0.214 7.68,-1.92 -1.903,-1.032 -4.12,-1.674 -6.24,-2.64 z m 111.84,0.24 c -0.628,-0.233 -1.563,-0.03 -2.4,-0.24 -1.852,-0.465 -3.732,-1.585 -5.52,-1.92 -2.375,-0.445 -3.75,0.354 -5.76,0.24 0.153,1.414 -0.876,1.644 -0.48,3.12 2.695,-0.112 4.609,0.738 6.72,1.439 1.043,0.347 2.007,0.58 2.88,0.96 2.038,0.889 4.619,1.731 5.76,3.84 -0.679,-0.176 -0.95,1.212 -1.92,1.44 -0.791,-0.249 -0.654,-1.426 -1.2,-1.92 -2.487,-0.553 -4.391,-1.689 -6.24,-2.88 -1.74,0.058 -4.442,-0.996 -6.96,-0.96 -1.477,3.084 -3.352,5.768 -4.08,9.6 0.25,1.304 1.746,2.08 2.16,3.12 0.166,0.417 -0.275,0.845 0,1.2 1.253,1.621 3.418,1.006 5.04,2.88 0.087,-0.771 1.091,-0.042 1.68,0 0.74,0.053 1.563,-0.189 2.4,0 2.654,-2.306 4.257,-5.663 6.48,-8.4 1.796,-3.244 5,-5.08 6.48,-8.64 -2.124,-0.148 -3.216,-2.202 -5.04,-2.879 z m 9.6,3.84 c 1.135,-1.745 2.173,-3.587 3.36,-5.28 0.013,-0.412 -0.185,-0.615 -0.48,-0.72 -0.973,1.828 -3.73,3.148 -2.88,6 z m 4.8,-3.36 c 0.678,-0.198 0.622,0.339 1.2,0.24 0.253,-0.249 0.496,-1.714 0,-1.92 -0.177,0.783 -1.118,0.803 -1.2,1.68 z m -2.16,1.92 c -0.507,1.413 -1.915,1.925 -2.16,3.6 -1.706,0.854 -2.817,2.303 -3.6,4.08 2.36,-0.199 6.187,-0.125 8.16,0 -0.165,-3.113 0.879,-4.341 0.24,-6.96 -1.157,0.037 -1.207,-1.033 -2.64,-0.72 z m 5.04,1.44 c -0.187,0.053 -0.279,0.201 -0.24,0.48 -0.261,6.122 0.058,12.836 0.24,18.96 -0.021,0.619 -1.027,0.252 -0.72,1.199 0.076,1.791 0.696,2.089 0,3.601 1.513,0.269 4.871,1.081 6.48,0 1.893,-8.479 0.038,-14.845 0.24,-24 -1.525,-0.431 -4.852,-0.22 -6,-0.24 z m -11.04,1.92 c -0.502,0.56 -0.938,1.962 -1.2,2.4 -0.492,0.824 -1.873,1.354 -1.44,2.16 0.459,-0.95 1.839,-1.685 2.64,-2.641 0.822,-0.98 2.312,-2.932 1.68,-3.6 -0.204,1.004 -1.203,1.15 -1.68,1.681 z m -8.16,10.8 c 1.881,-0.074 2.07,-3.002 3.36,-2.88 0.234,-1.23 0.137,-1.61 -0.48,-2.399 -0.642,1.976 -3.541,2.778 -2.88,5.279 z m 28.08,-4.08 c 0.543,2.1 -0.72,5.768 0.72,7.44 1.688,-2.632 4.364,-4.276 6.24,-6.72 -1.761,-0.74 -3.95,-0.928 -6.96,-0.72 z m -11.28,0.72 c -0.053,-0.188 -0.201,-0.279 -0.48,-0.24 -1.729,0.638 -3.767,0.207 -5.76,0.24 -1.205,0.02 -3.768,-0.071 -4.32,0.96 3.406,2.834 6.301,6.179 10.32,8.399 0.107,-3.875 0.279,-4.714 0.24,-9.359 z m -11.28,0.72 c 0.16,0 0.32,0 0.48,0 0.373,-0.591 -0.815,-0.706 -0.72,-0.24 0.146,0.013 0.285,0.036 0.24,0.24 z m 31.68,-0.24 c -1.94,2.299 -4.52,4.457 -6.48,6.48 -0.375,0.387 -0.851,0.812 -1.2,1.2 -0.698,0.775 -1.71,1.881 -1.68,2.88 1.279,0.197 2.073,-1.103 3.12,-1.681 3.845,-2.122 8.743,-3.684 12,-6.479 -0.103,0.397 0.895,-0.021 0.96,-0.24 -2.278,-0.973 -4.57,-1.619 -6.72,-2.16 z m -35.76,5.04 c -1.07,0.261 -0.668,0.501 -1.2,1.2 0.803,0.774 1.948,0.569 2.88,0.96 0.354,0.148 0.594,0.791 0.96,0.96 0.43,0.198 1.116,0.042 1.68,0.24 1.476,0.518 3.066,1.618 4.32,1.92 0.462,0.111 1.228,-0.182 1.68,0 0.329,0.132 0.444,0.784 0.72,0.96 1.384,0.879 3.303,1.042 4.56,1.92 -2.304,-2.929 -5.376,-4.58 -8.4,-7.2 -0.798,-2.401 -3.259,-3.141 -4.08,-5.52 -1.173,1.387 -2.186,2.933 -3.12,4.56 z m 39.12,0.719 c -4.169,2.593 -8.799,5.227 -12.96,6.961 0,0.88 0,1.76 0,2.64 5.376,1.754 10.035,6.06 15.84,8.16 0.794,2.009 2.979,2.194 3.84,3.6 1.879,-1.255 4.818,-1.824 6.48,-3.36 0.046,-0.042 0.145,-0.771 0.479,-1.199 0.239,-0.306 0.858,-0.542 0.96,-0.721 2.604,-4.533 -0.975,-9.348 -2.399,-13.68 -1.27,-0.046 -1.452,-1.49 -2.16,-2.16 -1.564,-1.479 -3.753,-2.378 -5.76,-3.12 -0.014,-0.146 -0.036,-0.284 -0.24,-0.239 -0.173,1.63 -2.539,2.16 -4.08,3.118 z m -44.88,1.201 c 1.89,-0.271 3.108,-1.212 3.6,-2.88 -0.23,-0.409 -0.754,-0.525 -1.2,-0.72 -0.622,1.378 -1.587,2.413 -2.4,3.6 z m -2.88,2.64 c 0.041,-0.601 -0.369,-0.752 -0.72,-0.96 -1.04,0.642 -1.542,-0.115 -3.12,0.239 -2.465,2.104 -1.968,6.406 -1.92,9.841 0.896,-0.022 0.684,-0.27 1.44,0 0.93,3.71 4.217,5.063 6.72,7.199 5.71,-3.64 13.54,-6.832 18.96,-11.52 -3.84,-1.76 -7.236,-3.964 -11.76,-5.04 -0.608,-1.312 -2.383,-1.457 -3.36,-2.4 -0.751,0.755 -1.611,1.403 -2.64,1.92 -0.821,0.412 -2.273,0.951 -2.64,0.96 -0.533,0.014 -1.648,0.182 -1.92,-0.72 0.655,-0.174 0.483,0.477 0.96,0.481 z m 25.44,7.44 c -0.764,0.887 -2.624,1.514 -1.92,3.12 -2.534,3.066 -6.422,4.778 -8.16,8.64 2.665,0.591 6.453,0.284 7.92,0.48 2.136,0.286 3.521,0.814 5.04,0.96 3.735,0.357 10.355,-0.582 13.68,-1.2 -0.564,-1.891 -2.551,-3.041 -3.6,-4.319 -0.434,-0.529 -0.569,-1.227 -0.96,-1.681 -0.783,-0.909 -1.975,-1.528 -2.88,-2.399 -0.928,-0.895 -1.694,-2.004 -2.64,-2.881 -0.125,-0.354 -0.355,-0.604 -0.48,-0.96 -0.014,-0.146 -0.036,-0.284 -0.24,-0.239 -1.708,0.46 -4.526,0.233 -5.76,0.479 z m -7.44,3.12 c -4.523,1.957 -8.796,4.164 -12.24,7.2 2.444,0.843 5.114,1.125 7.2,1.2 1.047,-1.433 2.81,-2.15 3.12,-4.32 2.318,-2.001 4.32,-4.319 6.48,-6.48 -1.966,0.354 -3.354,1.287 -4.56,2.4 z m 27.6,8.88 c 2.898,-0.222 5.346,-0.895 7.44,-1.92 -0.946,-0.778 -1.37,-0.613 -2.64,-0.24 -4.391,-2.969 -8.822,-5.897 -13.92,-8.159 3.358,3.122 5.867,7.092 9.12,10.319 z" /></g>
</svg>