<?xml version="1.0" encoding="UTF-8" standalone="no"?>
<!-- Created with Inkscape (http://www.inkscape.org/) -->

<svg
   xmlns:dc="http://purl.org/dc/elements/1.1/"
   xmlns:cc="http://creativecommons.org/ns#"
   xmlns:rdf="http://www.w3.org/1999/02/22-rdf-syntax-ns#"
   xmlns:svg="http://www.w3.org/2000/svg"
   xmlns="http://www.w3.org/2000/svg"
   xmlns:sodipodi="http://sodipodi.sourceforge.net/DTD/sodipodi-0.dtd"
   xmlns:inkscape="http://www.inkscape.org/namespaces/inkscape"
   version="1.1"
   id="svg2"
   width="562.89844"
   height="273.31012"
   viewBox="0 0 562.89844 273.31012"
   sodipodi:docname="Bild (4).svg"
   inkscape:version="0.92.4 5da689c313, 2019-01-14">
  <metadata
     id="metadata8">
    <rdf:RDF>
      <cc:Work
         rdf:about="">
        <dc:format>image/svg+xml</dc:format>
        <dc:type
           rdf:resource="http://purl.org/dc/dcmitype/StillImage" />
        <dc:title></dc:title>
      </cc:Work>
    </rdf:RDF>
  </metadata>
  <defs
     id="defs6" />
  <sodipodi:namedview
     pagecolor="#ffffff"
     bordercolor="#666666"
     borderopacity="1"
     objecttolerance="10"
     gridtolerance="10"
     guidetolerance="10"
     inkscape:pageopacity="0"
     inkscape:pageshadow="2"
     inkscape:window-width="1920"
     inkscape:window-height="1024"
     id="namedview4"
     showgrid="false"
     inkscape:zoom="0.55386148"
     inkscape:cx="133.36507"
     inkscape:cy="251.14712"
     inkscape:window-x="0"
     inkscape:window-y="28"
     inkscape:window-maximized="1"
     inkscape:current-layer="svg2" />
  <g
     id="g839"
     transform="translate(-256.59144,-113.17304)"
     style="fill:#ffffff">
    <path
       inkscape:connector-curvature="0"
       id="path819-7"
       d="m 533.70754,386.22856 c -0.43839,-0.27805 -0.87716,-2.99141 -1.14936,-7.10792 -0.23178,-3.5048 -0.8057,-7.21412 -1.35576,-8.76249 -0.26401,-0.74318 -0.99008,-3.30159 -1.61347,-5.68538 -0.62339,-2.38378 -1.27179,-4.50089 -1.44093,-4.70467 -0.81414,-0.98097 -1.01147,-2.96618 -1.06432,-10.70699 -0.052,-7.61883 -0.11786,-8.47709 -0.94831,-12.3612 -0.69393,-3.24551 -0.85042,-4.6517 -0.70346,-6.32191 0.10396,-1.18141 0.0804,-2.21204 -0.0523,-2.29032 -0.1327,-0.0783 -2.91417,0.0354 -6.18106,0.25255 -6.55208,0.4356 -8.87284,0.41765 -13.64548,-0.10547 -4.42284,-0.48481 -11.2705,-0.70792 -26.32776,-0.8578 -14.40328,-0.14339 -17.90564,-0.30617 -20.22743,-0.94013 -0.88294,-0.24106 -3.30432,-0.52877 -5.38081,-0.63934 -3.72532,-0.19836 -3.77919,-0.19126 -4.05393,0.53464 -0.55427,1.46437 -1.05793,6.66048 -1.33174,13.73902 -0.1537,3.97324 -0.44609,8.59665 -0.64978,10.27424 -0.24446,2.01324 -0.30649,5.99724 -0.18247,11.71907 0.15039,6.93855 0.0967,9.0133 -0.26873,10.39432 -0.52184,1.97189 -1.55488,3.25116 -2.62536,3.25116 -1.24241,0 -1.48967,-0.99442 -1.26823,-5.10039 0.11064,-2.05097 0.0601,-4.82794 -0.11218,-6.171 -0.32759,-2.55325 -0.005,-13.23484 0.59016,-19.55135 0.9251,-9.81566 1.03092,-26.1059 0.19608,-30.17832 -0.41444,-2.02162 -0.5498,-4.13905 -0.52335,-8.18729 0.0311,-4.75326 -0.0649,-5.87629 -0.74048,-8.67118 -1.08785,-4.50038 -1.65871,-6.61382 -2.03803,-7.54515 -0.1798,-0.44147 -0.50318,-1.45284 -0.71862,-2.24749 -0.21547,-0.79465 -0.52925,-1.82339 -0.6973,-2.28612 -0.2234,-0.6152 -0.16577,-1.17582 0.21451,-2.08593 l 0.52001,-1.24459 -1.92344,-1.76693 c -1.05793,-0.97181 -2.9437,-2.68725 -4.19064,-3.81208 l -2.26717,-2.04514 -0.0598,3.32942 c -0.0329,1.83119 -0.0946,3.76287 -0.13703,4.29264 -0.0424,0.52977 -0.17589,4.35484 -0.29658,8.50014 -0.12066,4.14531 -0.35427,7.89178 -0.51917,8.32551 -0.1649,0.4337 -0.43669,3.11031 -0.60396,5.94802 -0.16728,2.83768 -0.45342,6.17081 -0.63588,7.40693 -0.18269,1.23757 -0.27943,5.42153 -0.21528,9.31104 0.10412,6.31285 0.1902,7.25118 0.81006,8.82917 0.38146,0.97111 0.78678,2.46807 0.90067,3.32664 0.19771,1.49051 0.15523,1.60847 -0.94077,2.61255 l -1.14783,1.05154 0.10201,11.19373 c 0.10836,11.89456 0.0119,12.82999 -1.40311,13.58721 -0.93278,0.4992 -1.81652,-0.042 -2.25928,-1.38359 -0.21425,-0.64917 -0.35908,-3.70053 -0.3621,-7.62789 -0.003,-3.60023 -0.0671,-8.1006 -0.14301,-10.00082 l -0.13796,-3.45495 -8.59588,-0.22937 c -11.43637,-0.30521 -13.01972,-0.28922 -15.6594,0.15797 -4.10473,0.6954 -16.23726,1.17762 -18.88452,0.7506 -4.00763,-0.64651 -10.18904,-0.91387 -14.85932,-0.64272 -2.56353,0.14885 -5.69354,0.13173 -7.35316,-0.0402 -4.19558,-0.43463 -8.04213,-0.39318 -8.43146,0.0909 -0.51625,0.64185 -1.41162,5.0174 -1.52756,7.46489 -0.0586,1.23612 -0.34589,4.34247 -0.63851,6.90301 -0.29262,2.56053 -0.6301,5.90624 -0.74992,7.43495 -0.16134,2.05774 -0.37582,2.95392 -0.82612,3.45151 -0.72793,0.80434 -2.28088,0.89495 -2.56686,0.14975 -0.44413,-1.15746 -0.57157,-7.21269 -0.21871,-10.39407 0.60804,-5.48215 0.78804,-12.49156 0.36275,-14.12709 -0.20661,-0.79465 -0.51898,-2.02275 -0.69416,-2.7291 -0.17517,-0.70636 -0.37655,-2.80134 -0.44751,-4.65552 -0.071,-1.85418 -0.21437,-3.94797 -0.31872,-4.65288 -0.10432,-0.70495 -0.0222,-3.16113 0.18237,-5.4582 0.23662,-2.65628 0.26462,-4.5844 0.0769,-5.29701 l -0.29512,-1.12044 -2.34067,-0.0637 c -1.28733,-0.035 -4.16817,-0.2166 -6.40185,-0.40349 -6.30939,-0.52791 -20.29697,-1.02123 -27.11047,-0.95612 -3.39246,0.0324 -11.36945,0.0225 -17.72664,-0.0225 -6.35719,-0.0447 -12.95247,0.0241 -14.65617,0.15276 -2.16314,0.16339 -3.45805,0.11504 -4.29233,-0.16031 -0.94868,-0.31311 -1.24548,-0.31211 -1.44133,0.005 -0.32744,0.5298 -0.66102,6.95065 -0.69209,13.32139 -0.0219,4.48523 -0.14572,5.66577 -0.97595,9.30295 -0.624,2.73372 -0.90538,4.72047 -0.81851,5.77926 0.0728,0.88738 -0.0713,3.49171 -0.32012,5.78736 -0.28245,2.60539 -0.38662,5.70002 -0.27719,8.2349 0.20081,4.65167 -0.42809,9.46095 -1.32682,10.14637 -0.68177,0.51997 -2.15634,0.51577 -2.59051,-0.007 -0.74384,-0.89626 0.12348,-22.02609 1.22207,-29.77187 0.68332,-4.81789 0.96624,-8.72955 1.1495,-15.89298 0.29115,-11.38024 0.38501,-12.85292 0.91616,-14.37464 0.45281,-1.29731 0.47759,-1.81346 0.16181,-3.37123 -0.20507,-1.01169 -0.49508,-3.71767 -0.64446,-6.01333 -0.30932,-4.75367 -0.56433,-6.5804 -0.99334,-7.11591 -0.16455,-0.20539 -1.05044,-0.47515 -1.96865,-0.5995 -2.43774,-0.33016 -3.16324,-0.83196 -4.23374,-2.92839 -0.782,-1.53147 -0.98054,-2.36529 -1.07612,-4.51951 -0.23465,-5.28863 1.28095,-11.22421 4.4904,-17.58585 0.81803,-1.62145 3.33723,-4.22789 4.32633,-4.47614 0.89627,-0.22494 1.49802,-1.31675 2.04541,-3.71115 0.22203,-0.97124 0.94805,-3.28294 1.61337,-5.13712 0.66532,-1.85418 1.59705,-4.67158 2.0705,-6.26087 0.47346,-1.5893 1.34574,-3.83786 1.9384,-4.9968 0.59266,-1.15894 1.62096,-3.75961 2.28511,-5.77926 0.66415,-2.01966 1.91819,-5.04468 2.78676,-6.72227 0.86857,-1.67759 2.17113,-4.20309 2.89459,-5.61222 2.71058,-5.27963 7.60648,-9.06737 18.78941,-14.53658 l 6.85073,-3.35046 -0.22533,-1.97612 c -0.1239,-1.08687 -0.35346,-2.21993 -0.51011,-2.5179 -0.15665,-0.29798 -0.42022,-1.85068 -0.58573,-3.45045 -0.16551,-1.59977 -0.37727,-3.03218 -0.47056,-3.18312 -0.2847,-0.46066 -0.22079,-9.89719 0.0982,-14.4969 0.29562,-4.263 1.16588,-8.84544 2.08206,-10.96344 0.25615,-0.59218 0.71191,-1.94358 1.01275,-3.00311 0.30084,-1.05953 0.94995,-2.57659 1.44247,-3.37124 0.49252,-0.79465 1.28313,-2.38394 1.75693,-3.53177 1.28836,-3.12111 4.39722,-7.96715 6.33433,-9.87388 2.65564,-2.61396 8.20675,-5.11153 11.87369,-5.34225 1.1783,-0.0741 2.25892,-0.20668 2.40141,-0.29454 0.14246,-0.0879 1.92058,-0.33058 3.95135,-0.53937 3.77116,-0.38772 8.39698,-0.11992 10.69382,0.6191 0.5639,0.18143 2.29119,0.62428 3.8385,0.98411 3.96081,0.9211 6.51824,1.91408 8.71725,3.38465 1.04412,0.69825 2.47397,1.65103 3.17743,2.1173 2.0311,1.3462 5.15521,5.11448 7.07289,8.53124 2.09126,3.72602 2.2727,4.32763 1.85955,6.16642 -0.6206,2.76196 0.7617,3.8676 2.30525,1.8439 0.89838,-1.17784 4.40004,-3.04226 6.48247,-3.45152 0.70636,-0.13881 2.15117,-0.45711 3.2107,-0.70732 5.5916,-1.32045 9.56485,-1.54314 13.0979,-0.7341 1.09582,0.25093 2.79672,0.61657 3.77974,0.81253 2.20899,0.44035 5.91912,2.21214 8.53157,4.07427 2.45459,1.7496 6.96973,6.75539 9.34071,10.35568 1.84532,2.80206 5.18088,9.47559 5.8743,11.75278 0.21508,0.70635 0.4817,2.58461 0.59247,4.17391 l 0.20138,2.88963 1.60535,-0.0959 c 0.88294,-0.0527 3.05016,-0.36317 4.81605,-0.68988 1.76589,-0.32671 4.65552,-0.7638 6.42141,-0.9713 4.85843,-0.5709 6.63652,-0.99541 7.81847,-1.86661 0.5918,-0.4362 1.53093,-0.90927 2.08696,-1.05127 0.55603,-0.14199 2.86276,-0.91813 5.12611,-1.72473 2.26332,-0.80662 4.37728,-1.46657 4.69768,-1.46657 0.62371,0 2.26409,-1.91524 2.26409,-2.64346 0,-0.24135 -0.12927,-0.57607 -0.28723,-0.74383 -0.158,-0.16776 -0.47175,-1.02743 -0.69721,-1.91037 -0.50963,-1.99567 -0.49557,-13.23536 0.019,-15.0903 0.19588,-0.70635 0.63819,-2.22341 0.98289,-3.37124 0.3447,-1.14782 0.75731,-2.66488 0.91688,-3.37123 0.1596,-0.70636 0.59131,-2.42195 0.95933,-3.81243 1.15373,-4.35905 4.42377,-8.46019 10.78873,-13.53076 2.0841,-1.66026 2.99452,-2.13939 6.10033,-3.2103 5.07256,-1.74907 17.27653,-3.47388 19.72569,-2.78786 0.62914,0.17622 2.16549,0.62386 3.41413,0.99476 1.24868,0.37089 2.58192,0.67435 2.96281,0.67435 0.61642,0 1.90259,0.52093 5.47569,2.21779 1.55668,0.73925 5.00317,3.86183 6.9267,6.27567 2.96657,3.72273 3.87497,5.57229 4.4553,9.07098 1.39714,8.42315 1.53896,9.67618 1.35723,11.99248 -0.81166,10.34617 -1.55179,15.95492 -2.29498,17.39211 -0.75364,1.45736 -1.72825,4.41282 -1.72825,5.24079 0,0.39494 0.25284,0.81564 0.56187,0.93491 0.30903,0.11926 3.59599,0.35641 7.30435,0.527 3.73613,0.17186 8.31723,0.58611 10.27425,0.92905 1.94247,0.3404 4.97658,0.78279 6.74247,0.98311 1.76589,0.20031 3.32459,0.43446 3.46377,0.52033 0.13919,0.0859 3.02882,0.27422 6.42141,0.41858 3.39259,0.14435 7.64391,0.52307 9.44736,0.8416 1.80345,0.31853 3.37104,0.48713 3.48352,0.37467 0.11243,-0.11246 0.0606,-0.68373 -0.1152,-1.26947 -0.17585,-0.58574 -0.50229,-2.54366 -0.72543,-4.35092 -0.37183,-3.01143 -0.34839,-3.61491 0.28071,-7.22408 1.2533,-7.19039 2.00107,-10.34293 2.8381,-11.96491 0.45563,-0.88294 1.17804,-2.29163 1.60532,-3.13043 0.42731,-0.8388 0.90882,-1.52508 1.07006,-1.52508 0.16125,0 0.71943,-0.61405 1.24039,-1.36455 1.38947,-2.00165 4.49011,-5.15253 6.14718,-6.24679 1.52448,-1.0067 6.34092,-3.51811 8.50836,-4.43649 1.70855,-0.72393 13.82288,-1.10413 15.67758,-0.49202 0.65809,0.21719 2.11257,0.38785 3.23224,0.37926 1.25876,-0.01 2.69346,0.22479 3.75909,0.61429 0.94787,0.34645 1.91101,0.62991 2.14039,0.62991 0.85651,0 5.7554,3.03351 7.45746,4.61785 4.67453,4.35125 8.55556,10.78176 9.97469,16.52707 0.32094,1.29927 0.65357,2.43237 0.7392,2.518 0.0856,0.0856 1.64735,-0.35086 3.47045,-0.96996 1.82313,-0.6191 3.80471,-1.2474 4.40351,-1.39622 0.95692,-0.23783 1.13457,-0.45112 1.46742,-1.76203 0.20828,-0.8203 0.63915,-1.88898 0.9575,-2.37485 0.56302,-0.85925 0.5611,-0.89741 -0.0706,-1.39621 -0.39485,-0.31178 -0.97981,-1.64561 -1.49223,-3.40245 -0.46353,-1.5893 -1.07215,-3.5398 -1.35251,-4.33445 -2.01237,-5.70416 -2.50413,-14.48236 -1.14211,-20.38796 1.57112,-6.81228 4.6726,-15.30795 6.33895,-17.36387 1.47737,-1.82278 5.89919,-5.47251 9.03659,-7.45874 1.44706,-0.91612 2.74457,-1.66568 2.88327,-1.66568 0.13874,0 1.06432,-0.50123 2.05684,-1.11385 3.14376,-1.94044 8.88511,-3.425 13.45891,-3.48012 2.36549,-0.0285 3.56058,0.13458 10.24009,1.39735 8.7396,1.65224 13.90558,6.3395 16.86139,15.29886 0.30254,0.91709 0.83562,2.03042 1.18459,2.47406 1.36204,1.73157 2.52075,9.2623 2.27741,14.80163 -0.14095,3.20852 -1.61642,11.322 -2.33938,12.86391 -0.33664,0.71796 -0.61205,1.47591 -0.61205,1.68434 0,0.86617 -1.49061,4.59068 -2.94133,7.34934 -1.6408,3.12016 -1.94588,4.6812 -0.99179,5.07496 1.49911,0.61869 3.20689,0.86149 7.78596,1.10693 3.57004,0.19136 5.52106,0.45025 6.90301,0.91599 1.82612,0.61542 6.76138,3.13053 7.74543,3.9472 0.25156,0.20878 0.55237,0.28462 0.66844,0.16853 0.1161,-0.11608 0.24013,-2.77346 0.27567,-5.90528 0.079,-6.96701 0.82123,-10.79439 2.87875,-14.84472 1.13594,-2.23617 6.46138,-8.51253 8.44687,-9.95522 0.64651,-0.46976 1.37383,-1.095 1.61627,-1.38943 0.24244,-0.29442 1.90767,-1.25708 3.7005,-2.13923 2.53992,-1.24974 3.80889,-1.67353 5.74667,-1.91922 1.36786,-0.17343 3.38691,-0.56182 4.4868,-0.86309 1.45939,-0.39975 3.30128,-0.55084 6.81587,-0.55911 4.92695,-0.0116 7.15438,0.35774 9.57679,1.58799 0.5602,0.2845 1.88542,0.8484 2.94495,1.25311 3.53248,1.3493 5.94616,2.82792 7.85909,4.81448 6.6346,6.88998 8.06057,8.7504 8.50483,11.09614 0.11707,0.61806 0.41036,2.06288 0.65174,3.2107 0.84169,4.0022 1.10988,6.62195 1.28188,12.52174 0.19749,6.77445 -0.46286,17.10652 -1.27221,19.90636 -0.40625,1.4053 -0.93412,4.64233 -1.1781,7.22408 -0.0833,0.88131 0.23059,1.13986 2.53404,2.08751 1.36856,0.56303 2.79062,1.21509 3.1601,1.44902 0.36949,0.23393 1.89474,0.79835 3.38941,1.25426 2.67847,0.81697 5.41046,2.26778 5.94138,3.15511 0.67624,1.13022 4.61214,2.48042 7.24504,2.4854 3.3792,0.006 5.76944,1.93311 4.71929,3.80409 -0.43656,0.77778 -0.41479,1.00711 0.25236,2.65876 0.64102,1.58704 1.8858,7.91814 2.48601,12.64431 0.32011,2.52028 1.43323,8.49094 1.9454,10.43478 0.25589,0.97124 0.69126,2.99398 0.96742,4.49498 0.27618,1.50101 0.77175,3.59599 1.10127,4.65552 0.32948,1.05953 0.76177,3.01003 0.96064,4.33445 0.19884,1.32441 0.63431,3.49164 0.96774,4.81605 0.80495,3.19753 1.54932,7.62958 1.77953,10.59532 0.59173,7.6241 1.56075,13.19509 2.50133,14.3808 0.42872,0.54042 0.42439,5.79127 -0.007,8.25465 -0.18545,1.05953 -0.70671,2.57749 -1.15833,3.3732 -0.45165,0.79574 -1.03237,2.24055 -1.29051,3.2107 -0.25817,0.97018 -0.78335,2.46242 -1.16709,3.31611 -0.38374,0.85372 -1.32769,3.52663 -2.09768,5.9398 -1.61498,5.06151 -1.95008,6.05516 -2.76624,8.20302 -0.32769,0.86233 -0.59581,2.01083 -0.59581,2.55222 0,0.54139 -0.39254,2.34343 -0.87232,4.00448 -0.95281,3.29874 -2.32952,5.29095 -4.32382,6.25683 l -1.05019,0.50861 0.0938,2.50813 c 0.0516,1.37951 0.2243,3.01386 0.38381,3.63192 0.29904,1.159 0.72899,11.39375 0.63389,15.0903 -0.0295,1.14782 -0.0786,6.66297 -0.10907,12.25592 l -0.0554,10.16894 -0.7776,0.82772 c -0.89861,0.95653 -1.83417,1.07664 -2.07019,0.26581 -0.09,-0.30903 -0.41383,-2.15117 -0.71978,-4.09364 -0.54745,-3.4761 -0.60114,-6.43062 -0.37629,-20.70903 0.0874,-5.55022 -0.34563,-16.65273 -0.73882,-18.94315 -0.16673,-0.97123 -0.5148,-2.99398 -0.77346,-4.49498 -0.25868,-1.501 -0.64425,-4.28227 -0.85684,-6.1806 -0.37629,-3.36029 -0.63777,-3.9159 -1.45711,-3.09656 -0.46305,0.46304 -4.93896,0.42978 -7.54406,-0.0561 -2.56445,-0.4783 -18.18028,-0.48989 -22.57056,-0.0167 -1.76589,0.1903 -6.24482,0.49673 -9.95318,0.68096 -3.70836,0.18426 -8.47625,0.54164 -10.59532,0.79423 -9.36966,1.11684 -13.14924,1.51847 -17.64634,1.87511 l -4.80356,0.38098 -0.22003,1.07899 c -0.29728,1.45798 -0.90401,1.98492 -2.39978,2.08433 l -1.25805,0.0836 0.0376,2.71102 c 0.0205,1.49105 0.1424,4.44477 0.27047,6.56383 0.31658,5.23781 0.39363,14.96547 0.15261,19.26422 -0.12102,2.15817 -0.0318,5.09265 0.2293,7.54515 0.23503,2.20735 0.42876,6.54578 0.43053,9.64093 0.004,6.39126 -0.18799,7.05472 -2.03774,7.05472 -1.47512,0 -1.8108,-0.50049 -1.81973,-2.71305 -0.004,-1.06836 -0.13938,-2.5204 -0.30014,-3.22675 -0.36929,-1.62272 -0.39347,-2.80111 -0.36207,-17.65886 0.0446,-21.08716 -0.31291,-36.26858 -0.86711,-36.82278 -0.18494,-0.18493 -1.4679,-0.45678 -2.85104,-0.60409 -5.3063,-0.56525 -8.06429,-0.98341 -10.58697,-1.60513 -1.43766,-0.35436 -3.4604,-0.71525 -4.49498,-0.80197 -1.03456,-0.0867 -2.82016,-0.35953 -3.96798,-0.60618 -1.14783,-0.24664 -2.95385,-0.54736 -4.01338,-0.66824 -1.05953,-0.12092 -2.79331,-0.40831 -3.85284,-0.63864 -5.12817,-1.11489 -26.75723,-0.61354 -34.35452,0.79628 -4.58739,0.85132 -11.45235,1.20174 -13.49006,0.68864 -0.83478,-0.21021 -1.58576,-0.31424 -1.66882,-0.23117 -0.0831,0.0831 -0.19011,4.38787 -0.23785,9.56628 -0.093,10.0845 -0.29009,11.62952 -1.64359,12.88458 -0.77465,0.7183 -0.80502,0.90012 -0.87113,5.21942 -0.0377,2.46132 0.12258,5.7755 0.3561,7.3648 0.34229,2.32959 0.35491,4.56976 0.065,11.55853 -0.35781,8.62642 -0.66578,11.4458 -1.3389,12.25686 -0.60143,0.72465 -2.0885,0.50902 -2.80933,-0.40738 -0.6189,-0.78678 -0.64593,-1.14596 -0.48976,-6.50167 0.0909,-3.11788 0.29394,-7.18594 0.4511,-9.04012 0.1572,-1.85418 0.24138,-3.94916 0.18712,-4.65552 -0.30688,-3.99286 -0.51182,-8.91612 -0.66831,-16.05351 -0.16323,-7.44565 -1.14182,-18.95088 -1.70263,-20.01786 -0.51538,-0.98058 -5.23846,-2.23535 -10.49348,-2.78779 -2.29565,-0.24135 -5.61873,-0.65787 -7.38461,-0.92564 -6.08737,-0.92311 -14.6775,-1.7814 -21.13583,-2.11184 -9.45212,-0.48366 -29.0384,-0.92151 -30.71702,-0.68671 -1.42385,0.19916 -1.44809,0.22305 -1.67114,1.6469 -0.12444,0.79465 -0.46584,2.81739 -0.75859,4.49498 -0.80345,4.60412 -1.06107,7.33347 -1.25773,13.32442 -0.0985,3.002 -0.39138,6.90301 -0.65081,8.66889 -0.25939,1.76589 -0.61902,4.72776 -0.79914,6.58194 -0.18015,1.85418 -0.46459,4.23813 -0.63209,5.29766 -0.19287,1.21981 -0.19207,2.34956 0.003,3.08003 0.16872,0.6345 0.33125,3.56593 0.3612,6.51432 0.05,4.92162 0,5.43203 -0.59289,6.23101 -0.80331,1.08002 -1.68317,1.23901 -2.52358,0.45605 -0.57673,-0.53731 -0.65418,-1.08059 -0.74083,-5.19752 -0.0532,-2.52862 -0.22938,-5.40676 -0.39139,-6.39588 -0.38734,-2.36433 -0.37684,-5.06215 0.0251,-6.45601 0.17787,-0.61691 0.54331,-3.65006 0.81208,-6.74036 0.26877,-3.0903 0.55696,-5.84181 0.64041,-6.11443 0.0835,-0.27262 0.29705,-3.52345 0.47463,-7.22408 0.17759,-3.70062 0.49031,-8.31768 0.69496,-10.26015 0.37379,-3.54754 0.48363,-6.96854 0.31959,-9.95318 -0.0958,-1.74354 0.41389,-10.0267 0.76065,-12.3612 0.20841,-1.40314 0.4756,-10.31894 0.44934,-14.99342 -0.007,-1.27112 0.22334,-3.43835 0.51217,-4.81605 0.35148,-1.67663 0.5175,-3.99123 0.50203,-6.99989 -0.0132,-2.54942 0.18121,-5.74571 0.44895,-7.38462 1.30791,-8.00678 1.36599,-10.92313 0.22462,-11.28155 -1.50871,-0.47378 -3.14681,-1.3045 -4.15985,-2.10957 -0.62047,-0.49308 -1.29661,-0.89651 -1.50255,-0.89651 -0.2059,0 -1.12268,-0.37288 -2.03722,-0.82862 l -1.66285,-0.82862 -1.85171,0.87867 c -1.82089,0.86403 -6.59938,1.61161 -7.67156,1.20018 -0.24706,-0.0948 -0.66705,0.008 -0.93329,0.22939 -0.39196,0.3253 -0.48205,1.29452 -0.47332,5.09277 0.006,2.58006 -0.11793,6.06359 -0.27522,7.74118 -0.18548,1.97824 -0.16808,3.76861 0.0495,5.09449 0.2846,1.73424 0.24694,2.30486 -0.24838,3.76205 l -0.5839,1.71773 0.82172,1.85668 c 0.75201,1.69918 0.82341,2.24509 0.84181,6.4354 0.0116,2.64777 0.16757,4.85429 0.36981,5.23216 0.19232,0.35937 0.37719,2.41669 0.41078,4.57178 0.0574,3.68203 0.01,4.01514 -0.79009,5.52369 -0.46816,0.88295 -1.22668,1.95561 -1.68562,2.38373 -0.8055,0.75136 -0.8345,0.90731 -0.83568,4.49498 0,2.04412 -0.21486,5.01695 -0.47599,6.60624 -0.26588,1.61807 -0.47791,5.00892 -0.48189,7.70569 -0.006,4.32019 -0.0856,5.00876 -0.76948,6.68763 -0.41932,1.02936 -0.92433,2.0335 -1.12227,2.23144 -0.4764,0.47641 -0.45383,0.94013 0.0975,2.00277 0.25165,0.48501 0.4556,1.76512 0.45348,2.84607 -0.003,1.08049 0.32601,4.05951 0.72918,6.62005 0.59684,3.79055 0.7384,6.02751 0.76193,12.04013 0.0289,7.33983 0.0342,7.39589 0.90288,9.24544 0.48071,1.02348 1.14873,3.04622 1.48454,4.49499 0.33577,1.44879 0.91142,3.45789 1.27917,4.46467 2.17191,5.94612 2.32702,16.66589 0.26016,17.97939 -0.50125,0.31856 -0.92754,0.31278 -1.45184,-0.0196 z m -139.5658,-49.64789 c 1.76589,-0.0935 4.51104,-0.38391 6.10034,-0.64545 2.30149,-0.37873 4.72926,-0.43543 11.92824,-0.27866 8.23291,0.17932 9.17737,0.14503 10.59532,-0.3847 1.6885,-0.63081 3.02467,-1.37649 3.39795,-1.89631 0.33285,-0.46353 0.30228,-2.86696 -0.0482,-3.78882 -0.16165,-0.42516 -0.36515,-1.45679 -0.45222,-2.29254 -0.0871,-0.83571 -0.2077,-1.56165 -0.268,-1.61318 -0.40346,-0.3447 -3.24053,-0.344 -4.06106,0 -1.44353,0.60698 -13.63659,0.96867 -17.08726,0.5069 -8.97449,-1.20099 -12.53307,-1.42542 -21.58295,-1.36114 -5.0767,0.036 -10.06132,0.20568 -11.07693,0.37697 -2.37104,0.39986 -20.0481,1.03368 -21.79614,0.78151 -2.16597,-0.31246 -3.00724,1.24849 -2.54618,4.72426 0.33163,2.49979 0.94671,3.6901 2.17127,4.20172 1.83928,0.76852 8.63457,1.19345 16.3111,1.01998 5.34997,-0.12089 8.22361,-0.0381 11.07693,0.31933 5.77798,0.72373 8.79739,0.78104 17.33779,0.32913 z m 410.26453,-6.17852 c 0.0942,-0.48777 0.32778,-1.4984 0.51901,-2.24588 0.1912,-0.74745 0.49384,-2.3897 0.67251,-3.64938 0.17865,-1.25972 0.42863,-2.45417 0.55552,-2.65436 0.12685,-0.20021 0.48212,-1.51985 0.78944,-2.93255 0.30733,-1.41271 0.7735,-3.29097 1.03597,-4.17392 0.26248,-0.88294 0.70982,-2.54448 0.99416,-3.6923 0.28431,-1.14783 0.88574,-3.17057 1.33646,-4.49499 0.45075,-1.32441 1.17566,-3.56388 1.61093,-4.97659 0.43528,-1.41271 1.02332,-3.12276 1.30676,-3.80009 0.6659,-1.59138 0.6056,-5.09763 -0.23005,-13.37716 -0.16933,-1.6776 -0.53297,-5.36188 -0.80813,-8.18729 -0.6677,-6.85625 -1.89631,-13.97254 -3.88017,-22.47479 -3.27125,-14.01965 -3.14427,-13.36491 -4.82559,-24.88307 -0.86762,-5.9439 -1.30688,-7.9497 -1.87543,-8.56445 -0.19187,-0.20744 -1.14349,-0.59274 -2.11473,-0.85623 -0.97124,-0.26349 -2.81155,-0.78006 -4.08957,-1.14793 -3.43047,-0.98742 -5.28481,-0.89096 -7.96983,0.41459 -1.22552,0.59589 -3.52856,1.70762 -5.11786,2.47051 -3.2456,1.55794 -7.17168,3.78155 -10.75585,6.09179 -3.76895,2.42933 -7.61097,4.39384 -10.7347,5.48884 l -2.86844,1.00552 -2.09726,-0.70025 c -1.15348,-0.38513 -2.55193,-1.04708 -3.1077,-1.47098 -0.55578,-0.4239 -1.42758,-0.86151 -1.93731,-0.97245 -0.50976,-0.11095 -3.38302,-1.40984 -6.38503,-2.88642 -3.002,-1.47659 -5.96388,-2.87016 -6.58194,-3.09683 -0.61806,-0.22666 -2.06287,-1.05442 -3.2107,-1.83945 -1.14783,-0.78503 -2.73712,-1.71397 -3.53177,-2.06431 -0.79465,-0.35034 -2.31697,-1.16556 -3.38293,-1.8116 -1.06598,-0.64604 -2.872,-1.55485 -4.01338,-2.01956 -1.665,-0.67789 -4.99286,-2.08292 -7.91017,-3.33968 -0.20719,-0.0893 -0.54527,0.15268 -0.75131,0.53763 -0.23075,0.43115 -1.81215,1.37467 -4.11827,2.4571 -2.05902,0.96645 -5.36649,2.55104 -7.34991,3.52131 -1.98344,0.97027 -4.72859,2.03465 -6.10033,2.3653 -7.01269,1.69032 -12.25573,4.08975 -14.48043,6.62682 -0.95827,1.09281 -1.75526,1.71051 -2.21031,1.7131 -0.39145,0.002 -1.41762,-0.61 -2.28043,-1.3605 -0.86282,-0.7505 -2.02178,-1.6097 -2.57553,-1.90932 -1.26926,-0.68682 -2.82346,-3.10795 -3.11862,-4.85818 -0.12426,-0.73674 -0.69753,-2.35089 -1.27398,-3.58701 -1.62079,-3.47562 -2.62581,-5.99269 -2.88443,-7.22408 -0.2801,-1.33374 -0.58733,-1.97315 -3.12398,-6.50168 -1.06335,-1.89832 -2.05421,-3.4515 -2.2019,-3.4515 -0.14769,0 -0.88763,0.19935 -1.64433,0.44299 -0.75667,0.24365 -3.32625,0.6217 -5.7102,0.84011 -2.38395,0.21841 -5.05686,0.49 -5.9398,0.60354 l -1.60535,0.20642 -0.097,1.68209 c -0.11469,1.98816 0.24495,4.61337 1.35219,9.87033 1.20436,5.71815 1.86853,7.73858 3.52997,10.73824 1.98897,3.59098 3.22612,7.19158 3.87487,11.27723 1.11771,7.03927 3.01938,13.34432 5.5131,18.27885 2.06095,4.07823 3.91824,6.60626 4.79181,6.52234 2.01491,-0.19357 6.55523,-1.22115 9.61034,-2.17504 4.83551,-1.50978 5.80848,-1.7415 8.88629,-2.11632 1.46973,-0.17899 3.90033,-0.66872 5.40134,-1.0883 1.501,-0.41959 3.59598,-0.9291 4.65551,-1.13227 4.83112,-0.92634 13.33145,-3.37634 16.05352,-4.62699 2.98402,-1.37101 4.95109,-1.95876 5.3202,-1.58963 0.49021,0.4902 0.79468,5.8178 0.6901,12.0754 -0.0495,2.96318 0.0545,5.92505 0.23121,6.58194 1.15399,4.29046 1.94594,9.14347 1.94764,11.93487 0,1.68603 0.15482,3.93239 0.34175,4.99192 0.18696,1.05953 0.38271,4.02141 0.43505,6.58194 0.0523,2.56054 0.26697,5.30569 0.47701,6.10034 0.21005,0.79464 0.55523,2.67291 0.7671,4.17391 l 0.38526,2.7291 6.26087,0.21158 c 3.44347,0.11636 7.41672,0.37209 8.82943,0.5683 2.85088,0.39591 15.08815,0.39726 19.58528,0.003 1.5893,-0.13964 4.91238,-0.27471 7.38462,-0.30017 2.47224,-0.0254 6.15652,-0.24302 8.18729,-0.48344 5.30559,-0.62814 12.87585,-0.84477 18.62207,-0.53288 2.73713,0.14859 5.19331,0.32961 5.4582,0.4023 0.40914,0.11231 0.48896,-0.51997 0.5305,-4.20226 0.16805,-14.89246 0.43316,-24.38319 0.76958,-27.5491 0.30097,-2.83221 0.30042,-4.03105 -0.003,-5.45819 -0.39128,-1.84406 -0.25464,-3.96664 0.6345,-9.85559 0.97891,-6.48339 0.88763,-19.56334 -0.18795,-26.92895 -0.57555,-3.94154 -0.44224,-4.39087 1.11187,-3.74714 1.27538,0.52828 1.67582,1.2262 2.67923,4.66941 1.41072,4.84093 2.09941,20.61345 1.19162,27.29097 -0.19203,1.4127 -0.37928,3.72897 -0.41611,5.14726 -0.0562,2.16472 -0.19444,2.75748 -0.86114,3.69231 -0.49059,0.68788 -0.81186,1.60457 -0.84037,2.39788 -0.0254,0.70636 -0.18747,8.00268 -0.36021,16.21405 -0.26716,12.69932 -0.24273,15.43343 0.1634,18.301 0.26263,1.85418 0.5149,5.46622 0.56062,8.02676 0.13298,7.4442 0.47817,12.54492 0.9809,14.49449 0.25705,0.99673 0.46735,2.3091 0.46735,2.91641 0,1.77324 0.7375,2.00421 1.06049,0.33214 z m -285.1598,-6.20593 c 3.01469,-0.18841 5.82088,-0.47165 6.23599,-0.62946 0.94687,-0.36002 1.40642,-1.96354 1.03854,-3.62389 -0.14924,-0.67351 -0.18385,-1.36612 -0.0769,-1.53914 0.10692,-0.173 0.0308,-0.51179 -0.16933,-0.75285 -0.29301,-0.35305 -2.31206,-0.43897 -10.38216,-0.44182 -13.52416,-0.005 -23.46106,-0.26893 -25.55389,-0.67916 -0.9512,-0.18648 -3.10346,-0.33902 -4.78279,-0.33902 -1.67936,0 -7.04158,-0.23875 -11.91604,-0.53054 -8.93824,-0.53509 -12.09828,-0.61417 -19.13694,-0.47903 -2.11907,0.0407 -4.43077,0.0318 -5.13713,-0.0202 -1.24157,-0.091 -1.2829,-0.062 -1.24279,0.86914 0.10438,2.4251 0.56553,5.32308 0.88981,5.59224 0.19637,0.16297 2.37884,0.36364 4.84999,0.44599 2.51035,0.0836 5.41389,0.37701 6.57992,0.66481 1.67374,0.41309 3.89882,0.51343 11.23746,0.50668 9.03061,-0.008 35.60466,0.83642 35.90971,1.14147 0.26473,0.26472 5.88374,0.17537 11.65655,-0.18532 z M 416.63502,321.6755 c 2.30574,-0.33202 4.89276,-0.5247 5.74893,-0.42818 2.05482,0.23159 2.41939,-0.26087 2.42189,-3.27164 0,-1.24653 0.21775,-3.69864 0.48161,-5.44914 0.26386,-1.75048 0.47952,-3.84546 0.47929,-4.65552 0,-1.54159 0.42629,-5.39947 1.00938,-9.12552 0.18886,-1.20704 0.39004,-7.32885 0.44706,-13.6041 0.0715,-7.87115 0.22212,-11.69563 0.48572,-12.33199 0.45858,-1.1071 -0.0542,-2.08106 -1.96948,-3.74075 -1.94225,-1.68304 -2.45259,-4.35232 -0.727,-3.80236 0.32682,0.10415 1.38885,0.84899 2.36009,1.65518 0.97124,0.8062 2.27157,1.68131 2.88963,1.94468 0.61806,0.26338 1.70168,1.02686 2.40803,1.69664 0.70636,0.66977 2.65686,2.07115 4.33445,3.11416 2.30223,1.43138 4.07364,2.92927 7.22408,6.10868 2.29565,2.31676 4.89632,4.65518 5.77926,5.19647 1.95911,1.20106 4.91739,1.89551 9.79265,2.29874 9.69574,0.80197 12.26498,0.99265 19.62002,1.45618 4.34553,0.27387 9.11342,0.7139 10.59532,0.97785 1.4819,0.26399 4.78934,0.56088 7.34988,0.6598 2.56053,0.0989 5.88361,0.29285 7.38461,0.43097 1.50101,0.13813 2.8565,0.13691 3.01219,-0.003 0.16291,-0.14608 0.13732,-1.25137 -0.0603,-2.60352 -0.44105,-3.01774 -0.073,-7.37079 0.89884,-10.6307 0.54598,-1.83152 0.65042,-2.59712 0.38978,-2.85775 -0.19583,-0.19581 -1.62735,-0.7077 -3.1812,-1.13753 -3.00779,-0.83203 -5.60964,-1.58257 -9.2466,-2.66731 -2.33068,-0.69513 -5.59288,-1.44561 -13.80602,-3.1761 -5.15154,-1.08542 -9.07711,-2.09336 -13.96656,-3.58612 -1.67759,-0.51216 -3.41137,-0.93139 -3.85284,-0.93162 -1.16173,-6.5e-4 -2.62924,-1.00154 -4.05313,-2.76449 -2.6461,-3.27629 -5.21562,-5.72659 -8.14754,-7.76953 -3.29164,-2.2936 -7.21339,-5.99408 -9.07996,-8.56767 -1.1197,-1.54383 -4.21103,-4.5948 -6.95072,-6.85998 -1.33402,-1.10298 -1.60831,-1.8609 -0.92183,-2.54738 0.60628,-0.60628 2.05896,-0.45543 4.31824,0.44842 1.14615,0.45854 2.11482,0.78362 2.15255,0.72241 0.35928,-0.58252 0.8464,-2.58582 0.69024,-2.83852 -0.29838,-0.48278 -3.72776,-0.38948 -5.83221,0.15866 -1.01696,0.26488 -2.43272,0.48504 -3.14611,0.48923 -0.71338,0.004 -2.16398,0.36631 -3.22351,0.80471 -1.05953,0.4384 -2.79331,0.93769 -3.85284,1.10953 -1.05953,0.17184 -2.64883,0.52482 -3.53178,0.7844 -2.71156,0.79718 -3.39069,0.88667 -7.76951,1.02377 -3.73042,0.1168 -4.44149,0.0526 -5.9398,-0.536 -2.04724,-0.80429 -4.77598,-1.2329 -9.08667,-1.42725 -1.76589,-0.0796 -4.00535,-0.2979 -4.97659,-0.48506 -1.06339,-0.20492 -5.47004,-0.30672 -11.07693,-0.25587 -5.12107,0.0464 -11.69498,0.0666 -14.60869,0.0448 -5.04392,-0.0377 -6.31038,-0.16491 -12.41887,-1.24743 -2.82083,-0.4999 -5.5253,-0.55441 -9.51209,-0.19174 -2.59425,0.236 -3.09798,0.53344 -3.10761,1.83496 -0.005,0.73866 -3.41269,5.12803 -6.81831,8.78377 -1.22151,1.31123 -2.51475,2.97277 -2.87387,3.69231 -0.35912,0.71955 -1.1799,1.81672 -1.82397,2.43816 -1.31802,1.27172 -6.5734,7.25009 -7.38137,8.39687 -0.52328,0.74269 -0.83404,1.26916 -2.21689,3.75561 -0.39688,0.71356 -1.82108,2.4731 -3.16495,3.91011 -2.61079,2.79172 -2.65493,3.01627 -0.71978,3.66079 1.95641,0.65159 1.95037,2.41852 -0.008,2.4287 -1.25772,0.007 -2.22389,0.32745 -2.40475,0.79875 -0.0884,0.23034 0.0332,1.06312 0.27021,1.85063 0.33764,1.12188 0.34849,1.59716 0.0502,2.19555 -0.58477,1.17292 -1.3292,1.1009 -2.34317,-0.22669 -1.92398,-2.51907 -3.40897,-3.9593 -4.38839,-4.2562 -0.55972,-0.16967 -2.32837,-0.39036 -3.93032,-0.49043 -1.60195,-0.10006 -3.62469,-0.32202 -4.49498,-0.49324 -3.28373,-0.64602 -5.96253,-0.99906 -9.96987,-1.31391 -2.27383,-0.17866 -6.83449,-0.62169 -10.13481,-0.98452 -3.30032,-0.36283 -6.46977,-0.61376 -7.04324,-0.55763 -0.99641,0.0975 -1.06047,0.18755 -1.44372,2.02849 -1.04503,5.02054 -1.40538,7.25369 -1.40538,8.71027 0,1.74662 -0.66473,3.0093 -1.58424,3.0093 -0.7932,0 -1.37723,0.77219 -1.24977,1.65242 0.0879,0.6068 0.65282,0.91515 3.47615,1.89734 1.85418,0.64503 3.87693,1.3953 4.49499,1.66725 0.61806,0.27192 2.64129,0.71634 4.49606,0.98758 1.85478,0.27124 5.17785,0.91955 7.38462,1.44067 2.20676,0.5211 5.058,1.18463 6.33609,1.47449 3.16318,0.7174 12.47555,3.80577 14.40727,4.77807 2.14594,1.08014 6.41312,2.47677 7.56737,2.47677 1.2846,0 1.90635,-0.37132 5.07949,-3.03348 2.38526,-2.00113 6.91576,-4.99328 7.5605,-4.99328 0.57895,0 4.47354,-3.17574 7.36927,-6.00902 3.70033,-3.62057 5.78141,-6.1947 6.30347,-7.797 0.71779,-2.20306 2.06628,-4.58872 4.17482,-7.38584 0.46539,-0.61739 1.07728,-1.91717 1.35976,-2.88841 0.62484,-2.14849 1.99687,-4.49498 2.62831,-4.49498 0.56387,0 0.59251,1.07425 0.12747,4.78287 -0.18474,1.47348 -0.27933,2.73565 -0.21014,2.80483 0.0692,0.0692 0.80685,-0.1755 1.63929,-0.54373 1.79693,-0.79487 2.43856,-0.49389 2.43856,1.14392 0,1.21054 -1.6538,3.11703 -3.9221,4.52139 -1.55074,0.9601 -3.36328,2.58369 -3.81955,3.42134 -0.20519,0.37673 -0.13205,1.21339 0.22449,2.56857 0.54769,2.08145 0.43997,5.0228 -0.52639,14.37104 -0.17341,1.6776 -0.3831,6.30101 -0.46597,10.27425 -0.0828,3.97325 -0.27702,8.24117 -0.43149,9.48432 -0.19026,1.53125 -0.1587,2.87184 0.0978,4.15667 0.3371,1.68816 0.48071,1.92373 1.30759,2.14488 1.35576,0.36258 24.19952,0.0597 25.35499,-0.33623 1.85703,-0.63626 21.41907,-0.0388 29.53846,0.90224 3.88996,0.45082 8.52178,0.35289 12.86117,-0.27194 z m 319.76761,-3.57448 c 2.11906,-0.19213 5.84107,-0.556 8.27112,-0.80865 2.43008,-0.25265 5.39196,-0.46407 6.58194,-0.46985 1.19001,-0.006 3.17503,-0.14988 4.41115,-0.32024 8.56795,-1.18073 10.99088,-1.34181 20.86957,-1.38756 12.64304,-0.0586 19.49789,0.25676 20.54862,0.94523 0.74922,0.49091 0.75188,0.48757 0.96071,-1.21349 0.11517,-0.93817 0.16281,-2.4976 0.10589,-3.46544 l -0.10352,-1.75969 -3.37123,-0.42169 c -3.30179,-0.41299 -17.96989,-0.31484 -18.68154,0.12499 -0.16359,0.10111 -4.08202,0.24411 -8.70762,0.3178 -4.62559,0.0737 -9.46814,0.27689 -10.76118,0.45158 -3.08375,0.41659 -11.22664,0.40429 -17.44866,-0.0263 -3.48156,-0.24099 -6.39277,-0.24411 -9.72259,-0.0106 -3.33742,0.23422 -4.94239,0.23216 -5.38897,-0.007 -0.9914,-0.53057 -1.31526,0.0592 -0.89321,1.6266 0.19948,0.74084 0.40596,2.41705 0.45884,3.72493 0.0529,1.30785 0.2792,2.59849 0.50292,2.86806 0.3387,0.40814 1.08544,0.46426 4.46086,0.33529 2.22973,-0.0852 5.78783,-0.31211 7.9069,-0.50421 z m -25.60301,-3.5887 c -0.0723,-0.21685 -0.69836,-0.55927 -1.3913,-0.76087 -2.98056,-0.86727 -6.32309,-3.21905 -8.71063,-6.12875 -0.5674,-0.69145 -0.60634,-0.69431 -2.60401,-0.19116 -2.82086,0.71053 -8.46171,0.1395 -13.5439,-1.37107 -3.5294,-1.04903 -4.80469,-1.15495 -13.48495,-1.12021 -8.88828,0.0356 -14.9368,-0.25968 -22.63545,-1.105 -2.29565,-0.25207 -5.82556,-0.49907 -7.84423,-0.54887 l -3.67031,-0.0905 -0.26197,0.95907 c -0.14406,0.52745 -0.29846,2.39184 -0.34306,4.14306 l -0.0811,3.18402 1.60535,0.42927 c 1.85717,0.49657 6.81048,0.34326 11.8796,-0.36769 4.43758,-0.62239 7.44286,-0.77728 19.10368,-0.98466 10.06545,-0.179 14.13955,0.0151 19.90635,0.94844 1.50101,0.24296 4.17392,0.67313 5.9398,0.95596 3.70037,0.59266 7.69564,1.30191 10.91639,1.93791 2.96078,0.58464 5.39488,0.63646 5.21974,0.11109 z m -186.94566,-1.80807 2.88951,-0.20568 0.36078,-1.12374 c 0.19846,-0.61806 0.42943,-3.33901 0.5133,-6.04653 0.17774,-5.73778 0.43845,-5.34601 -3.75235,-5.63873 -1.36227,-0.0952 -3.29463,-0.45829 -4.29412,-0.80695 -2.42521,-0.84595 -5.58078,-1.63488 -6.53937,-1.63488 -0.44369,0 -1.17203,-0.41287 -1.69933,-0.96322 -0.78492,-0.81927 -1.16574,-0.96417 -2.54836,-0.96966 -0.89406,-0.004 -2.56468,-0.14641 -3.71251,-0.31744 -1.14782,-0.17104 -3.96522,-0.3885 -6.26087,-0.48321 -3.93449,-0.16237 -6.99943,-0.474 -11.07692,-1.12619 -0.97124,-0.15533 -4.29432,-0.37186 -7.38462,-0.48112 -3.0903,-0.10929 -6.48562,-0.33208 -7.54515,-0.49506 -1.05953,-0.16301 -2.86555,-0.29641 -4.01338,-0.29648 -4.58443,-2.2e-4 -11.74564,-0.68426 -13.64548,-1.30345 -1.05953,-0.34531 -2.25616,-0.62782 -2.65914,-0.62778 -1.15823,9e-5 -2.84157,-0.8258 -5.24253,-2.5721 l -2.22235,-1.61643 -0.31593,0.83093 c -0.47499,1.24938 -0.38378,2.72101 0.29939,4.8297 1.15303,3.55894 1.73956,7.59762 1.92803,13.27574 l 0.18577,5.59728 7.86622,0.0915 c 4.32643,0.0503 9.74449,0.30335 12.04014,0.56229 6.25435,0.70539 8.97356,0.84734 16.37458,0.85463 3.85178,0.004 7.29308,0.15697 8.02676,0.35719 2.93519,0.80113 22.85053,0.99111 32.42793,0.30935 z m -180.14789,-0.32152 c 0.29769,-0.48164 0.4669,-4.08867 0.21123,-4.50234 -0.18542,-0.30007 -2.38854,-0.39193 -9.04381,-0.37706 -9.30362,0.0209 -11.91912,-0.16044 -30.47088,-2.11123 -5.77545,-0.60731 -16.18362,-1.0116 -27.0903,-1.05224 l -7.66556,-0.0286 0.20531,1.02653 c 0.11292,0.5646 0.29515,1.82881 0.40496,2.80936 0.10981,0.98055 0.33172,1.95089 0.49312,2.15628 0.67113,0.85398 6.54969,1.09324 30.12424,1.22603 10.68167,0.0602 20.93826,0.20642 22.79244,0.32499 1.85418,0.11857 5.10502,0.32724 7.22408,0.46366 5.49342,0.35369 12.61434,0.38959 12.81517,0.0646 z m 282.08786,-1.94132 1.12374,-0.20077 0.0541,-3.23654 c 0.0661,-3.94846 -0.20632,-4.60967 -2.12795,-5.16606 -2.72477,-0.7889 -16.05069,-1.17014 -30.99641,-0.88679 -14.41256,0.27323 -19.77302,0.24591 -24.18488,-0.1232 -4.75903,-0.39819 -5.83288,-0.62612 -9.47629,-2.01141 -2.94993,-1.12165 -3.21064,-1.02411 -3.72949,1.39509 -0.28508,1.32936 -0.2565,1.92298 0.15171,3.15198 0.2766,0.83282 0.74979,1.73089 1.05154,1.99574 0.68445,0.60078 6.40817,1.10971 15.31784,1.36201 9.70162,0.27471 18.64484,0.76145 23.87658,1.29956 9.85943,1.01401 10.84717,1.1259 12.56489,1.42315 0.97124,0.16808 4.29432,0.53089 7.38462,0.80624 3.0903,0.27535 5.76321,0.56036 5.9398,0.63334 0.17659,0.0729 0.68227,0.0484 1.12374,-0.0545 0.44148,-0.1029 1.30837,-0.27746 1.92643,-0.38788 z m 6.57523,-3.16023 c 0.10999,-1.01538 0.2775,-2.38764 0.37224,-3.04946 0.13424,-0.93775 0.0526,-1.24922 -0.36984,-1.41133 -0.3132,-0.12018 -0.66192,-0.0189 -0.82585,0.2401 -0.53809,0.84981 -0.22212,6.06684 0.36746,6.06684 0.14076,0 0.34595,-0.83077 0.45599,-1.84615 z m 82.38929,1.33074 c 0.31359,-0.37784 0.44946,-2.04307 0.50905,-6.23884 l 0.0813,-5.72343 -1.35948,-0.51917 c -0.92834,-0.35456 -2.12079,-0.4888 -3.76037,-0.42337 l -2.40093,0.0958 -0.40108,1.22748 c -0.22058,0.67512 -0.56711,2.97623 -0.77003,5.11359 l -0.36894,3.88614 0.92674,0.73891 c 1.02556,0.8178 4.95334,2.27395 6.27233,2.32538 0.46398,0.018 1.0361,-0.19903 1.27138,-0.4825 z m -14.81826,-5.57423 c 1.10724,-0.56486 1.27166,-0.81028 1.5595,-2.32776 0.17701,-0.93296 0.63649,-3.11698 1.0211,-4.85336 0.38464,-1.73638 0.62615,-3.34777 0.53673,-3.58083 -0.0895,-0.2331 -1.33177,-0.80226 -2.76072,-1.26483 -1.42892,-0.46259 -4.3646,-1.76107 -6.5237,-2.88555 -2.15913,-1.12448 -5.22599,-2.4333 -6.81529,-2.90848 -4.25608,-1.27256 -5.94914,-1.92909 -7.82079,-3.03265 -0.92346,-0.5445 -1.80554,-0.99001 -1.96014,-0.99001 -0.15459,0 -1.92321,-0.77748 -3.93025,-1.72773 -2.00701,-0.95026 -4.72769,-2.03042 -6.04591,-2.40036 -1.93342,-0.54258 -2.6295,-0.91996 -3.60077,-1.95213 -0.75892,-0.80652 -1.20402,-1.59028 -1.20402,-2.12014 0,-0.79564 -1.24723,-4.41318 -1.9776,-5.73601 -0.18583,-0.33657 -0.84669,-1.63691 -1.46854,-2.88963 -0.62188,-1.25272 -1.35228,-2.53151 -1.62314,-2.84176 -0.55583,-0.63669 -1.15177,-1.62354 -1.69525,-2.80715 -0.20269,-0.44147 -0.57847,-1.16388 -0.83504,-1.60535 -0.25657,-0.44147 -0.94449,-1.81685 -1.52871,-3.05639 -0.58425,-1.23955 -1.29783,-2.44921 -1.58573,-2.68814 -0.28788,-0.23894 -0.52344,-0.61932 -0.52344,-0.84528 0,-0.72615 -4.83783,-9.83451 -7.08664,-13.34233 -1.19778,-1.86836 -2.30547,-3.8911 -2.46151,-4.49498 l -0.2837,-1.09797 -3.13875,-0.22511 c -1.7263,-0.12381 -3.63214,-0.38795 -4.23514,-0.58697 -0.60304,-0.19901 -2.28814,-0.32297 -3.74468,-0.27546 -1.45653,0.0475 -3.12096,-0.0256 -3.69869,-0.16248 -1.76679,-0.41859 -3.40367,0.0619 -5.15488,1.51315 -0.89081,0.73822 -2.50226,1.99239 -3.58103,2.78704 -1.07873,0.79465 -2.56894,1.91123 -3.31158,2.48129 -0.74264,0.57007 -2.91638,1.94264 -4.83053,3.05017 -1.91419,1.10753 -5.30951,3.22156 -7.54516,4.69785 -3.89788,2.57393 -10.95414,6.46609 -11.72349,6.46658 -0.20247,1.3e-4 -1.52598,0.68905 -2.94113,1.53094 -2.42219,1.44096 -7.61755,3.69134 -11.00318,4.76603 -2.34336,0.74384 -7.15935,1.72065 -8.50653,1.72533 -1.30444,0.005 -3.53382,-1.04215 -6.88561,-3.23276 -1.09912,-0.71836 -2.14661,-1.21452 -2.32775,-1.10257 -0.18112,0.11194 -0.32933,0.63562 -0.32933,1.16374 0,0.52811 -0.19806,1.35035 -0.44015,1.8272 -0.92963,1.8311 -1.48087,6.49737 -1.4489,12.265 0.017,3.0903 -0.1431,9.49815 -0.35606,14.23965 -0.28434,6.33 -0.2923,8.7159 -0.0299,8.97825 0.19649,0.1965 1.18613,0.3761 2.19914,0.39909 1.01301,0.0231 2.70871,0.33985 3.76824,0.70414 3.81162,1.31058 10.00423,1.71445 25.04348,1.63328 21.21699,-0.11446 30.12339,-0.0112 34.61737,0.40109 2.37339,0.21778 4.23383,0.25785 4.39475,0.0947 0.15819,-0.16044 0.0771,-1.32573 -0.18738,-2.69099 -0.54694,-2.82378 -0.34781,-10.01052 0.37809,-13.64548 0.52351,-2.62158 0.58217,-5.54865 0.13473,-6.72548 -0.17303,-0.45512 -0.33344,-2.92785 -0.35646,-5.49497 -0.0364,-4.05668 0.0327,-4.7499 0.52797,-5.29715 0.48469,-0.53555 0.51631,-0.80402 0.21172,-1.79648 -0.51237,-1.66912 0.41931,-3.32137 1.8728,-3.32137 0.59298,0 2.70755,2.15804 3.77521,3.85284 0.61183,0.97124 1.36849,2.05485 1.68151,2.40803 0.31297,0.35317 0.88339,1.25121 1.26758,1.99564 0.38419,0.74443 1.58956,2.72822 2.67856,4.40843 4.37914,6.75643 5.07885,7.94315 5.49107,9.3128 0.23618,0.78482 0.7348,1.81516 1.10805,2.28964 0.37321,0.47448 0.67858,1.00491 0.67858,1.17873 0,0.17382 0.49846,1.13658 1.10766,2.13944 0.6092,1.00289 1.2872,2.53883 1.50666,3.41323 0.40499,1.61383 1.49532,3.39773 2.67525,4.37702 0.35761,0.2968 1.95056,1.05106 3.53986,1.67609 10.382,4.08298 9.24577,3.75456 13.62805,3.93921 2.97446,0.12534 5.92401,0.55063 11.2549,1.62278 17.98346,3.61692 18.78656,3.7197 20.8486,2.66771 z m -356.11972,-0.15087 c 0.12887,-0.12885 0.25859,-2.06439 0.28825,-4.30122 0.0605,-4.56186 0.62782,-13.55305 0.94029,-14.90308 0.33645,-1.45355 -0.34175,-1.01189 -1.61582,1.05224 -1.36336,2.20884 -7.24463,8.29816 -8.68944,8.99684 -1.73889,0.84088 -5.43598,2.97937 -6.58194,3.80709 -1.31353,0.94879 -5.20869,4.88165 -5.02087,5.06944 0.55157,0.55157 20.14244,0.81558 20.67953,0.27869 z m -32.99646,-1.74174 c 0,-0.36955 -4.37856,-2.19124 -6.30392,-2.62273 -0.84327,-0.18895 -2.41245,-0.69534 -3.48707,-1.12525 -2.75574,-1.10246 -4.986,-1.7472 -6.05803,-1.75125 -0.50558,-0.003 -3.12603,-0.58139 -5.82322,-1.28775 -2.69719,-0.70635 -5.25291,-1.28428 -5.6794,-1.28428 -1.8171,0 -11.53933,-2.75472 -14.04786,-3.98034 -1.68856,-0.82502 -2.42623,0.0485 -1.46338,1.73285 0.25237,0.44147 0.46398,1.33508 0.47023,1.98579 0.006,0.65071 0.17133,1.58984 0.36683,2.08695 0.19549,0.49712 0.44834,1.61605 0.56187,2.4865 0.18272,1.40093 0.31704,1.61794 1.16964,1.8896 0.52976,0.16881 3.92508,0.42063 7.54515,0.55962 3.62006,0.13896 9.61605,0.4172 13.32441,0.61829 3.70836,0.20111 9.19867,0.47759 12.20067,0.61443 3.00201,0.13684 5.85552,0.27252 6.34114,0.30148 0.48562,0.0289 0.88294,-0.0718 0.88294,-0.22391 z m 344.18731,-1.01911 c 0,-0.37684 -1.74958,-1.17065 -4.8235,-2.18858 -1.89512,-0.62756 -2.34045,-0.96067 -4.67992,-3.50098 -1.42202,-1.54406 -3.14158,-3.60035 -3.82122,-4.56953 -1.37235,-1.95699 -3.2981,-5.96677 -4.16512,-8.67266 -0.31121,-0.97123 -0.78245,-1.9826 -1.0472,-2.24749 -0.42776,-0.428 -0.45656,-0.30293 -0.25872,1.12375 0.12246,0.88294 0.25984,5.07291 0.30531,9.31103 0.0455,4.23813 0.1893,7.9453 0.31962,8.23815 0.39643,0.89088 1.91843,1.28862 5.22455,1.36539 2.832,0.0657 5.84949,0.42965 9.57496,1.15469 1.89878,0.36952 3.37124,0.36352 3.37124,-0.0138 z m -22.02468,-3.67022 c 0.36891,-1.46989 0.56245,-12.51458 0.25053,-14.29832 -1.51497,-8.66398 -1.51539,-8.66851 -0.93005,-9.6884 0.30268,-0.52743 0.55035,-1.25103 0.55035,-1.60802 0,-0.85344 -1.65964,-3.79313 -2.1417,-3.79355 -0.64609,-6.4e-4 -0.80152,1.76372 -0.40057,4.54631 0.45592,3.16385 0.4217,5.3842 -0.15013,9.73948 -0.47839,3.64344 -0.40753,11.99473 0.11835,13.94764 0.5185,1.92559 2.31694,2.69388 2.70322,1.15486 z m -105.2764,-1.27564 c 0.60852,-0.25426 1.4077,-0.94055 1.77594,-1.52509 0.60428,-0.95923 0.65386,-1.40702 0.50867,-4.59458 -0.29677,-6.51647 -0.85819,-12.79522 -1.17856,-13.18125 -0.38114,-0.45925 -4.05142,-1.53214 -4.43349,-1.296 -0.14786,0.0914 -2.05585,0.20233 -4.24003,0.24658 -3.14562,0.0637 -4.07868,0.18792 -4.48814,0.59739 -0.28431,0.28431 -1.05317,2.67346 -1.70858,5.30922 -1.09411,4.4001 -1.18413,5.10684 -1.09998,8.63589 l 0.0917,3.84359 2.56857,0.68632 c 1.4127,0.37749 3.29097,0.91338 4.17391,1.19089 2.07013,0.65068 6.56447,0.69938 8.03003,0.087 z m 189.58871,-4.97698 c 0,-0.69592 -0.12866,-1.34483 -0.28588,-1.44199 -0.33771,-0.20872 -0.79732,1.93236 -0.51343,2.39172 0.42728,0.69133 0.79931,0.24928 0.79931,-0.94973 z m -4.13417,-8.73992 c 0.23153,-9.52454 0.40619,-11.31042 1.26242,-12.90797 0.40307,-0.75203 0.60544,-1.70594 0.57096,-2.69109 -0.0295,-0.83936 0.0575,-2.99505 0.19318,-4.79042 0.2994,-3.96258 0.0372,-6.02218 -0.73483,-5.77339 -0.29086,0.0937 -2.40706,0.84221 -4.70271,1.66332 -2.29566,0.8211 -5.9077,1.9134 -8.02676,2.42732 -6.60766,1.60252 -11.79647,2.78241 -13.96656,3.17589 -3.56455,0.6463 -4.49485,0.87688 -10.11371,2.50677 -4.93536,1.43163 -5.74244,1.57856 -8.42572,1.53392 -1.8274,-0.0304 -3.11643,-0.19831 -3.35518,-0.43704 -0.52241,-0.52243 -1.22244,-0.49115 -1.22244,0.0546 0,0.24326 0.21569,0.62129 0.47929,0.84007 0.26363,0.21878 0.63825,0.995 0.83257,1.72493 0.19428,0.72993 0.53943,1.54387 0.76697,1.80876 0.22757,0.26488 0.51304,0.80732 0.63437,1.20542 0.23839,0.78222 4.72028,3.1334 6.67412,3.50121 0.5761,0.10845 3.14244,1.19804 5.70298,2.42132 2.56053,1.22327 6.17257,2.6617 8.02675,3.19651 1.85418,0.5348 5.2495,1.88974 7.54515,3.01096 2.29566,1.12125 5.47425,2.56895 7.06355,3.21716 1.5893,0.64818 3.03411,1.27063 3.2107,1.3832 0.74216,0.47313 4.60425,1.26544 5.9398,1.21859 l 1.44482,-0.0507 z m -447.93274,5.00196 c 0,-0.27959 0.71163,-2.62741 1.58141,-5.2174 0.86977,-2.58999 1.8089,-5.59681 2.08695,-6.68183 1.0813,-4.21948 0.26603,-8.14095 -1.6925,-8.14095 -1.16552,0 -1.93942,0.86693 -3.41939,3.83043 -1.40198,2.80732 -2.56417,7.1791 -2.8665,10.78278 -0.18504,2.20558 -0.12101,2.78755 0.44835,4.07465 0.59634,1.34815 0.78659,1.51443 1.86162,1.62716 0.65856,0.069 1.37798,0.14981 1.59872,0.17951 0.22074,0.0295 0.40134,-0.17479 0.40134,-0.45435 z m 451.73075,-5.77625 c -0.47442,-5.96547 -0.65001,-7.20038 -1.0238,-7.20038 -0.3438,0 -0.15861,6.60456 0.2566,9.1505 0.21492,1.31783 0.73175,2.56558 0.96578,2.33158 0.0723,-0.0723 -0.017,-1.99907 -0.19858,-4.2817 z m -195.0357,-9.95356 c 2.47192,-0.26788 5.05079,-0.39305 5.73085,-0.27815 l 1.23647,0.2089 -0.004,-4.12725 c -0.003,-2.26998 0.0461,-7.54099 0.10772,-11.71335 l 0.11205,-7.5861 -1.18308,-0.51393 c -0.65068,-0.28265 -1.9777,-0.805 -2.94893,-1.16077 -2.5372,-0.92937 -4.77242,-2.75168 -6.31818,-5.15097 -2.59107,-4.02178 -4.13905,-5.88136 -6.6049,-7.93445 -1.36856,-1.13948 -2.4883,-2.19127 -2.4883,-2.33732 0,-0.14604 -1.13819,-1.06308 -2.52929,-2.03786 -1.39113,-0.97478 -2.84218,-2.17009 -3.22461,-2.65623 -0.38239,-0.48615 -1.04135,-1.10933 -1.46433,-1.38483 -0.42301,-0.27551 -2.40337,-1.74189 -4.40085,-3.25862 -1.99747,-1.51673 -4.23296,-3.0893 -4.96779,-3.4946 -1.50954,-0.83262 -2.59428,-2.12982 -3.36019,-4.01835 -0.4557,-1.12359 -0.68096,-1.3116 -1.76589,-1.47375 -0.79279,-0.11849 -2.40745,-0.9698 -4.45427,-2.34848 -1.76589,-1.18944 -4.4388,-2.74854 -5.9398,-3.46466 -12.91129,-6.15998 -12.97101,-6.19679 -17.53692,-10.81213 l -2.60716,-2.63538 -2.36943,1.13958 c -2.90254,1.39598 -4.94403,2.62571 -4.91995,2.9636 0.01,0.13917 0.49528,1.23298 1.0786,2.4307 1.03205,2.11901 1.06043,2.28767 1.05369,6.26087 -0.004,2.24576 -0.19357,5.38353 -0.42163,6.97283 -0.22863,1.59304 -0.42137,5.91765 -0.42956,9.63795 -0.0145,6.58448 -0.0347,6.78716 -0.83266,8.34783 -0.48026,0.93936 -1.30188,1.91559 -1.9907,2.36537 -0.78473,0.51239 -1.24171,1.09686 -1.3807,1.76589 -0.11427,0.55001 -0.48263,1.85465 -0.81863,2.8992 -0.336,1.04455 -0.61091,2.07636 -0.61091,2.29291 0,0.55347 2.68871,3.79282 4.97659,5.99576 1.05954,1.02021 3.21854,2.74121 4.79779,3.82444 3.43995,2.35952 4.58401,3.34979 8.36609,7.24129 l 2.88964,2.97324 3.53177,0.94424 c 4.53422,1.21224 10.17818,2.50138 13.64548,3.11676 1.50101,0.2664 3.23479,0.6203 3.85285,0.78645 0.61806,0.16615 2.85752,0.6753 4.97659,1.13145 3.52265,0.75829 18.81397,4.88232 20.70903,5.58518 0.84197,0.31228 1.26643,0.28748 8.50775,-0.49726 z m -206.83702,-5.03884 c 4.10643,-4.12889 5.59096,-5.9378 6.81087,-8.29902 0.6484,-1.25501 2.27956,-3.20638 4.99062,-5.97028 2.48482,-2.53325 4.30857,-4.68767 4.76144,-5.62477 0.80591,-1.66772 1.54614,-2.5418 8.36275,-9.87499 3.89163,-4.18651 4.90778,-5.09877 6.37267,-5.72099 2.11267,-0.89738 6.42054,-1.2825 8.49706,-0.75963 3.52063,0.88651 8.09418,1.11854 24.00542,1.21787 9.09432,0.0568 16.8543,0.14344 17.2444,0.19262 1.51368,0.19081 0.66709,-0.64643 -3.63355,-3.59333 -2.45593,-1.68286 -5.59205,-3.90219 -6.96915,-4.93186 -1.62716,-1.21664 -3.98702,-2.52258 -6.73997,-3.72993 -2.32992,-1.02179 -6.11443,-2.72764 -8.41009,-3.79077 -2.29565,-1.06313 -5.76321,-2.54232 -7.70568,-3.2871 -1.94248,-0.74477 -4.10206,-1.77239 -4.79904,-2.28359 -1.15139,-0.84449 -1.50367,-0.92912 -3.85284,-0.92569 -2.70829,0.004 -11.18339,0.7869 -13.6625,1.26216 -5.50456,1.05525 -7.05238,1.30238 -8.1873,1.3072 -0.70635,0.003 -2.15117,0.21457 -3.2107,0.47015 -1.05953,0.25558 -3.01003,0.55995 -4.33445,0.67638 -2.09636,0.18428 -2.71969,0.10391 -4.81605,-0.62102 -1.32442,-0.45799 -2.55251,-1.07438 -2.7291,-1.36975 -1.06749,-1.78556 -1.53664,-2.03652 -4.17391,-2.23261 l -2.56856,-0.19099 -5.77927,2.96113 c -6.63966,3.40198 -11.22891,5.99868 -13.37576,7.5683 -1.79441,1.31195 -4.95723,4.66583 -5.2399,5.55644 -0.11126,0.35055 -1.02985,1.99468 -2.04132,3.65363 -1.84314,3.02302 -2.74324,5.09545 -4.41233,10.15908 -0.49231,1.49358 -1.73539,4.36942 -2.7624,6.39077 -1.02701,2.02135 -1.86729,3.94617 -1.86729,4.27737 0,0.3312 -0.38384,1.50084 -0.85299,2.59919 -0.88674,2.07603 -2.18842,5.34855 -3.52389,8.85935 -0.42811,1.12546 -0.6906,2.32285 -0.58332,2.66088 0.10729,0.33802 0.76705,0.97566 1.46613,1.41697 0.69908,0.44132 1.43323,1.1583 1.63143,1.59331 0.33806,0.74197 0.51514,0.79092 2.86095,0.79092 1.37532,0 4.1334,0.20537 6.12906,0.45636 1.99567,0.251 6.3014,0.55022 9.56829,0.66494 3.26689,0.11471 6.51772,0.35894 7.22408,0.54273 1.79002,0.46576 7.88291,1.14308 10.68746,1.18807 l 2.33964,0.0375 z M 572.07393,253.7537 c 5.0034,-1.07609 8.84998,-2.52384 11.55352,-4.34844 2.03639,-1.37434 3.97292,-2.29403 7.37623,-3.50306 1.61451,-0.57357 3.63725,-1.5406 4.49499,-2.14897 3.75925,-2.6664 9.37628,-6.22332 12.86856,-8.14891 2.07967,-1.1467 4.5198,-2.73599 5.42255,-3.53178 2.17779,-1.91976 6.80345,-5.36176 8.97527,-6.67856 0.95951,-0.58177 1.75301,-1.23194 1.76331,-1.44481 0.14526,-3.00329 0.11848,-7.38916 -0.0467,-7.65646 -0.26299,-0.42555 -1.42193,-0.0929 -2.62244,0.75261 -0.48652,0.34268 -2.06715,1.05463 -3.51251,1.58213 -1.44539,0.52749 -3.82761,1.60232 -5.29384,2.38851 -1.46623,0.78618 -3.42537,1.62974 -4.35368,1.87458 -2.19419,0.57871 -4.2328,1.41219 -7.78817,3.18419 -1.5893,0.7921 -4.62341,2.12173 -6.74247,2.95472 -2.11907,0.83299 -4.15112,1.78575 -4.5157,2.11724 -1.01143,0.91971 -2.77761,0.75932 -9.27305,-0.8421 -5.53201,-1.36389 -9.16778,-1.81767 -9.16778,-1.14424 0,0.43596 -5.12794,3.72486 -9.29309,5.9603 -6.41559,3.44324 -7.35212,4.08763 -9.34134,6.42744 -1.0481,1.2328 -1.90751,2.34841 -1.90986,2.47913 -0.008,0.47202 3.07534,2.49375 4.33025,2.83899 1.53378,0.42195 2.87277,1.20628 5.45819,3.19716 1.85396,1.42763 5.26058,3.56823 6.26087,3.9341 0.90349,0.33047 3.16556,0.22754 5.35693,-0.24377 z m 84.54274,-1.63746 c 0,-0.6839 -1.47644,-6.49328 -2.4018,-9.45044 -0.41444,-1.32442 -0.82631,-3.49164 -0.91521,-4.81606 -0.20006,-2.97946 -1.60217,-7.2139 -3.21597,-9.71237 -0.65585,-1.01539 -1.3168,-1.84615 -1.46883,-1.84615 -0.15203,0 -0.36104,0.33723 -0.46449,0.74939 -0.27821,1.10844 -2.01626,3.15926 -3.13779,3.70244 -0.53911,0.2611 -1.04351,0.63972 -1.12092,0.84138 -0.13405,0.34936 1.63643,3.56436 3.91308,7.10568 0.58094,0.90366 1.63675,2.78193 2.34622,4.17391 0.70947,1.39198 1.87322,3.32552 2.58612,4.29676 0.71291,0.97124 1.73503,2.59666 2.27144,3.61204 0.95288,1.80381 1.60815,2.35121 1.60815,1.34342 z m -119.2382,-8.48927 c 0.75008,-0.69141 3.35977,-2.27222 5.79933,-3.5129 2.43952,-1.24068 5.4711,-2.90265 6.73686,-3.69326 1.26572,-0.79061 4.22759,-2.42268 6.58194,-3.62682 4.71096,-2.40947 7.97291,-4.40265 7.97291,-4.8718 0,-0.16688 -0.25284,-0.37606 -0.56187,-0.46483 -4.38024,-1.2583 -5.68247,-1.69822 -7.41101,-2.50358 -2.40594,-1.12097 -5.4293,-2.08506 -7.43849,-2.37199 -1.4062,-0.20081 -4.3654,-0.98176 -7.47025,-1.97143 -1.51844,-0.484 -1.54618,-0.47971 -3.53177,0.54565 -1.35209,0.69821 -2.62655,1.08604 -3.92858,1.1955 -1.76522,0.1484 -2.10565,0.064 -4.04851,-1.00395 -1.16667,-0.64128 -2.68797,-1.77793 -3.38068,-2.52587 -1.92587,-2.07954 -3.3635,-3.12579 -4.29495,-3.12579 -1.17804,0 -4.82212,1.31644 -9.51168,3.43614 -5.83439,2.63715 -6.67556,3.71457 -4.43414,5.67946 3.41526,2.9939 9.49498,8.6637 11.33385,10.56964 1.16044,1.20281 3.00942,2.82879 4.10883,3.61331 1.09938,0.78451 2.30869,1.86144 2.68729,2.39317 0.79311,1.1138 1.88151,1.73221 4.75415,2.70123 3.29807,1.11253 4.42204,1.02653 6.03677,-0.46188 z m -116.74843,-11.732 c 1.14782,-0.26071 3.30654,-0.69878 4.79717,-0.97349 1.49063,-0.27471 2.98422,-0.64611 3.3191,-0.82533 0.89588,-0.47946 7.39081,-1.8669 10.27524,-2.19499 3.40331,-0.38711 6.00251,-0.99773 6.04537,-1.42023 0.0196,-0.19264 0.0112,-0.66045 -0.0186,-1.03959 -0.0299,-0.37913 0.18166,-1.89619 0.46988,-3.37123 0.28826,-1.47505 0.64824,-3.76552 0.80005,-5.08993 0.15177,-1.32442 0.51448,-3.49164 0.80607,-4.81605 0.40812,-1.85386 0.48777,-3.33165 0.34605,-6.42141 -0.24041,-5.24274 -0.42236,-6.17906 -1.4339,-7.379 l -0.84451,-1.00183 -2.08695,0.48962 c -1.14783,0.2693 -3.60402,0.71899 -5.4582,0.99931 -1.85418,0.28033 -4.52709,0.73211 -5.9398,1.00395 -1.41271,0.27185 -3.57993,0.68981 -4.81605,0.9288 -1.23612,0.239 -3.44319,0.65183 -4.90461,0.91741 -3.39923,0.61774 -4.25919,1.04579 -5.04667,2.51201 -0.42282,0.78725 -0.93856,1.25758 -1.51867,1.385 -1.24321,0.27305 -4.15307,-0.37784 -7.15213,-1.59983 -5.36046,-2.18416 -12.1647,-4.42447 -15.5719,-5.12706 -1.14783,-0.2367 -3.09833,-0.72625 -4.33445,-1.08789 -4.36906,-1.27823 -5.85276,-1.49418 -7.48489,-1.08942 -0.98954,0.2454 -1.88998,0.27335 -2.62882,0.0816 -1.15075,-0.29867 -8.86523,-2.20792 -12.4139,-3.07232 -2.90986,-0.7088 -3.4986,-0.62202 -5.55204,0.81838 -1.79924,1.2621 -1.85922,1.35181 -2.03359,3.04144 -0.0988,0.95753 -0.0971,2.83381 0.004,4.16949 0.21813,2.88424 0.44166,3.11141 4.42364,4.49574 3.71931,1.29301 10.34774,4.18361 12.12946,5.28954 0.84374,0.52374 2.57752,1.40801 3.85284,1.96504 4.31406,1.88433 7.4497,3.55789 8.90065,4.75053 1.39116,1.14349 2.26637,1.76212 6.10033,4.31199 4.80331,3.19453 7.05083,4.85376 8.60606,6.3533 1.77992,1.71621 2.26843,1.91461 6.32371,2.56827 1.23612,0.19924 2.82541,0.47074 3.53177,0.60332 2.17429,0.40812 6.3158,0.32287 8.50836,-0.17514 z m 338.58463,-3.63874 c 0.16776,-0.15536 1.74839,-0.89316 3.51254,-1.63955 4.13217,-1.74829 6.63097,-3.10523 10.59849,-5.75537 3.76709,-2.51626 6.96707,-4.25164 9.5887,-5.20006 1.03565,-0.37467 2.16716,-0.96534 2.51443,-1.31261 0.57835,-0.57837 0.58872,-0.67855 0.12352,-1.19262 -0.27936,-0.30867 -1.19413,-0.86509 -2.03283,-1.2365 -4.43317,-1.96318 -5.34273,-2.32396 -5.85895,-2.32396 -0.31028,0 -1.12359,-0.23882 -1.80737,-0.53071 -1.07054,-0.45701 -2.59954,-0.52679 -11.00927,-0.50246 -8.91066,0.0258 -9.86681,-0.0238 -10.91639,-0.56634 -0.63267,-0.32701 -1.32907,-0.89059 -1.5475,-1.25239 -0.21845,-0.3618 -1.86956,-1.62248 -3.66915,-2.80152 -3.4649,-2.27009 -4.11173,-2.7451 -8.93703,-6.56306 -1.67759,-1.32738 -4.18772,-3.27553 -5.57805,-4.32923 -1.39033,-1.05371 -2.84182,-2.15928 -3.22556,-2.45683 -1.1539,-0.89477 -8.13612,-3.72446 -10.53804,-4.27077 -2.38661,-0.54282 -3.76789,-1.15763 -6.44382,-2.86819 -0.91633,-0.58574 -2.82189,-1.54336 -4.23459,-2.12803 -2.1716,-0.89875 -3.03999,-1.07904 -5.61873,-1.16648 -1.6776,-0.0569 -4.35051,-0.25663 -5.9398,-0.44388 -1.5893,-0.18725 -3.37147,-0.39274 -3.96037,-0.45663 -0.58891,-0.0639 -1.82407,-0.49731 -2.74477,-0.96315 -1.13113,-0.5723 -2.50197,-0.92984 -4.22692,-1.10246 -3.1934,-0.31957 -11.08386,0.13261 -14.26393,0.81743 -3.1192,0.67172 -6.00925,0.45101 -8.43612,-0.64425 -1.78066,-0.80362 -2.39737,-0.73524 -1.33334,0.14784 0.28206,0.23409 0.94003,1.32979 1.46218,2.43489 0.85761,1.81512 0.98357,2.51461 1.30368,7.23912 0.19492,2.87641 0.37937,6.81914 0.40991,8.76162 l 0.0555,3.53177 2.27581,4.41622 c 1.25173,2.42892 2.8112,6.04097 3.46554,8.02676 0.65434,1.98579 1.89415,4.84363 2.75513,6.35075 0.86102,1.50712 1.56544,2.91904 1.56544,3.13761 0,0.4723 2.44165,3.18216 3.26352,3.62201 0.82801,0.44314 2.33784,-0.29044 4.46715,-2.17044 0.98498,-0.86966 2.50204,-1.84118 3.37124,-2.15894 0.8692,-0.31776 2.80846,-1.05216 4.30947,-1.632 1.501,-0.57984 3.58256,-1.21301 4.62566,-1.40704 1.15896,-0.21558 2.71981,-0.84875 4.01337,-1.62807 3.22532,-1.94312 12.17335,-5.57164 13.22242,-5.36183 0.61375,0.12275 1.03342,-0.0163 1.45492,-0.48205 0.50909,-0.56252 0.8415,-0.62714 2.36376,-0.45952 0.97425,0.10728 2.85498,0.68181 4.1794,1.27673 1.32441,0.59492 3.27492,1.40722 4.33445,1.80511 1.05953,0.39789 2.28762,1.05474 2.7291,1.45965 0.44147,0.40492 1.81404,1.18803 3.05016,1.74025 1.23612,0.55222 2.89766,1.54944 3.69231,2.21605 1.78393,1.49647 2.38398,1.81113 4.01338,2.10448 1.31722,0.23715 5.95592,2.5919 7.74312,3.93066 1.15791,0.86737 6.63633,3.30499 7.4435,3.31199 0.3002,0.003 0.90702,0.20516 1.3485,0.45012 0.92622,0.51395 2.62041,0.63875 3.06622,0.22588 z M 641.2158,226.28375 c 1.29995,-0.92565 1.53722,-1.62963 1.51975,-4.50896 -0.0128,-2.1053 -0.16179,-2.68818 -1.26441,-4.94556 -1.93663,-3.96489 -2.6861,-4.58951 -5.99996,-5.00048 -1.51273,-0.18761 -2.87824,-0.12012 -4.8481,0.23962 -1.5082,0.27544 -2.79723,0.54898 -2.86449,0.60787 -0.0673,0.0589 0.14355,0.65404 0.46844,1.32256 0.4834,0.99459 0.57455,1.84344 0.50167,4.67078 -0.10072,3.90646 0.38516,6.91835 1.1643,7.21734 1.08653,0.41694 7.0576,1.22138 8.65165,1.16558 1.14134,-0.04 1.99109,-0.28452 2.67115,-0.76875 z m -52.52694,0.36323 c 0.0973,-0.15751 1.51459,-0.81987 3.14938,-1.47191 1.63483,-0.65205 3.69481,-1.59572 4.57776,-2.09705 2.06647,-1.17333 10.28548,-4.81356 10.86819,-4.81356 0.5133,0 10.40422,-4.92992 10.91431,-5.44001 0.18657,-0.18659 0.56318,-0.33953 0.8369,-0.33987 0.77567,-9.6e-4 5.75085,-3.10797 6.60814,-4.12678 1.2462,-1.48107 3.25905,-2.06916 6.34611,-1.85416 6.86031,0.4778 7.78608,0.79156 10.48651,3.55405 1.5777,1.61397 2.46935,1.92506 2.12641,0.74189 -0.56733,-1.95729 -0.88862,-7.18871 -0.52877,-8.6098 0.26386,-1.04186 0.27417,-1.72135 0.0356,-2.34866 -0.18455,-0.48547 -0.33558,-1.37501 -0.33558,-1.97674 0,-0.60174 -0.50212,-2.57895 -1.11585,-4.39381 -0.61369,-1.81487 -1.27169,-4.42062 -1.46225,-5.79057 -0.35048,-2.52005 -1.00068,-4.52598 -1.58384,-4.8864 -0.38059,-0.23523 -1.7357,0.17008 -8.52034,2.54849 -2.82541,0.99047 -6.50969,2.09889 -8.18729,2.46316 -6.79352,1.47514 -9.21144,2.1466 -21.99331,6.10759 -4.40332,1.36455 -10.78256,3.623 -11.85549,4.19721 -0.35015,0.18739 -1.29346,0.52567 -2.09626,0.75172 -2.8276,0.79621 -5.71647,1.95724 -6.60082,2.65288 -0.83366,0.65576 -1.22238,0.70194 -5.74273,0.68217 -2.66668,-0.0117 -6.43781,-0.23784 -8.38029,-0.50262 -1.94247,-0.26477 -4.4709,-0.60881 -5.61872,-0.76452 -1.14783,-0.15571 -3.54388,-0.35809 -5.32454,-0.44972 -6.24989,-0.32162 -11.23598,-0.90759 -16.82931,-1.97778 -5.45543,-1.0438 -20.28763,-1.78913 -20.74897,-1.04264 -0.14834,0.23997 0.78437,1.34588 2.50338,2.96828 4.35497,4.11022 4.77059,4.82425 5.99053,10.29149 0.17546,0.78643 0.59796,1.1552 2.30188,2.00929 1.14783,0.57533 2.88161,1.18618 3.85284,1.35743 5.34207,0.9419 7.11662,1.32006 12.68228,2.70261 3.35518,0.83345 7.54515,2.10743 9.31104,2.83106 4.19202,1.71782 10.45404,3.30341 15.52448,3.93093 2.23343,0.27641 5.14441,0.8008 6.46883,1.16531 1.32441,0.36451 3.09393,0.78706 3.93224,0.93899 0.83832,0.15193 1.70029,0.38507 1.91551,0.51808 1.03535,0.63987 6.15832,1.01389 6.492,0.47397 z m -82.17253,-9.552 c 0.70635,-0.27454 2.36789,-0.90111 3.69231,-1.39238 1.32441,-0.49128 2.91371,-1.08192 3.53177,-1.31255 0.61806,-0.23062 1.84615,-0.74721 2.7291,-1.14798 0.88294,-0.40077 2.32776,-0.89842 3.2107,-1.1059 2.35104,-0.55247 2.51189,-0.79004 1.90905,-2.81997 -0.44783,-1.50808 -1.00155,-2.1906 -4.98718,-6.14736 l -4.48343,-4.45093 -2.31954,0.17898 c -2.23808,0.17269 -3.80783,0.46489 -8.25937,1.53744 -1.14783,0.27655 -2.40498,0.57368 -2.79366,0.66029 -1.25382,0.27938 -4.83767,3.57866 -5.07853,4.67527 -0.34862,1.58723 0.74408,5.39474 1.91072,6.65794 1.47808,1.60039 5.60765,4.31208 7.24575,4.75792 1.87711,0.51088 2.16234,0.50387 3.69231,-0.0908 z M 325.43271,207.0023 c 0.88294,-0.16912 3.28397,-0.43419 5.33561,-0.58905 2.05164,-0.15486 4.05996,-0.45803 4.46294,-0.67369 0.89819,-0.4807 4.85821,-1.03924 13.80011,-1.94645 2.42864,-0.2464 3.48345,-0.48767 3.77258,-0.86293 0.57478,-0.74602 0.54771,-7.1388 -0.0336,-7.9338 -0.39742,-0.54353 -0.76932,-0.57684 -4.31271,-0.38631 -2.59833,0.13971 -4.38813,0.40715 -5.42458,0.81057 -0.85074,0.33114 -2.12475,0.70044 -2.8311,0.82067 -4.52337,0.76996 -9.96397,2.30553 -14.51886,4.09785 -2.55745,1.00632 -3.53675,1.5738 -4.4386,2.57205 -0.78457,0.86843 -1.08657,1.45294 -0.93795,1.81537 0.1206,0.29399 0.35485,1.0041 0.52059,1.57801 0.27975,0.96872 0.39803,1.04211 1.65078,1.02434 0.74222,-0.0105 2.07187,-0.15751 2.95481,-0.32663 z m 163.46344,-1.40889 c 0.46723,-1.48217 0.4914,-1.94337 0.15582,-2.9699 -0.29975,-0.91695 -0.31789,-1.96391 -0.0739,-4.2654 0.39017,-3.68024 0.21598,-4.03513 -2.88305,-5.87421 -7.84147,-4.65337 -13.2568,-6.21251 -18.79609,-5.41161 -3.64425,0.52691 -5.89299,1.658 -5.89299,2.9641 0,1.47319 7.90279,7.69931 11.39799,8.97977 4.20185,1.53935 8.09242,3.63886 14.0448,7.5792 0.57504,0.38065 1.14648,0.70574 1.2699,0.72241 0.12342,0.0167 0.47329,-0.75929 0.7775,-1.72436 z m 285.06964,-1.77379 c 0.26138,-0.42293 1.33745,-6.01533 1.97195,-10.24834 1.24611,-8.31339 0.42275,-26.08142 -1.40735,-30.37036 -0.84595,-1.98257 -2.58917,-4.56219 -5.10174,-7.54952 -3.35377,-3.98753 -4.15414,-4.63892 -7.28223,-5.92678 -1.55732,-0.64116 -3.36334,-1.43949 -4.01337,-1.77408 -2.61644,-1.3467 -7.42652,-1.55951 -14.98795,-0.6631 -3.86883,0.45865 -5.89286,1.07233 -8.02675,2.43372 -4.91537,3.13592 -10.81256,10.10346 -11.54492,13.64029 -0.12798,0.61806 -0.45749,1.77391 -0.73223,2.56856 -0.39213,1.13409 -0.50463,3.0242 -0.52316,8.78848 l -0.0234,7.34367 1.74129,0.64956 c 0.95772,0.35726 2.3983,1.02965 3.20126,1.49421 0.80297,0.46455 2.16283,1.20205 3.02195,1.63888 0.85909,0.43683 2.23166,1.3847 3.05016,2.10638 0.81848,0.72168 2.22695,1.81668 3.12993,2.43333 2.14625,1.46575 3.60594,2.65685 7.93888,6.47826 3.221,2.84073 4.89567,4.12109 8.04508,6.15084 0.89081,0.57412 1.72759,0.66146 7.89936,0.82451 11.87218,0.31365 13.43945,0.31153 13.64343,-0.0185 z m -455.78054,-3.52879 c 1.14388,-1.32507 6.49224,-3.86086 11.1003,-5.26294 2.11907,-0.64476 5.0087,-1.54577 6.42141,-2.00226 1.41271,-0.45648 3.21873,-0.94986 4.01337,-1.09638 6.11842,-1.12818 9.37908,-1.60757 10.75586,-1.58136 1.84185,0.0351 3.5056,-0.29215 6.15986,-1.21151 2.73154,-0.94613 3.97446,-1.30979 5.26488,-1.54042 1.1117,-0.19869 1.15052,-0.25264 1.15052,-1.59944 0,-0.76659 0.23525,-1.75288 0.5228,-2.19174 0.28758,-0.43886 0.80659,-1.85895 1.15338,-3.15575 0.34679,-1.29679 0.93024,-3.2112 1.29658,-4.25423 1.00642,-2.86562 0.71717,-8.30091 -0.56923,-10.69664 -0.21072,-0.3924 -0.59125,-2.10004 -0.84566,-3.79476 -0.4469,-2.97707 -0.51667,-3.14377 -2.0623,-4.92792 -3.53836,-4.08436 -5.86538,-5.72297 -9.91928,-6.98479 -3.46011,-1.07699 -10.6113,-2.36109 -13.16959,-2.36478 -5.14942,-0.007 -10.70612,1.01157 -14.42973,2.64616 -2.14995,0.94378 -5.04793,3.56906 -6.61659,5.99392 -1.53998,2.38057 -5.6291,10.59995 -6.62339,13.31334 -1.79892,4.90941 -2.63239,11.75693 -2.44771,20.10988 0.10881,4.92169 0.21872,5.87763 0.88593,7.70569 l 0.76171,2.08695 2.38796,0.0221 c 2.20408,0.0204 2.43744,0.0884 3.03068,0.88294 0.35349,0.47348 0.71236,0.86087 0.79744,0.86087 0.0851,0 0.52646,-0.43061 0.9808,-0.9569 z m 336.82607,-1.43947 c 2.36035,-0.75641 4.19205,-1.44936 5.17575,-1.95804 0.88387,-0.45707 0.92458,-0.57617 0.92458,-2.70426 0,-1.22437 -0.14702,-3.35176 -0.32669,-4.72754 -1.11867,-8.56597 -0.87231,-7.661 -2.51664,-9.24482 -0.82011,-0.78995 -1.67679,-1.43798 -1.90375,-1.44007 -0.22694,-0.002 -0.76357,-0.23376 -1.19252,-0.51482 -0.42895,-0.28106 -1.6881,-0.5919 -2.7981,-0.69077 -1.29459,-0.11532 -2.65127,-0.50366 -3.78404,-1.08319 -2.5117,-1.28499 -3.2657,-1.40466 -4.18091,-0.66357 -0.76527,0.61969 -0.7671,0.63675 -0.37668,3.47126 0.21579,1.56669 0.46533,4.57561 0.55449,6.68649 0.11591,2.74401 0.30742,4.05974 0.6719,4.616 0.5752,0.87789 0.87299,1.76317 1.73092,5.1458 0.32955,1.29927 0.69175,2.45512 0.80493,2.56856 0.93123,0.93341 5.03056,1.23956 7.21676,0.53897 z m -240.16055,-1.17197 c 1.85418,-0.17861 3.51572,-0.46737 3.69231,-0.64169 0.17845,-0.17616 0.31834,-1.98571 0.31494,-4.07352 l -0.006,-3.75658 -1.97192,-4.03805 c -1.08457,-2.22093 -2.75748,-5.25573 -3.71754,-6.744 -2.06599,-3.20254 -6.47483,-7.74295 -8.9273,-9.19371 -6.77667,-4.00877 -15.65981,-4.66239 -24.03882,-1.76879 -1.54402,0.53321 -3.88893,2.80167 -4.99774,4.83483 -0.35318,0.64759 -1.03789,1.85063 -1.52162,2.67341 -1.08271,1.84173 -1.98768,5.06904 -2.93243,10.45792 -0.22391,1.27707 -0.31911,2.46432 -0.21155,2.63833 0.23852,0.38593 3.80818,1.4863 5.78934,1.7846 1.59749,0.24053 8.04374,1.87927 10.21694,2.59731 0.76315,0.25214 2.71365,0.67891 4.33445,0.94837 1.62083,0.26947 4.10279,0.86264 5.5155,1.31817 4.73784,1.5277 9.30693,3.08595 9.77967,3.33527 0.50409,0.26586 3.30834,0.14574 8.68187,-0.37187 z m 79.94649,-0.2732 c 0,-0.72725 -1.12856,-1.48623 -1.44606,-0.9725 -0.11039,0.17864 -0.10942,0.61248 0.003,0.96408 0.26896,0.84741 1.44391,0.85426 1.44391,0.008 z m 86.84951,-1.20484 c 5.17857,-2.38175 11.85632,-5.16567 12.91113,-5.38258 0.56736,-0.11667 2.51787,-0.71835 4.33445,-1.33707 1.81661,-0.61871 4.24204,-1.39696 5.38987,-1.72944 1.14783,-0.33248 2.80936,-0.82137 3.69231,-1.08641 4.98673,-1.49695 9.81675,-2.75247 12.43611,-3.23266 1.6364,-0.29999 3.15586,-0.69434 3.3766,-0.87633 0.67299,-0.55485 0.45071,-2.90809 -0.5271,-5.58078 -1.45487,-3.97658 -1.58683,-4.27031 -2.55752,-5.69243 -0.50318,-0.73714 -1.17457,-1.89333 -1.49202,-2.56931 -0.31744,-0.67598 -1.5306,-2.19655 -2.69593,-3.37905 -1.68003,-1.70481 -2.5841,-2.33532 -4.36623,-3.04508 -8.41249,-3.35038 -17.29265,-3.80352 -25.42979,-1.29765 -3.58944,1.10539 -6.82984,3.52786 -9.33801,6.98096 -0.78694,1.08343 -1.83883,2.40332 -2.33755,2.93308 -1.33575,1.41898 -2.46193,4.14032 -3.20075,7.73432 -0.35976,1.75014 -0.8588,3.83224 -1.10894,4.62689 -0.57048,1.81235 -1.12413,5.88047 -0.91114,6.69498 0.0882,0.33735 -0.15,1.71957 -0.52938,3.07159 -0.37937,1.35203 -0.64458,2.85012 -0.58935,3.3291 0.0938,0.81326 0.22789,0.88389 2.02685,1.06751 1.05953,0.10814 3.29899,0.17474 4.97659,0.148 2.84606,-0.0454 3.24354,-0.13756 5.9398,-1.37764 z m -76.88702,-1.07655 c 0.62317,-0.15675 2.35695,-0.51712 3.85285,-0.80082 2.90257,-0.55049 3.52246,-0.85617 3.52246,-1.73697 0,-0.30544 0.36062,-1.04628 0.80139,-1.64631 2.71128,-3.69086 4.50458,-10.21428 5.01341,-18.23708 0.28165,-4.44093 0.24386,-5.38657 -0.37048,-9.26931 -0.37626,-2.37812 -0.96051,-4.96866 -1.29834,-5.75675 -0.3378,-0.78809 -0.61495,-1.74599 -0.61585,-2.12868 -0.003,-0.98172 -3.05379,-5.5278 -4.40929,-6.56884 -0.62258,-0.47818 -1.59199,-1.25835 -2.15422,-1.7337 -1.22315,-1.03413 -4.90913,-3.00378 -6.9198,-3.69769 -0.79465,-0.27424 -2.73619,-0.76978 -4.31457,-1.1012 -2.38761,-0.50135 -3.27762,-0.54876 -5.29766,-0.28222 -4.81314,0.63509 -6.82249,0.9783 -7.34962,1.25536 -0.29507,0.15509 -1.45824,0.38715 -2.58481,0.51568 -2.69882,0.3079 -5.77869,1.76462 -8.43635,3.99022 -1.17527,0.98421 -2.87187,2.3674 -3.7702,3.07376 -1.60332,1.26072 -4.52567,5.12052 -4.52985,5.98297 0,0.24114 -0.28915,0.87188 -0.64002,1.40164 -0.35086,0.52977 -0.63886,1.34856 -0.64002,1.81954 0,0.47098 -0.28517,1.51666 -0.63113,2.32374 -0.60406,1.4092 -1.40568,4.89028 -1.94983,8.46739 -0.37696,2.47791 -0.31516,9.3454 0.097,10.77941 0.52977,1.84328 1.31623,2.23168 3.29331,1.6264 2.05219,-0.62827 6.87293,-0.85803 9.14171,-0.4357 1.60978,0.29966 3.33833,0.90798 5.9398,2.09036 0.52976,0.24079 1.69059,0.71721 2.57964,1.05873 3.75286,1.44162 7.48244,3.94475 8.41351,5.64674 0.29189,0.53358 0.46186,0.5734 1.13618,0.26616 0.9328,-0.42502 2.58763,0.24431 6.01114,2.43135 2.2194,1.41782 2.84776,1.4863 6.10964,0.66582 z m 157.80086,-19.96402 c 0.29266,-0.66711 0.58724,-0.73738 3.8487,-0.9181 1.94248,-0.10764 4.1097,-0.35882 4.81606,-0.55819 0.70635,-0.19937 2.80133,-0.50448 4.65551,-0.67803 1.85418,-0.17354 4.86589,-0.47092 6.69265,-0.66085 1.82679,-0.18992 3.56057,-0.32191 3.85284,-0.29331 0.2923,0.0286 0.6983,0.0354 0.90227,0.015 0.49622,-0.0495 1.78445,-2.32072 2.6593,-4.68859 0.39068,-1.05739 0.82406,-2.06876 0.96311,-2.24749 0.44815,-0.57607 2.90977,-7.15928 2.90977,-7.78171 0,-0.33117 0.13112,-0.73938 0.29134,-0.90714 0.31131,-0.32589 1.3369,-5.89478 1.46976,-7.98062 0.29272,-4.59524 -1.07141,-13.02455 -2.26855,-14.01809 -0.25066,-0.20803 -0.45576,-0.57739 -0.45576,-0.8208 0,-0.24341 -1.08272,-2.57354 -2.40604,-5.17808 -1.69519,-3.33641 -2.78365,-5.07826 -3.68409,-5.89559 -1.72369,-1.56457 -5.99656,-3.25873 -8.67458,-3.43941 -1.15315,-0.0778 -2.43625,-0.37237 -2.87534,-0.66014 -0.62824,-0.41173 -1.66263,-0.51964 -4.98112,-0.51964 -3.4962,0 -4.58379,0.12422 -6.58239,0.75183 -2.58866,0.81289 -6.14875,2.50295 -8.20113,3.89326 -0.70635,0.47849 -1.88404,1.26425 -2.61704,1.74613 -1.48148,0.9739 -5.02122,4.63005 -6.12011,6.32139 -1.08763,1.67397 -2.34199,4.46479 -2.7282,6.07 -0.1912,0.79464 -0.68016,2.60066 -1.08653,4.01337 -1.76114,6.12229 -2.44707,11.43862 -2.0362,15.78155 0.26983,2.85201 0.53237,3.74785 2.92623,9.98562 0.4496,1.17151 0.61331,2.23141 0.5359,3.46915 l -0.11151,1.78226 1.96364,0.12784 c 1.08001,0.0703 2.74155,0.42508 3.69231,0.78837 0.95078,0.3633 2.52332,0.74283 3.49456,0.8434 2.00062,0.20717 4.6139,0.88275 6.74247,1.74307 1.89926,0.76763 2.03967,0.7626 2.41217,-0.0865 z"
       style="fill:#ffffff;stroke-width:0.32107022" />
  </g>
</svg>
