<?xml version="1.0" encoding="UTF-8" standalone="no"?>
<!-- Created with Inkscape (http://www.inkscape.org/) -->

<svg
   xmlns:dc="http://purl.org/dc/elements/1.1/"
   xmlns:cc="http://creativecommons.org/ns#"
   xmlns:rdf="http://www.w3.org/1999/02/22-rdf-syntax-ns#"
   xmlns:svg="http://www.w3.org/2000/svg"
   xmlns="http://www.w3.org/2000/svg"
   xmlns:sodipodi="http://sodipodi.sourceforge.net/DTD/sodipodi-0.dtd"
   xmlns:inkscape="http://www.inkscape.org/namespaces/inkscape"
   version="1.1"
   id="svg2"
   width="623.03314"
   height="445.32065"
   viewBox="0 0 623.03314 445.32065"
   sodipodi:docname="Bild (2).svg"
   inkscape:version="0.92.4 5da689c313, 2019-01-14">
  <metadata
     id="metadata8">
    <rdf:RDF>
      <cc:Work
         rdf:about="">
        <dc:format>image/svg+xml</dc:format>
        <dc:type
           rdf:resource="http://purl.org/dc/dcmitype/StillImage" />
        <dc:title />
      </cc:Work>
    </rdf:RDF>
  </metadata>
  <defs
     id="defs6" />
  <sodipodi:namedview
     pagecolor="#ffffff"
     bordercolor="#666666"
     borderopacity="1"
     objecttolerance="10"
     gridtolerance="10"
     guidetolerance="10"
     inkscape:pageopacity="0"
     inkscape:pageshadow="2"
     inkscape:window-width="1920"
     inkscape:window-height="1024"
     id="namedview4"
     showgrid="false"
     inkscape:zoom="0.55386148"
     inkscape:cx="397.22414"
     inkscape:cy="213.64571"
     inkscape:window-x="0"
     inkscape:window-y="28"
     inkscape:window-maximized="1"
     inkscape:current-layer="svg2" />
  <g
     id="g839"
     transform="translate(-469.81826,-308.68545)">
    <path
       inkscape:connector-curvature="0"
       id="path819-2"
       d="m 996.91104,753.75564 c -1.18096,-0.37125 -7.53645,-0.94738 -10.59532,-0.96051 -4.24233,-0.0183 -8.38821,-1.09704 -11.71906,-3.04959 -0.44147,-0.25882 -1.45284,-0.76681 -2.24749,-1.12888 -2.81341,-1.28197 -3.3949,-1.63428 -5.61873,-3.40412 -4.90942,-3.9072 -5.81346,-5.252 -6.13697,-9.12889 -0.17155,-2.05572 -0.0826,-2.73584 0.6372,-4.87282 1.63973,-4.86804 3.13656,-7.09665 6.78405,-10.1009 2.00104,-1.64815 6.41258,-4.20955 9.4699,-5.49836 1.71535,-0.72312 7.11714,-1.77356 13.60905,-2.64649 1.81299,-0.24379 3.43779,-0.64134 3.79142,-0.9277 0.56014,-0.45354 0.58387,-0.65325 0.25021,-2.10429 -0.23326,-1.01433 -0.42054,-6.67422 -0.50986,-15.40919 -0.0777,-7.59331 -0.2774,-14.23947 -0.44385,-14.76923 -0.64069,-2.03905 -1.12493,-12.74883 -1.1614,-25.68562 -0.0209,-7.41672 -0.14172,-15.36321 -0.26852,-17.65886 -0.22963,-4.1587 -0.22735,-4.17847 0.62009,-5.42195 0.46783,-0.68641 0.73313,-1.35825 0.58958,-1.49297 -0.14355,-0.13476 -3.00615,-0.32416 -6.36133,-0.42096 -3.35519,-0.0968 -7.47291,-0.39758 -9.15051,-0.66847 -3.24088,-0.52328 -9.20026,-0.66641 -9.87641,-0.23717 -0.31644,0.20086 -0.33519,0.91839 -0.0858,3.28606 0.7008,6.65424 0.32868,12.55333 -1.12207,17.78873 -0.405,1.46151 -0.48302,2.60568 -0.32839,4.81606 0.25884,3.69985 0.72821,8.27751 1.192,11.62515 0.44439,3.20745 -0.15398,13.80929 -0.92192,16.33464 -0.4695,1.54393 -0.46042,1.68709 0.1875,2.95708 0.89293,1.75032 0.86195,2.13978 -0.26388,3.31785 -1.04223,1.09061 -1.06207,1.60069 -0.25484,6.55073 0.20157,1.23612 0.34981,4.1934 0.32942,6.57173 -0.0273,3.18742 0.084,4.55833 0.42336,5.21463 0.72299,1.3981 -0.20484,4.10662 -1.40676,4.10662 -0.30496,0 -1.72303,0.58428 -3.15131,1.2984 l -2.59682,1.29844 -4.62726,0.13832 c -2.54496,0.0761 -5.87305,0.30444 -7.39569,0.50748 -4.36148,0.58156 -9.59792,-0.0714 -11.87276,-1.48058 -2.0701,-1.28232 -3.38251,-2.61765 -4.96699,-5.05397 -0.77558,-1.19245 -2.46508,-3.29617 -3.75447,-4.67494 -2.67018,-2.85521 -5.40952,-6.86381 -7.71159,-11.28478 -1.53366,-2.94524 -1.57511,-3.09653 -1.36323,-4.97659 0.27917,-2.47712 0.2906,-3.83046 0.0475,-5.63132 -0.1789,-1.3256 -0.0428,-1.72145 1.64934,-4.79788 1.65528,-3.00939 1.95949,-3.38218 2.96807,-3.63718 0.61806,-0.15626 1.23542,-0.39167 1.37187,-0.52315 0.2654,-0.25567 -0.95714,-4.72525 -2.16022,-7.89797 -0.40179,-1.05953 -0.88889,-2.64883 -1.08249,-3.53177 -1.63682,-7.46537 -1.9708,-9.45584 -2.13656,-12.73442 -0.23959,-4.7381 -1.14282,-9.28391 -2.95613,-14.87762 -1.04768,-3.23196 -2.47497,-6.0978 -4.83365,-9.70557 -2.14745,-3.28468 -2.81569,-4.73518 -4.40373,-9.55865 -4.14624,-12.59391 -5.22728,-19.0899 -3.87812,-23.30372 0.84875,-2.65089 3.33743,-7.47519 4.7181,-9.14601 1.84712,-2.23526 5.95999,-4.95495 7.49317,-4.95495 0.35517,0 1.65663,-0.29346 2.8922,-0.65212 2.26891,-0.65862 4.38315,-0.63765 6.23185,0.0618 1.52373,0.57652 1.61344,-0.0915 0.89093,-6.63376 -0.27304,-2.47224 -0.59247,-6.32052 -0.70988,-8.55174 l -0.21345,-4.05678 -4.06347,-0.23766 c -2.23487,-0.13074 -5.14704,-0.27955 -6.47146,-0.33077 -4.12999,-0.1596 -16.68431,-1.06579 -16.93802,-1.22257 -0.13277,-0.0821 -4.57535,-0.24963 -9.87243,-0.37241 -5.29705,-0.12277 -9.73325,-0.28549 -9.85818,-0.36159 -0.33054,-0.20131 -16.96111,-0.11388 -27.22435,0.14317 -4.85618,0.12162 -11.21337,0.12258 -14.12709,0.003 -5.23806,-0.2165 -49.1634,-0.11847 -69.35117,0.15476 -5.73913,0.0777 -13.4689,0.30206 -17.17726,0.49862 -11.492,0.60907 -29.67764,1.33867 -41.25752,1.65521 -6.09231,0.16654 -11.94382,0.44012 -13.00335,0.60798 -1.05953,0.16786 -7.63344,0.32675 -14.6087,0.35315 -6.97525,0.0263 -17.81137,0.0702 -24.08026,0.0976 -6.2689,0.0273 -13.3485,0.0343 -15.73245,0.0154 -2.38394,-0.0189 -6.79063,0 -9.79264,0.0395 -3.00201,0.0405 -6.24809,-0.0472 -7.21352,-0.19482 -0.96542,-0.14763 -1.86156,-0.16221 -1.9914,-0.0324 -0.38432,0.38433 0.37478,4.91424 1.04299,6.22405 0.75243,1.47493 0.77205,1.99031 0.097,2.55051 -0.73994,0.61408 -0.39254,3.53801 0.6607,5.56123 0.45226,0.86872 0.82226,1.84121 0.82226,2.16109 0,0.35093 0.31494,0.66067 0.79404,0.78091 1.13518,0.28492 5.96462,-0.42397 6.56598,-0.96376 0.48874,-0.43874 5.58778,-3.07614 5.94725,-3.07614 0.0972,0 1.44122,-0.56926 2.9866,-1.26505 1.5454,-0.69576 3.96566,-1.49053 5.37837,-1.76617 6.45114,-1.25866 7.83823,-1.55572 9.79264,-2.09739 2.4691,-0.6843 5.23849,-1.19747 7.77703,-1.44106 1.01048,-0.097 2.66627,-0.39226 3.6795,-0.65618 2.59405,-0.67566 4.3269,-0.59513 7.64715,0.35536 1.5893,0.45496 3.97325,0.94042 5.29766,1.07877 3.29078,0.34374 5.96228,1.4129 7.571,3.02997 1.07116,1.07674 1.58875,2.07826 2.83772,5.49085 2.01153,5.4963 2.21827,7.83026 1.05397,11.89892 -1.94973,6.8134 -1.88853,6.40163 -1.85594,12.48826 0.017,3.18639 -0.11803,6.2991 -0.3002,6.91716 -0.68414,2.32112 -1.2211,5.68349 -1.20488,7.54515 0.009,1.06798 -0.28126,2.92794 -0.65203,4.17392 -0.36785,1.23612 -0.88468,3.40334 -1.14854,4.81605 -0.26382,1.41271 -0.83879,3.72442 -1.27766,5.13712 -0.43887,1.41271 -0.96325,3.43546 -1.16523,4.49499 -0.20199,1.05953 -1.07372,4.16588 -1.93718,6.90301 -0.86342,2.73712 -1.71105,5.55451 -1.88359,6.26087 -0.17254,0.70635 -0.82643,2.65685 -1.4531,4.33444 -0.6267,1.6776 -1.37797,4.13378 -1.66956,5.4582 -0.2916,1.32441 -0.67322,2.68386 -0.84805,3.02098 -0.17485,0.33709 -0.57879,1.78191 -0.89768,3.2107 -1.37944,6.18064 -2.41811,9.97511 -3.17195,11.58772 -0.63218,1.35241 -1.29099,4.15773 -1.54573,6.58194 -0.0847,0.8062 -0.86403,2.93493 -1.76312,4.81605 -1.47452,3.08497 -3.13641,7.38625 -3.13641,8.11762 0,0.17999 1.24906,0.21072 3.13044,0.077 3.74515,-0.26616 6.64252,0.29073 9.37396,1.80172 0.98078,0.54251 2.44418,1.16844 3.25206,1.39094 0.80785,0.22247 2.56542,1.21544 3.90569,2.20665 3.00236,2.22036 3.24117,2.80998 3.2719,8.07829 0.0177,3.04561 -0.12689,4.39102 -0.69036,6.4214 -0.39206,1.41271 -0.78971,2.95626 -0.88369,3.43009 -0.17264,0.87062 -0.93094,1.31315 -2.33244,1.36131 -0.45621,0.0157 -1.2176,0.6283 -2.08696,1.67923 -2.77562,3.35541 -11.44766,11.15472 -15.43577,13.88234 -0.84994,0.58133 -1.70457,1.40635 -1.89917,1.83344 -0.41613,0.91334 -5.66101,3.81832 -8.11402,4.49414 -0.88294,0.24325 -2.4,0.45201 -3.37124,0.46389 -0.97123,0.0119 -3.12398,0.19762 -4.78385,0.41276 -3.88373,0.50335 -7.14082,0.21538 -11.32684,-1.00148 -1.82272,-0.52986 -3.68271,-1.0463 -4.1333,-1.14766 -0.45059,-0.10136 -2.14224,-1.46758 -3.75922,-3.03601 -2.98081,-2.89137 -4.02339,-4.64528 -4.51938,-7.60282 -0.32155,-1.91733 -0.10775,-5.58562 0.43296,-7.42802 0.44427,-1.51388 0.51307,-2.57537 0.35099,-5.41478 -0.18676,-3.27139 -0.14974,-3.61461 0.50213,-4.65552 0.637,-1.01719 0.69547,-1.48267 0.61623,-4.90817 -0.093,-4.02304 0.0545,-4.52725 1.48334,-5.0705 0.81886,-0.31134 0.87678,-0.61029 0.42401,-2.18893 -0.23641,-0.82435 -0.16372,-1.67589 0.30129,-3.52965 0.33706,-1.34378 0.61488,-3.02115 0.61735,-3.7275 0.003,-0.70636 0.22655,-2.00669 0.49795,-2.88963 0.27137,-0.88295 0.49965,-2.4 0.50729,-3.37124 0.008,-0.97124 0.21242,-3.78863 0.45509,-6.26087 l 0.44115,-4.49498 -0.91358,-0.96321 c -0.50247,-0.52977 -1.34981,-1.93847 -1.88298,-3.13044 -0.67579,-1.51083 -1.14397,-2.16722 -1.54582,-2.16722 -0.521,0 -0.58181,0.38859 -0.6327,4.04304 -0.0444,3.18768 0.0713,4.44246 0.54675,5.93081 1.19223,3.73203 1.18998,5.21826 -0.008,5.59863 -0.3361,0.10666 -0.95669,-0.0325 -1.37916,-0.30932 -0.70741,-0.46353 -0.829,-0.45576 -1.53972,0.0982 -2.83952,2.21311 -9.5921,3.63172 -17.82052,3.74387 -2.48994,0.0339 -4.70201,0.16975 -4.91572,0.30184 -0.48909,0.30226 -0.16262,6.25654 0.48273,8.80506 0.51503,2.03376 0.83022,2.46611 2.35672,3.2327 1.12997,0.56746 5.95669,1.44433 6.40956,1.16446 0.12827,-0.0793 1.66918,-0.003 3.42424,0.16917 2.26352,0.22228 4.15398,0.20256 6.50402,-0.0678 3.13676,-0.36088 3.34639,-0.34778 3.94069,0.24652 0.38265,0.38268 0.75509,1.41887 0.95409,2.65454 0.55247,3.43054 0.0882,3.74397 -7.19323,4.8558 -4.87795,0.74489 -6.27599,0.76794 -10.99363,0.18138 -5.73274,-0.71278 -8.79775,-2.87214 -8.80564,-6.20375 0,-0.49127 -0.29443,-1.3267 -0.65168,-1.85646 -0.55545,-0.82371 -0.62201,-1.28875 -0.45952,-3.21071 0.26652,-3.15201 -0.33272,-10.36405 -0.91659,-11.03136 -0.96773,-1.10605 -1.56477,-2.70094 -1.37196,-3.66498 0.12499,-0.62494 -0.10387,-1.85508 -0.65332,-3.51158 -0.66956,-2.01863 -0.80746,-2.92007 -0.66211,-4.32835 0.20192,-1.95654 -0.48822,-8.68896 -1.04691,-10.21289 -0.19425,-0.52977 -0.55494,-1.39666 -0.80158,-1.92642 -0.24665,-0.52977 -0.83864,-1.80881 -1.31556,-2.84237 -0.65289,-1.41499 -1.11498,-1.97966 -1.87078,-2.28615 -1.14298,-0.46347 -7.62118,-1.13068 -11.92012,-1.22768 l -2.88963,-0.0652 0.0408,0.96321 c 0.20288,4.79034 0.13559,10.73672 -0.18535,16.37459 -0.21111,3.70836 -0.4469,10.64347 -0.52399,15.41137 -0.0771,4.76789 -0.25949,10.25819 -0.40529,12.20067 -0.15376,2.04833 -0.14416,3.69051 0.0228,3.90967 0.33365,0.43784 2.63945,0.68969 8.27501,0.90378 5.33021,0.2025 14.17804,1.7018 18.78261,3.18283 0.88294,0.28399 2.96585,1.20167 4.62864,2.03928 2.94479,1.48341 3.05001,1.57523 4.05104,3.53553 1.52557,2.98752 1.92266,5.28889 1.86885,10.83024 -0.0558,5.7453 -0.5053,7.28512 -3.1121,10.66085 -2.66825,3.45529 -6.12698,5.88278 -11.61035,8.14867 -2.29016,0.94638 -8.19779,2.29054 -11.95749,2.72075 -4.26481,0.48796 -5.63276,0.62653 -14.11039,1.42956 -8.43275,0.79879 -28.97221,-0.36868 -33.16958,-1.88532 -4.72739,-1.70819 -6.18219,-2.58834 -10.4978,-6.35113 -1.50149,-1.30913 -3.21172,-2.58153 -3.8005,-2.82753 -1.09333,-0.45685 -1.35688,-0.80695 -4.26956,-5.67177 -2.21382,-3.69758 -2.62626,-4.77088 -2.60364,-6.77564 0.0352,-3.12225 0.45104,-4.57339 1.96852,-6.87017 2.31921,-3.51016 4.40387,-5.24028 9.22551,-7.6564 5.55848,-2.78535 7.86095,-3.63699 11.74336,-4.34366 1.76588,-0.32139 4.07759,-0.87007 5.13712,-1.21923 2.78753,-0.91865 5.15077,-1.38048 11.83247,-2.31229 1.03359,-0.14416 2.04496,-0.42818 2.24749,-0.63119 0.27002,-0.27069 0.33866,-4.61699 0.25743,-16.29942 -0.10611,-15.26117 -0.13738,-15.96628 -0.74433,-16.78722 -0.48142,-0.65116 -0.75192,-1.9295 -1.12648,-5.32367 -0.27108,-2.4567 -0.58865,-5.33361 -0.70571,-6.39315 -0.11706,-1.05953 -0.31815,-2.09206 -0.4468,-2.29452 -0.29937,-0.47098 -3.15407,-0.9409 -8.42444,-1.38667 -6.04694,-0.51147 -8.90126,-0.92735 -12.52174,-1.82445 -1.76588,-0.43759 -3.78862,-0.92931 -4.49498,-1.09277 -2.1091,-0.48805 -9.93119,-0.98742 -15.25412,-0.9738 -2.73893,0.007 -5.7008,-0.11456 -6.58194,-0.27012 -0.88114,-0.15556 -3.55257,-0.65466 -5.93652,-1.10917 -2.38394,-0.45447 -5.05685,-0.95916 -5.9398,-1.12153 -2.5315,-0.46549 -7.8386,-1.08422 -9.99927,-1.16574 -1.56516,-0.059 -2.20174,-0.24925 -3.08251,-0.92105 -0.8577,-0.65418 -1.33249,-0.80213 -2.08881,-0.65088 -1.204,0.24081 -1.22389,0.18754 -1.69043,-4.52709 -0.19221,-1.94247 -0.41335,-3.82073 -0.49141,-4.17391 -0.0781,-0.35318 -0.36108,-4.1097 -0.62893,-8.34783 -0.26785,-4.23812 -0.55907,-8.21137 -0.64716,-8.82943 -0.0881,-0.61806 -0.30488,-2.83299 -0.48176,-4.92204 -0.36196,-4.27508 -1.94395,-13.96562 -2.77499,-16.99842 -0.44893,-1.63829 -0.56152,-3.70942 -0.62357,-11.47084 -0.13066,-16.34264 -0.51607,-20.46444 -2.68695,-28.73579 -0.96006,-3.65792 -1.35178,-9.53264 -1.34874,-20.22742 0.003,-9.66296 0.15361,-11.38785 1.52017,-17.38024 1.2356,-5.41809 3.56414,-8.68325 6.24176,-8.75237 0.26488,-0.007 1.7752,-0.16285 3.35627,-0.34666 2.24301,-0.26081 3.68929,-0.23011 6.58194,0.13963 4.34811,0.55581 9.17483,0.75169 9.5394,0.38712 0.14088,-0.14089 0.006,-0.69262 -0.3005,-1.22608 -0.41818,-0.72863 -0.67618,-2.55533 -1.03717,-7.34345 -0.48836,-6.4774 -0.35033,-10.29955 0.50673,-14.03125 0.41747,-1.81771 0.41337,-9.03607 -0.006,-10.66586 -0.16164,-0.62814 -0.52991,-3.03697 -0.81835,-5.35298 -0.46912,-3.76667 -0.47415,-4.41031 -0.0476,-6.10035 0.91088,-3.60942 1.48232,-14.11736 0.89719,-16.49808 -0.1953,-0.79465 -0.35863,-3.61418 -0.36295,-6.26562 -0.007,-4.20461 0.0736,-4.9728 0.62946,-6.00989 0.35052,-0.654 1.2241,-2.96356 1.94128,-5.13237 0.7456,-2.25476 1.83343,-4.76819 2.54046,-5.86971 0.68007,-1.05953 1.3275,-2.23328 1.43874,-2.60833 0.2757,-0.92952 3.52785,-3.97511 5.4338,-5.08867 1.34627,-0.78655 7.3309,-3.03415 10.8044,-4.05772 0.61806,-0.18213 1.77391,-0.52846 2.56856,-0.76963 0.79465,-0.24116 2.09499,-0.53406 2.88963,-0.65087 2.09889,-0.30854 7.79842,-2.03073 8.26511,-2.49742 0.22801,-0.22802 0.5315,-1.97709 0.70831,-4.08221 0.18455,-2.19726 0.58276,-4.44938 0.987,-5.58219 0.66416,-1.86116 0.66571,-1.91543 0.0781,-2.72909 -0.32977,-0.4566 -1.00979,-1.62483 -1.51116,-2.59606 -0.50138,-0.97124 -1.23639,-2.19934 -1.63337,-2.7291 -1.27651,-1.70349 -2.40571,-4.29034 -3.19505,-7.31943 -0.42349,-1.62515 -0.97771,-3.4605 -1.2316,-4.07856 -0.25389,-0.61806 -0.63121,-2.35184 -0.83849,-3.85285 -0.34713,-2.51372 -0.96932,-5.96841 -1.648,-9.1505 -0.63281,-2.96703 -0.0963,-9.25419 1.13711,-13.32441 0.29431,-0.97124 0.88456,-3.93311 1.31167,-6.58194 0.42711,-2.64883 0.93045,-5.75519 1.11852,-6.90301 0.18807,-1.14783 0.4496,-2.95385 0.58118,-4.01338 0.14209,-1.14421 0.71712,-2.92447 1.41617,-4.38442 0.64731,-1.35189 1.48903,-3.37464 1.87049,-4.49498 0.38146,-1.12034 0.86125,-2.25371 1.06621,-2.51859 0.20496,-0.26489 0.62104,-1.03094 0.92462,-1.70235 1.11004,-2.45498 3.30923,-4.33445 7.54082,-6.44455 2.16934,-1.08175 5.13122,-2.56544 6.58194,-3.29709 3.82684,-1.92999 7.18941,-2.73154 12.56814,-2.99593 2.48473,-0.12213 5.45684,-0.10521 6.60467,0.0376 1.14782,0.14281 3.79855,0.40233 5.89051,0.57671 2.09194,0.17437 4.04244,0.39138 4.33445,0.48223 0.29198,0.0909 1.6145,0.31687 2.93892,0.50225 5.09869,0.71369 14.11771,3.98977 17.46567,6.34426 0.865,0.60832 2.37994,1.38375 3.36655,1.7232 0.98662,0.33944 2.30166,0.94229 2.92229,1.33966 1.42587,0.91294 2.43593,1.48347 3.86141,2.18115 1.66421,0.81451 2.0841,1.44497 3.01585,4.52833 0.46436,1.53664 0.98626,2.88162 1.15977,2.98885 0.17351,0.10724 0.31548,0.4897 0.31548,0.84992 0,0.36021 0.20334,1.11021 0.45184,1.66666 1.52631,3.41761 1.79565,5.23802 1.79565,12.13677 0,3.67535 -0.13831,7.66038 -0.30739,8.85563 -0.16904,1.19525 -0.43845,3.11231 -0.59867,4.26014 -0.1727,1.23728 -0.17485,3.52487 -0.005,5.61873 0.30058,3.7116 -0.20106,8.87462 -1.21281,12.48254 -0.25365,0.9045 -0.68774,2.8004 -0.96463,4.21311 -1.12214,5.72518 -1.39916,6.855 -2.3222,9.47157 -1.1878,3.36701 -2.81344,6.52138 -5.26414,10.21443 -1.05735,1.59338 -4.21453,3.74065 -7.83845,5.33111 -1.44132,0.63256 -2.71462,1.15011 -2.82959,1.15011 -0.11495,0 -0.95843,0.34856 -1.87438,0.77457 -0.91598,0.42601 -2.24335,0.98695 -2.9497,1.24654 -1.54214,0.56675 -1.86288,1.54738 -0.74209,2.26877 1.12644,0.72501 4.44897,1.81027 5.547,1.81185 1.20681,0.002 5.14114,1.35374 5.8839,2.02194 1.04858,0.94336 4.62839,2.79271 5.40586,2.79271 1.06775,0 2.86867,0.78804 4.02555,1.7615 0.62156,0.523 1.35161,0.80706 2.07421,0.80706 1.27898,0 2.61878,0.62301 4.4544,2.07127 0.70635,0.5573 2.7291,1.86612 4.49498,2.90848 1.76589,1.04235 3.78863,2.35345 4.49498,2.91354 0.70636,0.5601 1.6094,1.11796 2.00676,1.2397 0.61671,0.18896 0.71069,0.11246 0.64214,-0.5227 l -0.0804,-0.74503 4.01267,0.11847 c 2.20697,0.0652 4.3742,0.26295 4.81605,0.43955 0.44186,0.1766 2.53716,0.4497 4.65623,0.60688 2.11906,0.15719 5.08093,0.41906 6.58194,0.58194 4.06709,0.44134 8.82837,0.91592 14.92976,1.48812 8.23154,0.77197 13.54002,1.39498 16.21405,1.90289 1.32442,0.25157 3.63612,0.54142 5.13713,0.64412 1.501,0.10269 3.39878,0.31961 4.21729,0.48204 0.8185,0.16243 3.49141,0.45595 5.93979,0.65226 5.39135,0.43227 5.77888,0.50162 5.99827,1.07333 0.095,0.2475 -0.099,1.00728 -0.4311,1.68839 -0.9505,1.94948 -1.93885,9.92262 -1.70719,13.77195 0.19126,3.17836 0.18679,3.20455 -0.69519,4.08183 -1.60304,1.59446 -2.0176,1.25595 -2.16266,-1.76588 -0.14715,-3.06557 0.55291,-10.83811 1.20517,-13.38064 0.24575,-0.95801 0.37318,-1.86102 0.28315,-2.00669 -0.09,-0.14567 -1.49163,-0.26528 -3.11464,-0.26582 -1.64375,-6.4e-4 -4.43648,-0.28939 -6.30447,-0.65206 -1.84445,-0.3581 -4.73408,-0.85141 -6.4214,-1.09624 -1.68736,-0.24484 -4.44047,-0.66471 -6.11806,-0.93304 -1.67759,-0.26833 -4.92843,-0.65107 -7.22408,-0.85053 -2.29565,-0.19947 -6.99131,-0.70666 -10.43479,-1.12711 -8.67368,-1.05905 -15.1914,-1.77607 -17.65886,-1.94267 -2.09418,-0.14139 -5.53159,-0.79928 -8.48637,-1.62422 -0.87084,-0.24313 -1.77385,-0.44205 -2.00669,-0.44205 -0.81291,0 -0.41389,0.6339 0.78361,1.24481 0.66381,0.33865 2.31032,1.71199 3.65891,3.05187 l 2.45199,2.43615 2.68222,-0.33662 c 2.87566,-0.3609 3.8243,-0.26914 6.90381,0.66782 1.40539,0.4276 2.65409,0.56557 4.33445,0.47892 3.0834,-0.15898 13.15322,0.38279 14.66581,0.78905 0.64873,0.17424 3.99688,0.54152 7.44036,0.81617 11.85099,0.94524 15.05899,1.35533 18.14047,2.31896 2.46424,0.77061 2.67297,1.10427 1.47496,2.35788 -0.71721,0.75048 -0.94472,1.23384 -0.79815,1.69565 0.11276,0.35527 0.16449,1.30679 0.11491,2.11448 -0.0962,1.56816 -0.0828,2.58099 0.11055,8.37155 0.15112,4.52588 0.1474,4.49498 0.54411,4.49498 0.39492,0 2.48573,-1.03686 6.09877,-3.02445 1.88195,-1.03529 3.62607,-1.70113 5.61873,-2.14503 6.35876,-1.41653 9.44874,-2.36756 13.05767,-4.01888 2.07713,-0.95041 3.99327,-1.72803 4.25809,-1.72803 0.26485,0 1.43406,-0.52358 2.59826,-1.16351 1.76576,-0.97058 2.33351,-1.13443 3.42393,-0.98818 1.11726,0.14986 1.72598,-0.0426 4.18997,-1.32478 l 2.88282,-1.50012 1.39187,-2.72909 c 2.1242,-4.16496 6.31645,-8.14194 9.48866,-9.0014 1.91293,-0.51828 5.00291,-0.53306 6.46696,-0.0309 0.6617,0.22694 1.79626,0.9082 2.52127,1.51393 0.72501,0.60572 1.70068,1.18541 2.16816,1.28819 2.4015,0.52798 4.16325,1.26758 5.07644,2.13115 1.16738,1.10395 1.56053,1.00109 1.83857,-0.48105 0.25879,-1.37955 1.86619,-3.30295 3.42483,-4.0981 1.36988,-0.69886 4.47228,-0.85264 6.82284,-0.33819 0.74038,0.16205 2.21307,0.46126 3.2726,0.66492 6.44443,1.23869 15.94371,4.86469 17.49833,6.67933 1.87515,2.1888 3.58745,3.35586 5.73361,3.9079 1.97522,0.50808 5.78536,2.33217 8.07241,3.86465 0.844,0.56554 3.16026,1.42682 5.25932,1.95562 0.68526,0.17264 1.85383,0.67013 2.59679,1.10553 0.74292,0.4354 1.62911,0.79163 1.96928,0.79163 1.21622,0 4.03688,1.26213 6.63588,2.96926 2.17972,1.43173 3.12029,1.83538 5.37151,2.30519 3.25976,0.68028 3.34176,0.72072 5.95608,2.93851 1.12997,0.95859 2.59993,1.99513 3.2666,2.30343 0.66667,0.30829 2.6616,1.51784 4.43321,2.68788 3.93497,2.59878 6.91739,4.13353 8.03256,4.13353 1.03947,0 5.27169,2.23419 7.20729,3.80474 0.7943,0.64452 2.48441,2.21934 3.75575,3.4996 1.27135,1.28027 2.5346,2.32776 2.80722,2.32776 0.27262,0 1.25545,-0.95945 2.18405,-2.13216 3.99247,-5.04196 11.48208,-11.73513 13.9889,-12.50133 0.82801,-0.25309 2.1694,-0.85672 2.98091,-1.34142 0.8115,-0.4847 1.96736,-1.17024 2.56856,-1.52342 1.97898,-1.16253 3.76192,-3.28459 5.12393,-6.09846 2.75623,-5.69438 5.90808,-8.63758 12.36387,-11.54537 1.69486,-0.76339 3.68406,-1.81768 4.42037,-2.34287 0.73634,-0.52518 1.79138,-1.18643 2.34452,-1.46945 0.5531,-0.28302 1.56085,-1.10044 2.2394,-1.8165 0.67851,-0.71606 1.81526,-1.69171 2.52605,-2.16812 0.71082,-0.4764 1.88455,-1.37655 2.60837,-2.00033 4.94773,-4.26406 8.13072,-5.81661 14.21995,-6.93601 1.52078,-0.27957 3.53402,-0.72722 4.47382,-0.99478 0.93984,-0.26756 2.89034,-0.61952 4.33445,-0.78214 6.11636,-0.68876 7.23924,-0.89562 9.52869,-1.75541 1.32442,-0.49738 3.12947,-0.9846 4.01126,-1.08272 1.47885,-0.16456 1.61591,-0.25312 1.76685,-1.14161 0.15479,-0.91115 0.28941,-0.98834 2.49041,-1.42808 2.11322,-0.42218 2.3268,-0.53561 2.3268,-1.23575 0,-1.15849 0.88567,-2.79921 2.4506,-4.53979 0.77124,-0.8578 1.40224,-1.79343 1.40224,-2.07919 0,-0.93915 -1.96386,-4.02296 -3.68383,-5.78466 -0.92857,-0.95111 -1.98344,-2.35671 -2.34417,-3.12355 -2.29664,-4.88232 -3.9176,-8.58875 -4.1201,-9.42101 -0.12891,-0.52977 -0.58964,-1.75786 -1.02386,-2.7291 -1.28707,-2.87877 -2.29533,-6.42975 -2.50701,-8.82943 -0.10907,-1.23612 -0.45441,-3.25886 -0.76742,-4.49498 -0.31305,-1.23612 -0.74338,-3.62007 -0.95634,-5.29766 -0.21294,-1.67759 -0.68176,-4.20602 -1.04184,-5.61873 -1.06621,-4.1833 -1.05677,-4.30892 0.88053,-11.71907 0.99262,-3.79665 2.11004,-8.1311 2.48319,-9.6321 0.76546,-3.07905 2.02088,-5.18796 5.12891,-8.61577 1.06723,-1.17705 2.15974,-2.50129 2.42777,-2.94276 0.26806,-0.44147 1.72899,-2.00482 3.24656,-3.4741 2.5102,-2.43033 3.19388,-2.88397 7.57527,-5.02639 2.64883,-1.29523 5.68294,-2.5967 6.74248,-2.89216 1.05953,-0.29546 2.21538,-0.71741 2.56856,-0.93765 1.69624,-1.05782 7.52544,-1.94514 10.90415,-1.65984 1.41946,0.11985 5.03699,0.29036 8.03899,0.37889 4.52096,0.13333 5.68226,0.26823 6.76326,0.78561 1.0394,0.49749 2.5098,0.69251 7.224,0.95808 3.2555,0.18339 6.2803,0.46567 6.7218,0.62729 0.4415,0.16161 1.4528,0.45998 2.2475,0.66304 0.7946,0.20306 3.1531,1.09995 5.2411,1.9931 4.2798,1.83077 5.7612,3.03981 7.5849,6.19022 0.6088,1.05177 1.9981,3.28488 3.0874,4.96247 1.0893,1.67759 2.2854,3.65173 2.658,4.38696 0.9502,1.87473 2.4891,6.61869 2.9514,9.09799 0.5159,2.76677 0.4289,10.99265 -0.1545,14.6087 -0.2565,1.58929 -0.5273,3.46756 -0.6018,4.17391 -0.1655,1.56887 -1.6983,8.727 -2.3281,10.87299 -0.2522,0.85907 -0.4585,1.91475 -0.4585,2.34593 0,0.83513 -1.8815,6.6111 -3.538,10.86135 -0.5507,1.41271 -1.1175,2.92976 -1.2598,3.37123 -1.2743,3.9542 -4.0926,8.88856 -6.6038,11.56241 -1.0831,1.15316 -2.588,3.15612 -3.3442,4.45104 l -1.3751,2.35441 0.5383,1.33112 c 0.296,0.73211 0.8413,1.90904 1.2118,2.61539 0.3704,0.70636 1.0863,2.07068 1.5908,3.03183 0.5045,0.96115 0.9914,1.8217 1.082,1.91235 0.091,0.0906 2.7237,0.17147 5.8512,0.17963 6.1112,0.0159 13.0408,0.90889 16.2816,2.09807 0.8829,0.32399 2.739,0.83118 4.1246,1.1271 1.9857,0.42408 2.7759,0.7699 3.7312,1.63299 0.6666,0.60222 1.5083,1.09496 1.8705,1.09496 0.3622,0 1.2838,0.50196 2.0481,1.11548 0.7642,0.61351 2.2014,1.54523 3.1939,2.07048 0.9923,0.52526 2.3649,1.59847 3.0501,2.38491 1.3237,1.51929 5.1556,8.8146 6.1807,11.76692 0.3372,0.97124 1.0668,3.05393 1.6212,4.6282 1.2404,3.52202 2.5735,10.07663 2.6743,13.14884 0.043,1.31447 -0.1629,3.31556 -0.4837,4.69788 -0.3385,1.45833 -0.559,3.70909 -0.5591,5.70702 -3e-4,3.42733 0.1533,4.06799 2.0793,8.67133 0.7574,1.81013 0.8026,2.13162 0.4409,3.13204 -0.3242,0.89647 -0.323,1.57058 0.01,3.44104 0.2251,1.27937 0.6086,3.77097 0.8522,5.53686 0.2435,1.76589 0.9682,5.45017 1.6105,8.18729 0.6422,2.73712 1.5212,6.49364 1.9532,8.34783 0.643,2.75902 0.8395,4.77062 1.082,11.07692 0.1631,4.23813 0.268,8.64481 0.2333,9.79264 -0.035,1.14783 0.1297,4.75987 0.3654,8.02676 0.4794,6.64397 0.4967,14.90347 0.044,21.08892 -0.1656,2.26328 -0.3024,5.1987 -0.3041,6.52312 v 2.40802 l 1.8132,1.44482 c 0.9972,0.79465 1.9111,1.66154 2.0307,1.92642 0.1197,0.26488 0.3906,0.81446 0.6021,1.22129 0.888,1.70841 3.1746,7.37283 3.3952,8.41082 0.1314,0.61806 0.3509,1.67518 0.4878,2.34917 0.5711,2.81213 -1.4152,14.32744 -3.1946,18.52039 -0.5621,1.32442 -1.353,3.4194 -1.7575,4.65552 -0.4046,1.23612 -1.3327,3.47558 -2.0627,4.97659 -1.0291,2.11624 -1.4005,3.34195 -1.6542,5.45819 -0.3766,3.14055 -0.7118,3.95915 -1.8299,4.46862 -0.6341,0.28887 -0.7558,0.51535 -0.5802,1.07893 0.6752,2.16581 0.5597,3.99196 -0.4375,6.9199 -0.5494,1.61309 -0.999,3.23385 -0.999,3.60167 0,0.36781 -0.1566,0.96151 -0.3481,1.31927 -0.1915,0.3578 -0.8269,2.4794 -1.4119,4.7147 -0.5851,2.23529 -1.4275,5.14775 -1.872,6.47216 -2.1266,6.33626 -3.1548,10.48786 -3.2206,13.00335 l -0.05,1.92642 2.0869,0.16053 c 3.0009,0.23085 5.8511,1.88077 7.5969,4.39777 1.5185,2.18905 2.9538,5.37837 3.9777,8.83793 0.4929,1.66565 1.0324,2.76586 1.6432,3.35105 1.1528,1.10445 1.142,1.76505 -0.067,4.09473 -0.5368,1.03462 -1.133,2.61994 -1.325,3.52291 -0.1919,0.90298 -1.1614,3.1262 -2.1544,4.9405 -0.993,1.81434 -2.3111,4.21871 -2.9292,5.34303 -0.6181,1.12436 -1.5572,2.59765 -2.087,3.27402 -0.5297,0.67636 -1.4314,1.95628 -2.0037,2.84426 -1.2562,1.94928 -6.9817,6.91839 -9.296,8.06802 -0.9173,0.45563 -2.5788,0.94757 -3.6924,1.09324 -1.1135,0.14564 -3.2527,0.56146 -4.7537,0.92404 -4.1079,0.9923 -8.0421,1.28306 -10.739,0.79369 -13.8036,-2.50467 -15.8383,-3.17423 -17.3177,-5.69855 -0.4618,-0.78804 -0.8396,-1.67894 -0.8396,-1.97982 0,-0.3009 -0.2723,-0.99756 -0.6051,-1.5482 -0.8366,-1.38397 -1.0845,-4.00625 -0.7019,-7.4225 0.178,-1.5893 0.345,-4.37089 0.3712,-6.18134 0.045,-3.14231 0.01,-3.34497 -0.8476,-4.46548 -0.7362,-0.9652 -0.8825,-1.45422 -0.8233,-2.75205 0.04,-0.86804 0.2213,-1.96495 0.4037,-2.43753 1.0935,-2.8328 0.8749,-4.93459 -1.2843,-12.34419 -1.214,-4.16611 -1.2809,-6.39646 -0.3401,-11.33692 0.3673,-1.92826 0.7948,-4.20991 0.9501,-5.07038 0.3593,-1.9897 0.427,-7.00225 0.2263,-16.73652 -0.1509,-7.32076 -0.19,-7.71044 -0.7828,-7.80069 -0.3432,-0.0522 -2.8996,0.2006 -5.6809,0.56187 -2.7813,0.3613 -5.9052,0.65688 -6.9421,0.65688 -1.0369,0 -1.9719,0.14024 -2.0778,0.31163 -0.106,0.17142 0.06,0.78547 0.3679,1.36455 0.4799,0.90143 0.5687,2.09225 0.6174,8.277 0.035,4.43359 -0.1116,8.65033 -0.3792,10.91638 -0.4818,4.08007 -0.6125,18.58647 -0.3758,41.73913 0.1321,12.9208 0.5335,20.36253 1.1268,20.88867 0.1333,0.11825 2.7708,0.38464 5.8611,0.59199 6.4735,0.43434 9.3942,0.83366 10.7559,1.4705 0.5297,0.24777 2.0334,0.8954 3.3415,1.43917 1.3081,0.54376 3.239,1.56335 4.2908,2.26573 1.0518,0.70237 1.9818,1.27705 2.0666,1.27705 0.3484,0 5.453,3.8611 6.2218,4.70603 1.1029,1.21226 2.3601,3.45583 3.2114,5.73119 0.5428,1.45057 0.6603,2.31489 0.5405,3.97572 -0.2768,3.84013 -1.9836,6.06678 -6.5405,8.53231 -0.8655,0.46828 -2.2538,1.3337 -3.0852,1.92315 -2.3372,1.65717 -10.5746,4.55631 -20.577,7.24209 -5.3909,1.44752 -21.25706,2.72432 -23.82446,1.91724 z m 6.26086,-7.39065 c 1.501,-0.18038 3.9201,-0.46969 5.3758,-0.64291 1.4556,-0.17322 4.273,-0.44838 6.2608,-0.61148 4.4967,-0.36888 8.1726,-1.11087 10.6778,-2.15534 1.0595,-0.44173 3.0542,-1.06686 4.4327,-1.38915 2.608,-0.60977 5.0389,-1.92517 5.0389,-2.72662 0,-0.49153 -2.3817,-1.33276 -4.6555,-1.64436 -0.7064,-0.0968 -2.5847,-0.44192 -4.174,-0.76691 -8.6646,-1.77183 -11.8492,-2.25632 -15.8319,-2.40861 -1.5346,-0.0587 -3.0341,-0.204 -3.3323,-0.32296 -0.3158,-0.12599 -1.1872,0.10708 -2.0869,0.55818 -0.8497,0.42593 -2.0292,0.87081 -2.6213,0.98854 -2.33107,0.46366 -8.27851,6.17319 -9.17693,8.80985 -0.71358,2.09424 -0.44455,2.2812 3.46091,2.40546 1.79337,0.057 3.40518,0.13308 3.58182,0.16898 0.1765,0.0359 1.5491,-0.0823 3.0501,-0.26267 z m -21.49429,-3.14161 c 1.42622,-0.9051 5.84932,-4.35695 11.47184,-8.95282 1.63948,-1.34011 2.93333,-2.59591 2.87521,-2.79061 -0.39555,-1.32528 -9.16546,-3.54282 -17.89623,-4.5252 -2.20735,-0.24834 -4.44894,-0.54261 -4.9813,-0.65386 -2.31341,-0.48346 -4.52995,2.83419 -5.84833,8.75363 -0.67887,3.04808 2.60815,6.23111 8.58214,8.31061 2.84009,0.98861 4.06263,0.95872 5.79667,-0.14175 z m -405.12779,-6.19893 c 2.84025,-0.21612 5.05686,-0.52316 5.05686,-0.70055 0,-0.62239 -2.28069,-3.0816 -4.71579,-5.08491 -1.36352,-1.12173 -4.14723,-3.71925 -6.18602,-5.77227 -3.65722,-3.68274 -3.7302,-3.73533 -5.44712,-3.92444 -1.1109,-0.12239 -2.00605,-0.0497 -2.4752,0.20099 -1.9085,1.01969 -5.54546,3.33354 -6.70096,4.26317 -0.70635,0.56826 -1.76116,1.31976 -2.344,1.67001 -2.6357,1.58381 -7.90896,7.46206 -7.25991,8.09277 0.47955,0.46604 6.09478,1.28419 10.56712,1.53966 5.42962,0.31016 13.1738,0.19724 19.50502,-0.28443 z m 16.0128,-2.02727 c 2.4942,-0.16702 4.13436,-0.59238 4.13436,-1.07222 0,-0.59141 -10.29859,-4.99858 -13.31562,-5.69829 -4.21523,-0.97756 -4.21045,-0.77143 0.0804,3.46178 l 3.82458,3.77328 1.41435,-0.15035 c 0.77792,-0.0827 2.51578,-0.22408 3.86196,-0.3142 z m -50.25274,-1.46325 c 0.90972,-1.25561 1.3408,-2.24749 0.97681,-2.24749 -0.54657,0 -2.6183,0.94976 -4.04562,1.85466 -1.66027,1.05263 -1.71802,1.13322 -1.12375,1.56817 0.36148,0.26457 1.15931,0.41855 1.88612,0.364 1.07702,-0.0808 1.4114,-0.30399 2.30644,-1.53934 z m 499.61282,-0.82457 c 0.9372,-0.98325 1.7041,-1.97831 1.7041,-2.21121 0,-0.51676 -7.0034,-7.29812 -8.6892,-8.41374 -0.9936,-0.65755 -1.3318,-0.73744 -1.8799,-0.44411 -0.3676,0.19672 -0.6684,0.48052 -0.6684,0.63062 0,0.1501 -1.7173,1.23011 -3.8163,2.40003 -3.945,2.19891 -4.82,2.86751 -4.2299,3.23224 0.5487,0.33912 3.8447,1.13576 4.6991,1.13576 1.8852,0 8.4842,2.00518 8.4842,2.578 0,0.12817 -0.2167,0.41286 -0.4816,0.6327 -0.8141,0.67573 -0.5422,1.10214 1.0452,1.63861 0.8379,0.28316 1.6596,0.536 1.826,0.56188 0.1663,0.026 1.0694,-0.7575 2.0067,-1.74078 z m -383.22616,-0.32341 c 1.76072,-1.29247 2.93507,-2.63923 2.67224,-3.06452 -0.0995,-0.16105 -0.43634,-0.14471 -0.77718,0.0377 -0.33087,0.17707 -0.76614,0.32194 -0.96729,0.32194 -0.90696,0 0.093,-1.06114 3.20967,-3.40601 2.07039,-1.55767 3.48018,-2.85807 3.65953,-3.37557 0.24783,-0.71496 -0.0851,-1.59877 -2.20945,-5.86624 -1.37565,-2.76346 -3.07087,-5.67161 -3.76708,-6.46257 -1.26479,-1.43689 -2.36186,-1.83906 -2.68925,-0.98591 -0.20131,0.52463 -1.37913,1.0193 -3.11034,1.3064 -0.66937,0.111 -1.87633,0.48443 -2.68216,0.82984 -1.34335,0.57584 -1.82965,0.60384 -5.85099,0.33716 -4.07428,-0.27025 -10.78863,-1.43355 -14.16953,-2.455 -0.79465,-0.2401 -1.55289,-0.32891 -1.68495,-0.19736 -0.13209,0.13151 -0.0189,1.08858 0.25153,2.12676 0.44738,1.7176 0.44247,2.20794 -0.0546,5.44282 -0.62818,4.0887 -0.60345,6.24132 0.0903,7.8668 0.26912,0.63061 0.66998,2.01346 0.89078,3.07299 0.39688,1.90437 0.41585,1.92861 1.6582,2.11772 0.6912,0.10524 1.98807,0.48973 2.88193,0.85446 1.32791,0.54181 2.59062,0.69566 6.90301,0.84101 4.02031,0.13553 6.0428,0.36336 8.48852,0.95625 4.59923,1.11495 5.37481,1.08303 7.25708,-0.29869 z m -126.49066,-1.92142 c 1.47679,-0.80524 3.40748,-1.89633 4.29043,-2.42469 0.88294,-0.52835 3.48361,-1.90208 5.77926,-3.05273 6.10727,-3.06115 11.22369,-6.04389 11.33291,-6.60679 0.1415,-0.72931 -4.793,-2.55832 -8.12221,-3.01055 -0.88294,-0.11995 -2.32775,-0.4887 -3.2107,-0.81944 -0.88294,-0.33073 -1.91917,-0.60143 -2.30274,-0.60152 -0.41672,-10e-5 -1.14168,-0.51924 -1.80135,-1.2899 l -1.10396,-1.28974 -2.5331,1.15383 c -1.3932,0.63456 -3.14504,1.42876 -3.89298,1.76489 -2.06879,0.92966 -5.79646,5.86467 -6.65147,8.80577 -0.76273,2.62375 -0.65635,4.42236 0.33097,5.59574 0.99989,1.18828 3.94407,3.22476 4.67424,3.23314 0.2891,0.003 1.73391,-0.6528 3.2107,-1.45801 z m 69.67812,0.31253 c 1.89412,-1.56364 2.80516,-3.74833 2.82477,-6.77407 0.0183,-2.82047 -0.22677,-3.50605 -1.87103,-5.23453 -1.28191,-1.34757 -1.29485,-1.35241 -2.9917,-1.12031 -0.93734,0.12823 -2.04907,0.36358 -2.47054,0.52305 -0.42147,0.15945 -2.44421,0.49426 -4.49499,0.74405 -3.87178,0.47156 -12.3393,1.89589 -13.982,2.35197 -1.40156,0.38907 -1.34123,0.91576 0.1318,1.15129 1.89849,0.30361 8.05566,2.43166 9.03813,3.12379 0.46369,0.32666 2.20203,1.23757 3.86302,2.02422 1.66099,0.78665 3.40309,1.73163 3.87131,2.09993 1.30711,1.02816 3.56233,2.25394 4.15481,2.25828 0.2923,0.003 1.15919,-0.51432 1.92642,-1.14767 z m 393.73538,-7.99898 c 0.0447,-1.5893 -0.0614,-3.07023 -0.23576,-3.29097 -0.48386,-0.61241 -3.21276,-0.46533 -7.07026,0.38108 -3.35101,0.73528 -4.70548,1.31809 -4.17847,1.79789 0.13992,0.12741 1.84371,0.77266 3.78619,1.4339 1.94247,0.66125 4.18194,1.54175 4.97659,1.9567 2.41361,1.26033 2.62718,1.08153 2.72171,-2.2786 z m 20.78312,-2.45333 1.3781,-1.32962 -1.0832,-0.45341 c -1.553,-0.65007 -2.3555,-0.43846 -2.672,0.70459 -0.3352,1.21098 -0.068,2.40802 0.5371,2.40802 0.2541,0 1.0821,-0.59831 1.84,-1.32958 z m 10.8497,-0.14198 c 0,-0.27962 -0.1716,-0.45117 -0.3813,-0.38127 -0.5953,0.19842 -0.6941,0.88962 -0.1271,0.88962 0.2796,0 0.5084,-0.22876 0.5084,-0.50835 z m -355.60256,-2.04223 0.90561,-0.94523 -1.35386,-3.08703 c -0.74462,-1.69785 -1.75583,-4.27617 -2.24713,-5.72959 -0.49127,-1.45342 -1.12311,-3.08712 -1.40408,-3.63041 -0.62396,-1.20664 -4.9971,-5.31345 -5.48513,-5.15109 -0.19325,0.0643 -0.57086,0.71031 -0.83915,1.43564 -0.26828,0.7253 -0.81009,1.66179 -1.20401,2.08111 -0.94632,1.00733 -0.90356,1.4103 0.21088,1.98659 2.08503,1.07822 4.63982,4.15908 6.4346,7.75959 2.41808,4.85089 3.23196,6.22565 3.68566,6.22565 0.21509,0 0.79857,-0.42535 1.29661,-0.94523 z m -94.18133,-4.64402 c 1.83462,-0.60185 3.62466,-1.14565 3.97783,-1.20842 0.35318,-0.0628 0.64214,-0.31651 0.64214,-0.56386 0,-0.49509 -3.53575,-1.46456 -6.63061,-1.81806 -1.58474,-0.18099 -1.85646,-0.129 -2.14507,0.41026 -0.29185,0.54534 -0.22151,2.75771 0.12313,3.87301 0.17206,0.5567 0.27959,0.53824 4.03258,-0.69293 z m 100.58989,0.3865 c 0.74768,-0.24799 2.24714,-1.34682 3.71289,-2.72094 2.36648,-2.21853 2.47256,-2.38103 2.8295,-4.33445 0.25165,-1.37729 0.27628,-2.70013 0.0766,-4.11644 -0.25134,-1.78297 -0.44864,-2.21965 -1.3546,-2.99803 -2.13306,-1.8326 -3.03479,-2.40789 -5.39488,-3.4419 -2.18263,-0.95624 -2.90209,-1.09315 -7.68642,-1.46267 -2.90315,-0.22423 -5.39546,-0.33539 -5.53846,-0.247 -0.61456,0.37983 -0.0759,1.12115 3.03331,4.17485 3.52346,3.46046 4.13188,4.45135 5.39799,8.7908 1.19252,4.08723 2.58089,7.13463 3.16222,6.9409 0.27921,-0.093 1.07199,-0.35632 1.76181,-0.58512 z m -120.10082,-1.45946 c 0.0813,-0.13244 0.0537,-1.38413 -0.0613,-2.78152 l -0.20912,-2.54073 -3.37123,-0.11973 c -3.58739,-0.1274 -6.42141,0.32856 -6.42141,1.03311 0,0.62314 1.86481,1.67088 5.72594,3.21713 3.60989,1.44561 4.09884,1.57998 4.33714,1.19174 z m -13.33154,-2.57328 c 0.1282,-0.89864 -0.666,-1.25092 -1.7286,-0.76678 -0.97389,0.44372 -0.99128,0.81221 -0.0598,1.2665 1.03699,0.50571 1.6702,0.32877 1.78839,-0.49972 z m 104.69792,-1.54052 c 2.36815,-0.27555 5.03933,-0.68873 5.93598,-0.9182 1.54275,-0.39482 1.63248,-0.47563 1.6713,-1.50531 0.0492,-1.30585 0.79253,-3.91654 1.51003,-5.30331 0.28585,-0.55246 0.89113,-1.99127 1.34509,-3.19734 0.45396,-1.20607 1.02479,-2.41561 1.26852,-2.68781 0.24369,-0.27223 0.8291,-1.50633 1.30084,-2.74245 0.68514,-1.79514 3.14254,-8.08147 3.92046,-10.02898 0.20934,-0.52412 -0.98408,-0.95249 -4.71135,-1.69105 -6.04379,-1.19759 -12.47393,-3.11428 -15.32898,-4.56925 -3.08302,-1.57115 -6.89126,-3.7421 -8.19253,-4.67035 -0.8342,-0.59504 -1.64683,-1.00148 -1.80589,-0.9032 -0.35803,0.22128 -0.60461,2.442 -0.98517,8.87252 -0.1624,2.74428 -0.51176,5.85064 -0.77632,6.90301 -0.26456,1.05234 -0.57738,2.85252 -0.69515,4.00034 -0.11777,1.14783 -0.40166,2.88161 -0.63084,3.85284 -0.22921,0.97124 -0.41691,2.50734 -0.41713,3.41353 -2.6e-4,0.97066 -0.36811,2.70761 -0.89527,4.22737 -1.20424,3.47157 -0.99047,3.81412 3.12109,5.00124 1.64783,0.4758 4.15192,1.21352 5.56463,1.63942 3.09316,0.93248 3.34831,0.94138 8.80069,0.30698 z m 290.17607,-3.35108 c 0.8927,-1.80807 2.61826,-2.39136 4.27409,-1.44481 0.63584,0.36348 2.50431,0.46224 8.98996,0.47515 4.50301,0.009 8.34414,0.12242 8.53582,0.25217 0.19168,0.12974 0.49165,0.49817 0.6666,0.81873 0.26029,0.47685 0.39277,0.24934 0.72864,-1.25147 0.29962,-1.33893 0.34338,-3.05704 0.16201,-6.36211 -0.13665,-2.49028 -0.19819,-4.96124 -0.13677,-5.491 0.31037,-2.6776 0.24086,-2.89355 -0.9138,-2.83929 -0.60416,0.0286 -1.39794,0.35732 -1.82063,0.75442 -0.89075,0.8368 -3.18916,1.23965 -8.50881,1.49143 -3.87227,0.18327 -6.87518,-0.33548 -7.70081,-1.33032 -0.20494,-0.24693 -1.19229,-0.61758 -2.1941,-0.82364 -2.74649,-0.56492 -5.33011,-2.13971 -4.98519,-3.03858 0.14853,-0.38705 0.99281,-0.47489 4.56472,-0.47489 2.41037,0 4.8872,0.14564 5.50411,0.3236 2.2438,0.64741 6.35366,0.41817 10.5932,-0.59086 2.20736,-0.52537 4.49633,-1.05578 5.08662,-1.17871 1.81192,-0.37729 1.99359,-1.28762 2.07042,-10.37475 0.0531,-6.28061 -0.0888,-9.53161 -0.68404,-15.6672 l -0.75108,-7.74212 1.00848,-4.05258 c 0.87296,-3.50789 1.00848,-4.61763 1.00848,-8.2569 0,-3.50461 -0.38997,-7.81935 -0.86056,-9.52115 -0.25914,-0.9371 -2.42797,-0.8902 -12.49705,0.27038 -1.5893,0.18317 -4.30199,0.54781 -6.02822,0.81028 -1.72624,0.26248 -4.71553,0.54316 -6.64288,0.62374 l -3.50426,0.14654 -1.10522,-0.9704 c -0.60785,-0.53368 -1.45583,-0.97037 -1.88439,-0.97037 -0.42857,0 -1.02457,-0.1806 -1.32451,-0.40134 -0.72145,-0.53099 -2.31884,-6.60448 -2.78532,-10.59021 -0.20115,-1.71892 -0.51192,-3.59718 -0.69053,-4.17392 -0.33513,-1.08203 -0.48176,-5.41282 -0.73945,-21.84006 -0.15681,-9.99469 -0.2845,-11.54029 -1.00267,-12.13632 -0.23994,-0.19913 -1.6016,-0.44196 -3.02593,-0.53956 -2.45994,-0.16863 -2.74605,-0.11501 -5.71075,1.07032 -4.9107,1.96331 -6.88442,4.34851 -9.25334,11.18239 -1.44061,4.15587 -1.03243,7.02556 2.67516,18.80662 2.57077,8.1689 2.58866,8.21298 4.40996,10.88069 0.91759,1.34403 2.28047,3.56943 3.02856,4.94528 1.36436,2.50923 3.95937,9.60254 4.37831,11.96774 0.12303,0.69473 0.49477,2.419 0.82605,3.83171 0.38069,1.6233 0.60319,3.77511 0.6046,5.84711 0,2.13916 0.2254,4.23559 0.64439,6.03249 0.35318,1.51468 0.64214,3.17644 0.64214,3.69279 0,0.51634 0.64991,2.73163 1.44427,4.92291 0.79436,2.19127 1.87396,5.38001 2.39914,7.08608 1.25423,4.07454 4.34941,11.9145 5.14476,13.0315 0.34538,0.48501 0.77988,1.28142 0.96556,1.7698 0.44253,1.16398 -0.22257,2.21815 -1.709,2.70875 -1.02986,0.33985 -1.12782,0.50619 -1.80245,3.05989 -0.60843,2.30317 -0.87659,2.825 -1.82265,3.54661 l -1.10924,0.84605 1.41586,1.98219 c 2.64713,3.70595 5.64708,7.75825 6.52935,8.81977 1.06123,1.27686 2.28065,1.30444 2.89239,0.0654 z m 99.63197,-3.37124 c 1.4193,-1.46436 2.6617,-1.48588 5.098,-0.0884 1.6824,0.96508 2.0013,1.0335 4.6946,1.00768 1.7259,-0.0167 3.9888,-0.29387 5.6188,-0.6886 5.1026,-1.23567 7.8093,-1.46257 10.2236,-0.85703 l 2.1376,0.53612 2.3277,-2.46745 c 2.5678,-2.72194 2.9,-3.47331 2.4002,-5.42901 -0.9747,-3.81457 -4.4702,-11.75913 -5.1738,-11.75913 -0.6833,0 -1.0197,0.88756 -0.6466,1.70626 0.8526,1.87126 -0.3652,3.15882 -3.4068,3.60202 -0.8806,0.1283 -2.0251,0.44876 -2.5433,0.7121 -1.2315,0.62583 -16.5289,0.9279 -18.8895,0.37299 -1.9003,-0.44667 -3.1248,-0.18551 -3.1248,0.66641 0,0.34435 -0.2897,1.18196 -0.6438,1.86131 -0.5923,1.13643 -0.6224,1.5545 -0.3755,5.22728 0.1475,2.19567 0.2054,4.60614 0.1285,5.35664 -0.1207,1.17762 -0.056,1.36455 0.473,1.36455 0.3371,0 1.103,-0.50569 1.7021,-1.12375 z m -112.69568,-9.95317 c 0,-0.81973 -0.43823,-1.07132 -0.81218,-0.46623 -0.26709,0.43216 0.0501,1.2689 0.48103,1.2689 0.18215,0 0.33115,-0.3612 0.33115,-0.80267 z m 149.94338,-2.4883 c 0.3499,-0.57391 0.6367,-1.38885 0.6374,-1.81099 0,-1.35136 -1.3826,-3.64765 -3.6383,-6.03349 -2.032,-2.14925 -3.4241,-4.22137 -3.4241,-5.09673 0,-0.81231 1.2161,-1.49269 2.2588,-1.26367 1.1192,0.24581 4.0939,3.09364 6.8356,6.54412 l 1.6302,2.05163 1.3693,-1.57003 c 1.3334,-1.52881 1.3647,-1.61633 1.1926,-3.33589 -0.3413,-3.40886 -2.8981,-9.59428 -4.1672,-10.08128 -0.2766,-0.10611 -1.2326,-0.19296 -2.1244,-0.19296 -1.0789,0 -1.9809,-0.22218 -2.696,-0.66414 -0.6036,-0.37305 -1.4645,-0.61931 -1.9643,-0.56187 -0.8323,0.0956 -0.9784,0.36152 -2.2621,4.11564 -0.7548,2.20736 -1.5365,4.47935 -1.7371,5.04886 -0.3469,0.9853 -0.2956,1.10975 1.0602,2.56856 1.523,1.63858 3.4875,5.21242 4.9461,8.99796 0.4933,1.28027 1.0207,2.32776 1.172,2.32776 0.1513,0 0.5613,-0.46956 0.9113,-1.04348 z m -152.51194,-6.64194 c 0,-1.01796 0.93926,-2.88155 2.09974,-4.16602 0.97756,-1.08207 1.08091,-1.34965 0.80331,-2.07983 -0.66089,-1.7383 -1.59517,-0.66635 -2.90042,3.32793 -0.93482,2.86067 -1.04819,4.1481 -0.32598,3.70174 0.17784,-0.10993 0.32335,-0.46263 0.32335,-0.78382 z m 122.32774,0.49191 c 7.7567,-0.17444 14.4717,-0.55385 15.315,-0.86529 0.4821,-0.17806 0.8148,-0.69826 1.0486,-1.63948 0.4894,-1.97066 1.2955,-4.63108 2.0227,-6.6763 0.9621,-2.70515 2.0089,-6.00909 2.7469,-8.6689 0.3674,-1.32441 1.0222,-3.63612 1.4551,-5.13712 0.8609,-2.9855 1.3704,-6.41951 0.9532,-6.42465 -0.1451,-0.003 -1.1308,0.28088 -2.1903,0.62818 -8.6164,2.82419 -16.9378,4.08311 -24.8279,3.7561 -4.2649,-0.17678 -7.3335,-0.56316 -9.4266,-1.18696 -1.2542,-0.37379 -1.5457,0.17386 -2.1002,3.94505 -0.5653,3.84424 -0.34,5.26003 1.9039,11.96455 1.1959,3.57332 1.2751,4.0287 1.0921,6.27683 -0.149,1.8292 -0.086,2.57598 0.2555,3.04343 0.5621,0.76867 3.1362,1.43129 4.849,1.24822 0.7064,-0.0755 3.8127,-0.19415 6.903,-0.26366 z m -432.80267,-3.59695 c 1.32442,-0.2557 3.25581,-0.6057 4.29197,-0.77773 2.15618,-0.35799 3.94352,-1.27012 4.82527,-2.46251 0.50976,-0.68937 0.62191,-1.4828 0.68915,-4.87462 0.0442,-2.22816 -0.0355,-5.85722 -0.17704,-8.06458 -0.55783,-8.69856 -0.37835,-13.83238 0.54434,-15.5719 0.40497,-0.76344 2.34805,-7.67991 2.34805,-8.35788 0,-0.25936 -0.11253,-0.47155 -0.25005,-0.47155 -0.65267,0 -4.57942,1.8893 -6.00741,2.89037 -0.88109,0.61764 -2.48878,1.70093 -3.57265,2.40728 -1.0839,0.70636 -2.74695,1.79976 -3.69571,2.42977 -2.6017,1.72761 -5.70943,3.23584 -7.50428,3.64193 -1.37379,0.31079 -1.65171,0.50568 -1.92687,1.35113 -0.17685,0.54338 -0.50999,1.21499 -0.74029,1.49249 -0.44292,0.53372 -3.79187,1.63521 -6.082,2.00043 -0.75051,0.11969 -1.36455,0.35228 -1.36455,0.51686 0,0.16458 0.37343,0.89078 0.82987,1.61379 0.4564,0.72302 1.04309,1.91214 1.3037,2.64248 0.52046,1.45846 1.34439,7.60172 1.67105,12.45925 0.16397,2.43879 0.35459,3.30167 0.88872,4.02324 0.37398,0.5052 0.9869,1.52023 1.36204,2.25558 0.63357,1.24187 0.79077,1.34673 2.20967,1.47365 2.37817,0.21271 7.70081,-0.10461 10.35702,-0.61748 z m 55.71391,-5.85957 c 0.43563,-0.94025 1.02097,-2.59296 1.30075,-3.67272 0.27981,-1.07973 0.71377,-2.3597 0.96443,-2.84439 0.25063,-0.48469 0.4557,-1.50341 0.4557,-2.26384 0,-0.76045 0.15665,-1.88734 0.34813,-2.50425 0.19146,-0.6169 0.53487,-2.42196 0.76312,-4.01126 0.59475,-4.1411 1.68508,-8.67374 2.62456,-10.91073 1.84577,-4.39504 4.55804,-13.37588 5.87937,-19.46774 0.17682,-0.8152 0.75131,-2.7657 1.27668,-4.33445 0.52536,-1.56878 1.04707,-3.50246 1.15932,-4.29711 0.11224,-0.79465 0.42593,-2.02274 0.69707,-2.7291 0.31041,-0.80874 0.52232,-2.59203 0.57228,-4.81605 0.083,-3.69748 0.51262,-6.42882 1.2007,-7.63405 0.29491,-0.51654 0.41348,-2.7543 0.42902,-8.09839 0.0145,-4.93389 0.14644,-7.65101 0.39793,-8.18729 0.38436,-0.81953 1.66854,-6.48125 1.66854,-7.35617 0,-0.29529 -0.53538,0.0422 -1.37672,0.86792 -1.60663,1.57681 -2.67756,1.73339 -4.30022,0.62872 -1.2926,-0.87999 -1.33549,-1.53854 -0.25869,-3.97331 0.44376,-1.00341 0.73882,-1.89242 0.65569,-1.97551 -0.0831,-0.0831 -0.59494,0.22227 -1.13736,0.67871 -1.2549,1.05593 -2.83203,1.35645 -4.31133,0.82152 -1.42067,-0.51371 -1.54633,-1.59244 -0.34791,-2.98595 0.44125,-0.51311 0.80229,-1.13579 0.80229,-1.38378 0,-0.248 0.75609,-1.25032 1.68016,-2.22743 1.62279,-1.71583 1.65843,-1.79244 1.04348,-2.24242 -0.86217,-0.63087 -3.67179,-1.42234 -5.32068,-1.49882 -1.23509,-0.0573 -1.3736,0.0177 -1.66346,0.9007 -0.17393,0.52977 -0.58191,1.25628 -0.90664,1.6145 -1.03664,1.14353 -1.5929,3.26031 -1.36539,5.19604 0.24155,2.0552 1.71449,4.17549 4.08167,5.87546 2.56911,1.845 5.09545,5.72648 6.16234,9.46785 0.30213,1.05953 0.94366,2.50434 1.42565,3.2107 0.84595,1.23975 1.92642,4.31464 1.92642,5.48234 0,0.74526 -0.91935,1.74174 -1.60693,1.74174 -1.02617,0 -3.13589,-1.82522 -3.37663,-2.92129 -0.12489,-0.56871 -0.69463,-1.76952 -1.26611,-2.66842 -0.57144,-0.8989 -1.44173,-2.86247 -1.934,-4.36347 -1.33318,-4.06526 -1.85472,-4.8968 -4.24506,-6.76861 -4.15304,-3.25209 -4.95989,-4.20586 -5.46176,-6.45637 -0.24847,-1.11421 -0.43646,-2.20646 -0.41777,-2.42719 0.0186,-0.22074 0.0431,-0.79866 0.0541,-1.28428 0.0109,-0.48562 0.31176,-2.15352 0.66818,-3.70641 0.35642,-1.55292 0.5551,-2.91644 0.44144,-3.03006 -0.11363,-0.11363 -1.20109,0.0513 -2.41657,0.36659 -1.21551,0.31526 -2.50894,0.47833 -2.87428,0.36236 -0.39113,-0.12412 -1.25972,0.0526 -2.11226,0.42969 -0.79642,0.35228 -2.13679,0.73763 -2.97863,0.85633 -2.25748,0.31831 -12.98791,2.89807 -16.13931,3.88013 -1.501,0.46777 -4.02943,1.45965 -5.61873,2.20425 -3.99979,1.87386 -4.45581,2.01757 -7.5105,2.36657 l -2.69442,0.30784 -2.77013,2.75729 c -1.52355,1.51648 -3.01498,2.75726 -3.31432,2.75726 -0.29933,0 -0.6805,0.25284 -0.84711,0.56187 -0.1666,0.30903 -1.03856,1.55687 -1.93772,2.77299 -0.89916,1.21611 -1.63483,2.3815 -1.63483,2.58978 0,0.37739 -3.31945,4.35602 -5.03637,6.03654 -1.55346,1.52046 -2.07552,2.05748 -3.03036,3.11695 -0.95505,1.05975 -1.45538,1.13277 -1.98697,0.29002 -0.49124,-0.77879 1.37395,-4.22304 4.18431,-7.72678 3.00741,-3.74936 3.69816,-4.71315 6.92626,-9.66408 1.37592,-2.11027 2.42964,-3.90884 2.3416,-3.99688 -0.17836,-0.17835 -0.3152,-0.11379 -2.59579,1.22521 -4.82052,2.8302 -9.65407,4.7702 -12.6145,5.06292 l -2.15473,0.21306 0.11131,4.01547 c 0.104,3.75132 -0.10884,7.05767 -0.96099,14.92767 -0.19123,1.76589 -0.39903,6.0281 -0.46183,9.47158 -0.0628,3.44347 -0.16477,7.99465 -0.22664,10.11371 -0.18138,6.21056 0.65177,15.01671 1.55417,16.42752 0.56264,0.87967 1.07257,0.77292 4.80003,-1.00478 1.5893,-0.75796 3.97325,-1.88937 5.29766,-2.51421 2.60812,-1.2305 9.38549,-3.79161 14.76923,-5.58116 1.85418,-0.61633 3.6602,-1.24874 4.01338,-1.40536 4.33018,-1.92026 8.00743,-3.30266 10.33085,-3.88366 1.55816,-0.38966 3.61188,-1.13476 4.56379,-1.65576 2.12151,-1.16115 5.40804,-2.46955 6.20324,-2.46955 0.63739,0 0.60872,0.0569 2.34545,-4.65552 2.07254,-5.62361 2.74396,-7.66516 3.06208,-9.31103 0.38101,-1.97115 3.25832,-9.79264 3.60244,-9.79264 0.92256,0 0.75442,2.69843 -0.3701,5.93979 -0.18378,0.52977 -0.63138,2.52834 -0.99467,4.44127 -0.36326,1.91294 -0.95355,4.348 -1.31174,5.41122 -0.78803,2.33929 -1.32576,5.03885 -1.0822,5.43296 0.50858,0.82287 3.09685,-2.1416 4.49338,-5.1464 1.17647,-2.53135 2.14604,-3.38228 5.51731,-4.84222 1.7225,-0.74591 3.45182,-1.55655 3.84292,-1.80143 1.40234,-0.878 2.28974,-0.23862 1.72617,1.24373 -0.29857,0.78524 -3.47687,3.1271 -4.24407,3.1271 -0.9914,0 -3.46852,1.88458 -3.67555,2.79632 -1.14378,5.03731 -1.72373,6.3126 -3.4578,7.60391 -1.64266,1.22325 -7.55385,4.25014 -10.65735,5.4572 -3.56497,1.38654 -5.45668,2.36426 -7.55564,3.90505 -1.46816,1.07773 -1.60362,1.27959 -1.36545,2.03468 0.45627,1.44655 0.23762,7.73863 -0.35825,10.30986 -0.30695,1.32441 -0.67695,4.21404 -0.82226,6.4214 -0.14532,2.20736 -0.42144,4.42011 -0.61367,4.91722 -0.6719,1.73783 -0.46253,2.2632 1.33617,3.35294 0.92709,0.56168 2.60671,1.39537 3.73247,1.85264 1.12574,0.45727 2.35383,1.02839 2.7291,1.26916 1.61579,1.03673 6.7794,2.06548 12.08024,2.40674 6.45467,0.41553 7.74745,0.74431 9.18556,2.33601 1.52862,1.69185 1.43432,2.82821 -0.26928,3.24506 -1.18526,0.29002 -8.86138,-0.32813 -11.64538,-0.93782 -1.23612,-0.27069 -2.99446,-0.62043 -3.90739,-0.77715 -2.18469,-0.37507 -5.78672,-1.82701 -12.87084,-5.18811 -1.10496,-0.52424 -2.1347,-0.87552 -2.28827,-0.78058 -0.36602,0.22619 -1.00039,2.77026 -1.00039,4.01187 0,0.8056 0.15373,1.00739 0.88294,1.15893 1.0578,0.21984 3.61204,1.4917 3.61204,1.79861 0,0.4153 3.14524,2.47375 5.49894,3.5989 4.43504,2.1201 6.87473,2.90396 12.9626,4.16483 0.35318,0.0732 2.41628,0.11395 4.58469,0.0907 l 3.94252,-0.0424 z m -35.96414,-9.59746 c 0.10647,-0.66221 0.25805,-1.52024 0.3368,-1.90674 0.0788,-0.3865 0.033,-0.77082 -0.10161,-0.85405 -0.24906,-0.15392 -2.32609,1.54625 -2.32609,1.90401 0,0.3657 1.3265,2.06079 1.61267,2.06079 0.15655,0 0.37176,-0.5418 0.47823,-1.20401 z m -4.44506,-5.02083 c 2.66617,-1.31748 2.90261,-1.32798 3.97784,-0.17694 0.53005,0.56746 1.01131,0.97576 1.06942,0.90737 0.0581,-0.0684 0.42568,-1.19313 0.81684,-2.49943 0.39119,-1.30631 0.91466,-2.68563 1.16336,-3.06513 0.59494,-0.90805 1.21095,-5.42236 0.96446,-7.06823 -0.13725,-0.91653 0.0436,-2.092 0.61572,-4.00295 0.64949,-2.16918 0.81006,-3.39422 0.81006,-6.1806 0,-2.56647 -0.10496,-3.47501 -0.40134,-3.47452 -0.22073,0 -1.19598,0.41768 -2.16722,0.92728 -0.97124,0.50963 -2.59213,1.09655 -3.60202,1.30428 -1.00987,0.20773 -2.14976,0.63164 -2.53309,0.94205 -0.67335,0.54528 -0.67813,0.59315 -0.14056,1.41358 0.66185,1.01012 0.52084,2.38045 -0.61816,6.00745 -2.00861,6.3961 -2.90154,12.4476 -2.21484,15.01003 0.24119,0.90006 0.35299,0.89787 2.25953,-0.0442 z m 421.99296,-6.43316 c 1.501,-0.25226 3.8017,-0.63135 5.1126,-0.84245 2.1859,-0.35199 8.4447,-2.35152 10.2552,-3.2763 1.182,-0.60377 3.1775,-0.42407 4.0136,0.36143 0.9594,0.90134 1.0772,0.86952 1.3336,-0.3606 0.1197,-0.57391 0.3967,-1.33244 0.6156,-1.68561 0.6721,-1.08452 1.4388,-3.67083 1.1425,-3.85397 -0.3327,-0.20561 -4.7532,0.65302 -6.5801,1.27808 -0.7064,0.24167 -3.0181,0.7497 -5.1371,1.12898 -2.1191,0.37925 -5.1532,0.96013 -6.7425,1.29083 -3.6228,0.75381 -10.1689,1.393 -13.301,1.29876 -1.3115,-0.0394 -3.6143,-0.34049 -5.1174,-0.66895 -1.5031,-0.32848 -2.8502,-0.52478 -2.9934,-0.43627 -0.1433,0.0885 -0.2604,1.02117 -0.2604,2.07248 v 1.91152 l 1.8058,0.79863 c 0.9932,0.43926 2.4019,0.80695 3.1304,0.81713 0.7286,0.0103 1.9025,0.13806 2.6089,0.28415 2.0951,0.43334 7.1869,0.37401 10.1137,-0.11784 z m -451.26422,-3.02143 c 0.17658,-0.29403 0.87389,-1.06441 1.54958,-1.71195 l 1.22854,-1.1773 -1.12098,-0.53194 c -1.64456,-0.7804 -2.74663,-2.62745 -3.96445,-6.64433 -1.49417,-4.92836 -1.96049,-10.24843 -1.44007,-16.42913 0.21031,-2.49789 0.45853,-7.43127 0.55157,-10.96304 0.0931,-3.53177 0.30476,-7.6495 0.4705,-9.1505 0.70012,-6.3412 1.01474,-11.98247 0.88638,-15.89298 -0.12371,-3.76849 -0.23788,-4.43025 -1.17535,-6.81304 -0.73329,-1.86388 -1.07513,-3.32578 -1.16375,-4.97659 -0.069,-1.2856 -0.2767,-3.92675 -0.46157,-5.86923 -0.93194,-9.7929 -1.02373,-12.78938 -0.69142,-22.5651 0.38011,-11.18185 0.22398,-13.63473 -1.21673,-19.11546 -0.54858,-2.08683 -0.9974,-4.12624 -0.9974,-4.53194 0,-0.40574 -0.27731,-1.09023 -0.61627,-1.52111 -0.55362,-0.70385 -1.01843,-0.82601 -4.57525,-1.20237 -2.17743,-0.2304 -5.18708,-0.62371 -6.68808,-0.87405 -1.62703,-0.27131 -6.22983,-0.52248 -11.398,-0.62191 -4.76789,-0.0918 -10.90836,-0.39238 -13.64548,-0.66805 -2.73713,-0.27568 -6.42141,-0.61187 -8.18729,-0.7471 -1.76589,-0.13521 -4.36656,-0.47008 -5.77927,-0.74412 -1.41271,-0.27403 -4.01338,-0.5941 -5.77926,-0.71126 -1.76589,-0.11716 -5.3282,-0.62381 -7.91624,-1.12593 -2.58805,-0.50209 -6.48905,-1.07886 -8.6689,-1.28171 -2.17985,-0.20282 -5.19145,-0.5778 -6.69246,-0.83328 -1.60675,-0.27342 -4.59359,-0.44869 -7.26281,-0.42612 -4.36583,0.0369 -10.28239,-0.33684 -15.71037,-0.99246 -1.42188,-0.17174 -3.90478,-0.31227 -5.51756,-0.31227 -1.61279,0 -3.32869,-0.15068 -3.81312,-0.33488 -0.77774,-0.29571 -0.96749,-0.22995 -1.62204,0.56187 -1.81097,2.19082 -3.09581,6.19984 -3.99177,12.45528 -0.43365,3.02769 -0.43239,23.19986 0.002,25.84615 0.18825,1.14783 0.62681,3.10973 0.97459,4.35975 1.34182,4.82302 2.55456,14.43846 2.48723,19.72052 -0.0308,2.41692 0.51895,18.17858 0.64131,18.38641 0.14103,0.23952 0.44068,1.84833 2.137,11.47312 1.0384,5.89183 2.11432,16.1314 2.47962,23.59866 0.28227,5.77021 0.53366,9.00034 0.80495,10.34302 0.16397,0.81154 1.38906,1.2281 4.47162,1.5204 4.11243,0.38997 5.55837,0.59581 8.34783,1.18841 10.97814,2.33222 10.57471,2.27857 17.8194,2.37001 9.79567,0.12364 13.32152,0.37276 15.89429,1.12307 4.46253,1.30143 7.12254,1.87104 10.43347,2.2342 1.85418,0.2034 5.10502,0.64038 7.22408,0.97108 2.11906,0.3307 5.86245,0.75962 8.31864,0.95319 2.45619,0.19357 4.56864,0.41553 4.69434,0.4932 0.29288,0.18102 10.80494,1.05523 13.22302,1.09966 3.97,0.073 12.51984,0.62012 12.71332,0.81363 0.1126,0.1126 2.95362,0.11192 6.31333,0 5.21451,-0.17611 6.15559,-0.28454 6.42966,-0.74094 z m 6.83404,-4.77865 c 1.98855,-1.25872 4.24288,-3.02149 4.24288,-3.31771 0,-0.28688 -5.59783,-0.13151 -6.63755,0.1842 -0.26254,0.0797 -0.18959,0.48141 0.2408,1.32557 0.3396,0.66615 0.61749,1.46957 0.61749,1.7854 0,0.72045 0.42397,0.72668 1.53638,0.0225 z m 442.82488,-2.95728 c 4.9315,-0.64333 12.5564,-2.27687 18.087,-3.87496 4.321,-1.24855 5.1539,-1.24287 6.3555,0.0434 0.5175,0.554 1.0029,0.94529 1.0787,0.86952 0.267,-0.267 1.1276,-3.94923 1.1276,-4.82472 0,-0.48761 0.3391,-1.65345 0.7536,-2.59069 0.8478,-1.91695 1.6325,-4.89375 1.3924,-5.28225 -0.087,-0.14082 -6.6376,-0.22507 -14.5568,-0.18718 -14.0596,0.0672 -22.8651,0.4398 -27.723,1.17303 l -2.408,0.36345 -0.077,1.44482 c -0.042,0.79465 -0.1682,3.55225 -0.2797,6.12801 l -0.2027,4.68323 1.885,1.08634 c 1.7123,0.98677 2.1939,1.10429 5.2562,1.28216 1.8542,0.10769 3.6602,0.21768 4.0134,0.24446 0.3532,0.0267 2.7371,-0.22462 5.2977,-0.55863 z M 943.10407,625.18638 c 7.4801,-1.26974 11.46583,-1.56705 22.18155,-1.6547 8.18264,-0.067 11.29355,0.0186 13.00335,0.35802 1.23612,0.2453 3.3311,0.53381 4.65552,0.64111 4.16258,0.33729 21.79551,0.46896 23.37151,0.17454 0.9051,-0.16911 3.1335,-0.14891 5.586,0.0506 4.0092,0.32614 5.4301,0.2418 11.6579,-0.69194 1.0595,-0.15883 3.432,-0.37886 5.2721,-0.48895 1.8402,-0.11007 4.3687,-0.42327 5.6188,-0.69602 1.2501,-0.27275 3.3059,-0.48395 4.5685,-0.46931 1.2625,0.0148 3.8682,-0.18083 5.7905,-0.43438 1.9222,-0.25354 6.2351,-0.48658 9.5841,-0.51791 3.349,-0.0315 9.007,-0.19017 12.5734,-0.35299 5.2424,-0.23936 6.9334,-0.20824 8.8294,0.1624 1.2898,0.25217 2.598,0.56332 2.907,0.69142 0.4927,0.2043 0.5648,0.0212 0.5853,-1.487 0.013,-0.946 0.1592,-2.51462 0.3252,-3.48586 0.1659,-0.97124 0.4338,-6.17258 0.5952,-11.55853 0.2521,-8.41307 0.5612,-16.60517 0.8058,-21.35117 0.036,-0.70635 -0.103,-3.01806 -0.3097,-5.13712 -0.5442,-5.57802 -0.5536,-11.7514 -0.032,-20.83984 0.2526,-4.39837 0.4055,-8.15489 0.3398,-8.34782 -0.1442,-0.42359 -0.334,-5.1656 -0.7851,-19.61502 -0.5279,-16.91064 -0.4469,-15.99594 -1.9204,-21.67224 -0.6689,-2.57687 -0.969,-4.20094 -0.969,-5.24413 0,-0.60885 -0.3635,-2.50618 -0.8079,-4.21636 -0.4443,-1.71015 -0.887,-4.43501 -0.9837,-6.05519 -0.2932,-4.91235 0.5156,-4.38399 -6.641,-4.33818 -5.1688,0.0331 -27.2638,-0.21229 -41.3333,-0.45906 -2.0308,-0.0356 -7.6655,0.13263 -12.5217,0.37388 -6.4675,0.3213 -12.6086,0.3764 -22.95655,0.20594 -18.47377,-0.30431 -24.32418,-0.34506 -28.41472,-0.19788 -1.85418,0.0667 -8.64481,-0.0716 -15.0903,-0.30736 -13.98697,-0.51159 -19.17094,-0.53185 -19.62606,-0.0767 -0.38063,0.38063 -0.48199,3.67946 -0.34797,11.32511 0.11831,6.75175 -0.15367,26.25442 -0.39852,28.57525 -0.94648,8.97179 -0.79946,14.9 0.64795,26.12417 0.27022,2.0954 0.61868,6.39109 0.77436,9.54602 0.15569,3.15494 0.35138,5.84721 0.43489,5.98286 0.0835,0.13562 0.2445,1.76367 0.35783,3.61785 0.11334,1.85418 0.34882,4.67157 0.52325,6.26087 0.17447,1.5893 0.38185,5.8515 0.4609,9.47157 0.079,3.62007 0.22025,7.52107 0.31388,8.6689 0.0936,1.14782 0.24398,4.4709 0.33417,7.38461 0.14775,4.77358 0.49692,8.19856 1.42382,13.96656 0.17026,1.05953 0.44747,2.82429 0.616,3.92171 0.16853,1.09738 0.39887,2.14488 0.51188,2.32776 0.3011,0.48716 5.2887,0.40753 8.48772,-0.13549 z M 1086.281,601.212 c 0.6463,-1.38719 1.1281,-2.99941 1.2233,-4.09365 0.086,-0.99284 0.3546,-2.67204 0.5961,-3.73157 0.8068,-3.54099 0.9401,-8.15519 0.3168,-10.96555 -0.6181,-2.78711 -1.952,-5.70593 -3.0587,-6.69331 l -0.7198,-0.64214 0.2687,3.6923 c 0.2808,3.85824 0.2539,7.51285 -0.1204,16.37458 -0.2377,5.62718 -0.1726,8.34783 0.1998,8.34783 0.1254,0 0.7077,-1.02983 1.2942,-2.28849 z M 603.68154,579.28756 c 1.80374,-0.6364 6.70536,-3.02834 8.40941,-4.10367 0.78508,-0.49544 1.68324,-0.90079 1.99596,-0.90079 0.31273,0 1.32057,-0.66789 2.23969,-1.48421 0.91913,-0.81632 2.16363,-1.68999 2.76551,-1.94145 1.06188,-0.44369 1.08772,-0.49734 0.8711,-1.80676 -0.12278,-0.74225 -0.29786,-1.4749 -0.38908,-1.62818 -0.26867,-0.45139 -2.84465,0.0445 -4.49389,0.86513 -1.80567,0.89848 -5.3237,2.11604 -8.95982,3.10099 -1.84862,0.50071 -3.26133,0.67614 -4.81281,0.59761 l -2.19612,-0.11116 -0.17517,0.96321 c -0.24434,1.34336 0.15459,3.5757 0.96109,5.37793 0.77082,1.72254 1.41865,1.90594 3.78413,1.07135 z m 84.52046,-5.02555 c 0,-0.58779 -0.64757,-1.58426 -1.02948,-1.58426 -0.42619,0 -1.53908,0.9485 -1.53908,1.3117 0,0.24054 0.8431,0.48045 2.00669,0.57099 0.30903,0.0241 0.56187,-0.11026 0.56187,-0.29843 z m -84.60201,-7.01285 c 1.41271,-0.39424 3.47157,-1.06785 4.57525,-1.49696 1.10368,-0.42908 2.9097,-1.12911 4.01338,-1.55562 1.10368,-0.42651 2.94582,-0.95101 4.09364,-1.16555 2.82295,-0.52764 2.95613,-0.68693 2.54404,-3.04217 -0.18475,-1.0559 -0.53497,-3.22014 -0.77828,-4.80944 -0.2433,-1.5893 -0.67678,-3.75652 -0.9633,-4.81605 -0.60413,-2.2342 -0.68867,-6.55998 -0.15999,-8.18729 0.56222,-1.73067 1.04158,-9.58244 1.13687,-18.62208 0.1327,-12.58987 0.37338,-21.29915 0.60394,-21.85438 0.13539,-0.32601 -0.23159,-1.00437 -1.0422,-1.92642 -0.68815,-0.78277 -1.62773,-2.16732 -2.08798,-3.07678 -0.46022,-0.9095 -1.39695,-2.30083 -2.0816,-3.09185 -0.68465,-0.79105 -1.66475,-2.12266 -2.17804,-2.95917 -0.94619,-1.54201 -3.59088,-4.71363 -5.90185,-7.0778 -1.48845,-1.52271 -2.64408,-3.99723 -3.1897,-6.83007 -0.21474,-1.11491 -0.67245,-2.68504 -1.01712,-3.48916 -0.3447,-0.80409 -0.82907,-2.70926 -1.07645,-4.2337 -0.71599,-4.41264 -1.36137,-6.83797 -2.23549,-8.40085 -0.44763,-0.80037 -0.98032,-2.24519 -1.18372,-3.2107 -0.20343,-0.96551 -0.72841,-2.61537 -1.16667,-3.66637 -0.72402,-1.73635 -0.76463,-2.07117 -0.44443,-3.66558 0.19383,-0.96508 0.35241,-2.80266 0.35241,-4.0835 0,-1.73079 0.29785,-3.34537 1.15996,-6.28759 0.638,-2.17733 1.30637,-4.60336 1.4853,-5.39117 0.49686,-2.18778 3.33194,-7.2182 5.59828,-9.9333 1.11688,-1.33805 2.03071,-2.66174 2.03071,-2.94155 0,-0.31557 -1.1277,-1.09903 -2.9699,-2.06331 -1.63345,-0.85501 -3.5799,-1.9684 -4.32549,-2.47418 -1.3834,-0.93848 -4.26032,-1.97988 -8.27652,-2.99599 -1.23612,-0.31274 -3.09785,-0.99266 -4.13718,-1.51094 l -1.88966,-0.94233 -3.26699,0.38718 c -3.82054,0.45278 -4.71334,0.37195 -9.00718,-0.8155 l -3.2107,-0.88792 -12.52174,-0.0897 c -13.27579,-0.0951 -17.14285,0.13775 -19.1312,1.15213 -0.82158,0.41913 -1.90304,0.63278 -3.25066,0.64219 -1.11071,0.008 -2.5974,0.22928 -3.30376,0.49229 -0.70635,0.26301 -2.06131,0.61331 -3.01101,0.77844 -0.9497,0.16514 -2.73716,0.81357 -3.97212,1.44096 -1.29821,0.65952 -3.07544,1.262 -4.21307,1.42824 -1.08222,0.15813 -2.90681,0.71596 -4.05463,1.23961 -1.14783,0.52366 -2.69369,1.05284 -3.43524,1.17595 -1.59532,0.26485 -3.98447,2.20973 -4.89477,3.98457 -0.32861,0.6407 -0.99002,1.52611 -1.46981,1.96758 -1.21764,1.12041 -2.20419,2.75712 -2.86306,4.74991 -0.30909,0.93485 -0.89174,2.30743 -1.29477,3.05016 -1.45626,2.68371 -1.85929,5.14597 -1.64418,10.04481 0.57027,12.98695 0.57034,13.07176 0.0127,16.50964 -1.01261,6.24329 -0.96298,9.16611 0.26169,15.41137 0.48989,2.49825 0.37538,7.92398 -0.25073,11.8796 -0.65268,4.1235 -0.66032,11.2196 -0.0176,16.37458 0.40724,3.26644 0.40457,3.77861 -0.0231,4.44066 -0.93523,1.44767 -0.48591,1.63428 3.80375,1.57982 2.72185,-0.0345 4.69714,0.11957 6.35692,0.49602 1.32441,0.3004 4.35853,0.69059 6.74247,0.86709 4.37617,0.32402 5.1391,0.43264 11.23746,1.59976 1.85418,0.35488 5.17726,0.79789 7.38462,0.9845 2.20736,0.18661 4.95251,0.48504 6.10033,0.6632 1.14783,0.17813 4.47091,0.52537 7.38462,0.7716 2.91371,0.24626 6.23679,0.59314 7.38461,0.77086 1.14783,0.17774 5.48228,0.32482 9.63211,0.32688 8.55575,0.004 13.34175,0.32595 19.58529,1.31671 2.38394,0.37828 5.12909,0.7644 6.10033,0.85799 0.97124,0.0936 2.03411,0.40593 2.36192,0.69403 1.11861,0.98311 1.87313,3.02458 2.61422,7.07308 0.40737,2.22537 0.98273,5.05746 1.27863,6.29358 0.72674,3.03624 0.82473,6.83077 0.42699,16.53512 -0.31526,7.69198 0.0148,18.57623 0.61026,20.12815 0.23072,0.60124 1.55639,0.467 5.06919,-0.51326 z m 74.00965,-13.82214 c 8.03642,-0.0132 15.83842,-0.16516 17.33779,-0.33773 1.49936,-0.17255 6.91611,-0.38795 12.03718,-0.47869 10.03181,-0.17768 34.05525,-0.97958 39.81271,-1.32891 1.94248,-0.11786 4.32642,-0.25926 5.29766,-0.3142 0.97124,-0.0549 7.32843,-0.17106 14.12709,-0.25804 6.79866,-0.087 14.67291,-0.2382 17.49833,-0.33603 3.99215,-0.13822 15.9596,-0.21351 19.10368,-0.12018 0.26488,0.008 2.35986,-0.003 4.65552,-0.0228 2.29565,-0.0205 13.20401,0.0509 24.2408,0.15845 23.88069,0.23281 20.63859,0.25381 26.4883,-0.17151 4.35246,-0.31648 10.25276,-0.27555 23.11705,0.16037 2.29566,0.0778 7.64148,0.19467 11.8796,0.25968 4.23813,0.065 9.80067,0.23092 12.36121,0.36866 3.85756,0.20747 5.19857,0.15244 7.82381,-0.32114 2.92999,-0.52851 5.2353,-0.54505 9.67452,-0.0693 0.51901,0.0556 0.66044,-0.14875 0.73766,-1.06599 0.0525,-0.62416 -0.0365,-1.49105 -0.19791,-1.92642 -0.28778,-0.77632 -0.36734,-0.79263 -4.1089,-0.8431 -2.09851,-0.0282 -8.72784,-0.20192 -14.73186,-0.38576 -6.52614,-0.19987 -13.47339,-0.22671 -17.27438,-0.0667 -4.45963,0.1877 -6.76039,0.1605 -7.70569,-0.0911 -1.89351,-0.50392 -41.27367,-0.46851 -45.65538,0.0411 -7.38565,0.85889 -12.51741,1.11305 -23.91974,1.18471 -16.04821,0.10085 -32.31129,0.43903 -39.01003,0.81122 -3.00201,0.16679 -7.19197,0.38515 -9.31104,0.48523 -2.11906,0.10008 -6.73018,0.40474 -10.24689,0.67698 -4.30478,0.33327 -11.38628,0.51323 -21.67224,0.55076 l -15.27819,0.0558 -5.13713,-1.08194 -5.13712,-1.08194 -8.82943,0.25978 c -11.41871,0.33593 -33.10148,0.38827 -41.097,0.0992 -16.13236,-0.58325 -21.59492,-0.43004 -31.55301,0.8851 -1.21779,0.16082 -1.66334,0.0844 -2.16723,-0.37158 -0.7698,-0.69665 -0.81504,-0.38567 -0.29586,2.03504 l 0.3384,1.57793 2.87194,0.39248 c 1.70486,0.23297 7.77138,0.43084 14.92801,0.4869 6.63083,0.0519 12.13475,0.17312 12.23097,0.26932 0.0962,0.0962 2.87047,0.12172 6.16503,0.0567 3.29457,-0.065 12.56535,-0.12904 20.60177,-0.14224 z m -56.17969,-7.99972 c 2.67949,-1.6295 18.31651,-2.11672 36.91252,-1.15014 6.19566,0.32207 25.08345,0.2295 32.58863,-0.15967 9.09422,-0.47155 14.47031,-0.16808 20.70903,1.16896 4.17404,0.89456 14.27562,1.42731 19.42475,1.02447 4.51229,-0.35305 8.40154,-0.3169 9.28641,0.0863 0.57959,0.26408 0.92625,0.27037 1.22527,0.0222 0.26112,-0.21672 1.79475,-0.30913 4.10315,-0.24719 2.16995,0.0582 3.95032,-0.0406 4.32831,-0.24013 0.5936,-0.3134 4.69511,-0.51349 21.07371,-1.02807 3.41949,-0.10743 7.37312,-0.25033 8.78583,-0.3176 1.4127,-0.0672 5.09699,-0.12274 8.18729,-0.12332 3.0903,0 7.35251,-0.20375 9.47157,-0.45146 2.11906,-0.2477 4.50301,-0.39886 5.29766,-0.33593 0.79465,0.063 5.1291,0.15963 9.63211,0.21486 7.89065,0.0968 12.07092,-0.0665 19.26421,-0.7523 6.61032,-0.63023 21.48011,-0.98453 38.20736,-0.91037 5.03278,0.0225 11.96789,0 15.41137,-0.0522 9.46098,-0.14025 9.53267,-0.13967 18.19762,0.1491 6.30165,0.21001 8.30073,0.17961 9.06731,-0.13793 0.62327,-0.25817 2.71886,-0.42291 5.72212,-0.44988 l 4.73871,-0.0425 0.22112,-5.77927 c 0.12162,-3.17859 0.38522,-7.89852 0.58576,-10.48872 0.54017,-6.97701 0.56704,-31.28919 0.0352,-31.82104 -0.19415,-0.19415 -0.70716,-2.9e-4 -1.40225,0.52989 -0.60287,0.45981 -2.45721,1.47278 -4.1208,2.25106 -3.92306,1.83527 -7.87005,4.16174 -9.28558,5.47322 -1.28184,1.18763 -4.73428,3.79736 -5.72494,4.32754 -0.36515,0.1954 -0.85183,0.74479 -1.08152,1.22081 -0.32425,0.67203 -1.09948,1.1371 -3.46779,2.08047 -1.67759,0.66821 -3.48361,1.41797 -4.01338,1.66613 -0.52976,0.24812 -1.4607,0.64018 -2.06878,0.87125 -0.60807,0.23105 -1.78101,1.00502 -2.60654,1.71994 -2.01655,1.74643 -3.76529,3.1 -4.94503,3.82761 -0.53622,0.3307 -1.57232,1.12535 -2.30243,1.76589 -0.73011,0.6405 -1.95821,1.55462 -2.7291,2.03134 -0.77089,0.47673 -2.67255,2.02053 -4.22592,3.43067 -3.83901,3.48499 -6.62628,4.41375 -11.03217,3.676 -2.77889,-0.46533 -3.9891,-1.06335 -7.33417,-3.62408 -1.41271,-1.08149 -3.48853,-2.647 -4.61292,-3.47889 -1.12439,-0.83193 -3.34128,-2.63564 -4.92647,-4.00824 -3.4488,-2.98631 -3.62417,-3.08212 -8.94049,-4.88326 -5.22702,-1.77086 -6.95553,-2.83675 -11.37966,-7.01737 -1.94247,-1.83556 -5.48134,-5.13931 -7.86413,-7.34166 -2.38279,-2.20235 -4.91626,-4.85843 -5.62997,-5.90239 l -1.2976,-1.89814 -4.64428,0.0913 c -2.55438,0.0502 -6.73872,0.25195 -9.29855,0.44828 -3.04625,0.23368 -6.42959,0.26203 -9.79265,0.0821 -2.82612,-0.15116 -10.12299,-0.29429 -16.21529,-0.31805 -9.15902,-0.0357 -11.96639,-0.15848 -16.21405,-0.70889 -3.68127,-0.47705 -5.60692,-0.58891 -6.79484,-0.39479 -0.91175,0.14901 -6.32981,0.34945 -12.04014,0.44542 -12.56389,0.2112 -17.38714,0.40718 -21.64527,0.8796 -2.53344,0.28104 -3.39872,0.27198 -3.98493,-0.0417 -0.69855,-0.37385 -0.8755,-0.26343 -2.63599,1.64494 -1.03792,1.12516 -2.03427,2.42633 -2.2141,2.89147 -0.38137,0.98645 -3.41342,3.42931 -5.68545,4.58061 -0.86907,0.44041 -2.35848,0.8998 -3.30978,1.02087 -0.9513,0.12111 -1.91024,0.3631 -2.13098,0.53783 -0.22073,0.17472 -0.40223,0.98626 -0.40332,1.80342 0,0.81719 -0.22556,1.91457 -0.49885,2.43869 -0.27326,0.52408 -0.42179,1.25201 -0.33003,1.61758 0.0917,0.3656 -0.0335,1.33013 -0.27821,2.1434 -0.24475,0.81327 -0.61209,2.90276 -0.81632,4.64325 -0.2042,1.74053 -0.57693,3.58411 -0.8283,4.09686 -0.25136,0.51275 -0.45755,1.23516 -0.45819,1.60535 -0.003,1.37338 -1.30406,2.78834 -4.47788,4.86781 -1.75766,1.15165 -4.17795,2.43657 -5.3784,2.85537 -3.72105,1.29816 -6.27166,2.3904 -6.89104,2.95093 -0.77837,0.70443 -5.94044,3.95103 -8.72139,5.4852 -1.20575,0.66519 -3.49649,2.03336 -5.0905,3.04037 -4.06164,2.56596 -6.9174,3.62366 -9.62588,3.56523 -1.17669,-0.0254 -2.4314,-0.20244 -2.78824,-0.39341 -0.35687,-0.19097 -1.44356,-0.34724 -2.41493,-0.34724 -0.97133,0 -2.13454,-0.14008 -2.58491,-0.31131 -2.28537,-0.86891 -12.30151,-2.54852 -17.20027,-2.88433 -2.91227,-0.19964 -5.43348,-0.50142 -5.60268,-0.67062 -0.1692,-0.1692 -0.56772,-0.30765 -0.88558,-0.30765 -0.47569,0 -0.57754,0.26973 -0.5758,1.52508 0,0.8388 -0.23705,2.7735 -0.52942,4.29933 -0.29236,1.52582 -0.42333,3.04288 -0.29105,3.37123 0.22328,0.5542 0.26046,0.54534 0.51834,-0.12338 0.1528,-0.3962 0.726,-0.99295 1.27378,-1.32606 z m 33.90341,-6.6562 c 0.68376,-0.28345 2.18235,-1.13374 3.33018,-1.88957 1.14782,-0.75583 3.24281,-1.9661 4.65552,-2.68954 3.24117,-1.65977 7.66012,-4.39025 9.50101,-5.87067 1.69721,-1.36484 3.43442,-2.29469 5.55313,-2.97228 0.86307,-0.27602 2.01893,-0.8448 2.56857,-1.26395 0.54964,-0.41916 1.93849,-1.23503 3.08632,-1.81302 1.14782,-0.57803 2.66726,-1.42905 3.37653,-1.89117 0.70928,-0.46215 1.56756,-0.99506 1.90732,-1.18427 1.03622,-0.57709 0.90519,-1.01317 -0.37357,-1.24321 -0.66988,-0.1205 -2.43005,-0.50778 -3.91143,-0.86063 -2.86507,-0.68237 -3.60838,-0.53118 -2.90733,0.59141 0.31285,0.50093 0.29741,0.91274 -0.0767,2.04454 -0.41739,1.26264 -0.68748,1.52736 -2.47587,2.42684 -1.10406,0.55529 -2.32188,1.29854 -2.70627,1.65168 -0.38442,0.35315 -1.78252,1.07546 -3.10693,1.60513 -1.32442,0.52967 -4.51608,1.97317 -7.0926,3.20778 -2.57653,1.23458 -5.32168,2.35123 -6.10034,2.48146 -1.59864,0.26735 -5.44882,2.10278 -6.81831,3.25038 -1.13575,0.95172 -1.60211,0.94793 -6.4172,-0.052 -2.15197,-0.4469 -5.35751,-1.01812 -7.12339,-1.26935 -1.76589,-0.25124 -4.06408,-0.7525 -5.10714,-1.11386 -1.04303,-0.3614 -2.45606,-0.65707 -3.1401,-0.65707 -0.68404,0 -2.0701,-0.34271 -3.08015,-0.76161 -1.01009,-0.41887 -2.6286,-0.94703 -3.59673,-1.17367 -2.20036,-0.5151 -3.53742,-1.73975 -3.53742,-3.24005 0,-0.85032 0.29095,-1.30801 1.52508,-2.39897 1.48816,-1.31559 1.74483,-2.13467 0.4521,-1.44283 -0.35552,0.19027 -0.86239,0.26302 -1.12641,0.16172 -0.88015,-0.33773 -0.88548,-1.17373 -0.0154,-2.42912 0.70215,-1.01323 0.78216,-1.31735 0.45136,-1.71596 -0.50299,-0.60605 -1.8031,-0.63299 -2.02987,-0.0421 -0.0934,0.24334 -0.0862,3.79993 0.016,7.90359 l 0.18565,7.46123 1.12146,0.46857 c 0.61681,0.25772 2.86979,0.60059 5.00664,0.7619 2.13682,0.16133 4.60755,0.43835 5.4905,0.61565 0.88294,0.17726 3.05016,0.55018 4.81605,0.82874 1.76589,0.27853 3.8269,0.64179 4.58,0.80724 0.75314,0.16548 2.95016,0.50854 4.88226,0.76241 1.93214,0.25384 3.91661,0.68041 4.40997,0.94793 1.16847,0.63357 2.29372,0.63261 3.8277,-0.003 z m -3.42582,-7.63672 c 1.14041,-0.41624 2.11595,-0.88436 2.16794,-1.04027 0.052,-0.15591 -1.02557,-0.28601 -2.39451,-0.28916 -2.62524,-0.006 -4.98632,-0.41989 -8.4288,-1.47743 -1.14783,-0.3526 -3.3873,-0.71111 -4.97659,-0.79668 -3.12216,-0.16808 -4.83266,-0.68083 -8.49144,-2.54541 l -2.29999,-1.17216 -1.28717,0.85183 c -0.70793,0.46847 -1.2306,1.02418 -1.16147,1.2349 0.0691,0.21072 0.91155,0.54055 1.87209,0.733 0.96055,0.19245 2.07797,0.52736 2.48313,0.74418 0.40519,0.21685 1.91987,0.51853 3.36594,0.67039 1.4461,0.15187 3.31662,0.58275 4.1567,0.9575 0.84008,0.37475 3.07955,0.88631 4.97659,1.13678 1.89704,0.2505 4.24381,0.74424 5.21505,1.09723 2.22604,0.80903 2.30377,0.80733 4.80253,-0.1047 z m -1.57337,-5.2984 c -0.41636,-0.77795 -1.67778,-0.90375 -2.24222,-0.22359 -0.4287,0.51653 -0.18343,0.74934 1.20542,1.144 1.09039,0.30983 1.5004,-0.0542 1.0368,-0.92041 z m 14.39056,-0.35555 c 1.44546,-0.70636 2.71414,-1.28429 2.81932,-1.28429 0.10515,0 1.07581,-0.41922 2.15702,-0.93161 1.0812,-0.5124 2.68822,-1.26428 3.57116,-1.67082 2.73693,-1.2602 7.22408,-4.04487 7.22408,-4.48314 0,-0.34775 -0.73762,-0.55182 -3.28686,-0.9093 -1.29291,-0.18134 -2.55389,-0.58162 -3.13457,-0.99512 l -0.9715,-0.69175 -1.72668,1.71044 c -0.94966,0.94073 -2.04108,1.97294 -2.42533,2.29379 -0.55465,0.46308 -0.62066,0.67739 -0.32021,1.0394 0.55465,0.66831 0.21287,1.22851 -1.42327,2.33273 -1.71268,1.15589 -3.3295,1.65897 -5.3394,1.66145 -1.03741,0 -1.80656,0.24372 -2.70055,0.85122 -1.17188,0.79628 -1.21284,0.87658 -0.65531,1.28428 0.32708,0.23916 0.89219,0.43707 1.25574,0.43977 0.36358,0.003 0.87778,0.14496 1.14266,0.31616 0.7401,0.47829 0.99631,0.4136 3.8137,-0.96321 z m 204.36311,-1.33803 c 1.34631,-0.38188 3.18248,-1.52746 4.05062,-2.52721 0.87607,-1.00887 10.03582,-7.74502 11.55853,-8.50021 0.61806,-0.30652 1.76627,-1.07802 2.55158,-1.71445 3.11881,-2.52749 4.36244,-3.20925 8.00486,-4.38838 1.81568,-0.58776 3.19182,-1.28936 4.32138,-2.20322 0.91152,-0.73743 2.16103,-1.69577 2.77671,-2.12963 0.61568,-0.43389 1.3432,-1.01265 1.61675,-1.2862 0.27355,-0.27356 1.03401,-0.90668 1.68995,-1.407 0.65595,-0.50029 1.19262,-1.02258 1.19262,-1.16057 0,-0.13803 -0.70738,-0.42067 -1.57193,-0.62805 -1.50723,-0.36159 -2.605,-1.18969 -3.36905,-2.5414 -1.7455,-3.08811 -4.02077,-6.76475 -6.78666,-10.9666 -3.72589,-5.66031 -4.35689,-6.829 -6.23245,-11.5435 -0.73763,-1.85418 -1.48055,-3.62729 -1.65088,-3.94024 -0.17036,-0.31295 -0.60483,-1.3577 -0.96549,-2.32166 -0.36066,-0.96396 -0.7743,-1.82591 -0.91916,-1.91545 -0.46083,-0.28481 -2.34542,0.53029 -4.99268,2.15938 -3.85518,2.37244 -5.5111,3.7577 -8.45818,7.07564 -1.47342,1.65881 -3.3878,3.57756 -4.25418,4.26381 -0.8664,0.68629 -1.57526,1.3555 -1.57526,1.48713 0,0.13164 0.52405,0.71243 1.16452,1.29061 0.6405,0.57822 1.51253,1.59835 1.93785,2.26701 0.42532,0.66866 1.28557,1.78271 1.91162,2.47571 1.09135,1.20796 1.32515,2.22274 0.57006,2.4741 -0.19566,0.0651 -1.71272,-0.96372 -3.37124,-2.28637 -1.65852,-1.32265 -4.51556,-3.53119 -6.349,-4.90788 -1.83341,-1.37668 -4.47784,-3.552 -5.87648,-4.834 -1.39865,-1.28203 -3.22166,-2.70039 -4.05111,-3.15195 -0.82948,-0.45155 -2.01382,-1.09497 -2.63188,-1.42982 -0.61806,-0.33487 -2.4732,-1.2086 -4.12257,-1.94167 -2.73089,-1.21371 -5.87388,-3.16548 -11.60987,-7.20958 -3.01241,-2.12387 -4.93295,-3.03972 -6.3743,-3.03972 -1.17409,0 -1.26887,0.07 -1.41303,1.04348 -0.4574,3.08871 1.30797,8.45991 3.23048,9.82886 1.84439,1.3133 3.55855,1.73217 7.13575,1.7436 2.6034,0.008 3.92457,-0.15411 5.74116,-0.70587 1.29776,-0.39418 2.48033,-0.59597 2.62789,-0.44841 0.33812,0.33812 0.46379,3.72904 0.15662,4.22606 -0.50151,0.81144 -2.32282,1.39074 -5.2748,1.67775 l -3.10067,0.30148 -1.7744,1.85457 c -1.85928,1.94331 -3.6409,5.1674 -4.74496,8.5866 -0.34471,1.0675 -1.43891,3.69597 -2.4316,5.84104 -0.99268,2.14507 -1.80489,3.99893 -1.80489,4.11969 0,0.12078 1.95291,2.13338 4.33981,4.47244 4.13805,4.05512 4.4553,4.29383 6.82274,5.1335 7.99773,2.83665 8.97044,3.25992 10.99129,4.78295 1.14783,0.86509 2.5204,1.96488 3.05017,2.44402 0.52977,0.47913 2.26355,1.83809 3.85284,3.01995 1.5893,1.18183 4.08639,3.10032 5.54909,4.2633 1.4627,1.16295 3.12424,2.22495 3.69231,2.35996 1.58561,0.37687 3.70865,0.35074 5.16952,-0.0636 z m -213.01373,-0.40269 c 0.29246,-0.35241 0.28379,-0.60856 -0.0379,-1.12374 -0.53263,-0.85286 -1.68042,-0.85453 -2.53126,-0.004 -0.52755,0.52755 -0.58531,0.75799 -0.28177,1.12375 0.49217,0.59302 2.35984,0.59542 2.85095,0.004 z m -21.16977,-1.59726 c 0,-0.46443 -2.06018,-2.44129 -2.54416,-2.44129 -0.15087,0 -0.61543,0.27872 -1.03231,0.61935 -0.95884,0.78347 -0.60432,1.19701 1.52823,1.78264 2.04622,0.56194 2.04824,0.56197 2.04824,0.0393 z m 14.28762,-2.93233 c 4.88146,-2.0162 8.08741,-3.20955 12.04014,-4.48166 5.45222,-1.75472 9.75906,-3.93523 13.54814,-6.85931 3.60141,-2.77925 4.46961,-3.30828 6.87173,-4.18711 4.1568,-1.52078 4.34852,-1.61203 7.30458,-3.4769 2.83537,-1.78872 3.67452,-2.0878 7.56952,-2.69773 3.93474,-0.6162 6.17662,-2.26933 14.89766,-10.98529 3.91567,-3.9134 8.12012,-7.83768 9.3432,-8.72062 1.22312,-0.88295 3.39035,-2.69914 4.81606,-4.03598 1.42574,-1.33684 3.35326,-2.97636 4.28336,-3.64341 2.10045,-1.50636 2.32227,-1.91848 2.32227,-4.31468 0,-1.71879 -0.11915,-2.06985 -1.12426,-3.31208 -1.95153,-2.41198 -3.17583,-5.47627 -3.83788,-9.60571 -0.10165,-0.63397 -0.51631,-1.46411 -0.9215,-1.84476 l -0.7367,-0.69209 -3.6731,1.24745 c -2.02021,0.6861 -4.61269,1.69377 -5.76106,2.23927 -1.14841,0.5455 -3.09891,1.22421 -4.33445,1.50825 -1.23558,0.28404 -2.82443,0.71678 -3.53078,0.96162 -0.70635,0.24486 -2.64228,0.59731 -4.30202,0.78323 -3.23376,0.36224 -2.42732,0.009 -18.34865,8.04403 -0.97962,0.4944 -2.93012,1.19301 -4.33445,1.55246 -4.7572,1.21765 -10.49062,3.55675 -14.27241,5.82277 -1.14782,0.68776 -2.85261,1.41425 -3.7884,1.61443 -1.34297,0.28726 -2.13611,0.74655 -3.76474,2.1801 -1.13486,0.99888 -2.54005,2.49244 -3.12273,3.31897 -1.43705,2.03857 -3.35955,3.52975 -4.39471,3.40874 -0.44931,-0.0525 -0.85723,-0.31221 -0.90651,-0.57709 -0.11642,-0.62577 1.88092,-3.64351 4.01723,-6.06952 1.5909,-1.80666 2.0657,-2.96874 1.38487,-3.3895 -0.16538,-0.10223 -0.52659,-0.61643 -0.80268,-1.14269 -0.27605,-0.52624 -0.7278,-1.38741 -1.00385,-1.91364 -0.27609,-0.52627 -0.624,-1.03228 -0.77321,-1.12449 -0.1492,-0.0922 -0.46009,-0.90449 -0.69091,-1.80507 -0.26677,-1.04086 -0.71618,-1.86403 -1.23349,-2.25935 -1.89524,-1.44827 -4.3024,-2.85148 -4.48817,-2.61629 -0.11019,0.13951 -0.74386,1.06849 -1.40815,2.06439 -0.6643,0.9959 -1.92806,2.51296 -2.80834,3.37124 -0.88031,0.85828 -4.05255,4.23341 -7.04945,7.5003 -2.99687,3.26689 -6.26514,6.51773 -7.2628,7.22408 -0.99766,0.70635 -2.89474,2.15117 -4.21569,3.2107 -1.32094,1.05953 -3.07655,2.43211 -3.90129,3.05017 -2.41185,1.8074 -4.19501,3.40739 -4.19501,3.76407 0,0.18217 0.2182,0.5123 0.48492,0.73364 0.26668,0.22135 1.15656,1.43101 1.97747,2.68816 0.82091,1.25712 1.87951,2.71915 2.35242,3.24891 0.4729,0.52977 1.70372,2.33579 2.73513,4.01338 1.03141,1.67759 2.47609,3.77257 3.21038,4.65552 0.73429,0.88294 1.61161,2.03706 1.94957,2.56471 0.33799,0.52761 1.19246,1.5404 1.89881,2.25057 0.70636,0.71018 2.22341,2.44569 3.37124,3.8567 3.06439,3.76705 4.35988,4.91446 5.73367,5.07843 2.28047,0.2722 3.79707,-0.10396 8.87502,-2.20132 z m -1.62599,-33.25472 c -0.12047,-0.19496 0.15902,-0.73253 0.62111,-1.19464 0.74761,-0.74758 0.89334,-0.78698 1.32278,-0.35758 0.42943,0.42943 0.42766,0.56107 -0.0161,1.19464 -0.52954,0.75606 -1.56303,0.94774 -1.92777,0.35758 z m 14.64212,34.06031 c 1.60159,-0.81706 1.68488,-1.42677 0.15572,-1.13989 -1.66777,0.31285 -3.43115,1.12368 -3.21266,1.47721 0.31442,0.50874 1.69775,0.3561 3.05694,-0.33732 z m -33.9728,-4.75453 c 0.20285,-0.20285 -0.14984,-0.89781 -1.00411,-1.97857 -0.72424,-0.91623 -1.31681,-1.86628 -1.31681,-2.11122 0,-0.24498 -0.32996,-0.66157 -0.73323,-0.92581 -0.40326,-0.26424 -1.14663,-1.13447 -1.6519,-1.93384 -0.84233,-1.33257 -1.43676,-1.81694 -1.4882,-1.21258 -0.0112,0.13244 -0.0646,0.67424 -0.11847,1.20401 -0.43113,4.2396 -0.53198,6.30646 -0.33757,6.91903 0.2198,0.69248 0.32832,0.71014 3.28249,0.53391 1.68032,-0.10024 3.19584,-0.32297 3.3678,-0.49493 z m 63.52304,-1.58009 c 0.0135,-0.13244 0.0785,-0.52976 0.14436,-0.88294 0.0659,-0.35318 0.26912,-2.12407 0.45165,-3.93532 0.21466,-2.13024 0.56399,-3.74821 0.98915,-4.58161 0.58268,-1.14215 0.59966,-1.31048 0.14959,-1.48319 -0.30264,-0.11616 -0.98733,0.18484 -1.69535,0.74527 -1.95455,1.54705 -3.37406,2.30227 -5.24208,2.78882 -2.34619,0.61109 -6.54605,2.75546 -8.14629,4.1593 l -1.28428,1.12664 0.91347,0.35292 c 0.50238,0.19409 2.09168,0.41517 3.53178,0.4913 1.44006,0.0762 3.12398,0.29317 3.74204,0.48228 0.61806,0.18908 1.48495,0.27002 1.92642,0.17986 0.44147,-0.0902 1.3806,0.046 2.08696,0.30268 1.42773,0.51872 2.39528,0.61976 2.43258,0.25399 z m 218.30857,-17.3515 1.37219,-1.21775 -0.50954,-1.11001 c -0.28026,-0.61051 -1.3255,-2.84381 -2.32281,-4.96288 -0.99731,-2.11906 -2.79932,-6.0923 -4.00448,-8.82943 -1.20517,-2.73712 -2.70756,-6.0243 -3.33869,-7.30486 -1.20093,-2.43682 -5.28606,-12.58352 -6.78614,-16.85567 -0.96902,-2.75962 -1.75368,-3.31642 -1.75368,-1.24438 0,1.71459 -0.77574,3.75544 -1.92495,5.06434 -0.53057,0.60429 -0.96468,1.44898 -0.96468,1.87708 0,0.88221 3.89718,10.87978 5.75797,14.77119 0.67553,1.41271 2.4376,4.26683 3.91574,6.34248 1.47811,2.07566 3.4099,4.9562 4.29284,6.40118 0.88294,1.44501 2.22977,3.43102 2.99295,4.4134 1.11717,1.43801 1.36436,1.98945 1.26849,2.82956 -0.15697,1.37524 0.30386,1.33517 2.00479,-0.17425 z m -86.9316,-5.96105 c 0.84076,-1.73853 2.01677,-4.6352 2.61335,-6.43701 0.59662,-1.80185 1.61306,-4.3252 2.2588,-5.60743 0.64573,-1.28226 1.09533,-2.57941 0.9991,-2.8826 -0.0962,-0.30318 -0.60974,-0.80807 -1.14111,-1.12195 -0.92815,-0.54829 -0.97426,-0.54784 -1.17216,0.0109 -0.11328,0.31985 -0.83456,1.60503 -1.60282,2.85595 -0.76826,1.25096 -1.39682,2.44418 -1.39682,2.65163 0,0.20744 -0.75946,1.20671 -1.68764,2.22055 -0.92821,1.01384 -2.52814,3.09724 -3.55537,4.62977 -1.50913,2.25141 -1.80624,2.90125 -1.54753,3.38466 0.58676,1.09635 3.58443,3.66771 4.15119,3.56079 0.33818,-0.0638 1.14519,-1.33003 2.08101,-3.26515 z m 97.2787,0.38496 c 1.76807,-1.16076 2.76766,-2.07341 3.33923,-3.04869 0.57324,-0.97814 1.11148,-1.46857 1.81061,-1.64975 0.71059,-0.18414 1.06277,-0.51156 1.2324,-1.14577 0.38294,-1.43191 0.88827,-1.81013 2.41836,-1.81013 0.96893,0 1.47455,-0.15364 1.60243,-0.48688 0.30483,-0.79439 -0.74629,-6.23316 -1.82949,-9.46627 -0.81366,-2.42867 -0.99166,-3.44184 -0.92683,-5.27556 0.0441,-1.24829 0.0564,-4.22012 0.0273,-6.60407 -0.0292,-2.38395 0.10849,-6.28495 0.30579,-8.6689 0.27172,-3.28348 0.26674,-4.80154 -0.0205,-6.26087 -0.2086,-1.05953 -0.49371,-3.73244 -0.63354,-5.93979 -0.15915,-2.51207 -0.45951,-4.51373 -0.80296,-5.35094 -0.55501,-1.35294 -2.45231,-2.99689 -3.45873,-2.99689 -0.2836,0 -1.50393,0.95067 -2.71186,2.1126 -1.2079,1.16193 -2.57797,2.31344 -3.04451,2.5589 -0.46658,0.24546 -1.30904,1.02801 -1.87217,1.73899 -0.56309,0.71099 -2.09774,2.03509 -3.41028,2.94246 -2.40712,1.66403 -7.90773,4.44777 -8.79902,4.453 -0.26488,0.002 -1.13177,0.44341 -1.92642,0.98191 -0.79465,0.5385 -2.13111,1.33497 -2.9699,1.76992 -1.62998,0.84523 -1.7962,1.11853 -1.05449,1.73408 0.25881,0.2148 0.93319,1.85791 1.49859,3.65135 1.13698,3.6063 5.24545,14.23171 6.47499,16.74575 0.43184,0.88295 1.56146,3.26689 2.51029,5.29766 2.87817,6.16009 6.6213,13.68716 7.49394,15.0695 0.55227,0.87485 1.05456,1.30508 1.52364,1.30508 0.38487,0 1.83533,-0.74552 3.22322,-1.65669 z m -306.05061,-3.97116 c 0.41071,-0.49486 6.99875,-5.4613 10.96506,-8.26611 1.17878,-0.83356 2.45558,-1.91329 2.83736,-2.39942 0.38182,-0.48613 2.54892,-2.83438 4.81583,-5.21832 2.26692,-2.38395 4.67437,-5.01717 5.34993,-5.85162 0.67556,-0.83444 2.37586,-2.75991 3.77842,-4.27883 2.38263,-2.58026 2.52136,-2.80749 2.11219,-3.45942 -0.24086,-0.38377 -0.79487,-1.38405 -1.23117,-2.22284 -0.43627,-0.8388 -1.01263,-1.52508 -1.28078,-1.52508 -0.26816,0 -1.80082,1.35864 -3.40592,3.01921 -1.60509,1.66057 -5.08559,4.99849 -7.73442,7.41759 -2.64883,2.41911 -5.17726,4.78452 -5.61873,5.25653 -0.44147,0.47197 -1.64947,1.49843 -2.68444,2.28101 -1.03497,0.78258 -1.95502,1.61389 -2.0446,1.84734 -0.0896,0.23345 -1.52663,1.45397 -3.1934,2.71224 -2.89018,2.18187 -7.15675,6.46093 -7.1643,7.18527 -0.003,0.18769 0.44279,0.76562 0.98832,1.28428 0.54553,0.51865 1.19939,1.34034 1.45307,1.82596 0.50915,0.9748 1.42863,1.15007 2.05758,0.39221 z m 185.24999,-1.12275 c 2.03077,-0.20593 4.99065,-0.39671 6.57751,-0.42394 2.28335,-0.0392 2.90408,-0.15 2.97564,-0.53114 0.0502,-0.26717 -2.37823,-2.98772 -5.45376,-6.10997 -3.06475,-3.1113 -6.22838,-6.65469 -7.07408,-7.92327 -0.84143,-1.2622 -1.99972,-2.58528 -2.57402,-2.94021 -0.5743,-0.35494 -1.40291,-1.03091 -1.8414,-1.50216 -0.43845,-0.47125 -1.44735,-1.29975 -2.242,-1.8411 -0.79465,-0.54135 -2.11505,-1.53737 -2.9342,-2.21338 -1.04974,-0.8663 -1.79693,-1.22911 -2.53132,-1.22911 -0.57304,0 -1.6048,-0.16864 -2.29276,-0.37476 -1.19168,-0.35704 -1.29976,-0.32759 -2.28477,0.62244 -0.56861,0.54847 -1.46732,1.17177 -1.99709,1.3851 -1.63707,0.65926 -4.76754,1.156 -5.77926,0.91706 -0.52977,-0.12512 -2.04682,-0.40514 -3.37124,-0.62228 -2.69416,-0.44171 -5.30832,-1.50348 -6.23037,-2.53054 -0.81507,-0.9079 -1.02745,-0.87058 -2.47179,0.4343 -0.67916,0.61357 -1.63579,1.20144 -2.12587,1.30637 -0.49008,0.10492 -1.97464,0.5971 -3.29906,1.09373 -1.34198,0.50322 -3.47408,1.00142 -4.81605,1.12537 -2.49668,0.2306 -2.83804,0.31494 -9.03376,2.23197 -2.05485,0.6358 -4.41767,1.24942 -5.25072,1.3636 l -1.51462,0.2076 0.19078,1.19316 c 0.25185,1.57489 -0.70558,3.00548 -2.85322,4.26324 -0.88295,0.51711 -2.18328,1.46796 -2.88963,2.11303 -0.70636,0.64503 -2.65686,2.27934 -4.33445,3.63175 -3.64698,2.94007 -6.42141,5.56495 -6.42141,6.07526 0,0.41132 5.58332,0.31073 29.699,-0.53516 4.16467,-0.14609 6.40933,-0.0649 9.47157,0.34258 4.43459,0.5901 12.93782,0.84233 17.65887,0.52383 1.67759,-0.11318 5.36187,-0.0405 8.18729,0.16156 5.76501,0.41225 11.3768,0.34069 16.85619,-0.21493 z m 219.77262,-1.22192 c 2.2956,-0.13013 7.2802,-0.11206 11.0769,0.0402 11.7775,0.47226 25.9186,0.18083 26.4031,-0.54412 0.1297,-0.19412 0.2381,-1.38073 0.2408,-2.63688 0,-1.25616 0.1462,-3.02898 0.3189,-3.9396 0.5244,-2.76531 0.4423,-10.83906 -0.1325,-13.02787 -0.2764,-1.05249 -0.5026,-3.09319 -0.5026,-4.53488 0,-1.56957 -0.202,-3.18496 -0.5035,-4.02619 -0.4205,-1.17311 -0.4672,-2.33201 -0.2834,-7.02365 0.1882,-4.8044 0.135,-6.01426 -0.3672,-8.34782 -0.4036,-1.87548 -0.5691,-3.85487 -0.5293,-6.32829 0.068,-4.21659 -0.013,-4.36285 -2.7311,-4.92148 -1.0155,-0.20871 -2.6401,-0.59456 -3.6102,-0.85744 -0.9701,-0.26289 -2.4149,-0.593 -3.2107,-0.7336 -0.7958,-0.1406 -2.7472,-0.51011 -4.3365,-0.82115 -2.1742,-0.42551 -4.3999,-0.56012 -8.9899,-0.54371 -6.6907,0.0239 -7.3439,-0.1325 -8.796,-2.10618 -0.5957,-0.80976 -0.6844,-0.83444 -1.3785,-0.38381 -0.5979,0.38811 -2.5183,0.51496 -9.8924,0.6534 -8.4496,0.15863 -9.5071,0.11569 -13.80604,-0.56062 -2.56054,-0.40282 -5.61215,-0.73297 -6.78139,-0.73366 -1.16921,-6.4e-4 -4.16865,-0.22611 -6.66539,-0.50093 -3.06644,-0.33754 -6.38782,-0.45653 -10.23533,-0.36672 -4.02362,0.0939 -6.30848,0.005 -7.78265,-0.30299 -2.90665,-0.60723 -3.53431,-0.55381 -4.51331,0.38416 -0.64876,0.62152 -1.50829,0.93525 -3.54937,1.29549 -4.41969,0.78006 -6.77998,1.41 -8.38639,2.23824 -1.05314,0.54298 -2.04534,0.78327 -3.23443,0.78327 -2.23988,0 -8.00027,0.84268 -9.92097,1.45133 -0.83087,0.26329 -2.99793,0.77186 -4.81567,1.13014 -4.08083,0.80434 -4.5338,1.15472 -3.33489,2.57956 0.47708,0.56696 1.23846,1.76308 1.69194,2.65803 0.76566,1.51095 0.81321,1.85747 0.66539,4.85055 -0.13748,2.78425 -0.0489,3.61092 0.65049,6.06829 0.77689,2.7298 0.79493,2.98964 0.44538,6.4214 -0.20034,1.96707 -0.42789,7.0525 -0.50568,11.30097 -0.13113,7.16396 -0.0956,7.8268 0.48982,9.13436 0.78977,1.76399 1.20537,3.58941 1.59733,7.01561 0.16885,1.47609 0.44413,2.94004 0.6117,3.25318 0.43296,0.809 1.67063,0.93159 13.647,1.35187 12.22879,0.42911 13.92022,0.43778 19.58528,0.10053 2.67448,-0.15922 5.9617,-0.10769 9.1505,0.14342 2.73713,0.21556 10.44708,0.4432 17.13321,0.50591 6.68617,0.0627 12.20047,0.1579 12.25397,0.21155 0.1443,0.14461 8.0466,-0.0585 12.8336,-0.32983 z m 55.3846,-0.16966 c 0,-0.24009 -0.4336,-1.28759 -0.9635,-2.32776 -1.4582,-2.86218 -2.0379,-6.2827 -1.8442,-10.88123 0.089,-2.11906 0.324,-4.25957 0.5217,-4.75669 0.9623,-2.41912 -0.147,-11.29734 -2.0534,-16.43394 -0.4588,-1.23612 -1.2047,-3.25887 -1.6576,-4.49499 -0.8132,-2.21926 -3.6143,-7.79189 -5.098,-10.1423 -0.7836,-1.24137 -1.0381,-1.45798 -3.8871,-3.30855 l -1.6576,-1.07673 0.1393,3.25041 c 0.077,1.78773 0.314,4.11731 0.5276,5.17684 0.4319,2.1425 0.4591,5.64511 0.084,10.83972 -0.2004,2.77688 -0.1525,3.72225 0.2443,4.81605 0.2715,0.74852 0.5836,2.78635 0.6935,4.5285 0.1184,1.87788 0.4736,3.96945 0.8724,5.13712 0.6409,1.87647 0.6626,2.37428 0.4587,10.53066 -0.1555,6.21666 -0.1149,8.6224 0.1482,8.78499 0.1992,0.12314 2.4088,0.21894 4.9102,0.21294 3.7626,-0.009 5.8138,0.12441 8.3205,0.54139 0.1325,0.0222 0.2408,-0.15636 0.2408,-0.39643 z m -259.20305,-1.97153 c 2.32654,-2.97301 3.45783,-4.80071 4.96824,-8.02676 1.30098,-2.77873 1.63611,-3.24935 2.49106,-3.49796 1.09459,-0.31828 1.20346,-0.68475 0.48558,-1.6346 -0.99265,-1.31336 -1.73349,-4.61837 -1.81042,-8.07656 l -0.0752,-3.38123 -1.45487,-0.82938 c -0.80017,-0.45616 -1.67159,-1.00576 -1.93647,-1.22132 -0.26488,-0.21557 -1.27625,-0.70953 -2.24749,-1.09768 -0.97124,-0.38816 -2.80667,-1.19871 -4.07872,-1.80123 -1.27205,-0.60252 -2.45224,-1.09549 -2.62266,-1.09549 -0.54184,0 -4.6254,-2.07971 -6.62304,-3.37303 -2.86494,-1.85484 -6.60602,-3.74997 -7.0593,-3.57603 -1.03225,0.3961 -5.00443,9.10574 -5.5953,12.26857 l -0.26459,1.41627 2.47757,2.49165 c 1.36266,1.3704 3.06722,2.96072 3.78789,3.53405 0.72068,0.57332 2.11926,2.16262 3.10793,3.53177 2.63663,3.65125 5.19389,6.52688 7.59437,8.5398 2.21208,1.85492 3.94814,3.80032 5.70796,6.39633 1.19919,1.76894 1.33905,1.74373 3.14748,-0.56717 z m -207.389,-6.28139 c 0.97843,-0.89424 2.29902,-2.01192 2.93464,-2.48373 5.97984,-4.4388 11.01644,-8.95513 21.26481,-19.06834 2.98659,-2.9472 5.71595,-5.44925 6.06521,-5.5601 0.34929,-0.11085 0.63504,-0.36615 0.63504,-0.56733 0,-0.20117 -1.04325,-1.96133 -2.31835,-3.91147 -3.50124,-5.35483 -11.54761,-13.33834 -13.44334,-13.33834 -0.47795,0 -5.95977,-3.20978 -8.04053,-4.70798 -0.81831,-0.58921 -1.62959,-1.07128 -1.80284,-1.07128 -0.17328,0 -0.71673,-0.31598 -1.20768,-0.70216 -1.01066,-0.795 -2.89149,-0.846 -4.2972,-0.11652 -0.86027,0.44642 -5.1699,5.05345 -5.17238,5.52929 0,0.14629 -0.43357,0.91614 -0.96183,1.71079 -0.52825,0.79465 -0.96109,1.84007 -0.96183,2.32315 -0.003,1.05636 -0.43543,2.91479 -1.63103,6.98789 -0.68559,2.33564 -0.9358,3.99032 -1.06804,7.06354 -0.16343,3.79761 -0.13023,4.09969 0.61741,5.61873 0.43457,0.88294 0.79144,2.11424 0.79308,2.73621 0.003,0.7841 0.30335,1.49531 0.98264,2.31942 0.69335,0.84117 1.069,1.74301 1.28521,3.08561 0.16805,1.04338 0.5227,2.51265 0.78816,3.26503 0.26546,0.75239 0.54319,2.32253 0.61719,3.48921 0.0865,1.36326 0.42709,2.75147 0.95326,3.88491 0.4503,0.97005 0.91296,2.41487 1.02813,3.21071 0.35803,2.47384 0.54383,2.49298 2.94027,0.30276 z m 56.48942,-5.77168 c 0.74193,-0.53224 1.90834,-1.1651 2.59206,-1.40632 0.68372,-0.24124 3.26288,-1.39317 5.73149,-2.55984 2.46861,-1.16668 4.70493,-2.12124 4.96959,-2.12124 1.34506,0 8.92996,-2.64809 9.30006,-3.24689 0.12605,-0.20398 0.0933,-0.82109 -0.0728,-1.37136 -0.42227,-1.39918 -0.35921,-10.5123 0.0906,-13.09053 0.20507,-1.17528 0.2968,-2.33502 0.20388,-2.5772 -0.33106,-0.86271 -7.44479,-2.23697 -14.69227,-2.8383 -2.38395,-0.1978 -6.21271,-0.64439 -8.50836,-0.99242 -2.29566,-0.34803 -7.28027,-0.77697 -11.07693,-0.95319 -7.19191,-0.33382 -7.96154,-0.44232 -10.98863,-1.54904 -1.93916,-0.70897 -4.56822,-0.89481 -4.90688,-0.34685 -0.11055,0.17886 0.30787,0.91969 0.92985,1.6463 0.62195,0.72661 1.53462,2.09118 2.02817,3.03237 0.49355,0.94119 1.7115,2.90939 2.70653,4.37377 0.99506,1.46438 2.31273,3.60164 2.92819,4.74946 0.61546,1.14783 1.46286,2.72272 1.88314,3.49977 0.86044,1.5909 5.05801,6.52273 6.17392,7.25392 0.93107,0.61005 1.9348,2.40834 2.59974,4.65768 0.70713,2.39204 1.08586,2.99967 2.58577,4.1483 1.11328,0.85253 1.47667,0.96192 2.7291,0.82142 0.89778,-0.10069 1.95557,-0.52848 2.79373,-1.12981 z m 72.91868,-5.17595 c 1.18093,-0.38165 3.30298,-1.19779 4.71569,-1.81365 1.85087,-0.80687 3.28943,-1.18669 5.14855,-1.35937 3.06953,-0.2851 8.74717,-2.37994 10.1857,-3.75814 0.50594,-0.48471 1.20456,-1.5249 1.55253,-2.31151 0.68552,-1.54977 0.69445,-1.35665 -0.4748,-10.29085 -0.47813,-3.65351 -1.07542,-5.058 -3.03305,-7.13223 -1.32962,-1.40879 -3.53945,-2.01171 -6.29648,-1.7179 -2.45108,0.2612 -2.58766,0.33571 -5.67633,3.09611 -1.52225,1.36051 -3.11155,2.58165 -3.53177,2.71366 -0.42018,0.13201 -1.55536,0.74482 -2.52255,1.3618 -0.96723,0.61699 -2.3398,1.37235 -3.05017,1.6786 -3.21282,1.38506 -4.33095,2.02864 -4.51123,2.59662 -0.10666,0.33606 0.10929,1.87592 0.47991,3.4219 0.37061,1.54598 1.03529,4.32793 1.47705,6.18211 0.44176,1.85418 1.01567,4.0214 1.27535,4.81605 0.25965,0.79465 0.4714,1.74582 0.4705,2.11371 -0.003,1.3306 0.69232,1.40455 3.7911,0.40309 z m 37.3048,-7.5296 c 0.55734,-0.33326 1.31568,-1.14139 1.68523,-1.79584 0.60323,-1.06836 0.63094,-1.32654 0.27111,-2.52753 -0.59876,-1.99852 -1.70783,-2.96597 -3.1783,-2.77247 -0.65261,0.0859 -1.51163,0.26164 -1.90896,0.39058 -0.54794,0.17781 -0.72241,0.10906 -0.72241,-0.28463 0,-0.49346 -0.34117,-0.6521 -1.1798,-0.54857 -0.20741,0.0256 -0.45929,-0.0864 -0.55975,-0.24893 -0.28804,-0.46607 0.71014,-2.55315 1.39684,-2.92067 0.94302,-0.50469 3.66788,-0.39874 5.89508,0.22922 1.67438,0.4721 2.30679,0.87617 3.95796,2.52894 1.55729,1.55881 2.04416,2.29182 2.34587,3.53177 0.83478,3.43095 1.78765,3.45836 3.46107,0.0996 1.39752,-2.80503 3.62588,-9.05294 3.62588,-10.16628 0,-1.02749 -0.68545,-1.46408 -4.17391,-2.65849 -1.14783,-0.393 -3.09833,-1.22004 -4.33445,-1.83787 -1.23612,-0.61782 -3.54783,-1.40679 -5.13713,-1.75326 -1.58929,-0.34646 -3.46756,-0.77963 -4.17391,-0.9626 -0.70635,-0.18296 -2.15117,-0.39841 -3.2107,-0.47876 -1.84786,-0.14014 -1.96704,-0.10264 -2.92216,0.91926 -0.54765,0.58595 -1.64568,2.29345 -2.44,3.79446 -1.42109,2.68534 -1.43753,2.75135 -1.02454,4.11714 0.23085,0.76342 0.50418,2.78616 0.60737,4.49498 0.37809,6.26074 0.43014,6.62631 0.99095,6.95978 0.29696,0.17659 0.98007,0.68228 1.51799,1.12375 1.91762,1.57381 7.13447,2.00793 9.21067,0.76646 z m -33.88457,-20.38501 c 1.10847,-0.97324 1.48832,-1.89316 0.78174,-1.89316 -0.56254,0 -2.60555,2.19702 -2.38096,2.56043 0.28659,0.46369 0.33337,0.44417 1.59922,-0.66727 z m 268.90752,-17.28034 c 2.7371,-0.14984 6.0398,-0.17343 7.3392,-0.0524 2.7491,0.256 2.971,0.0603 2.0277,-1.7886 -0.347,-0.68032 -0.7957,-1.84873 -0.9971,-2.59646 -0.4065,-1.50951 -0.1818,-1.40561 -4.6194,-2.13625 -2.1295,-0.3506 -4.3586,-0.41886 -8.99,-0.27527 -9.85113,0.30543 -15.93516,0.15891 -23.3653,-0.56269 -3.63455,-0.35298 -5.09522,-0.35156 -8.73757,0.009 l -4.37349,0.43233 -1.66995,1.69095 c -1.39528,1.41284 -1.6042,1.77018 -1.27019,2.17263 0.84448,1.01752 2.51838,1.2316 8.24939,1.05504 3.76699,-0.11605 6.66281,-0.0323 8.87817,0.25682 1.80826,0.23598 4.80478,0.52162 6.65896,0.63477 1.85418,0.11315 4.74381,0.41344 6.42141,0.66731 5.26447,0.79667 7.50817,0.87329 14.44817,0.49335 z m 9.4651,-11.02084 c 0.2997,-0.7505 1.1461,-2.10446 1.881,-3.00879 3.4548,-4.25142 5.2422,-7.0869 6.7334,-10.68155 2.695,-6.49687 3.576,-9.14762 4.867,-14.6441 0.4562,-1.94248 1.0259,-4.32642 1.2661,-5.29766 0.2401,-0.97124 0.7532,-3.35518 1.1403,-5.29766 0.387,-1.94247 0.9155,-4.54314 1.1743,-5.77926 0.2589,-1.23612 0.5582,-4.92466 0.6652,-8.19675 0.1623,-4.9629 0.1029,-6.36096 -0.3579,-8.43246 -0.7151,-3.21397 -3.3456,-9.11457 -4.8246,-10.8223 -1.385,-1.59909 -2.4659,-3.23383 -2.8136,-4.25505 -0.8488,-2.49277 -3.1492,-4.73491 -4.858,-4.73491 -0.2719,0 -0.5714,-0.12467 -0.6656,-0.27703 -0.094,-0.15237 -0.8612,-0.46795 -1.7046,-0.7013 -0.8433,-0.23334 -2.1835,-0.70937 -2.9781,-1.05783 -2.1899,-0.96027 -5.8907,-1.4988 -9.0207,-1.31265 -1.9706,0.11721 -3.1642,0.0275 -4.1739,-0.31378 -0.7778,-0.26286 -1.9198,-0.56239 -2.5379,-0.66563 -0.618,-0.10323 -1.5572,-0.31844 -2.0869,-0.47823 -0.9318,-0.28105 -9.61417,-1.11161 -10.91643,-1.04427 -6.37299,0.32956 -16.98459,3.05329 -19.58529,5.02705 -0.52976,0.40206 -1.54113,1.02556 -2.24749,1.38556 -0.70635,0.35999 -2.2237,1.57281 -3.37188,2.69515 -3.14504,3.07429 -8.38664,9.05427 -9.00531,10.27389 -0.30069,0.59277 -1.01796,3.46171 -1.59396,6.37542 -0.576,2.91371 -1.29882,6.09231 -1.60631,7.06355 -1.31815,4.1634 -1.39479,5.52352 -0.63293,11.23233 0.38924,2.91653 0.98514,6.38639 1.32419,7.71081 0.33909,1.32441 0.91024,4.12866 1.26919,6.23166 0.35899,2.10301 0.91271,4.34247 1.23051,4.97659 0.31776,0.63413 0.81799,2.36444 1.11164,3.84515 0.76931,3.87961 3.88726,10.95097 6.17575,14.00637 0.55067,0.73522 1.1826,1.90222 1.4043,2.59334 0.22167,0.69112 0.76257,1.73776 1.20202,2.32587 0.79539,1.0645 0.80846,1.06848 2.93015,0.89102 6.64118,-0.55549 10.88971,-0.57371 13.90742,-0.0597 2.99472,0.51013 7.3074,0.58051 24.02313,0.39208 3.8169,-0.043 9.0498,0.50123 10.4348,1.08531 1.2689,0.53513 1.686,0.33964 2.241,-1.05028 z m -439.56211,-1.55075 c 0.45611,-0.4301 -1.72945,-1.22376 -6.71907,-2.43994 -5.09308,-1.2414 -9.54992,-2.60722 -12.84281,-3.93572 -3.87937,-1.56511 -10.8945,-2.3575 -18.15633,-2.05084 l -4.67138,0.19727 -0.38548,2.03206 c -0.21201,1.11763 -0.38548,2.61102 -0.38548,3.31866 0,1.64749 0.12044,1.67739 6.26422,1.55514 5.64405,-0.11232 25.45399,0.30606 25.84181,0.54576 0.14647,0.0905 1.47083,0.30576 2.94303,0.47832 1.47217,0.17255 3.25462,0.44719 3.96098,0.61029 1.37935,0.31852 3.66447,0.14729 4.15051,-0.311 z m 8.87614,-4.0202 c 1.66478,-0.81252 3.74927,-1.76306 4.63221,-2.11233 1.61017,-0.63692 2.7291,-1.41957 2.7291,-1.9089 0,-0.14404 -0.93242,-1.00908 -2.07203,-1.92232 -1.13964,-0.91324 -2.29562,-2.13156 -2.56888,-2.7074 -0.55709,-1.17399 -1.21939,-6.52032 -1.23121,-9.93863 -0.0343,-9.91511 0.40895,-14.49458 1.98428,-20.50248 0.54903,-2.09375 0.99821,-4.12511 0.99821,-4.51412 0,-0.38901 0.27467,-1.85453 0.61038,-3.25672 0.33575,-1.40218 0.82766,-3.49209 1.09315,-4.64425 0.26553,-1.15215 0.99265,-3.18394 1.61588,-4.51508 0.62323,-1.33115 1.23365,-2.84466 1.35649,-3.36337 0.40246,-1.69923 3.33534,-6.14269 4.66072,-7.06117 1.37544,-0.95318 4.20076,-1.73533 6.29661,-1.74314 0.74006,-0.003 1.4304,-0.14225 1.53407,-0.30998 0.15883,-0.257 -1.49911,-4.94984 -2.3676,-6.70151 -0.14689,-0.29627 -0.46671,-1.18747 -0.71066,-1.98044 -0.40917,-1.33 -0.6178,-1.52916 -2.69105,-2.56901 -1.23612,-0.61998 -3.11438,-1.58854 -4.17391,-2.15236 -4.8751,-2.59425 -12.0018,-5.19821 -18.78261,-6.86281 -6.5105,-1.59824 -20.13159,-2.49337 -24.24081,-1.59302 -2.73516,0.5993 -5.66473,1.65008 -8.50836,3.05182 -2.39993,1.18303 -3.70884,1.7318 -7.49087,3.14069 -2.00873,0.74829 -6.31449,7.40355 -8.24955,12.75103 -0.96078,2.6551 -1.21028,3.93756 -2.56287,13.17375 -0.50428,3.44348 -1.21648,7.12776 -1.58267,8.18729 -1.03892,3.00603 -1.51148,7.95039 -1.0328,10.80616 0.21736,1.29675 0.74414,4.59718 1.17062,7.33431 1.40719,9.0312 2.71282,14.34795 4.06697,16.56142 0.95226,1.55654 1.69422,3.12362 2.25145,4.75526 0.23475,0.68739 0.78828,1.51967 1.23006,1.84951 0.74291,0.55466 1.10322,0.5752 4.79674,0.27343 2.76468,-0.22588 5.33311,-0.22053 8.34703,0.0174 5.02221,0.39647 6.45419,0.67248 9.21115,1.77544 1.09838,0.43942 3.3444,1.15403 4.99113,1.58803 1.64674,0.434 4.05214,1.15786 5.34531,1.60857 1.29318,0.45072 3.72169,1.10568 5.39674,1.45547 1.77427,0.37051 4.34431,1.22809 6.15713,2.05452 1.7114,0.7802 3.48333,1.42613 3.93761,1.4354 0.45428,0.009 2.18806,-0.64794 3.85284,-1.46046 z m 12.27429,-8.8772 c 2.10693,-2.60626 2.77646,-3.94405 5.26257,-10.51505 0.71878,-1.89976 1.42831,-4.44414 2.32792,-8.34783 0.74161,-3.21811 1.39682,-9.16972 1.66122,-15.0903 0.15379,-3.44348 0.35516,-7.34448 0.4475,-8.6689 0.68299,-9.79407 0.60352,-11.61805 -0.53265,-12.22611 -0.3989,-0.21349 -1.2839,-0.26108 -2.28769,-0.12302 -1.38359,0.19029 -1.90613,0.47958 -3.37413,1.86793 -0.95534,0.90352 -2.07103,2.22273 -2.47927,2.93155 -1.22938,2.13445 -3.66139,8.40245 -4.02208,10.36601 -0.1858,1.01154 -0.6075,3.35622 -0.93708,5.2104 -0.32957,1.85418 -0.88679,4.16589 -1.23827,5.13712 -1.41088,3.89902 -1.75859,6.57463 -1.79407,13.80602 -0.0356,7.23694 0.48908,11.58968 1.69547,14.06741 0.71946,1.47758 2.28028,2.62882 3.94814,2.91207 0.12059,0.0205 0.7157,-0.5768 1.32242,-1.3273 z"
       style="fill:#100e12;stroke-width:0.32107022" />
  </g>
</svg>
